<?xml version="1.0" encoding="UTF-8"?>
<svg width="24px" height="24px" viewBox="0 0 24 24" version="1.1" xmlns="http://www.w3.org/2000/svg" xmlns:xlink="http://www.w3.org/1999/xlink">
    <title>ic_avatar</title>
    <g id="ic_avatar" stroke="none" stroke-width="1" fill="none" fill-rule="evenodd">
        <circle id="Oval-3" fill="#D1BFC5" cx="12" cy="12" r="12"></circle>
        <path d="M11.9600899,15.4285714 C15.6726806,15.4285714 17.5841708,16.8889791 18.6103737,18.2134741 L18.798185,18.4677021 C18.8277264,18.5096477 18.8564081,18.5513447 18.8842608,18.5927395 L19.0334267,18.8237146 L19.1660891,19.046054 L19.2834911,19.2575911 L19.4337,19.5499025 L19.625356,19.952381 L19.6783446,20.0750715 C17.6797095,21.9761096 14.976109,23.1428571 12,23.1428571 C8.99486965,23.1428571 6.26758839,21.9532437 4.26338816,20.0192488 L4.29482377,19.952381 L4.49248643,19.5499025 L4.64506059,19.2575911 L4.76358262,19.046054 L4.89703286,18.8237146 L5.04668284,18.5927395 L5.13290169,18.4677021 L5.13290169,18.4677021 L5.32078448,18.2134741 C6.34666154,16.8889791 8.24749914,15.4285714 11.9600899,15.4285714 Z" id="路径" fill="#FFFFFF" opacity="0.897414435"></path>
        <path d="M11.9600899,5.57142857 C9.71150196,5.57142857 7.8886613,7.39426923 7.8886613,9.64285714 C7.8886613,11.8914451 9.71150196,13.7142857 11.9600899,13.7142857 C14.2086778,13.7142857 16.0315184,11.8914451 16.0315184,9.64285714 C16.0315184,7.39426923 14.2086778,5.57142857 11.9600899,5.57142857 Z" id="路径" fill="#FFFFFF" fill-rule="nonzero" opacity="0.897414435"></path>
    </g>
</svg>