<?xml version="1.0" encoding="UTF-8"?>
<svg width="24px" height="24px" viewBox="0 0 24 24" version="1.1" xmlns="http://www.w3.org/2000/svg" xmlns:xlink="http://www.w3.org/1999/xlink">
    <title>画板备份 2</title>
    <defs>
        <path d="M4.50003835,20.3621546 C3.00536296,20.3621546 1.78919706,19.1697137 1.75096521,17.6842565 L1.75100673,10.5574397 C1.75830195,10.5522252 1.76549074,10.5467901 1.77256405,10.5411342 L1.80510598,10.5127508 L3.2499846,9.1401546 L3.25003835,17.6121546 C3.25003835,18.2843433 3.78061503,18.8326091 4.44581595,18.8609997 L4.50003835,18.8621546 L7,18.862 L7.00003835,14.6121546 C7.00003835,12.6078954 8.5723994,10.9708809 10.5508798,10.8673526 L10.7500384,10.8621546 C12.8211062,10.8621546 14.5000384,12.5410868 14.5000384,14.6121546 L14.5,18.862 L17.0000384,18.8621546 C17.672227,18.8621546 18.2204929,18.3315779 18.2488835,17.666377 L18.2500384,17.6121546 L18.2499846,9.1401546 L19.6556636,10.4746543 L19.6882055,10.5030377 C19.7078871,10.5187754 19.7284627,10.5328031 19.7497377,10.5451257 L19.7500384,17.6121546 C19.7500384,19.10683 18.5575975,20.3229959 17.0721402,20.3612277 L17.0000384,20.3621546 L4.50003835,20.3621546 Z M10.7500384,12.3621546 C9.50739767,12.3621546 8.50003835,13.3695139 8.50003835,14.6121546 L8.50003835,18.8621546 L13.0000384,18.8621546 L13.0000384,14.6121546 C13.0000384,13.4212906 12.0748768,12.4465097 10.9040872,12.3673454 Z M13.332812,1.03125212 L21.2665636,8.56831616 L21.3356316,8.64337437 C21.5668312,8.93151394 21.5552664,9.35334861 21.2937511,9.62862783 C21.0084618,9.92893243 20.533744,9.94110468 20.2334394,9.65581531 L12.2996878,2.11875127 L12.1836944,2.01582101 C11.3137184,1.29530912 10.0309806,1.32961921 9.20031526,2.11875127 L1.26656364,9.65581531 L1.18806444,9.72094593 C0.8884549,9.93707505 0.467767223,9.90390704 0.206251969,9.62862783 C-0.0790373989,9.32832323 -0.0668651501,8.85360553 0.233439448,8.56831616 L8.16719106,1.03125212 L8.31461222,0.898335184 C9.76503933,-0.342222927 11.9336863,-0.29791728 13.332812,1.03125212 Z" id="path-1"></path>
    </defs>
    <g id="画板备份-2" stroke="none" stroke-width="1" fill="none" fill-rule="evenodd">
        <g id="Public/ic_favourites" transform="translate(1.249962, 1.637845)">
            <mask id="mask-2" fill="white">
                <use xlink:href="#path-1"></use>
            </mask>
            <g id="形状结合" fill-rule="nonzero"></g>
            <g id="Symbol/color-light/colorPrimary" mask="url(#mask-2)" fill="#182431">
                <g transform="translate(-1.249962, -1.637845)" id="color/#000000">
                    <rect x="0" y="0" width="24" height="24"></rect>
                </g>
            </g>
        </g>
    </g>
</svg>