<?xml version="1.0" encoding="UTF-8"?>
<svg width="18px" height="18px" viewBox="0 0 18 18" version="1.1" xmlns="http://www.w3.org/2000/svg" xmlns:xlink="http://www.w3.org/1999/xlink">
    <title>ic_location</title>
    <g id="ic_location" stroke="none" stroke-width="1" fill="none" fill-rule="evenodd">
        <path d="M9,1.125 C12.7255992,1.125 15.75,3.97152106 15.75,7.48794714 C15.75,8.85739936 15.3175986,10.1955193 14.5150263,11.5479292 C14.0153641,12.389907 13.4149705,13.1826336 12.6200896,14.0877883 L12.6200896,14.0877883 L12.425536,14.3072668 L12.223226,14.5315592 C12.1544647,14.6071809 12.0843625,14.6836876 12.0128717,14.7611623 C11.8534611,14.9339157 11.6744611,15.1154429 11.4758064,15.3058637 L11.4758064,15.3058637 L11.323129,15.4503487 C11.218886,15.5477863 11.1097252,15.6474548 10.9956384,15.749369 L10.9956384,15.749369 L10.8208129,15.9039267 L10.8208129,15.9039267 L10.7306273,15.9824724 L10.5447069,16.1421043 C10.4814997,16.1958804 10.4170585,16.2502227 10.3513823,16.3051331 L10.3513823,16.3051331 L10.1506473,16.4715699 C9.51381941,16.9953326 8.5774697,17.0116027 7.91224151,16.505769 L7.91224151,16.505769 L7.86034729,16.4642735 L7.61888418,16.2622556 L7.46991659,16.1364499 L7.25878925,15.9563098 L7.06237587,15.786368 L6.88059219,15.6265302 L6.71335391,15.4767018 L6.60990089,15.3823304 L6.51285007,15.2923378 L6.42217649,15.2066959 L6.33785516,15.1253769 L6.25986112,15.0483526 C6.247388,15.0358716 6.23517748,15.0235683 6.22322903,15.0114423 L6.22322903,15.0114423 L6.1546791,14.9408078 L5.98544348,14.7596503 L5.79848063,14.5562523 C5.76769958,14.5224835 5.73710852,14.4887793 5.70670786,14.4551382 L5.70670786,14.4551382 L5.52659184,14.2540401 L5.35106473,14.0543956 L5.35106473,14.0543956 L5.2650281,13.9550987 L5.09642087,13.7575153 L4.93245125,13.5612264 C3.18130447,11.4415455 2.25,9.5385402 2.25,7.48794714 C2.25,3.9972674 5.13820524,1.18177314 8.80548952,1.1257987 L8.80548952,1.1257987 L8.91238682,1.125 L9,1.125 Z M9,2.1750495 L8.91673791,2.1750495 L8.81854978,2.17578172 C5.75331343,2.22258091 3.34459459,4.57065991 3.34459459,7.48794714 C3.34459459,9.52977474 4.47508999,11.507818 6.61849342,13.8606581 L6.61849342,13.8606581 L6.80203469,14.0603916 L6.96582482,14.2357603 C6.97500268,14.2453723 6.98443992,14.2551699 6.99413622,14.265153 L6.99413622,14.265153 L7.05542,14.3272727 L7.12290497,14.3938233 L7.19657498,14.4647868 L7.3186416,14.5794671 L7.45453367,14.7039756 L7.60419669,14.8382519 L7.71159561,14.9331661 L7.88408898,15.0835873 L8.07020786,15.2436149 L8.26989774,15.4131882 L8.56943647,15.6644373 L8.60150503,15.6901191 C8.84700158,15.8767312 9.19961436,15.8706042 9.43820387,15.6743749 L9.43820387,15.6743749 L9.62977266,15.5155538 L9.81394105,15.3602949 C9.87409639,15.3091369 9.93301733,15.2585745 9.99070283,15.2086094 L9.99070283,15.2086094 L10.1600519,15.0605086 L10.3219822,14.9160037 L10.4764876,14.7751059 L10.623562,14.6378264 C10.838597,14.4346265 11.0285315,14.2436765 11.1932725,14.0651466 C11.2243321,14.0314874 11.2551789,13.9979376 11.2858131,13.9644952 L11.2858131,13.9644952 L11.4670682,13.7651145 C11.4968526,13.7320939 11.5264247,13.6991767 11.5557845,13.6663609 L11.5557845,13.6663609 L11.7293993,13.4706671 L11.8979295,13.27731 C12.0085898,13.1491628 12.1158653,13.0225089 12.2197658,12.8972192 L12.2197658,12.8972192 L12.3730864,12.7102916 C13.9061357,10.8199349 14.6554054,9.2318217 14.6554054,7.48794714 C14.6554054,4.5559894 12.1256976,2.1750495 9,2.1750495 L9,2.1750495 Z M9,5.92699168 C9.90679186,5.92699168 10.6418919,6.63218758 10.6418919,7.50209081 C10.6418919,8.37199406 9.90679186,9.07718995 9,9.07718995 C8.09320814,9.07718995 7.35810811,8.37199406 7.35810811,7.50209081 C7.35810811,6.63218758 8.09320814,5.92699168 9,5.92699168 Z" id="path-1" fill="#000000" fill-rule="nonzero"></path>
    </g>
</svg>