<?xml version="1.0" encoding="UTF-8"?>
<svg width="24px" height="24px" viewBox="0 0 24 24" version="1.1" xmlns="http://www.w3.org/2000/svg" xmlns:xlink="http://www.w3.org/1999/xlink">
    <title>ic_next_off</title>
    <defs>
        <path d="M5.45724438,13.7499686 L11.4267767,19.7196699 L11.460518,19.7556673 C11.7192013,20.0502619 11.7079542,20.4991526 11.4267767,20.7803301 C11.1455992,21.0615076 10.6967085,21.0727547 10.4021139,20.8140714 L10.3661165,20.7803301 L3.33574438,13.7499686 L5.45724438,13.7499686 Z M10.3661165,3.21966991 C10.6590097,2.9267767 11.1338835,2.9267767 11.4267767,3.21966991 C11.7079542,3.5008474 11.7192013,3.94973814 11.460518,4.24433269 L11.4267767,4.28033009 L4.45694661,11.25 L21.1464466,11.25 C21.5458668,11.25 21.8723618,11.56223 21.8951734,11.9559318 L21.8964466,12 C21.8964466,12.3994202 21.5842166,12.7259152 21.1905148,12.7487268 L21.1464466,12.75 L3.25,12.75 C2.98478351,12.75 2.7304296,12.6446432 2.54289322,12.4571068 C2.1653864,12.0796 2.15280284,11.4753589 2.50514254,11.0827365 L2.54289322,11.0428932 L10.3661165,3.21966991 Z" id="path-1"></path>
    </defs>
    <g id="ic_next_off" stroke="none" stroke-width="1" fill="none" fill-rule="evenodd">
        <mask id="mask-2" fill="white">
            <use xlink:href="#path-1"></use>
        </mask>
        <use id="形状结合" fill-opacity="0.4" fill="#182431" fill-rule="nonzero" transform="translate(12.073223, 12.000000) scale(-1, 1) translate(-12.073223, -12.000000) " xlink:href="#path-1"></use>
    </g>
</svg>