<?xml version="1.0" standalone="no"?><!DOCTYPE svg PUBLIC "-//W3C//DTD SVG 1.1//EN" "http://www.w3.org/Graphics/SVG/1.1/DTD/svg11.dtd"><svg t="1687436746162" class="icon" viewBox="0 0 1024 1024" version="1.1" xmlns="http://www.w3.org/2000/svg" p-id="1811" xmlns:xlink="http://www.w3.org/1999/xlink" width="200" height="200"><path d="M526.75 512.93m-389.4 0a389.4 389.4 0 1 0 778.8 0 389.4 389.4 0 1 0-778.8 0Z" fill="#C3E4EA" p-id="1812"></path><path d="M511.33 931.92A419.32 419.32 0 0 1 111 388.94a8.29 8.29 0 1 1 15.84 4.9 402.51 402.51 0 0 0-17.91 119.08c0 221.89 180.52 402.41 402.41 402.41a402.89 402.89 0 0 0 114.21-16.43 8.29 8.29 0 0 1 4.7 15.91 419.49 419.49 0 0 1-118.92 17.11zM783.17 829.09a8.29 8.29 0 0 1-5.49-14.51 402.78 402.78 0 0 0 136.06-301.65c0-221.89-180.52-402.41-402.41-402.41-107.49 0-208.54 41.86-284.55 117.86a8.29 8.29 0 0 1-11.73-11.73A419 419 0 1 1 788.66 827a8.26 8.26 0 0 1-5.49 2.09z" fill="" p-id="1813"></path><path d="M232.08 596.33c-20.8 11.48-8.42 36.85 4 49.14 23.73 23.46 55.15 42.35 85.86 56.26 36.56 16.57 75.92 26.38 112.44 43.39A639.07 639.07 0 0 1 499.2 780c18.36 11.29 34.82 25 53.86 35.37 37.29 20.22 87.63 34.78 130.62 27.18 6.18-1.09 12.92-3.26 15.8-8.62 6-11.17-7.09-32.18-13-41.95" fill="#D13F32" p-id="1814"></path><path d="M662.06 865.43c-34.89 0-74.71-11.18-111.08-31.73-11.53-6.51-22.2-14.32-32.51-21.86-7.31-5.35-14.88-10.88-22.58-15.82a638.83 638.83 0 0 0-65.36-36.64c-18.86-9.16-38.93-16.49-58.35-23.58-18.55-6.78-37.74-13.78-56-22.42-25.24-11.92-61.19-32.16-89.08-60.89-9.81-10.11-18.81-26.78-16.79-41.22 1.19-8.49 6-15.4 14-20a5.81 5.81 0 1 1 5.69 10.1c-4.87 2.8-7.57 6.57-8.27 11.52-1.41 10 5.79 23.45 13.62 31.52 26.67 27.48 61.33 47 85.7 58.47 17.82 8.42 36.76 15.33 55.07 22 19.69 7.19 40 14.62 59.44 24a650.62 650.62 0 0 1 66.55 37.3c8 5.13 15.72 10.77 23.17 16.22 10 7.35 20.44 14.95 31.37 21.13 43.41 24.53 91.65 35.07 129 28.17 6.57-1.21 10.48-3.2 12-6.09 4.52-8.79-8.05-30.24-12.78-38.31l-0.35-0.59a5.81 5.81 0 1 1 10-5.87l0.34 0.59c7.18 12.24 20.54 35 13.09 49.5-4.82 9.36-16.39 11.49-20.19 12.2a142.53 142.53 0 0 1-25.7 2.3z" fill="" p-id="1815"></path><path d="M244.29 623c-16.77-11.77-19.94-27.65-23.25-47.73a42.65 42.65 0 0 1 0.84-17.19c3.8-13.22 22.75-14 34.09-13.16 16.19 1.18 31.25 8.15 46 14.36l62.9 26.52 164.82 69.5L668.8 714c16.13 6.8 17.68 12.62 29.71 25.63 9.08 9.82 13.68 18.79 13.32 32.51-0.52 19.86-5 42.82-26.9 52.89-13.74 6.3-23.58 10.18-38.56 8-20.26-3-44.18-6.19-61.63-17.36" fill="#D13F32" p-id="1816"></path><path d="M659.43 840a114.19 114.19 0 0 1-16.63-1.29l-1.71-0.25c-21.48-3.16-45.82-6.74-64.48-18.82a5.81 5.81 0 0 1 6.31-9.75c16.54 10.7 39.55 14.09 59.86 17.08l1.72 0.25c17.32 2.55 31.56 0.91 42.35-4.88 17.5-9.4 27.83-35.15 31.36-54.34 2.07-11.25-0.94-20.31-10.06-30.29-9.44-10.33-21.79-15.32-34.86-20.61-2.82-1.14-5.74-2.32-8.66-3.56L284.32 551.33l-4.18-1.79c-13.44-5.78-27.33-11.76-41.61-12.81-7.84-0.58-26.38-0.8-29.33 9.59-1.38 4.85-0.29 10.58 0.84 15.57 5.48 24.16 15.12 41.27 28.65 50.88a5.81 5.81 0 0 1-6.72 9.47c-15.94-11.31-27.12-30.75-33.26-57.78-1.56-6.86-2.72-14.18-0.69-21.31 3.78-13.29 18.45-19.69 41.35-18 16.23 1.19 31 7.56 45.35 13.73l4.15 1.78 380.3 162.16c2.82 1.2 5.68 2.36 8.46 3.48 13.7 5.54 27.86 11.26 39.08 23.54 11.54 12.62 15.64 25.4 12.91 40.23-4.19 22.76-16.18 51.13-37.28 62.47-9.21 4.94-20.24 7.46-32.91 7.46z" fill="" p-id="1817"></path><path d="M676.49 814.46c-43.44 0-82.68-27.61-106.59-44.43-5.41-3.8-10.08-7.09-13.85-9.41-9.1-5.6-37.22-14.9-69.79-25.67-42.47-14-95.33-31.52-132.12-49.43C260 639.71 236.24 588.21 235.28 586a5.93 5.93 0 0 1 10.82-4.84c0.25 0.55 23.49 50 113.22 93.65 36.08 17.56 88.52 34.9 130.66 48.83 34.64 11.45 62 20.5 72.28 26.83 4.08 2.51 8.89 5.9 14.46 9.81 25.38 17.86 63.74 44.84 105.6 42.08a5.93 5.93 0 1 1 0.78 11.83q-3.33 0.27-6.61 0.27z" fill="" p-id="1818"></path><path d="M403.34 261.34c-10.29-9.48-22.79-15.7-32.23-26.9A50.76 50.76 0 0 1 361 217c-6.1-19.56 8-38.77 21.67-48.3 10.94-7.6 23.89-9 36.27-6.39 19.39 4.13 67.35 19.48 79.59 88s-71.94 35.42-71.94 35.42c-6.34-6.69-12.84-13.23-19-20.09a57.543 57.543 0 0 0-4.25-4.3z" fill="#FBCE51" p-id="1819"></path><path d="M462.38 299.44c-21.81 0-44-7.39-45.41-7.88a5.81 5.81 0 0 1-2-1.21q-3.49-3.18-7-6.33c-4.68-4.2-9.51-8.54-14.16-13a63.738 63.738 0 0 0-4.31-3.75 155.94 155.94 0 0 0-14.07-9.6c-7.58-4.79-15.43-9.74-22.14-16.62-6.07-6.23-10.14-12.35-12.44-18.73-7.63-21.15 7.79-41.93 26.46-53.15 12.49-7.5 27.77-9.87 44.18-6.85 28.88 5.32 79.32 23.91 92.72 88.67 3.58 17.33 0.6 30.36-8.87 38.73-8.34 7.35-20.61 9.72-32.96 9.72z m-40.55-18.5c14.45 4.68 51.27 12.9 65.75 0.09 6.12-5.41 7.86-14.72 5.18-27.67-12-58.09-57.44-74.81-83.45-79.6-9.47-1.75-23.43-2.23-36.1 5.38-14.12 8.48-26.87 24.38-21.51 39.25 1.73 4.79 4.94 9.55 9.83 14.56 5.76 5.91 12.69 10.28 20 14.91a167.05 167.05 0 0 1 15.1 10.33c1.86 1.48 3.53 2.94 5.11 4.44 4.51 4.31 9.27 8.59 13.88 12.73q3.13 2.79 6.21 5.58z" fill="" p-id="1820"></path><path d="M273.72 620.9s-1.13-46.3-15.81-74.53-32.75-83.57-26-127.61 66.35-148.5 148.5-166.29S532 256.7 551.53 264.33s69.45 30.49 90.62 30.49 80.46-4.23 90.62 13.55-8.47 65.22 11.86 85.54 88.08 29.64 98.25 61.83-2.26 116.6-14.68 129-107.28 80.18-107.28 80.18 51.95 10.73 44.61 41.78c-5.61 23.72-33.62 23.39-46.54 21.91a2.48 2.48 0 0 0-2.31 3.89c2.21 3.13 4.07 7.08 2 9.76-4 5.08-62.11 71.71-96.55 53.08s-34.16-31.34-77.36-44S418.55 713.21 383 694.58s-103.35-54.2-109.28-73.68z" fill="#C3E4EA" p-id="1821"></path><path d="M289.15 628.62s6.1-48.3-6-76.44-26.21-79-19.89-121.71 61.93-143.94 138.6-161.17 141.47 4.1 159.65 11.49 64.81 29.55 84.57 29.55 75.08-4.1 84.57 13.13-7.9 63.21 11.07 82.91 82.2 28.73 91.68 59.92-2.11 113-13.7 125-100.11 77.71-100.11 77.71 48.48 10.4 41.63 40.5c-5.23 23-31.37 22.67-43.43 21.24a2.4 2.4 0 0 0-2.16 3.77c2.07 3 3.8 6.86 1.85 9.46-3.69 4.93-58 69.5-90.1 51.44s-31.88-30.37-72.19-42.69-117.76-36.94-151-55-109.51-50.23-115.04-69.11z" fill="#FBCE51" p-id="1822"></path><path d="M635.69 804.5a33.81 33.81 0 0 1-16.34-4 197.48 197.48 0 0 1-29.52-19.68c-11.81-9.15-21.14-16.37-46.71-23.89-55.84-16.42-129.42-39.67-162.83-57.17-51-26.73-106-56.93-112.12-77.14l-0.23-0.76v-0.79c0-0.45-1.28-45.31-15.16-72-12.48-24-34.08-82.28-26.56-131.17 3.29-21.37 19.13-59.23 47.12-95.65 22.08-28.74 58.38-65.15 105.89-75.43 87.9-19 160.72 6.76 174.43 12.12 3.76 1.47 8.56 3.47 14.12 5.78 21.84 9.09 58.4 24.31 74.39 24.31 2.88 0 6.51-0.08 10.7-0.17 37.7-0.84 75.31-0.25 85 16.65 5.13 9 4.26 22.63 3.34 37.1-1.11 17.47-2.37 37.28 7.58 47.22 7.22 7.22 22.17 13.32 38 19.79 25.65 10.48 54.72 22.35 61.68 44.4 4.82 15.27 5.33 43.09 1.35 74.4-3 23.82-9.2 52.21-17.46 60.47-10.36 10.31-73.6 56.03-98.36 73.78 10.72 3.73 25.85 10.79 33.33 22.52a28.77 28.77 0 0 1 3.8 22.86c-4.39 18.58-21.27 28.18-46.67 26.87 1.92 5.41 0.21 9-1.27 10.93a260.7 260.7 0 0 1-37.87 36.46c-19.03 14.77-35.67 22.19-49.63 22.19zM279.5 619.83c1.73 4.3 9.53 14 40.79 33.28 22.17 13.68 48.18 27.31 65.39 36.32 34.29 18 115.41 43 160.71 56.32 27.67 8.14 38.27 16.35 50.54 25.86a185 185 0 0 0 27.94 18.65c15.2 8.22 37.42-4.78 53.39-17.13a255 255 0 0 0 35.44-33.94 11.42 11.42 0 0 0-1.77-3.3 8.29 8.29 0 0 1 7.71-13c13.12 1.5 35.8 1.23 40.22-17.48a17.32 17.32 0 0 0-2.29-13.94c-7.83-12.28-30-19.19-37.84-20.82l-13-2.69 10.82-7.73c32.67-23.34 97-70 106.55-79.56 4.07-4.07 10.42-24.29 14.16-53.72 3.72-29.29 3.37-55.89-0.91-69.44-5.32-16.85-31.71-27.63-55-37.14-16.94-6.92-32.95-13.46-41.82-22.33-13.66-13.65-12.22-36.24-11-56.17 0.77-12.12 1.56-24.65-1.84-30.6-1.58-2.76-7.45-7.73-29-9.92-15.26-1.55-32.8-1.16-45.61-0.88-4.26 0.1-7.94 0.18-11 0.18-18.31 0-54.74-15.17-78.85-25.2-5.5-2.29-10.25-4.26-13.89-5.69-13.16-5.15-83.1-29.91-167.74-11.59-44.08 9.54-78.24 44-99.14 71.16-26.59 34.6-41.89 71.08-44.85 90.33-7.06 45.92 13.52 101.22 25.39 124 14.21 27.22 16.26 69.23 16.5 76.17z" fill="" p-id="1823"></path><path d="M701.3 713.13s30 6 43.54-2.88c8.94-5.84 14.4-19.76 10.82-22.75s-54.36 25.63-54.36 25.63z" fill="#D13F32" p-id="1824"></path><path d="M722 718.78a121.51 121.51 0 0 1-21.43-2 3.7 3.7 0 0 1-1.09-6.84c0.13-0.07 12.91-7.26 26-14 7.71-4 14-7 18.75-9.06 8.32-3.58 11.55-4.09 13.83-2.19 1.22 1 2.64 3 2.42 6.8-0.38 6.51-5.68 16.73-13.59 21.88-6.53 4.21-16.12 5.41-24.89 5.41z m-9.18-7.78c10 0.87 23 0.73 30-3.81 6.34-4.14 9.88-12.29 10.26-15.83C747 693.11 730 701.62 712.82 711z" fill="" p-id="1825"></path><path d="M681.11 409.16s10.16 55.05 27.95 54.21 55.9-12.7 71.14-8.47 92.32 45.74 52.51 135.51S715 703.05 708.21 704.75" fill="#FBCE51" p-id="1826"></path><path d="M708.21 710.55a5.81 5.81 0 0 1-1.4-11.44c0.88-0.22 21.88-5.6 48-23.31 32-21.66 56.37-51.18 72.59-87.75 13.22-29.82 14.31-56.83 3.22-80.3-14.67-31.06-45.21-45.38-52-47.27-8.17-2.27-26.93 1.41-42 4.37-10.38 2-20.18 4-27.31 4.3-10.41 0.51-19-9.54-26.41-30.67a215.12 215.12 0 0 1-7.53-28.28 5.81 5.81 0 0 1 11.42-2.11 207 207 0 0 0 7.12 26.67c5.89 16.85 11.58 22.79 14.73 22.79h0.12c6.28-0.3 15.67-2.14 25.62-4.1 18-3.53 36.53-7.17 47.35-4.17 8.29 2.3 42.67 18.13 59.37 53.5 12.59 26.65 11.54 56.92-3.11 90-17.11 38.58-42.91 69.76-76.69 92.66-27.82 18.86-50.75 24.72-51.72 25a5.82 5.82 0 0 1-1.37 0.11z" fill="" p-id="1827"></path><path d="M787.75 470.7a46.53 46.53 0 0 0-3.91 3.83c-14.73 16.19-31.18 42.4-2.52 53.37 13.62 5.22 30.32 10.26 42-1.67 13.78-14 6.3-42 1.39-58.46a7.49 7.49 0 0 0-1.64-3.3 7.13 7.13 0 0 0-3.52-1.59c-12.14-2.8-22.87 0.07-31.8 7.82z" fill="" p-id="1828"></path><path d="M805 540c-10.18 0-20-3.74-26-6.07-10.72-4.1-17.19-10.56-19.24-19.18-3.65-15.35 8.47-32.74 19.28-44.62a53.44 53.44 0 0 1 4.45-4.36c10.64-9.24 23.63-12.43 37.54-9.24a13.12 13.12 0 0 1 6.63 3.3 13.61 13.61 0 0 1 3.3 6.06c4.24 14.19 14.17 47.41-3 64.86C821.13 537.76 813 540 805 540z m5.57-71.72c-6.85 0-13 2.41-18.6 7.29a40.22 40.22 0 0 0-3.36 3.3c-12.13 13.33-18.05 25.31-16.25 32.88 1 4.26 4.69 7.55 11.25 10.06 15.24 5.84 27 8 35.1-0.16 11.78-12 3.38-40.06-0.2-52l-0.11-0.35-0.29-0.07a33.58 33.58 0 0 0-7.5-0.92z m-22.86 2.39z m31.29-1.21zM705.67 679.34s-0.85 47.43-18.63 61.83" fill="" p-id="1829"></path><path d="M687 747.94a6.78 6.78 0 0 1-4.27-12c12.51-10.13 15.92-45.2 16.12-56.68a6.78 6.78 0 1 1 13.55 0.24c-0.09 5.18-1.47 51-21.14 67a6.75 6.75 0 0 1-4.26 1.44z" fill="" p-id="1830"></path><path d="M601.300084 542.660315a20.33 12.7 68 1 0 23.55047-9.515007 20.33 12.7 68 1 0-23.55047 9.515007Z" fill="" p-id="1831"></path><path d="M709.732012 433.777331a19.23 11.52 80.19 1 0 22.703113-3.92559 19.23 11.52 80.19 1 0-22.703113 3.92559Z" fill="" p-id="1832"></path><path d="M528.65 498a5.81 5.81 0 0 1-5.79-5.43c-0.18-2.87-1.59-28.37 5.83-41.37 3-5.23 7.34-10.18 11.19-14.54 3.22-3.66 8.61-9.78 8.5-11.86a5.81 5.81 0 1 1 11.35-2.47c1.66 7.47-4.27 14.21-11.13 22-3.65 4.14-7.42 8.43-9.82 12.63-4.83 8.46-4.76 28-4.33 34.86A5.81 5.81 0 0 1 529 498zM684 328a122.5 122.5 0 0 1-15.53-1.2 5.81 5.81 0 0 1 1.5-11.52c8 1 16.67 1.39 19.08 0.79 7-4.9 26-10.87 40.69 1.68a5.81 5.81 0 0 1-7.54 8.83c-11.83-10.11-26.49-1-26.62-0.9-0.88 0.72-3.06 2.32-11.58 2.32z" fill="" p-id="1833"></path><path d="M263.56 415.08c-32.16-6-67.16-20.14-80.87-52.19-8.49-19.83-7.81-47.84 8.95-62.94 16.59-14.94 40.73-20.94 62.68-18.5 35.52 4 60.08 34.06 77.85 62.48" fill="#C3E4EA" p-id="1834"></path><path d="M272.19 411.63c-26.8-6.18-49.51-17.51-64.59-50.49-9-19.6-6-50.37 9.55-64 16.61-14.59 33.49-18.22 51.78-15.68 29.6 4.1 48.42 30.62 63.23 60.07" fill="#FBCE51" p-id="1835"></path><path d="M263.57 421a6 6 0 0 1-1.09-0.1c-43.64-8.09-73.11-27.35-85.24-55.69-9.25-21.62-8.64-52.5 10.43-69.67 17-15.32 42.16-22.79 67.3-20 39.93 4.45 66 39.36 82.22 65.23a5.93 5.93 0 1 1-10.05 6.28c-14.86-23.78-38.65-55.85-73.48-59.73-21.5-2.39-43.74 4.12-58.05 17-14.77 13.31-14.87 38.89-7.47 56.2 13.26 31 48.92 43.58 76.5 48.69a5.93 5.93 0 0 1-1.07 11.79zM636.43 781.09c-26.91 0-54.7-7.62-56-8a5.81 5.81 0 0 1 3.11-11.19c0.36 0.1 36.05 9.88 63.8 7.06 27.44-2.79 62.19-25.26 62.53-25.49a5.81 5.81 0 0 1 6.35 9.73c-1.51 1-37.43 24.24-67.71 27.31a119.63 119.63 0 0 1-12.08 0.58z" fill="" p-id="1836"></path></svg>