<?xml version="1.0" encoding="UTF-8"?>
<svg width="24px" height="24px" viewBox="0 0 24 24" version="1.1" xmlns="http://www.w3.org/2000/svg" xmlns:xlink="http://www.w3.org/1999/xlink">
    <title>ic/public/add</title>
    <defs>
        <path d="M12.75,21.25 C12.75,21.6642136 12.4142136,22 12,22 C11.5857864,22 11.25,21.6642136 11.25,21.25 L11.25,12.75 L2.75,12.75 C2.33578644,12.75 2,12.4142136 2,12 C2,11.5857864 2.33578644,11.25 2.75,11.25 L11.25,11.25 L11.25,2.75 C11.25,2.33578644 11.5857864,2 12,2 C12.4142136,2 12.75,2.33578644 12.75,2.75 L12.75,21.25 Z M21.25,11.25 C21.6642136,11.25 22,11.5857864 22,12 C22,12.4142136 21.6642136,12.75 21.25,12.75 L13.75,12.75 L13.75,11.25 L21.25,11.25 Z" id="path-1"></path>
    </defs>
    <g id="Demo-Sample" stroke="none" stroke-width="1" fill="none" fill-rule="evenodd">
        <g id="画板备份-2" transform="translate(-221.000000, -230.000000)">
            <g id="ic/public/add" transform="translate(221.000000, 230.000000)">
                <mask id="mask-2" fill="white">
                    <use xlink:href="#path-1"></use>
                </mask>
                <g id="形状结合"></g>
                <g id="编组" mask="url(#mask-2)" fill="#000000" fill-opacity="0.901960784">
                    <g id="Symbol/color-light/colorPrimary">
                        <rect id="color/#000000" x="0" y="0" width="24" height="24"></rect>
                    </g>
                </g>
            </g>
        </g>
    </g>
</svg>