<?xml version="1.0" encoding="UTF-8"?>
<svg width="41px" height="40px" viewBox="0 0 41 40" version="1.1" xmlns="http://www.w3.org/2000/svg" xmlns:xlink="http://www.w3.org/1999/xlink">
    <title>Grid/item/entrances 6</title>
    <g id="Demo-Sample" stroke="none" stroke-width="1" fill="none" fill-rule="evenodd">
        <g id="画板备份" transform="translate(-340.000000, -234.000000)">
            <g id="编组" transform="translate(340.066667, 234.000000)">
                <path d="M20.9055074,6.93496672 C21.5272682,7.04285638 22.0607501,7.20684867 23.5233738,7.84123987 L35.5407174,13.0535834 C36.5540728,13.4931111 37.019252,14.6709056 36.5797242,15.684261 C36.3777672,16.149884 36.0063404,16.5213108 35.5407174,16.7232678 L23.5233738,21.9356113 C22.0607501,22.5700025 21.5272682,22.7339948 20.9055074,22.8418844 C20.2837465,22.9497741 19.6931046,22.9497741 19.0713438,22.8418844 C18.449583,22.7339948 17.916101,22.5700025 16.4534773,21.9356113 L4.43613372,16.7232678 C3.42277834,16.28374 2.95759916,15.1059455 3.39712694,14.0925901 C3.59908396,13.6269672 3.97051073,13.2555404 4.43613372,13.0535834 L16.4534773,7.84123987 C17.916101,7.20684867 18.449583,7.04285638 19.0713438,6.93496672 C19.6931046,6.82707706 20.2837465,6.82707706 20.9055074,6.93496672 Z M21.3679318,14.1911239 L17.9884256,14.1911239 L17.8584116,14.1973038 C17.1738249,14.2627201 16.6384256,14.8393974 16.6384256,15.5411239 C16.6384256,16.2867083 17.2428412,16.8911239 17.9884256,16.8911239 L17.9884256,16.8911239 L21.3679318,16.8911239 L21.4979458,16.884944 C22.1825325,16.8195277 22.7179318,16.2428504 22.7179318,15.5411239 C22.7179318,14.7955395 22.1135162,14.1911239 21.3679318,14.1911239 L21.3679318,14.1911239 Z" id="形状结合" fill="#1A7BFF" opacity="0.831380208"></path>
                <path d="M29.9559012,18.1385877 C30.2832995,18.3117312 30.4882017,18.6516402 30.4884256,19.0220026 L30.4884256,26.3421843 C30.4880239,27.973014 29.4976025,29.4403057 27.9849448,30.0497916 C24.5293214,31.4440131 21.8486194,32.1411239 19.9428387,32.1411239 C18.0404908,32.1411239 15.3860376,31.4465222 11.979479,30.0573189 C10.4732876,29.444926 9.48877679,27.9809913 9.48842558,26.3550651 L9.48842558,19.0335954 C9.48842902,18.658202 9.69867224,18.3144315 10.0324309,18.1425997 C12.2695393,17.0028064 14.4837385,16.2375492 16.6750284,15.8468281 C16.8126202,16.4459208 17.3485315,16.8911239 17.9884256,16.8911239 L17.9884256,16.8911239 L21.3679318,16.8911239 L21.4979458,16.884944 C22.1214087,16.8253685 22.6211355,16.3417528 22.7054022,15.7258208 C25.1239861,16.0607671 27.5413412,16.8657954 29.9559012,18.1385877 Z" id="形状结合" fill="#4191FF" opacity="0.699999988" style="mix-blend-mode: multiply;"></path>
                <path d="M33.7986514,18.2370784 L33.8366914,18.2370784 C34.3889762,18.2370784 34.8366914,18.6847937 34.8366914,19.2370784 L34.8366914,26.529236 C34.8366914,27.0815207 34.3889762,27.529236 33.8366914,27.529236 L33.7986514,27.529236 C33.2463666,27.529236 32.7986514,27.0815207 32.7986514,26.529236 L32.7986514,19.2370784 C32.7986514,18.6847937 33.2463666,18.2370784 33.7986514,18.2370784 Z" id="矩形" fill="#1A7BFF" opacity="0.831380208" transform="translate(33.817671, 22.883157) scale(1, -1) translate(-33.817671, -22.883157) "></path>
            </g>
        </g>
    </g>
</svg>