<?xml version="1.0" encoding="UTF-8"?>
<svg width="41px" height="40px" viewBox="0 0 41 40" version="1.1" xmlns="http://www.w3.org/2000/svg" xmlns:xlink="http://www.w3.org/1999/xlink">
    <title>Grid/item/entrances 5</title>
    <g id="Demo-Sample" stroke="none" stroke-width="1" fill="none" fill-rule="evenodd">
        <g id="画板备份" transform="translate(-270.000000, -234.000000)">
            <g id="编组" transform="translate(270.036667, 234.000000)">
                <rect id="矩形" fill="#FFFFFF" opacity="0" x="0" y="0" width="40" height="40"></rect>
                <path d="M19.9783031,5 C22.7113066,5 24.9237311,7.1241802 24.9237311,9.75816577 C24.9237311,9.88561639 24.88035,9.97058379 24.88035,10.0555512 C27.1795426,8.90849513 30.0426983,9.71568255 31.3441216,11.9248311 C32.6455497,14.1339797 31.9514541,16.9378924 29.7824038,18.2973861 C31.9514541,19.6568607 32.6455497,22.4607782 31.3441216,24.6699412 C30.0426934,26.8790897 27.2229266,27.6437954 24.88035,26.5392211 C24.7068261,29.0032699 22.5811575,31 19.9782962,31 C17.3754486,31 15.2497776,29.0032651 15.0762561,26.4967345 C12.7770635,27.6437906 9.9573017,26.8366031 8.65587844,24.6699412 C7.35445027,22.4607926 8.04854594,19.6568799 10.2175962,18.2973861 C8.04854594,16.9379116 7.35445027,14.1339941 8.65587844,11.9248311 C9.95730661,9.71568255 12.7770734,8.95097691 15.0762561,10.0555512 C15.0762561,9.97058379 15.032875,9.84313317 15.032875,9.75816577 C15.032875,7.1241802 17.2453044,5 19.9783031,5 Z M20,14.2770464 C17.9425784,14.2770464 16.2770464,15.9425784 16.2770464,18 C16.2770464,20.0574216 17.9425784,21.7229536 20,21.7229536 C22.0574216,21.7229536 23.7229536,20.0574216 23.7229536,18 C23.7229536,15.9425784 22.0574216,14.2770464 20,14.2770464 Z" id="形状结合" fill="#FFA200"></path>
                <path d="M20.1852063,26.1546597 C20.9282172,26.2165541 21.4803713,26.8690587 21.418477,27.6120696 C21.2070408,30.1502571 21.4864542,32.2604861 22.2348516,33.9544346 C22.536159,34.6364243 22.2275551,35.4335441 21.5455654,35.7348516 C20.8635757,36.036159 20.0664559,35.7275551 19.7651484,35.0455654 C18.8196284,32.9054426 18.481133,30.349005 18.7277965,27.3879304 C18.7860499,26.688626 19.3674738,26.1583851 20.055128,26.1500253 L20.1852063,26.1546597 Z" id="路径-18" fill="#FFA200" style="mix-blend-mode: multiply;" opacity="0.7"></path>
            </g>
        </g>
    </g>
</svg>