<?xml version="1.0" encoding="UTF-8"?>
<svg width="41px" height="40px" viewBox="0 0 41 40" version="1.1" xmlns="http://www.w3.org/2000/svg" xmlns:xlink="http://www.w3.org/1999/xlink">
    <title>Grid/item/entrances 4</title>
    <g id="Demo-Sample" stroke="none" stroke-width="1" fill="none" fill-rule="evenodd">
        <g id="画板备份" transform="translate(-200.000000, -234.000000)" fill="#898AFF">
            <g id="编组" transform="translate(200.006667, 234.000000)">
                <path d="M23.880753,13.5200874 L24.4612876,8.12661593 C24.5794968,7.02838993 23.7850363,6.04227432 22.6868103,5.92406507 C22.0248618,5.85281523 21.3708564,6.11562868 20.9422759,6.62510987 L16.1393184,12.3346944 L16.1393184,12.3346944 L10.0842667,19.4914884 C8.81185225,20.9954898 9.73865562,23.2978097 11.6974028,23.4988388 L15.2812184,23.8666513 L20.2429513,24.3758814 C21.5918208,24.5143179 22.8026174,23.5365341 22.9473452,22.1919367 L23.880753,13.5200874 Z" id="Fill-1"></path>
                <path d="M16.3125475,20.6227481 L15.4918177,28.5386907 L15.4918177,28.5386907 L15.1567889,31.7700446 C14.9063912,34.1851319 17.8522058,35.4682411 19.379183,33.6091784 L23.1336473,29.0385259 L29.046963,21.8397394 C30.2895774,20.3270626 29.3814989,18.0087848 27.4664054,17.8047366 L24.644669,17.5040879 L20.6848678,17.0821814 C18.503203,16.8497306 16.5461757,18.4298809 16.313725,20.6115457 C16.3133272,20.6152793 16.3129347,20.6190134 16.3125475,20.6227481 Z" id="Fill-3" opacity="0.699999988" style="mix-blend-mode: multiply;"></path>
            </g>
        </g>
    </g>
</svg>