<?xml version="1.0" encoding="UTF-8"?>
<svg width="41px" height="40px" viewBox="0 0 41 40" version="1.1" xmlns="http://www.w3.org/2000/svg" xmlns:xlink="http://www.w3.org/1999/xlink">
    <title>Grid/item/entrances 2</title>
    <defs>
        <path d="M29.2857143,15.487013 L29.2857143,22.8896104 C29.2857143,24.0730777 28.3263245,25.0324675 27.1428571,25.0324675 L23.6363636,25.0324675 C22.4528963,25.0324675 21.4935065,24.0730777 21.4935065,22.8896104 L21.4935065,15.487013 C21.4935065,14.3035457 22.4528963,13.3441558 23.6363636,13.3441558 L27.1428571,13.3441558 C28.3263245,13.3441558 29.2857143,14.3035457 29.2857143,15.487013 Z M18.8961039,2.5 L18.8961039,22.8896104 C18.8961039,24.0730777 17.9367141,25.0324675 16.7532468,25.0324675 L13.2467532,25.0324675 C12.0632859,25.0324675 11.1038961,24.0730777 11.1038961,22.8896104 L11.1038961,2.5 C11.1038961,1.31653268 12.0632859,0.357142857 13.2467532,0.357142857 L16.7532468,0.357142857 C17.9367141,0.357142857 18.8961039,1.31653268 18.8961039,2.5 Z M8.50649351,10.2922078 L8.50649351,22.8896104 C8.50649351,24.0730777 7.54710368,25.0324675 6.36363636,25.0324675 L2.85714286,25.0324675 C1.67367554,25.0324675 0.714285714,24.0730777 0.714285714,22.8896104 L0.714285714,10.2922078 C0.714285714,9.10874047 1.67367554,8.14935065 2.85714286,8.14935065 L6.36363636,8.14935065 C7.54710368,8.14935065 8.50649351,9.10874047 8.50649351,10.2922078 Z" id="path-1"></path>
    </defs>
    <g id="Demo-Sample" stroke="none" stroke-width="1" fill="none" fill-rule="evenodd">
        <g id="画板备份" transform="translate(-129.000000, -234.000000)">
            <g id="ic_ranking" transform="translate(129.976667, 234.000000)">
                <rect id="矩形" fill="#FFFFFF" opacity="0" x="0" y="0" width="40" height="40"></rect>
                <g id="icon/BottomNavigationBar/ic_ranking_active" transform="translate(5.000000, 7.000000)">
                    <mask id="mask-2" fill="white">
                        <use xlink:href="#path-1"></use>
                    </mask>
                    <use id="形状" fill="#FFAA36" style="mix-blend-mode: multiply;" xlink:href="#path-1"></use>
                    <path d="M18.8961039,2.5 L18.8961039,22.8896104 C18.8961039,24.0730777 17.9367141,25.0324675 16.7532468,25.0324675 L13.2467532,25.0324675 C12.0632859,25.0324675 11.1038961,24.0730777 11.1038961,22.8896104 L11.1038961,2.5 C11.1038961,1.31653268 12.0632859,0.357142857 13.2467532,0.357142857 L16.7532468,0.357142857 C17.9367141,0.357142857 18.8961039,1.31653268 18.8961039,2.5 Z" id="路径" fill="#FFAA36" style="mix-blend-mode: multiply;"></path>
                </g>
            </g>
        </g>
    </g>
</svg>