<?xml version="1.0" encoding="UTF-8"?>
<svg width="41px" height="40px" viewBox="0 0 41 40" version="1.1" xmlns="http://www.w3.org/2000/svg" xmlns:xlink="http://www.w3.org/1999/xlink">
    <title>Grid/item/entrances</title>
    <g id="Demo-Sample" stroke="none" stroke-width="1" fill="none" fill-rule="evenodd">
        <g id="画板备份" transform="translate(-59.000000, -234.000000)" fill="#F36065">
            <g id="编组" transform="translate(59.946667, 234.000000)">
                <path d="M24.8722296,8.32389701 C26.6552671,8.32389701 27.3018396,8.50954823 27.9536914,8.85816241 C28.6055433,9.2067766 29.1171204,9.71835375 29.4657346,10.3702056 C29.8143488,11.0220575 30,11.6686299 30,13.4516674 L30,28.8722296 C30,30.6552671 29.8143488,31.3018396 29.4657346,31.9536914 C29.1171204,32.6055433 28.6055433,33.1171204 27.9536914,33.4657346 C27.3018396,33.8143488 26.6552671,34 24.8722296,34 L11.1277704,34 C9.34473292,34 8.69816044,33.8143488 8.04630859,33.4657346 C7.39445674,33.1171204 6.88287959,32.6055433 6.53426541,31.9536914 C6.18565122,31.3018396 6,30.6552671 6,28.8722296 L6,13.4516674 C6,11.6686299 6.18565122,11.0220575 6.53426541,10.3702056 C6.88287959,9.71835375 7.39445674,9.2067766 8.04630859,8.85816241 C8.69816044,8.50954823 9.34473292,8.32389701 11.1277704,8.32389701 L24.8722296,8.32389701 Z M10.9463056,23.1370333 C10.173107,23.1370333 9.54630564,23.7638347 9.54630564,24.5370333 C9.54630564,25.310232 10.173107,25.9370333 10.9463056,25.9370333 C11.7195043,25.9370333 12.3463056,25.310232 12.3463056,24.5370333 C12.3463056,23.7638347 11.7195043,23.1370333 10.9463056,23.1370333 Z M21.4963175,23.2370333 L15.3463056,23.2370333 C14.6283355,23.2370333 14.0463056,23.8190632 14.0463056,24.5370333 C14.0463056,25.2550035 14.6283355,25.8370333 15.3463056,25.8370333 L15.3463056,25.8370333 L21.4963175,25.8370333 C22.2142876,25.8370333 22.7963175,25.2550035 22.7963175,24.5370333 C22.7963175,23.8190632 22.2142876,23.2370333 21.4963175,23.2370333 L21.4963175,23.2370333 Z M10.9463056,16.2242364 C10.173107,16.2242364 9.54630564,16.8510377 9.54630564,17.6242364 C9.54630564,18.397435 10.173107,19.0242364 10.9463056,19.0242364 C11.7195043,19.0242364 12.3463056,18.397435 12.3463056,17.6242364 C12.3463056,16.8510377 11.7195043,16.2242364 10.9463056,16.2242364 Z M21.4963175,16.3242364 L15.3463056,16.3242364 C14.6283355,16.3242364 14.0463056,16.9062662 14.0463056,17.6242364 C14.0463056,18.3422066 14.6283355,18.9242364 15.3463056,18.9242364 L15.3463056,18.9242364 L21.4963175,18.9242364 C22.2142876,18.9242364 22.7963175,18.3422066 22.7963175,17.6242364 C22.7963175,16.9062662 22.2142876,16.3242364 21.4963175,16.3242364 L21.4963175,16.3242364 Z" id="形状结合"></path>
                <path d="M29.6319029,16.0726795 L30.3680971,16.0726795 C31.5560936,16.0726795 32.3018396,16.2583307 32.9536914,16.6069449 C33.6055433,16.9555591 34.1171204,17.4671362 34.4657346,18.1189881 C34.8143488,18.77084 35,19.5165859 35,20.7045824 L35,29.3680971 C35,30.5560936 34.8143488,31.3018396 34.4657346,31.9536914 C34.1171204,32.6055433 33.6055433,33.1171204 32.9536914,33.4657346 C32.3018396,33.8143488 31.5560936,34 30.3680971,34 L29.6319029,34 C28.4439064,34 27.6981604,33.8143488 27.0463086,33.4657346 C26.3944567,33.1171204 25.8828796,32.6055433 25.5342654,31.9536914 C25.1856512,31.3018396 25,30.5560936 25,29.3680971 L25,20.7045824 C25,19.5165859 25.1856512,18.77084 25.5342654,18.1189881 C25.8828796,17.4671362 26.3944567,16.9555591 27.0463086,16.6069449 C27.6981604,16.2583307 28.4439064,16.0726795 29.6319029,16.0726795 Z" id="Rectangle" style="mix-blend-mode: multiply;" opacity="0.600000024"></path>
            </g>
        </g>
    </g>
</svg>