<?xml version="1.0" encoding="UTF-8"?>
<svg xmlns="http://www.w3.org/2000/svg" xmlns:xlink="http://www.w3.org/1999/xlink" width="24" height="24" viewBox="0 0 24 24" version="1.1">
    <title>Public/ic_public_file</title>
    <defs>
        <path d="M14.764,0.999772016 L21,7.23527202 L21,8.75 L16.25,8.75 C14.5931458,8.75 13.25,7.40685425 13.25,5.75 L13.25,2.49877202 L7,2.5 C5.64269002,2.5 4.53801707,3.5816677 4.50096045,4.93002379 L4.5,19 C4.5,20.35731 5.5816677,21.4619829 6.93002379,21.4990396 L7,21.5 L17,21.5 C18.35731,21.5 19.4619829,20.4183323 19.4990396,19.0699762 L19.5,19 L19.5,9.74977202 L21,9.74977202 L21,19 C21,21.209139 19.209139,23 17,23 L7,23 C4.790861,23 3,21.209139 3,19 L3,5 C3,2.790861 4.790861,1 7,1 L14.764,0.999772016 Z M16.5,14.75 C16.9142136,14.75 17.25,15.0857864 17.25,15.5 C17.25,15.9142136 16.9142136,16.25 16.5,16.25 L7.5,16.25 C7.08578644,16.25 6.75,15.9142136 6.75,15.5 C6.75,15.0857864 7.08578644,14.75 7.5,14.75 L16.5,14.75 Z M11.5,10.5 C11.9142136,10.5 12.25,10.8357864 12.25,11.25 C12.25,11.6642136 11.9142136,12 11.5,12 L7.5,12 C7.08578644,12 6.75,11.6642136 6.75,11.25 C6.75,10.8357864 7.08578644,10.5 7.5,10.5 L11.5,10.5 Z M14.75,3.10677202 L14.75,5.75 C14.75,6.55959924 15.3913937,7.21939294 16.1937654,7.24896538 L16.25,7.25 L18.894,7.24977202 L14.75,3.10677202 Z" id="_path-1"/>
    </defs>
    <g id="_Public/ic_public_file" stroke="none" stroke-width="1" fill="none" fill-rule="evenodd">
        <mask id="_mask-2" fill="white">
            <use xlink:href="#_path-1"/>
        </mask>
        <use id="_形状结合" fill="#182431" fill-opacity="0.6" fill-rule="nonzero" xlink:href="#_path-1"/>
    </g>
</svg>