<?xml version="1.0" encoding="UTF-8"?>
<svg xmlns="http://www.w3.org/2000/svg" xmlns:xlink="http://www.w3.org/1999/xlink" width="24" height="24" version="1.1" viewBox="0 0 24 24">
  <defs>
    <path id="_uxs-a" d="M18.4685995,2.76981657 C18.4837672,2.86618904 18.4932763,2.96333912 18.4970878,3.06076767 L18.4989987,3.15827057 L18.5,14.2499323 L18.498186,14.2641337 L18.498814,15.3478965 C18.498814,17.2169213 17.170289,18.7571952 15.4591633,18.9665276 L15.3811246,18.9751226 C14.230417,19.1162947 13.1206963,18.6554964 12.5754983,17.7128361 C11.8085709,16.3868005 12.4431741,14.5877669 13.9929242,13.6945821 C14.152076,13.6028563 14.3336328,13.5148183 14.5251932,13.4263496 L14.9977953,13.2110889 C15.4369794,13.0091426 15.8765624,12.7891647 16.1844939,12.5073012 L16.279204,12.4193645 L16.3118578,12.3880809 L16.3781693,12.3221664 C16.6675215,12.0263028 16.9751251,11.5925083 16.9975137,10.8301831 L16.998814,10.7407537 L16.999186,10.7061337 L16.9989987,3.15840598 C16.998994,3.10637464 16.9949285,3.05442303 16.9868391,3.00302438 C16.9035763,2.47398763 16.4197277,2.10753566 15.8930203,2.16410526 L15.8435269,2.17065593 L7.34452813,3.5082762 C6.87502029,3.58216999 6.52485927,3.97536237 6.50126851,4.44546511 L6.5,4.49611652 L6.5,6.54413367 L15.9997742,5.05406036 L15.9997742,6.57206036 L6.5,8.06213367 L6.50002798,15.6355385 L6.50118603,16.0101232 L6.49993603,16.3652463 L6.5,17.6071429 C6.5,19.4761676 5.17147506,21.0164416 3.46034933,21.2257739 L3.38231068,21.2343689 C2.23160307,21.375541 1.12188235,20.9147427 0.576684319,19.9720825 C-0.190243078,18.6460469 0.444360098,16.8470132 1.99411018,15.9538284 C2.15326202,15.8621026 2.33481883,15.7740646 2.5263792,15.6855959 L2.99898137,15.4703352 C3.43816547,15.2683889 3.87774844,15.048411 4.18567989,14.7665475 L4.2482091,14.7088653 C4.26948246,14.6890242 4.29114008,14.6685404 4.31304382,14.6473272 L4.37935529,14.5814127 C4.6687075,14.2855491 4.97631118,13.8517547 4.99869972,13.0894294 L5,13 L5,4.49611652 C5,3.28868212 5.86215186,2.25744563 7.04285337,2.03825583 L7.11132032,2.02651572 L15.6103191,0.688895452 C16.9742419,0.474233593 18.2539377,1.40589371 18.4685995,2.76981657 Z M4.99918603,16.0431337 C4.66047053,16.3148981 4.27752198,16.5285989 3.73958471,16.7803239 L3.10135041,17.0724303 L2.99058,17.1249863 L2.89496413,17.1721554 L2.8129854,17.2147128 L2.74312644,17.253434 C1.87096548,17.7560963 1.55155568,18.6615896 1.87515371,19.2210983 C2.08567475,19.5850941 2.56023488,19.8036318 3.151884,19.7504216 L3.27820321,19.736874 C4.21618485,19.6221251 4.96808834,18.7547997 4.99901055,17.6763395 L5,17.6072201 L4.99918603,16.0431337 Z M17,13.78275 L16.9982278,13.7843146 C16.6591854,14.0557338 16.2763297,14.2693577 15.7383983,14.5210779 L15.5573279,14.6045145 L15.1001644,14.813184 L14.989394,14.86574 L14.8937781,14.912909 C14.8790207,14.9203647 14.8648315,14.9276282 14.8511789,14.9347157 L14.7754498,14.9752581 C14.7638171,14.9817063 14.7526579,14.9880107 14.7419404,14.9941876 C13.8697794,15.4968499 13.5503696,16.4023433 13.8739677,16.961852 C14.0844887,17.3258478 14.5590488,17.5443855 15.150698,17.4911753 L15.2770172,17.4776277 C16.2149988,17.3628788 16.9669023,16.4955534 16.9978245,15.4170932 L16.998814,15.3479738 L16.9987593,14.1007202 L17,13.78275 Z"/>
  </defs>
  <g fill="none" fill-rule="evenodd" stroke="none" stroke-width="1" transform="translate(2 1)">
    <mask id="_uxs-b" fill="#fff">
      <use xlink:href="#_uxs-a"/>
    </mask>
    <g fill="#182431" fill-opacity="0.6" mask="url(#_uxs-b)">
      <rect width="24" height="24" x="0" y="0" transform="translate(-2 -1)"/>
    </g>
  </g>
</svg>