<?xml version="1.0" encoding="UTF-8"?>
<svg xmlns="http://www.w3.org/2000/svg" xmlns:xlink="http://www.w3.org/1999/xlink" width="24" height="24" viewBox="0 0 24 24" version="1.1">
    <!-- Generator: Sketch 63.1 (92452) - https://sketch.com -->
    <title>Public/ic_public_video</title>
    <desc>Created with Sketch.</desc>
    <g id="_Public/ic_public_video" stroke="none" fill-opacity="0.6" stroke-width="1" fill="none" fill-rule="evenodd">
        <path d="M18.5,16.25 C18.5,18.1829966 16.9329966,19.75 15,19.75 L3.5,19.75 C1.56700338,19.75 0,18.1829966 0,16.25 L0,7.75 C0,5.81700338 1.56700338,4.25 3.5,4.25 L15,4.25 C16.9309935,4.25 18.4967519,5.81375738 18.5,7.74399186 L18.5,16.25 Z M15.0622948,5.75095171 L3.5,5.75 C2.41627143,5.75 1.53386428,6.61195944 1.50095171,7.68770517 L1.5,16.25 C1.5,17.3337286 2.36195944,18.2161357 3.43770517,18.2490483 L15,18.25 C16.0837286,18.25 16.9661357,17.3880406 16.9990483,16.3122948 L17,7.75 C17,6.66627143 16.1380406,5.78386428 15.0622948,5.75095171 Z M21.4365407,6.85498937 C22.2922763,6.40572819 23.3501852,6.7352408 23.7994463,7.59097638 C23.9048305,7.79170811 23.9699543,8.01051217 23.9917885,8.23510122 L24,8.4044357 L24,15.5955643 C24,16.5620626 23.2164983,17.3455643 22.25,17.3455643 C22.0232864,17.3455643 21.799286,17.3015173 21.590286,17.2164526 L21.4365407,17.1450106 L19.5,16.128 L19.5,14.433 L22.1337915,15.8169138 C22.1472334,15.8239708 22.1612425,15.829764 22.1756381,15.8342489 L22.2198037,15.843734 L22.25,15.8455643 C22.3683467,15.8455643 22.4674868,15.7633309 22.4933973,15.652887 L22.5,15.5955643 L22.5,8.4044357 L22.4927317,8.34459161 L22.4927317,8.34459161 L22.4713495,8.28822723 L22.4563079,8.26319502 C22.3974902,8.17705097 22.2915628,8.13746321 22.1921954,8.16114853 L22.1337915,8.18308622 L19.5,9.565 L19.5,7.871 L21.4365407,6.85498937 Z" id="_形状" fill="#182431" fill-rule="nonzero"/>
    </g>
</svg>