<?xml version="1.0" encoding="UTF-8"?>
<svg width="48px" height="48px" viewBox="0 0 48 48" version="1.1" xmlns="http://www.w3.org/2000/svg" xmlns:xlink="http://www.w3.org/1999/xlink">
    <title>ic_call</title>
    <defs>
        <rect id="path-1" x="0" y="0" width="48" height="48" rx="9.6"></rect>
        <path d="M14.1028735,18.8967696 C13.7888974,17.5306004 14.2044174,16.0996426 15.2017898,15.1103691 C15.7556087,14.4884392 16.2798366,14.1301287 16.7744735,14.0354375 C17.5164288,13.8934008 18.2761388,14.1861958 18.7480373,14.7727203 L20.3535576,16.7573764 C20.4338982,16.8557236 20.4968356,16.9322709 20.535131,16.9780138 L20.5702199,17.0191436 C21.1787255,17.7046634 21.1628065,18.7346727 20.5428137,19.4006734 L20.4985785,19.4465391 L19.4146135,20.4691413 C18.9838309,20.8986779 18.9068943,21.5668112 19.2289689,22.0823174 C19.8535694,23.087123 21.0239552,24.4418965 22.3020442,25.6978864 C23.5581035,26.9760448 24.912877,28.1464306 25.9176826,28.7710311 C26.4331888,29.0931057 27.1013221,29.0161691 27.5308587,28.5853865 L28.5534609,27.5014215 L28.5993266,27.4571863 C29.2473272,26.8539501 30.2399263,26.8225762 30.9245328,27.3818098 L31.0970635,27.5271144 C31.489809,27.8507448 32.7189584,28.8429839 33.2272797,29.2519627 C33.8138042,29.7238612 34.1065992,30.4835712 33.9645625,31.2255265 C33.8698713,31.7201634 33.5115608,32.2443913 32.8896309,32.7982102 C31.9003574,33.7955826 30.4693996,34.2111026 29.1032304,33.8971265 C26.1939187,33.2212397 22.7536044,30.9411009 19.8918008,28.1082685 C17.0588991,25.2463956 14.7787603,21.8060813 14.1028735,18.8967696 Z" id="path-3"></path>
    </defs>
    <g id="ic_call" stroke="none" stroke-width="1" fill="none" fill-rule="evenodd">
        <mask id="mask-2" fill="white">
            <use xlink:href="#path-1"></use>
        </mask>
        <use id="蒙版" fill-opacity="0.199478256" fill="#182431" xlink:href="#path-1"></use>
        <mask id="mask-4" fill="white">
            <use xlink:href="#path-3"></use>
        </mask>
        <use id="路径" fill-opacity="0.9" fill="#182431" xlink:href="#path-3"></use>
    </g>
</svg>