<?xml version="1.0" encoding="UTF-8"?>
<svg width="48px" height="48px" viewBox="0 0 48 48" version="1.1" xmlns="http://www.w3.org/2000/svg" xmlns:xlink="http://www.w3.org/1999/xlink">
    <title>ic_music</title>
    <defs>
        <rect id="path-1" x="0" y="0" width="48" height="48" rx="9.6"></rect>
        <path d="M32.4655632,15.980948 C32.4803936,16.0751778 32.4903061,16.1700835 32.4952705,16.2652793 L32.4990023,16.4082426 L32.5,27.249908 L32.498902,27.2620554 C32.4931586,28.2880671 32.4856874,28.7633475 32.2674612,29.5724186 C32.049235,30.3814897 31.6218054,31.1432745 30.7702139,31.6340818 C29.2204638,32.5272666 27.3424257,32.1763717 26.5754983,30.8503361 C25.8085709,29.5243005 26.4431741,27.7252669 27.9929242,26.8320821 C28.6295315,26.465179 29.4389386,26.1407327 29.998814,25.6282537 C30.334865,25.3206511 30.498814,24.8782537 30.498814,23.8782537 L30.498186,18.7640969 L20.499186,20.5280969 L20.4998598,28.6106261 C20.5000095,28.6320193 20.5001457,28.6534337 20.500269,28.6748653 L20.5010205,29.1481598 L20.500088,29.3838017 C20.4943446,30.4098134 20.4868734,30.8850938 20.2686472,31.6941649 C20.0504211,32.503236 19.6229915,33.2650208 18.7714,33.7558281 C17.2216499,34.6490129 15.3436117,34.2981181 14.5766843,32.9720825 C13.8097569,31.6460469 14.4443601,29.8470132 15.9941102,28.9538284 C16.6307175,28.5869253 17.4401246,28.2624791 18,27.75 C18.3360511,27.4423974 18.5,27 18.5,26 L18.5,17.7461165 C18.5,16.4512542 19.4013868,15.3406082 20.6500759,15.0622884 L20.8224524,15.0295556 L29.3214547,13.6919348 C30.8217698,13.4558068 32.2294352,14.4806329 32.4655632,15.980948 Z" id="path-3"></path>
    </defs>
    <g id="ic_music" stroke="none" stroke-width="1" fill="none" fill-rule="evenodd">
        <mask id="mask-2" fill="white">
            <use xlink:href="#path-1"></use>
        </mask>
        <use id="蒙版" fill-opacity="0.199478256" fill="#182431" xlink:href="#path-1"></use>
        <mask id="mask-4" fill="white">
            <use xlink:href="#path-3"></use>
        </mask>
        <use id="形状结合" fill-opacity="0.9" fill="#182431" xlink:href="#path-3"></use>
    </g>
</svg>