<?xml version="1.0" encoding="UTF-8"?>
<svg width="36px" height="36px" viewBox="0 0 36 36" version="1.1" xmlns="http://www.w3.org/2000/svg" xmlns:xlink="http://www.w3.org/1999/xlink">
    <title>ic_play</title>
    <g id="ic_play" stroke="none" stroke-width="1" fill="none" fill-rule="evenodd">
        <path d="M18,36 C27.9411255,36 36,27.9411255 36,18 C36,8.0588745 27.9411255,0 18,0 C8.0588745,0 0,8.0588745 0,18 C0,27.9411255 8.0588745,36 18,36 Z M24.3850746,19.6420061 L16.4401709,24.2049576 C15.2731209,24.8752227 13.7836827,24.4724991 13.1134175,23.3054492 C12.9013175,22.9361455 12.7897059,22.5177042 12.7897059,22.0918267 L12.7897059,12.9659238 C12.7897059,11.6200929 13.8807175,10.5290813 15.2265484,10.5290813 C15.6524259,10.5290813 16.0708672,10.6406929 16.4401709,10.852793 L24.3850746,15.4157444 C25.5521245,16.0860096 25.9548481,17.5754478 25.284583,18.7424977 C25.069677,19.1166869 24.7592638,19.4271002 24.3850746,19.6420061 Z" id="形状结合" fill="#007DFF"></path>
    </g>
</svg>