<?xml version="1.0" encoding="UTF-8"?>
<svg width="36px" height="36px" viewBox="0 0 36 36" version="1.1" xmlns="http://www.w3.org/2000/svg" xmlns:xlink="http://www.w3.org/1999/xlink">
    <title>ic_Pause</title>
    <g id="ic_Pause" stroke="none" stroke-width="1" fill="none" fill-rule="evenodd">
        <path d="M18,0 C27.9411255,0 36,8.0588745 36,18 C36,27.9411255 27.9411255,36 18,36 C8.0588745,36 0,27.9411255 0,18 C0,8.0588745 8.0588745,0 18,0 Z M13.359375,10.96875 L13.2230973,10.9751578 C12.5060362,11.0429861 11.953125,11.6409269 11.953125,12.3685278 L11.953125,23.6314722 C11.953125,24.408857 12.5827246,25.03125 13.359375,25.03125 L13.4956527,25.0248422 C14.2127138,24.9570139 14.765625,24.3590731 14.765625,23.6314722 L14.765625,12.3685278 C14.765625,11.591143 14.1360254,10.96875 13.359375,10.96875 Z M22.640625,10.96875 L22.5043473,10.9751578 C21.7872862,11.0429861 21.234375,11.6409269 21.234375,12.3685278 L21.234375,23.6314722 C21.234375,24.408857 21.8639746,25.03125 22.640625,25.03125 L22.7769027,25.0248422 C23.4939638,24.9570139 24.046875,24.3590731 24.046875,23.6314722 L24.046875,12.3685278 C24.046875,11.591143 23.4172754,10.96875 22.640625,10.96875 Z" id="形状结合" fill="#007DFF"></path>
    </g>
</svg>