<?xml version="1.0" encoding="UTF-8"?>
<svg width="24px" height="24px" viewBox="0 0 24 24" version="1.1" xmlns="http://www.w3.org/2000/svg" xmlns:xlink="http://www.w3.org/1999/xlink">
    <title>ic_playing</title>
    <defs>
        <path d="M12,1 C18.0751322,1 23,5.92486775 23,12 C23,18.0751322 18.0751322,23 12,23 C5.92486775,23 1,18.0751322 1,12 C1,5.92486775 5.92486775,1 12,1 Z M12,2.5 C6.75329488,2.5 2.5,6.75329488 2.5,12 C2.5,17.2467051 6.75329488,21.5 12,21.5 C17.2467051,21.5 21.5,17.2467051 21.5,12 C21.5,6.75329488 17.2467051,2.5 12,2.5 Z M9.5,7.5 C10.0522847,7.5 10.5,7.94771525 10.5,8.5 L10.5,15.5 C10.5,16.0522847 10.0522847,16.5 9.5,16.5 C8.94771525,16.5 8.5,16.0522847 8.5,15.5 L8.5,8.5 C8.5,7.94771525 8.94771525,7.5 9.5,7.5 Z M14.5,7.5 C15.0522847,7.5 15.5,7.94771525 15.5,8.5 L15.5,15.5 C15.5,16.0522847 15.0522847,16.5 14.5,16.5 C13.9477153,16.5 13.5,16.0522847 13.5,15.5 L13.5,8.5 C13.5,7.94771525 13.9477153,7.5 14.5,7.5 Z" id="path-1"></path>
    </defs>
    <g id="ic_playing" stroke="none" stroke-width="1" fill="none" fill-rule="evenodd">
        <mask id="mask-2" fill="white">
            <use xlink:href="#path-1"></use>
        </mask>
        <use id="形状结合" fill="#182431" fill-rule="nonzero" xlink:href="#path-1"></use>
    </g>
</svg>