<?xml version="1.0" encoding="UTF-8"?>
<svg width="48px" height="48px" viewBox="0 0 48 48" version="1.1" xmlns="http://www.w3.org/2000/svg" xmlns:xlink="http://www.w3.org/1999/xlink">
    <title>ic_ring</title>
    <defs>
        <rect id="path-1" x="0" y="0" width="48" height="48" rx="9.6"></rect>
        <path d="M14.75,31.25 C14.3357864,31.25 14,30.9142136 14,30.5 C14,30.0857864 14.3357864,29.75 14.75,29.75 L15.94,29.75 L17.1022623,20.5788123 C17.4484656,17.8467978 19.3499867,15.6525554 21.8495539,14.839706 C22.1301295,13.919618 22.9868659,13.25 24,13.25 C25.0131341,13.25 25.8698705,13.919618 26.1517769,14.8404216 C28.6500133,15.6525554 30.5515344,17.8467978 30.8977377,20.5788123 L32.06,29.75 L33.25,29.75 C33.6642136,29.75 34,30.0857864 34,30.5 C34,30.9142136 33.6642136,31.25 33.25,31.25 L14.75,31.25 Z M26.9584235,32.2505796 C26.7201457,33.6691511 25.4862957,34.75 24,34.75 C22.5137043,34.75 21.2798543,33.6691511 21.0415765,32.2505796 Z" id="path-3"></path>
    </defs>
    <g id="ic_ring" stroke="none" stroke-width="1" fill="none" fill-rule="evenodd">
        <mask id="mask-2" fill="white">
            <use xlink:href="#path-1"></use>
        </mask>
        <use id="蒙版" fill-opacity="0.199478256" fill="#182431" xlink:href="#path-1"></use>
        <mask id="mask-4" fill="white">
            <use xlink:href="#path-3"></use>
        </mask>
        <use id="蒙版" fill-opacity="0.9" fill="#182431" xlink:href="#path-3"></use>
    </g>
</svg>