<?xml version="1.0" encoding="UTF-8"?>
<svg width="24px" height="24px" viewBox="0 0 24 24" version="1.1" xmlns="http://www.w3.org/2000/svg" xmlns:xlink="http://www.w3.org/1999/xlink">
    <title>ic_folder</title>
    <defs>
        <path d="M8.09016905,3 L9.072,4.005 L18.7543478,4.00576923 C20.2731309,4.00576923 21.5043478,5.23698617 21.5043478,6.75576923 L21.5047569,7.40410415 C22.398835,7.92349194 23,8.89154117 23,10 L23,18.0300725 C23,19.6869267 21.6568542,21.0300725 20,21.0300725 L4,21.0300725 C2.34314575,21.0300725 1,19.6869267 1,18.0300725 L1,6 C1,4.34314575 2.34314575,3 4,3 L8.09016905,3 Z M7.45880872,4.5 L4,4.5 C3.17157288,4.5 2.5,5.17157288 2.5,6 L2.5,18.0300725 C2.5,18.8584996 3.17157288,19.5300725 4,19.5300725 L20,19.5300725 C20.8284271,19.5300725 21.5,18.8584996 21.5,18.0300725 L21.5,10 C21.5,9.17157288 20.8284271,8.5 20,8.5 L12,8.5 C11.5962468,8.5 11.2095421,8.33723333 10.9273184,8.04850093 L8.27087558,5.33280382 C8.22847391,5.29755785 8.19001909,5.25772693 8.15627192,5.21407187 L7.45880872,4.5 Z M20.004,7 L20.0043478,6.75576923 C20.0043478,6.06541329 19.4447038,5.50576923 18.7543478,5.50576923 L10.538,5.505 L12,7 L20.004,7 Z" id="path-1"></path>
    </defs>
    <g id="ic_folder" stroke="none" stroke-width="1" fill="none" fill-rule="evenodd">
        <mask id="mask-2" fill="white">
            <use xlink:href="#path-1"></use>
        </mask>
        <use id="Combined-Shape" fill-opacity="1" fill="#182431" fill-rule="nonzero" xlink:href="#path-1"></use>
    </g>
</svg>