<?xml version="1.0" encoding="UTF-8"?>
<svg width="24px" height="24px" viewBox="0 0 24 24" version="1.1" xmlns="http://www.w3.org/2000/svg" xmlns:xlink="http://www.w3.org/1999/xlink">
    <title>ic_writting</title>
    <defs>
        <path d="M19.2071068,2.95710678 L21.0428932,4.79289322 C21.4334175,5.18341751 21.4334175,5.81658249 21.0428932,6.20710678 L5.83578643,21.4142136 C5.46071368,21.7892863 4.95200586,22.0000001 4.42157289,22.0000001 L2.99999994,22.0000001 C2.44771521,22.0000001 1.99999994,21.5522848 1.99999994,21.0000001 L1.99999994,19.5784271 C1.99999994,19.0479941 2.21071368,18.5392863 2.58578643,18.1642136 L17.7928932,2.95710678 C18.1834175,2.56658249 18.8165825,2.56658249 19.2071068,2.95710678 Z M21.6089984,20.5 C22.023212,20.5 22.3589984,20.8357864 22.3589984,21.25 C22.3589984,21.6642136 22.023212,22 21.6089984,22 L11.6089984,22 C11.1947849,22 10.8589984,21.6642136 10.8589984,21.25 C10.8589984,20.8357864 11.1947849,20.5 11.6089984,20.5 L21.6089984,20.5 Z M16.2139999,6.65721356 L3.6464466,19.2248737 C3.55267841,19.3186419 3.49999996,19.4458189 3.49999996,19.5784271 L3.49999996,20.5 L4.42157287,20.5 C4.55418111,20.5 4.68135807,20.4473216 4.77512625,20.3535534 L17.3419999,7.78521356 L16.2139999,6.65721356 Z M18.5,4.37132034 L17.2749999,5.59621356 L18.4029999,6.72421356 L19.6286797,5.5 L18.5,4.37132034 Z" id="path-1"></path>
    </defs>
    <g id="ic_writting" stroke="none" stroke-width="1" fill="none" fill-rule="evenodd">
        <mask id="mask-2" fill="white">
            <use xlink:href="#path-1"></use>
        </mask>
        <use id="合并形状" fill="#182431" fill-rule="nonzero" xlink:href="#path-1"></use>
    </g>
</svg>