<?xml version="1.0" standalone="no"?><!DOCTYPE svg PUBLIC "-//W3C//DTD SVG 1.1//EN" "http://www.w3.org/Graphics/SVG/1.1/DTD/svg11.dtd"><svg t="1687660132365" class="icon" viewBox="0 0 1024 1024" version="1.1" xmlns="http://www.w3.org/2000/svg" p-id="29862" xmlns:xlink="http://www.w3.org/1999/xlink" width="200" height="200"><path d="M315.2 473.6h393.599c17.599 0 32-14.401 32-32V48c0-17.599-14.401-32-32-32h-393.6c-17.599 0-32 14.401-32 32v393.6c0 17.599 14.401 32 32 32z" fill="#FFFFFF" p-id="29863"></path><path d="M708.8 0H315.2c-27.2 0-48.001 20.8-48.001 48v393.6c0 27.2 20.8 48 48 48h393.6c27.2 0 48-20.8 48-48V48c0-27.2-20.798-48-47.998-48z m16 441.6c0 9.6-6.4 16-16.001 16h-393.6c-9.6 0-16-6.4-16-16V48c0-9.6 6.4-16 16-16h393.6c9.6 0 16 6.4 16 16v393.6z" fill="#193651" p-id="29864"></path><path d="M441.6 550.4H48c-17.599 0-32 14.401-32 32V976c0 17.599 14.401 32 32 32h393.6c17.599 0 32-14.401 32-32V582.4c0-17.601-14.401-32-32-32z" fill="#FFFFFF" p-id="29865"></path><path d="M441.6 534.4H48c-27.2 0-48 20.8-48 48V976c0 27.2 20.8 48 48 48h393.6c27.2 0 48-20.8 48-48V582.4c0-27.2-20.8-48-48-48z m16 441.6c0 9.6-6.4 16-16 16H48c-9.6 0-16-6.4-16-16V582.4c0-9.6 6.4-16 16-16h393.6c9.6 0 16 6.4 16 16V976z" fill="#193651" p-id="29866"></path><path d="M976 550.4H582.4c-17.599 0-32 14.401-32 32V976c0 17.599 14.401 32 32 32H976c17.599 0 32-14.401 32-32V582.4c0-17.601-14.401-32-32-32z" fill="#FFFFFF" p-id="29867"></path><path d="M976 534.4H582.4c-27.2 0-48 20.8-48 48V976c0 27.2 20.8 48 48 48H976c27.2 0 48-20.8 48-48V582.4c0-27.2-20.8-48-48-48zM992 976c0 9.6-6.4 16-16 16H582.4c-9.6 0-16-6.4-16-16V582.4c0-9.6 6.4-16 16-16H976c9.6 0 16 6.4 16 16V976z" fill="#193651" p-id="29868"></path><path d="M347.36 80.159h329.6v329.6h-329.6z" fill="#4FBF9F" p-id="29869"></path><path d="M80 614.047h329.6v329.6H80z" fill="#FDBF5E" p-id="29870"></path><path d="M614.08 614.4h329.6V944h-329.6z" fill="#F16051" p-id="29871"></path><path d="M464 297.6l-19.2 44.8h-35.2L496 147.2h35.2l86.401 195.2h-35.2L560 297.6h-96z m83.2-30.4l-35.201-80-35.2 80h70.4zM252.8 876.8H168V681.6h75.202c12.8 0 23.999 1.6 33.6 4.8 9.6 3.2 16 8 20.8 12.8 9.601 9.6 12.8 20.8 12.8 33.6 0 16-4.8 27.2-14.4 33.6-3.201 3.201-6.4 4.8-8 4.8s-3.202 1.6-6.4 3.2c12.8 3.201 22.4 8 28.8 16.001s11.2 19.2 11.2 30.4c0 12.8-4.8 25.6-14.401 35.2-9.6 14.398-28.8 20.798-54.4 20.798zM200 763.198h41.601c24 0 35.2-8 35.2-24 0-9.6-3.2-16-8-20.8-6.4-4.799-14.4-6.4-27.2-6.4h-41.6v51.2z m0 83.201h51.2c12.8 0 20.8-1.6 27.2-6.4 6.4-3.2 9.601-11.2 9.601-20.8 0-17.6-14.4-25.6-41.6-25.6h-48v52.8h1.6z m590.4 1.6c11.199 0 20.8-1.6 28.8-6.4 8-3.2 16-9.6 25.6-17.599l20.8 22.401c-20.8 22.401-46.4 33.6-75.2 33.6s-54.401-9.6-73.601-28.8c-19.2-19.2-28.8-43.2-28.8-72 0-28.8 9.6-52.8 30.398-72 19.2-19.2 44.8-28.8 75.201-28.8s56.001 11.199 75.201 33.6l-20.8 22.4c-9.601-9.6-17.6-14.4-25.6-19.2-8-3.2-17.6-4.799-28.8-4.799-19.2 0-36.8 6.4-49.6 19.2s-20.8 28.8-20.8 48 6.4 36.8 19.2 49.6c14.4 14.396 30.401 20.798 48 20.798z" fill="#FFFFFF" p-id="29872"></path></svg>