<?xml version="1.0" standalone="no"?><!DOCTYPE svg PUBLIC "-//W3C//DTD SVG 1.1//EN" "http://www.w3.org/Graphics/SVG/1.1/DTD/svg11.dtd"><svg t="1687655766545" class="icon" viewBox="0 0 1024 1024" version="1.1" xmlns="http://www.w3.org/2000/svg" p-id="13393" xmlns:xlink="http://www.w3.org/1999/xlink" width="200" height="200"><path d="M737.28 559.786667c-81.92-83.626667-182.613333-128-300.373333-131.413334v-143.36c0-11.946667-6.826667-22.186667-17.066667-25.6-10.24-5.12-22.186667-1.706667-30.72 6.826667L119.466667 542.72c-10.24 10.24-10.24 27.306667 0 37.546667l269.653333 291.84c8.533333 8.533333 20.48 11.946667 30.72 6.826666 10.24-3.413333 17.066667-13.653333 17.066667-25.6v-153.6c59.733333-8.533333 121.173333-5.12 187.733333 8.533334 68.266667 13.653333 146.773333 76.8 237.226667 186.026666 3.413333 3.413333 6.826667 5.12 10.24 5.12 1.706667 0 3.413333 0 5.12-1.706666 5.12-1.706667 8.533333-8.533333 8.533333-13.653334-13.653333-128-63.146667-237.226667-148.48-324.266666z" fill="#333333" opacity=".3" p-id="13394"></path><path d="M964.266667 916.48c-6.826667 0-15.36-3.413333-20.48-8.533333-107.52-131.413333-201.386667-206.506667-281.6-221.866667-75.093333-15.36-146.773333-20.48-216.746667-11.946667v177.493334c0 17.066667-10.24 32.426667-27.306667 39.253333-17.066667 6.826667-34.133333 1.706667-46.08-10.24L46.08 527.36c-15.36-17.066667-15.36-42.666667 0-58.026667L373.76 133.12c11.946667-11.946667 30.72-17.066667 46.08-10.24 15.36 6.826667 27.306667 22.186667 27.306667 39.253333v165.546667c139.946667 6.826667 261.12 61.44 361.813333 162.133333 105.813333 105.813333 165.546667 240.64 182.613333 399.36 1.706667 11.946667-5.12 22.186667-15.36 25.6-5.12 1.706667-8.533333 1.706667-11.946666 1.706667zM88.746667 498.346667l305.493333 331.093333V651.946667c0-11.946667 8.533333-23.893333 22.186667-25.6 80.213333-13.653333 167.253333-10.24 256 8.533333 76.8 17.066667 160.426667 73.386667 250.88 172.373333-25.6-109.226667-76.8-203.093333-153.6-279.893333-95.573333-97.28-213.333333-146.773333-349.866667-148.48-13.653333 0-25.6-11.946667-25.6-25.6v-168.96L88.746667 498.346667z" fill="#333333" p-id="13395"></path></svg>