<?xml version="1.0" standalone="no"?><!DOCTYPE svg PUBLIC "-//W3C//DTD SVG 1.1//EN" "http://www.w3.org/Graphics/SVG/1.1/DTD/svg11.dtd"><svg t="1687613571993" class="icon" viewBox="0 0 1024 1024" version="1.1" xmlns="http://www.w3.org/2000/svg" p-id="1445" xmlns:xlink="http://www.w3.org/1999/xlink" width="200" height="200"><path d="M519.2 787.2V440.8H86.4v306.4c0 22.4 17.6 40 40 40h392.8z" fill="#FF697D" p-id="1446"></path><path d="M512 676.8H86.4v70.4c0 22.4 17.6 40 40 40H512V676.8z" fill="#C95065" p-id="1447"></path><path d="M519.2 613.6c-14.4 0-28 0-42.4-0.8-24-0.8-44.8 18.4-44.8 43.2v263.2c0 21.6 16.8 39.2 37.6 40 16 0.8 32.8 0.8 49.6 0.8 239.2 0 432.8-77.6 432.8-172.8V440.8c0 95.2-193.6 172.8-432.8 172.8z" fill="#96666C" p-id="1448"></path><path d="M519.2 267.2C280 267.2 86.4 344.8 86.4 440h432.8l-56 110.4c-14.4 28.8 5.6 62.4 38.4 63.2h36c24 0 43.2 19.2 43.2 43.2v152.8c0 24 19.2 42.4 42.4 43.2 23.2 0 42.4-19.2 42.4-42.4V640c0-20.8 15.2-38.4 35.2-42.4h1.6c26.4-4.8 51.2 15.2 51.2 42.4v83.2c0 24 19.2 42.4 42.4 43.2 23.2 0 42.4-19.2 42.4-42.4l0.8-139.2c0-16 8.8-30.4 23.2-37.6 43.2-22.4 72.8-48.8 84.8-77.6 4-9.6 5.6-19.2 5.6-28-0.8-96.8-194.4-174.4-433.6-174.4z" fill="#FFFFFF" p-id="1449"></path><path d="M795.2 790.4c-17.6 0-34.4-7.2-47.2-20-12.8-12.8-19.2-29.6-19.2-47.2 0-13.6 10.4-24 24-24s24 11.2 24 24c0 4.8 1.6 9.6 5.6 13.6s8 5.6 13.6 5.6c10.4 0 18.4-8 18.4-18.4l0.8-139.2c0-24.8 13.6-48 36-59.2 7.2-3.2 13.6-7.2 19.2-11.2 11.2-7.2 26.4-3.2 32.8 8 7.2 11.2 3.2 26.4-8 32.8-7.2 4-14.4 8.8-22.4 12.8-5.6 3.2-9.6 9.6-9.6 16.8l-0.8 139.2c-0.8 36-30.4 66.4-67.2 66.4z" fill="#3F4A54" p-id="1450"></path><path d="M622.4 876c-17.6 0-34.4-7.2-47.2-20-12.8-12.8-19.2-29.6-19.2-47.2v-66.4c0-13.6 11.2-24 24-24 13.6 0 24 11.2 24 24v66.4c0 4.8 1.6 9.6 5.6 13.6 3.2 3.2 8 5.6 13.6 5.6 10.4 0 18.4-8 18.4-18.4V640c0-32 23.2-60 55.2-65.6h0.8c20-4 40 1.6 55.2 14.4 15.2 12.8 24 32 24 52 0 12.8-11.2 24-24 24-13.6 0-24-11.2-24-24 0-8-4-12.8-7.2-14.4-2.4-2.4-8-5.6-16-4h-0.8c-8.8 1.6-16 9.6-16 19.2l-0.8 169.6c0.8 35.2-28.8 64.8-65.6 64.8z" fill="#3F4A54" p-id="1451"></path><path d="M580 680c-13.6 0-24-11.2-24-24 0-4.8-1.6-9.6-5.6-13.6-3.2-3.2-8-5.6-12.8-5.6h-37.6c-23.2-0.8-44-12.8-56-32.8-12-20-12.8-44-2.4-64.8l56.8-111.2c6.4-12 20.8-16.8 32-10.4 12 6.4 16.8 20.8 10.4 32l-56.8 111.2c-4 8-0.8 15.2 0.8 17.6 1.6 2.4 6.4 8.8 16 8.8h36c17.6 0 35.2 6.4 47.2 19.2 12.8 12.8 20 29.6 20 48 0 15.2-11.2 25.6-24 25.6zM519.2 984c-16 0-31.2 0-47.2-0.8-36-1.6-64-31.2-64-67.2l0.8-219.2c0-13.6 10.4-24 24-24s24 11.2 24 24l-0.8 219.2c0 10.4 8 19.2 18.4 19.2 15.2 0.8 30.4 0.8 44.8 0.8 240.8 0 408.8-78.4 408.8-148.8 0-13.6 10.4-24 24-24s24 10.4 24 24c0 112-196.8 196.8-456.8 196.8z" fill="#3F4A54" p-id="1452"></path><path d="M432 811.2H129.6c-36.8 0-67.2-30.4-67.2-67.2V527.2c0-13.6 10.4-24 24-24s24 10.4 24 24V744c0 10.4 8.8 19.2 19.2 19.2H432c13.6 0 24 10.4 24 24s-10.4 24-24 24zM952 624.8c-13.6 0-24-10.4-24-24v-160c0-13.6 10.4-24 24-24s24 10.4 24 24v160c0 12.8-10.4 24-24 24zM952 720.8c-6.4 0-12.8-2.4-16.8-7.2-4.8-4.8-7.2-10.4-7.2-16.8 0-1.6 0-3.2 0.8-4.8 0-1.6 0.8-3.2 1.6-4.8 0.8-1.6 1.6-3.2 2.4-4 0.8-1.6 1.6-2.4 3.2-4l3.2-3.2c1.6-0.8 2.4-1.6 4-2.4 1.6-0.8 3.2-0.8 4.8-1.6 8-1.6 16 0.8 21.6 6.4 4.8 4.8 7.2 10.4 7.2 16.8s-2.4 12.8-7.2 16.8c-4.8 6.4-11.2 8.8-17.6 8.8zM519.2 464.8H97.6c-13.6 0-24-10.4-24-24s10.4-24 24-24h420.8c13.6 0 24 10.4 24 24s-9.6 24-23.2 24z" fill="#3F4A54" p-id="1453"></path><path d="M97.6 464.8c-13.6 0-25.6-6.4-33.6-17.6-8-10.4-9.6-24.8-5.6-36.8 20.8-62.4 108-114.4 239.2-144 12.8-3.2 25.6 5.6 28.8 18.4 3.2 12.8-5.6 25.6-18.4 28.8-104.8 23.2-180 63.2-200.8 104.8 8.8 4 14.4 12 14.4 22.4 0 12.8-10.4 24-24 24z" fill="#3F4A54" p-id="1454"></path><path d="M952 464.8c-13.6 0-24-10.4-24-24 0-25.6-21.6-47.2-39.2-60.8-10.4-8-12.8-23.2-4.8-33.6 8-10.4 23.2-12.8 33.6-4.8 48 36.8 58.4 74.4 58.4 99.2 0 12.8-10.4 24-24 24z" fill="#3F4A54" p-id="1455"></path><path d="M608 424.8c-13.6 0-24-10.4-24-24v-160c0-13.6 10.4-24 24-24s24 10.4 24 24v160c0 12.8-10.4 24-24 24z" fill="#3F4A54" p-id="1456"></path><path d="M608 184.8c-6.4 0-12.8-2.4-16.8-7.2s-7.2-10.4-7.2-16.8 2.4-12.8 7.2-16.8l3.2-3.2c1.6-0.8 2.4-1.6 4-2.4 1.6-0.8 3.2-0.8 4.8-1.6 8-1.6 16 0.8 21.6 6.4 4.8 4.8 7.2 10.4 7.2 16.8 0 1.6 0 3.2-0.8 4.8 0 1.6-0.8 3.2-1.6 4.8-0.8 1.6-1.6 3.2-2.4 4-0.8 1.6-1.6 2.4-3.2 4l-3.2 3.2c-1.6 0.8-2.4 1.6-4 2.4-0.8 0-2.4 0.8-4 0.8s-3.2 0.8-4.8 0.8z" fill="#3F4A54" p-id="1457"></path><path d="M792 368.8c-13.6 0-24-10.4-24-24v-160c0-13.6 10.4-24 24-24s24 10.4 24 24v160c0 12.8-10.4 24-24 24z" fill="#3F4A54" p-id="1458"></path><path d="M792 128.8c-6.4 0-12.8-2.4-16.8-7.2-0.8-0.8-2.4-2.4-3.2-4-0.8-1.6-1.6-2.4-2.4-4-0.8-1.6-0.8-3.2-1.6-4.8 0-1.6-0.8-3.2-0.8-4.8 0-1.6 0-3.2 0.8-4.8 0-1.6 0.8-3.2 1.6-4.8 0.8-1.6 1.6-3.2 2.4-4 0.8-1.6 1.6-2.4 3.2-4 5.6-5.6 13.6-8 21.6-6.4 1.6 0 3.2 0.8 4.8 1.6 1.6 0.8 3.2 1.6 4 2.4 1.6 0.8 2.4 1.6 3.2 3.2 0.8 0.8 2.4 2.4 3.2 4 0.8 1.6 1.6 2.4 2.4 4 0.8 1.6 0.8 3.2 1.6 4.8 0 1.6 0.8 3.2 0.8 4.8 0 1.6 0 3.2-0.8 4.8 0 1.6-0.8 3.2-1.6 4.8-0.8 1.6-1.6 3.2-2.4 4-0.8 1.6-1.6 2.4-3.2 4-4 4-10.4 6.4-16.8 6.4z" fill="#3F4A54" p-id="1459"></path><path d="M408 368.8c-13.6 0-24-10.4-24-24v-160c0-13.6 10.4-24 24-24s24 10.4 24 24v160c0 12.8-10.4 24-24 24z" fill="#3F4A54" p-id="1460"></path><path d="M408 128.8c-6.4 0-12.8-2.4-16.8-7.2-0.8-0.8-2.4-2.4-3.2-4-0.8-1.6-1.6-2.4-2.4-4-0.8-1.6-0.8-3.2-1.6-4.8 0-1.6-0.8-3.2-0.8-4.8 0-1.6 0-3.2 0.8-4.8 0-1.6 0.8-3.2 1.6-4.8 0.8-1.6 1.6-3.2 2.4-4 0.8-1.6 1.6-2.4 3.2-4 8.8-8.8 24.8-8.8 33.6 0 4.8 4.8 7.2 10.4 7.2 16.8s-2.4 12.8-7.2 16.8c-4 6.4-10.4 8.8-16.8 8.8z" fill="#3F4A54" p-id="1461"></path></svg>