<?xml version="1.0" standalone="no"?><!DOCTYPE svg PUBLIC "-//W3C//DTD SVG 1.1//EN" "http://www.w3.org/Graphics/SVG/1.1/DTD/svg11.dtd"><svg t="1687248959880" class="icon" viewBox="0 0 1024 1024" version="1.1" xmlns="http://www.w3.org/2000/svg" p-id="31074" xmlns:xlink="http://www.w3.org/1999/xlink" width="200" height="200"><path d="M183.83 183.83h656.35c45.31 0 82.04 36.73 82.04 82.04v492.26c0 45.31-36.73 82.04-82.04 82.04H183.83c-45.31 0-82.04-36.73-82.04-82.04V265.87c-0.01-45.31 36.72-82.04 82.04-82.04z" fill="#2E3133" opacity=".3" p-id="31075"></path><path d="M778.64 470.98H245.36c-33.98 0-61.53 27.55-61.53 61.53v20.51h188.12c10.88 0 21.31 4.32 29.01 12.02l41.02 41.02c38.68 38.68 101.38 38.68 140.06 0l41.02-41.02a41.083 41.083 0 0 1 29.01-12.02h188.12v-20.51c-0.02-33.98-27.57-61.53-61.55-61.53zM245.36 265.87c-33.98 0-61.53 27.55-61.53 61.53v20.51h656.35V327.4c0-33.98-27.55-61.53-61.53-61.53H245.36z" fill="#2E3133" p-id="31076"></path></svg>