<?xml version="1.0" standalone="no"?><!DOCTYPE svg PUBLIC "-//W3C//DTD SVG 1.1//EN" "http://www.w3.org/Graphics/SVG/1.1/DTD/svg11.dtd"><svg t="1687656634282" class="icon" viewBox="0 0 1024 1024" version="1.1" xmlns="http://www.w3.org/2000/svg" p-id="26939" xmlns:xlink="http://www.w3.org/1999/xlink" width="200" height="200"><path d="M819.2 230.4L710.4 416l-6.4 6.4v505.6c0 51.2-44.8 96-96 96-44.8 0-83.2-224-96-320-6.4 96-44.8 320-96 320S320 979.2 320 928v-256-19.2-230.4l-6.4-6.4-108.8-185.6c-25.6-32-12.8-70.4 25.6-89.6 32-19.2 76.8-12.8 96 25.6L422.4 320h179.2l96-160c19.2-32 64-44.8 102.4-25.6 32 19.2 44.8 64 19.2 96zM512 256c-70.4 0-128-57.6-128-128s57.6-128 128-128 128 57.6 128 128-57.6 128-128 128z" fill="#AED2FA" p-id="26940"></path></svg>