<?xml version="1.0" standalone="no"?><!DOCTYPE svg PUBLIC "-//W3C//DTD SVG 1.1//EN" "http://www.w3.org/Graphics/SVG/1.1/DTD/svg11.dtd"><svg t="1687651069815" class="icon" viewBox="0 0 1024 1024" version="1.1" xmlns="http://www.w3.org/2000/svg" p-id="13725" xmlns:xlink="http://www.w3.org/1999/xlink" width="200" height="200"><path d="M503.466667 981.333333A467.2 467.2 0 0 1 42.666667 520.533333C38.4 273.066667 228.266667 64 475.733333 44.8h12.8c51.2-2.133333 98.133333 14.933333 134.4 49.066667C661.333333 130.133333 682.666667 181.333333 682.666667 234.666667c0 6.4 0 12.8 2.133333 19.2 6.4 42.666667 42.666667 78.933333 85.333333 85.333333 6.4 2.133333 12.8 2.133333 19.2 2.133333 53.333333 0 104.533333 21.333333 140.8 59.733334 34.133333 36.266667 53.333333 83.2 49.066667 134.4v12.8C962.133333 791.466667 757.333333 981.333333 512 981.333333h-8.533333z m-21.333334-851.2C283.733333 145.066667 123.733333 320 128 518.4 132.266667 725.333333 296.533333 891.733333 505.6 896c200.533333 2.133333 373.333333-155.733333 390.4-354.133333v-10.666667c2.133333-25.6-8.533333-51.2-25.6-70.4-19.2-21.333333-49.066667-32-78.933333-32-10.666667 0-23.466667 0-34.133334-2.133333-78.933333-12.8-142.933333-76.8-155.733333-155.733334-4.266667-14.933333-4.266667-25.6-4.266667-36.266666 0-29.866667-12.8-59.733333-32-78.933334-19.2-17.066667-42.666667-27.733333-66.133333-27.733333h-4.266667c-4.266667 0-8.533333 0-12.8 2.133333zM426.666667 405.333333c-46.933333 0-85.333333-38.4-85.333334-85.333333s38.4-85.333333 85.333334-85.333333 85.333333 38.4 85.333333 85.333333-38.4 85.333333-85.333333 85.333333z m-21.333334 234.666667c36.266667 0 64 27.733333 64 64s-27.733333 64-64 64-64-27.733333-64-64 27.733333-64 64-64z m-106.666666-53.333333c-36.266667 0-64-27.733333-64-64s27.733333-64 64-64 64 27.733333 64 64-27.733333 64-64 64z" fill="#13227a" p-id="13726"></path></svg>