<?xml version="1.0" standalone="no"?><!DOCTYPE svg PUBLIC "-//W3C//DTD SVG 1.1//EN" "http://www.w3.org/Graphics/SVG/1.1/DTD/svg11.dtd"><svg t="1687656551040" class="icon" viewBox="0 0 1241 1024" version="1.1" xmlns="http://www.w3.org/2000/svg" p-id="21894" xmlns:xlink="http://www.w3.org/1999/xlink" width="242.3828125" height="200"><path d="M 1030.5 0 H 210.933 A 211.178 211.178 0 0 0 0 210.933 v 469.248 a 211.178 211.178 0 0 0 210.933 210.933 h 247.892 L 562.32 999.079 a 81.2597 81.2597 0 0 0 58.386 24.9206 a 81.2973 81.2973 0 0 0 58.4048 -24.9206 l 103.42 -107.871 h 247.892 a 211.178 211.178 0 0 0 211.009 -211.027 V 210.933 A 211.178 211.178 0 0 0 1030.5 0 Z M 383.425 485.568 a 46.9492 46.9492 0 1 1 46.9492 -46.9492 a 46.9492 46.9492 0 0 1 -46.9492 46.9492 Z m 254.634 0 a 46.9492 46.9492 0 1 1 46.9492 -46.9492 a 46.9492 46.9492 0 0 1 -46.9492 46.9492 Z m 254.634 0 a 46.9492 46.9492 0 1 1 46.9492 -46.9492 a 46.9492 46.9492 0 0 1 -46.9492 46.9492 Z" fill="#f4ea2a" p-id="21895"></path></svg>