<?xml version="1.0" standalone="no"?><!DOCTYPE svg PUBLIC "-//W3C//DTD SVG 1.1//EN" "http://www.w3.org/Graphics/SVG/1.1/DTD/svg11.dtd"><svg t="1687616240604" class="icon" viewBox="0 0 1024 1024" version="1.1" xmlns="http://www.w3.org/2000/svg" p-id="1610" xmlns:xlink="http://www.w3.org/1999/xlink" width="200" height="200"><path d="M612 105.6c0-4.8-20.8-20-40-20-132.8 0-240 107.2-240 240V664c0 44 36 80 80 80h320c44 0 80-36 80-80V325.6c0-13.6-0.8-27.2-3.2-40h-0.8c-99.2 0-196-80.8-196-180z" fill="#CADBEA" p-id="1611"></path><path d="M508 970.4c-35.2 0-64-28.8-64-64v-176h128v176c0 36-28.8 64-64 64z" fill="#EFD5BE" p-id="1612"></path><path d="M508 994.4c-48.8 0-88-39.2-88-88v-80c0-13.6 10.4-24 24-24s24 10.4 24 24v80c0 22.4 17.6 40 40 40s40-17.6 40-40v-176c0-13.6 10.4-24 24-24s24 10.4 24 24v176c0 48.8-39.2 88-88 88z" fill="#3F4A54" p-id="1613"></path><path d="M612 744h-320c-44 0-80-36-80-80V325.6c0-132.8 107.2-240 240-240s240 107.2 240 240V664c0 44-36 80-80 80z" fill="#FFFFFF" p-id="1614"></path><path d="M628 105.6c0-11.2-8.8-20-20-20H452.8c-0.8 6.4-0.8 13.6-0.8 20 0 99.2 80.8 180 180 180 19.2 0 37.6-3.2 55.2-8.8h65.6c-72-23.2-124.8-91.2-124.8-171.2z" fill="#B379DB" p-id="1615"></path><path d="M732 768h-440c-57.6 0-104-46.4-104-104V325.6c0-145.6 118.4-264 264-264H608c13.6 0 24 10.4 24 24s-10.4 24-24 24H452c-119.2 0-216 96.8-216 216V664c0 31.2 24.8 56 56 56h440c13.6 0 24 10.4 24 24s-10.4 24-24 24z" fill="#3F4A54" p-id="1616"></path><path d="M732 768c-13.6 0-24-10.4-24-24s10.4-24 24-24c31.2 0 56-24.8 56-56V285.6c0-13.6 10.4-24 24-24s24 10.4 24 24V664c0 57.6-46.4 104-104 104z" fill="#3F4A54" p-id="1617"></path><path d="M807.2 300.8h-120c-13.6 0-24-10.4-24-24s10.4-24 24-24h120c13.6 0 24 10.4 24 24s-11.2 24-24 24z" fill="#3F4A54" p-id="1618"></path></svg>