<?xml version="1.0" standalone="no"?><!DOCTYPE svg PUBLIC "-//W3C//DTD SVG 1.1//EN" "http://www.w3.org/Graphics/SVG/1.1/DTD/svg11.dtd"><svg t="1687656494477" class="icon" viewBox="0 0 1024 1024" version="1.1" xmlns="http://www.w3.org/2000/svg" p-id="19388" width="200" height="200" xmlns:xlink="http://www.w3.org/1999/xlink"><path d="M572.688617 180.139229l-301.516463 0 0-120.413923 60.688617 0q0-25.046096 17.339605-42.385701t42.385701-17.339605l60.688617 0q25.046096 0 42.385701 17.339605t17.339605 42.385701l60.688617 0 0 120.413923zM422.412041 126.193791q15.412982 0 26.491063-11.078081t11.078081-26.491063q0-16.376294-11.078081-26.972719t-26.491063-10.596425q-16.376294 0-26.972719 10.596425t-10.596425 26.972719q0 15.412982 10.596425 26.491063t26.972719 11.078081zM664.203198 600.142992q43.349012 0 81.881468 16.857949t67.431797 45.757291 45.757291 67.431797 16.857949 81.881468q0 44.312324-16.857949 82.844779t-45.757291 67.431797-67.431797 45.275635-81.881468 16.376294q-44.312324 0-82.844779-16.376294t-67.431797-45.275635-45.757291-67.431797-16.857949-82.844779q0-43.349012 16.857949-81.881468t45.757291-67.431797 67.431797-45.757291 82.844779-16.857949zM795.213547 793.768579q5.779868-6.74318 10.596425-16.376294t-2.889934-17.339605q-1.926623-1.926623-9.151458-9.633114t-9.151458-8.669802q-9.633114-6.74318-18.302916-1.926623t-17.339605 13.486359q-22.156162 22.156162-43.830668 43.349012t-40.940734 40.459078q-6.74318 6.74318-14.931326 8.188147t-13.004704-5.298213q-2.889934-2.889934-9.151458-9.633114t-13.004704-14.449671-13.004704-14.931326-9.151458-10.11477q-5.779868-4.816557-13.004704-6.261524t-14.931326 5.298213q-0.963311 0.963311-4.816557 4.334901t-7.706491 7.706491-7.706491 7.706491-4.816557 4.334901q-14.449671 15.412982 3.853246 35.642521 5.779868 6.74318 15.412982 16.857949t20.229539 21.674506 21.19285 22.637817 18.302916 17.821261q7.706491 7.706491 21.19285 7.224835t20.229539-8.188147q13.486359-12.523048 30.825964-30.344309t36.124177-36.124177 36.605833-36.124177 32.270931-31.30762zM388.696143 783.172154q0 6.74318-0.481656 13.486359t-0.481656 14.449671q0 43.349012 12.523048 82.363123t35.642521 71.766698l-281.286924 0q-18.302916 0-39.977422-10.596425t-40.459078-27.93603-31.30762-39.495767-12.523048-46.238946l0-596.289746q0-20.229539 9.633114-41.904045t25.046096-39.977422 35.642521-30.344309 42.385701-12.041392l68.395108 0 0 120.413923 420.967074 0 0-120.413923 59.725306 0q22.156162 0 43.830668 9.633114t39.014111 26.009407 28.417686 39.495767 11.078081 49.128881l0 341.01223q-33.715898-22.156162-72.248354-34.67921t-81.881468-12.523048l-6.74318 0q17.339605-6.74318 28.417686-22.156162t11.078081-34.67921q0-25.046096-17.821261-42.385701t-42.867357-17.339605l-420.967074 0q-25.046096 0-42.867357 17.339605t-17.821261 42.385701 17.821261 42.867357 42.867357 17.821261l403.627469 0q-57.798683 9.633114-105.000941 40.940734t-78.028222 79.473189l-220.598307 0q-25.046096 0-42.867357 17.339605t-17.821261 42.385701 17.821261 42.867357 42.867357 17.821261l177.249294 0z" p-id="19389" fill="#13227a"></path></svg>