<?xml version="1.0" standalone="no"?><!DOCTYPE svg PUBLIC "-//W3C//DTD SVG 1.1//EN" "http://www.w3.org/Graphics/SVG/1.1/DTD/svg11.dtd"><svg height="1024" node-id="1" sillyvg="true" template-height="1024" template-width="1024" version="1.1" viewBox="0 0 1024 1024" width="1024" xmlns="http://www.w3.org/2000/svg" xmlns:xlink="http://www.w3.org/1999/xlink"><defs node-id="43"></defs><g node-id="126"><g node-id="128"><g node-id="129"><g node-id="130"><g node-id="131"><path d="M 149.80 357.10 C 182.00 287.60 293.60 239.90 334.20 225.30 C 374.80 210.70 459.80 334.30 562.80 367.20 C 665.80 400.10 792.50 341.70 806.70 334.10 C 820.80 326.40 919.00 465.80 919.80 518.70 C 920.60 571.60 807.10 741.40 713.70 750.70 C 620.30 760.00 225.70 751.90 238.40 670.80 C 251.10 589.70 246.90 555.70 159.10 522.50 C 71.30 489.20 149.80 357.10 149.80 357.10 Z" fill="#dffdff" fill-rule="nonzero" group-id="1,3,4,5,6" node-id="57" stroke="none" target-height="549.3" target-width="849.3" target-x="71.3" target-y="210.7"></path><path d="M 931.50 289.90 C 931.50 311.00 914.40 328.10 893.30 328.10 C 872.20 328.10 855.10 311.00 855.10 289.90 C 855.10 268.80 872.20 251.70 893.30 251.70 C 914.40 251.70 931.50 268.80 931.50 289.90 Z" fill="#dffdff" fill-rule="nonzero" group-id="1,3,4,5,6" node-id="59" stroke="none" target-height="76.40001" target-width="76.400024" target-x="855.1" target-y="251.7"></path><path d="M 977.90 374.80 C 977.90 384.96 969.66 393.20 959.50 393.20 C 949.34 393.20 941.10 384.96 941.10 374.80 C 941.10 364.64 949.34 356.40 959.50 356.40 C 969.66 356.40 977.90 364.64 977.90 374.80 Z" fill="#dffdff" fill-rule="nonzero" group-id="1,3,4,5,6" node-id="61" stroke="none" target-height="36.80002" target-width="36.80005" target-x="941.1" target-y="356.4"></path></g></g></g></g></g><g node-id="127"><path d="M 551.80 135.20 L 510.40 168.70 L 87.00 617.90 L 45.60 671.80 L 92.20 634.40 L 520.10 175.20 Z" fill="#cbcbcb" fill-rule="nonzero" group-id="2" node-id="70" stroke="none" target-height="536.6" target-width="506.19998" target-x="45.6" target-y="135.2"></path><path d="M 394.20 434.90 C 394.20 434.90 378.80 447.10 374.60 452.50 C 370.40 457.90 368.50 462.10 362.90 459.00 C 357.30 455.90 286.90 416.80 274.30 418.10 C 261.60 419.40 246.10 432.90 245.30 439.00 C 244.50 445.10 246.30 451.60 250.10 454.90 C 253.90 458.20 260.80 458.40 263.90 458.00 C 267.00 457.60 274.60 459.20 279.80 455.90 C 285.00 452.60 288.20 450.10 295.30 453.40 C 302.40 456.70 322.90 481.40 331.00 487.60 C 339.10 493.70 357.90 506.00 361.90 504.90 C 365.90 503.80 413.30 482.10 413.30 482.10 L 394.20 434.90 Z" fill="#ffd1d0" fill-rule="nonzero" group-id="2" node-id="72" stroke="none" target-height="89.20001" target-width="168.79999" target-x="244.5" target-y="416.8"></path><path d="M 393.00 435.90 L 389.30 439.70 C 389.30 439.70 391.70 457.30 395.20 464.60 C 398.60 471.90 404.40 486.10 404.40 486.10 L 408.10 484.40 L 393.00 435.90 Z" fill="#fcc3c4" fill-rule="nonzero" group-id="2" node-id="74" stroke="none" target-height="50.200012" target-width="18.800018" target-x="389.3" target-y="435.9"></path><path d="M 665.70 322.50 C 665.70 322.50 675.70 321.90 679.30 321.80 C 691.40 321.40 713.50 329.00 733.20 339.70 C 754.90 351.50 768.80 355.00 775.70 357.60 C 782.60 360.20 803.50 376.40 803.00 380.10 C 799.70 381.20 794.30 375.80 792.70 374.80 C 787.70 371.60 788.40 372.70 784.50 371.10 C 785.80 373.00 791.60 379.30 797.30 382.90 C 801.30 385.40 802.90 389.90 801.50 389.40 C 794.80 387.00 783.00 380.40 780.40 380.00 C 781.30 384.00 788.60 387.40 791.50 389.70 C 794.40 392.00 805.40 399.60 800.30 398.70 C 794.40 397.70 780.60 390.30 774.80 388.30 C 775.10 393.80 778.40 395.20 782.40 399.10 C 786.00 402.70 789.60 403.40 789.40 406.10 C 789.20 409.00 786.70 407.20 778.70 403.00 C 770.70 398.80 758.80 392.90 752.10 392.70 C 745.40 392.50 746.70 386.70 742.30 377.10 C 737.90 367.50 708.30 365.10 694.70 362.20 C 681.10 359.30 675.50 356.10 675.50 356.10 L 662.90 357.80 L 665.70 322.50 Z" fill="#ffd1d0" fill-rule="nonzero" group-id="2" node-id="76" stroke="none" target-height="87.600006" target-width="142.5" target-x="662.9" target-y="321.4"></path><path d="M 666.70 322.30 L 668.90 321.80 C 668.90 321.80 670.70 334.60 670.10 340.00 C 669.50 345.40 666.70 357.30 666.70 357.30 L 664.80 357.60 L 666.70 322.30 Z" fill="#fcc3c4" fill-rule="nonzero" group-id="2" node-id="78" stroke="none" target-height="35.80002" target-width="5.9000244" target-x="664.8" target-y="321.8"></path><path d="M 522.40 327.60 C 522.40 327.60 529.50 345.80 531.40 346.20 C 533.30 346.60 522.80 356.20 510.10 362.30 C 497.40 368.40 480.20 379.40 480.20 379.40 C 480.20 379.40 476.20 350.70 468.10 347.90 C 460.00 345.20 522.40 327.60 522.40 327.60 Z" fill="#ffd1d0" fill-rule="nonzero" group-id="2" node-id="80" stroke="none" target-height="51.799988" target-width="73.29999" target-x="460" target-y="327.6"></path><path d="M 524.00 333.30 L 470.60 347.90 C 470.60 347.90 470.70 348.10 471.00 348.50 L 471.00 348.50 C 471.00 348.50 475.80 357.60 477.60 365.80 C 479.40 374.20 479.90 376.60 479.90 376.60 L 480.50 362.20 C 480.50 362.20 482.30 360.70 487.20 359.70 C 525.20 351.90 524.00 333.30 524.00 333.30 Z" fill="#fcc3c4" fill-rule="nonzero" group-id="2" node-id="82" stroke="none" target-height="43.30002" target-width="54.600006" target-x="470.6" target-y="333.3"></path><path d="M 495.40 275.20 C 495.40 275.20 469.20 273.20 463.50 290.70 C 457.70 308.30 452.00 328.70 464.70 343.40 C 477.40 358.10 510.80 349.30 519.80 340.00 C 527.40 332.10 528.30 317.20 520.30 299.30 C 512.30 281.40 505.80 276.70 495.40 275.20 Z" fill="#ffd1d0" fill-rule="nonzero" group-id="2" node-id="84" stroke="none" target-height="84.899994" target-width="76.29999" target-x="452" target-y="273.2"></path><path d="M 510.40 283.00 C 510.40 283.00 504.00 269.90 502.20 265.30 C 500.50 260.70 495.10 257.40 495.10 257.40 C 495.10 257.40 461.90 249.20 444.60 266.60 C 427.30 284.00 422.20 299.10 425.70 312.60 C 429.20 326.10 430.80 328.60 433.70 334.30 C 436.60 340.10 466.60 356.40 473.80 357.60 C 473.70 355.20 470.40 347.90 470.40 347.90 C 470.40 347.90 457.60 332.20 461.00 315.20 C 464.50 298.20 474.00 281.00 484.60 278.10 C 495.40 275.20 510.40 283.00 510.40 283.00 Z" fill="#0a0a0a" fill-rule="nonzero" group-id="2" node-id="86" stroke="none" target-height="108.40001" target-width="88.19998" target-x="422.2" target-y="249.2"></path><path d="M 463.20 617.90 C 463.20 617.90 436.80 658.20 433.30 670.40 C 429.80 682.70 418.30 703.80 415.60 713.00 C 412.90 722.20 383.80 744.10 379.50 750.60 C 375.20 757.10 363.00 784.80 358.80 791.70 C 354.60 798.60 345.00 811.70 345.00 811.70 L 379.20 828.60 C 379.20 828.60 396.10 802.10 406.80 795.20 C 417.50 788.30 426.80 775.60 446.70 749.90 C 466.70 724.20 529.90 663.60 529.90 663.60 L 463.20 617.90 Z" fill="#ffd1d0" fill-rule="nonzero" group-id="2" node-id="88" stroke="none" target-height="210.69995" target-width="184.90002" target-x="345" target-y="617.9"></path><path d="M 463.20 617.90 L 460.00 622.80 C 460.00 622.80 483.00 644.70 492.80 652.20 C 502.60 659.70 521.50 671.80 521.50 671.80 L 524.10 669.30 L 463.20 617.90 Z" fill="#fcc3c4" fill-rule="nonzero" group-id="2" node-id="90" stroke="none" target-height="53.899963" target-width="64.099976" target-x="460" target-y="617.9"></path><path d="M 693.90 587.20 C 693.90 587.20 722.30 611.40 725.70 616.00 C 729.20 620.60 763.30 670.10 767.50 672.80 C 771.70 675.50 778.20 687.40 786.70 698.50 C 795.10 709.60 814.30 736.50 816.20 743.40 C 818.10 750.30 830.70 795.50 834.20 805.60 C 838.00 816.50 841.60 817.60 841.60 817.60 C 841.60 817.60 821.50 826.70 811.90 825.10 C 802.30 823.60 801.90 818.40 801.90 818.40 C 801.90 818.40 792.70 795.50 780.80 787.10 C 768.90 778.70 749.00 749.50 743.60 734.50 C 738.20 719.50 712.10 704.60 687.60 690.40 C 663.00 676.20 638.90 656.20 638.90 656.20 L 693.90 587.20 Z" fill="#ffd1d0" fill-rule="nonzero" group-id="2" node-id="92" stroke="none" target-height="239.5" target-width="202.69995" target-x="638.9" target-y="587.2"></path><path d="M 645.40 661.30 L 649.70 664.60 C 649.70 664.60 680.00 625.90 685.20 617.90 C 690.40 609.90 700.90 593.10 700.90 593.10 L 697.80 590.40 L 645.40 661.30 Z" fill="#fcc3c4" fill-rule="nonzero" group-id="2" node-id="94" stroke="none" target-height="74.19995" target-width="55.5" target-x="645.4" target-y="590.4"></path><path d="M 497.00 579.70 C 497.00 579.70 464.40 614.00 462.10 615.90 C 459.80 617.80 530.00 678.10 536.20 675.40 C 542.30 672.70 565.70 637.40 583.00 637.80 C 600.30 638.20 612.80 651.90 620.90 657.40 C 629.00 662.90 635.60 670.90 639.30 668.30 C 643.00 665.70 697.70 592.90 698.30 588.90 C 698.90 584.90 684.20 578.80 673.60 571.30 C 663.00 563.80 646.80 552.30 646.80 552.30 L 636.20 534.20 C 636.20 534.20 593.90 555.80 556.80 564.70 C 519.60 573.70 497.00 579.70 497.00 579.70 Z" fill="#faafff" fill-rule="nonzero" group-id="2" node-id="96" stroke="none" target-height="143.89996" target-width="239.10004" target-x="459.8" target-y="534.2"></path><path d="M 800.20 816.60 C 800.20 816.60 810.30 820.80 824.70 818.80 C 839.10 816.80 842.00 815.20 842.00 815.20 C 842.00 815.20 848.00 826.00 854.10 830.60 C 860.10 835.20 887.20 851.30 891.80 859.40 C 894.00 863.20 895.70 866.70 896.90 869.40 C 898.20 872.30 897.20 875.80 894.50 877.40 C 890.00 880.00 882.30 883.00 871.40 881.60 C 853.30 879.30 835.10 869.20 828.20 867.20 C 821.30 865.20 807.60 864.90 802.00 861.20 C 796.10 857.20 793.10 846.50 797.70 835.60 C 802.20 824.60 800.20 816.60 800.20 816.60 Z" fill="#2c2e3b" fill-rule="nonzero" group-id="2" node-id="98" stroke="none" target-height="67.79999" target-width="105.10004" target-x="793.1" target-y="815.2"></path><path d="M 459.10 314.50 C 459.10 314.50 453.40 312.00 450.70 314.50 C 448.00 317.00 448.70 325.60 453.60 329.10 C 458.50 332.60 462.80 332.60 462.80 332.60 L 459.10 314.50 Z" fill="#ffd1d0" fill-rule="nonzero" group-id="2" node-id="100" stroke="none" target-height="20.600006" target-width="14.799988" target-x="448" target-y="312"></path><path d="M 494.30 583.40 C 494.30 583.40 528.00 585.70 573.20 571.60 C 588.40 566.80 639.10 539.10 639.10 539.10 L 636.20 534.20 C 636.20 534.20 587.90 560.10 572.30 562.40 C 556.80 564.70 498.50 577.90 498.50 577.90 L 494.30 583.40 Z" fill="#eda1f6" fill-rule="nonzero" group-id="2" node-id="102" stroke="none" target-height="51.5" target-width="144.79999" target-x="494.3" target-y="534.2"></path><path d="M 536.00 337.10 C 536.00 337.10 521.10 357.40 501.20 366.50 C 481.30 375.60 473.40 379.90 473.40 379.90 L 468.30 382.10 C 468.30 382.10 450.80 387.00 444.50 388.80 C 431.80 392.40 407.10 420.50 406.20 423.00 C 405.30 425.60 397.90 432.80 393.80 432.20 C 389.80 431.60 402.10 489.80 411.90 485.40 C 421.70 481.10 453.30 453.70 453.30 453.70 C 453.30 453.70 452.20 464.10 464.40 482.20 C 476.60 500.30 477.50 537.20 487.00 545.20 C 496.50 553.30 502.00 569.40 498.40 577.70 C 494.80 586.00 590.00 562.70 613.10 548.30 C 636.20 533.90 636.10 533.90 636.10 533.90 C 636.10 533.90 626.90 511.50 627.50 494.20 C 628.10 476.90 601.20 383.30 610.40 376.40 C 619.60 369.50 658.60 373.90 662.00 368.20 C 665.50 362.40 669.50 321.00 664.90 315.20 C 660.30 309.40 599.60 321.50 587.20 318.90 C 574.80 316.70 550.10 326.70 536.00 337.10 Z" fill="#faafff" fill-rule="nonzero" group-id="2" node-id="104" stroke="none" target-height="276.6" target-width="279.7" target-x="389.8" target-y="309.4"></path><path d="M 609.00 379.40 L 602.20 366.90 L 617.20 373.90 C 617.20 373.90 615.70 374.50 612.30 375.70 C 609.10 376.80 609.00 379.40 609.00 379.40 Z" fill="#eda1f6" fill-rule="nonzero" group-id="2" node-id="106" stroke="none" target-height="12.5" target-width="15" target-x="602.2" target-y="366.9"></path><path d="M 450.90 456.10 L 459.60 441.60 L 454.00 458.50 L 453.40 453.90 Z" fill="#eda1f6" fill-rule="nonzero" group-id="2" node-id="108" stroke="none" target-height="16.899994" target-width="8.700012" target-x="450.9" target-y="441.6"></path><path d="M 572.20 641.30 L 588.10 625.20 L 590.80 639.00 C 590.80 639.00 587.50 638.00 583.00 637.90 C 580.60 637.80 572.20 641.30 572.20 641.30 Z" fill="#eda1f6" fill-rule="nonzero" group-id="2" node-id="110" stroke="none" target-height="16.099976" target-width="18.599976" target-x="572.2" target-y="625.2"></path><path d="M 359.90 457.30 L 367.60 464.30 L 373.40 454.20 C 373.40 454.20 369.00 460.20 367.70 460.30 C 366.30 460.40 359.90 457.30 359.90 457.30 Z" fill="#fcc3c4" fill-rule="nonzero" group-id="2" node-id="112" stroke="none" target-height="10.099976" target-width="13.5" target-x="359.9" target-y="454.2"></path><path d="M 673.60 356.50 L 678.90 351.50 L 677.20 357.10 L 675.40 356.20 Z" fill="#fcc3c4" fill-rule="nonzero" group-id="2" node-id="114" stroke="none" target-height="5.600006" target-width="5.300049" target-x="673.6" target-y="351.5"></path><path d="M 732.00 719.30 L 748.70 723.20 L 741.90 730.50 C 741.90 730.50 739.50 727.10 737.70 724.90 C 736.10 723.00 732.00 719.30 732.00 719.30 Z" fill="#fcc3c4" fill-rule="nonzero" group-id="2" node-id="116" stroke="none" target-height="11.200012" target-width="16.700012" target-x="732" target-y="719.3"></path><path d="M 289.10 451.90 L 290.20 447.30 L 296.70 454.00 C 296.70 454.00 295.00 453.00 293.00 452.40 C 291.00 451.90 289.10 451.90 289.10 451.90 Z" fill="#fcc3c4" fill-rule="nonzero" group-id="2" node-id="118" stroke="none" target-height="6.700012" target-width="7.600006" target-x="289.1" target-y="447.3"></path><path d="M 801.80 817.20 L 800.40 814.70 C 800.40 814.70 813.40 817.30 817.70 817.20 C 822.00 817.10 837.20 812.30 837.20 812.30 L 839.70 816.00 C 839.70 816.00 828.00 819.10 817.50 819.40 C 807.00 819.70 801.80 817.20 801.80 817.20 Z" fill="#fcc3c4" fill-rule="nonzero" group-id="2" node-id="120" stroke="none" target-height="7.4000244" target-width="39.299988" target-x="800.4" target-y="812.3"></path><path d="M 352.20 801.70 L 353.80 799.40 C 353.80 799.40 358.00 809.10 363.60 811.60 C 369.20 814.10 387.20 816.90 387.20 816.90 L 385.80 818.90 C 385.80 818.90 371.00 818.20 362.40 813.60 C 353.70 809.00 352.20 801.70 352.20 801.70 Z" fill="#fcc3c4" fill-rule="nonzero" group-id="2" node-id="122" stroke="none" target-height="19.5" target-width="35" target-x="352.2" target-y="799.4"></path><path d="M 350.80 799.40 C 350.80 799.40 357.70 812.80 369.20 815.50 C 380.70 818.20 388.40 819.30 388.40 819.30 C 388.40 819.30 379.20 827.40 378.00 838.50 C 376.80 849.60 372.60 854.60 366.50 855.40 C 360.40 856.20 341.50 866.40 335.00 869.80 C 329.50 872.70 310.10 880.80 298.50 882.70 C 287.00 884.60 267.40 876.20 280.50 858.50 C 293.50 840.80 317.30 825.90 326.90 823.20 C 336.60 820.50 350.80 799.40 350.80 799.40 Z" fill="#2c2e3b" fill-rule="nonzero" group-id="2" node-id="124" stroke="none" target-height="85.19995" target-width="121" target-x="267.4" target-y="799.4"></path></g></svg>