<?xml version="1.0" standalone="no"?><!DOCTYPE svg PUBLIC "-//W3C//DTD SVG 1.1//EN" "http://www.w3.org/Graphics/SVG/1.1/DTD/svg11.dtd"><svg t="1687660230455" class="icon" viewBox="0 0 1024 1024" version="1.1" xmlns="http://www.w3.org/2000/svg" p-id="36838" xmlns:xlink="http://www.w3.org/1999/xlink" width="200" height="200"><path d="M512 512m-445 0a445 445 0 1 0 890 0 445 445 0 1 0-890 0Z" fill="#E6F3FF" p-id="36839"></path><path d="M512 653.7c-31.2 9.9-61.7 14-88.9 12.3 23.3 35.2 54.5 56.7 88.9 56.7 34.4 0 65.6-21.5 88.9-56.7-27.2 1.6-57.7-2.4-88.9-12.3zM512 370.3c31.2-9.9 61.7-14 88.9-12.3-23.3-35.2-54.5-56.7-88.9-56.7-34.4 0-65.6 21.5-88.9 56.7 27.2-1.6 57.7 2.4 88.9 12.3zM389.4 441.2c7.1-32 18.8-60.4 33.8-83.1-42.1 2.6-76.3 18.9-93.5 48.6-17.2 29.8-14.2 67.6 4.7 105.4 12-24.5 30.8-48.8 55-70.9zM634.6 582.8c-7.1 32-18.8 60.4-33.8 83.1 42.1-2.6 76.3-18.9 93.5-48.6 17.2-29.8 14.2-67.6-4.7-105.4-12 24.5-30.8 48.8-55 70.9zM689.7 512c18.8-37.7 21.8-75.6 4.7-105.4-17.2-29.8-51.4-46.1-93.5-48.6 15 22.7 26.7 51.1 33.8 83.1 24.1 22.2 42.9 46.5 55 70.9zM334.3 512c-18.8 37.7-21.8 75.6-4.7 105.4 17.2 29.8 51.4 46.1 93.5 48.6-15-22.7-26.7-51.1-33.8-83.1-24.1-22.2-42.9-46.5-55-70.9z" fill="#B8DDFF" p-id="36840"></path><path d="M634.6 441.2c-7.1-32-18.8-60.4-33.8-83.1-27.2-1.7-57.6 2.4-88.9 12.3-31.2-9.9-61.7-14-88.9-12.3-15 22.7-26.7 51.1-33.8 83.1-24.2 22.1-42.9 46.5-55.1 70.8 12.2 24.4 30.9 48.7 55.1 70.8 7.1 32 18.8 60.4 33.8 83.1 27.2 1.7 57.6-2.4 88.9-12.3 31.2 9.9 61.7 14 88.9 12.3 15-22.7 26.7-51.1 33.8-83.1 24.2-22.1 42.9-46.5 55.1-70.8-12.1-24.4-30.9-48.7-55.1-70.8z" fill="#148AF4" p-id="36841"></path><path d="M462.6 512a44.6 44.7 0 1 0 89.2 0 44.6 44.7 0 1 0-89.2 0Z" fill="#22D0FF" p-id="36842"></path></svg>