<?xml version="1.0" standalone="no"?><!DOCTYPE svg PUBLIC "-//W3C//DTD SVG 1.1//EN" "http://www.w3.org/Graphics/SVG/1.1/DTD/svg11.dtd"><svg t="1687656478973" class="icon" viewBox="0 0 1024 1024" version="1.1" xmlns="http://www.w3.org/2000/svg" p-id="18342" xmlns:xlink="http://www.w3.org/1999/xlink" width="200" height="200"><path d="M504.2 429.1s-162.6-4.3-97.2-150c0-0.1 128.1 12.6 97.2 150z" fill="#9AAF5F" p-id="18343"></path><path d="M695 768.6l-364.3-0.3c-28.6 0-52-23.5-52-52.1l0.2-273.8 468.4 0.3-0.2 273.8c-0.1 28.7-23.5 52.1-52.1 52.1z" fill="#F0967E" p-id="18344"></path><path d="M580.9 351.7l16.8-2.2-1.2-7.8c2.4-2.6 4.7-5.7 6.6-9.4 17.9-35.4-16.2-78.3-20.7-83.8l-0.1-0.4h-0.3l-0.2-0.2-0.3 0.3c-6.9 1.4-59.6 13.2-67.1 52.4-0.8 4.2-0.9 8-0.6 11.6l-5.7 5.4 11.8 12.5c3 4.5 6.7 8.2 10.8 11.4l5 5.2s4.5 2.2 11.3 4.2c6.5 2.8 11.4 3.9 11.4 3.9l7.1-0.9c5.2-0.1 10.4-0.6 15.4-2.2z" fill="#F6C6B7" p-id="18345"></path><path d="M527.1 258.7c-21.6 7.2-39.8 24.3-47.8 47.9-13.7 40.3 7 84.4 46.3 98.5 12.6 4.5 25.6 5.4 37.9 3.1 48.9-88.1-36-149.2-36.4-149.5z" fill="#EE7E65" p-id="18346"></path><path d="M619.1 293.1a77.68 77.68 0 0 1 8.2 67.3c-13.6 39.9-56.2 60.9-95.1 47-12.5-4.5-23-12-31.2-21.5 15.1-99.1 117.6-92.8 118.1-92.8z" fill="#F0967E" p-id="18347"></path><path d="M712.5 388.9l-398.8-0.3c-27.5 0-50.1 22.5-50.1 50.1v47.5l498.9 0.3V439c0-27.6-22.5-50.1-50-50.1z" fill="#EE7E65" p-id="18348"></path><path d="M543.677 391.762l-0.26 376.7-61.1-0.043 0.26-376.7z" fill="#F6C6B7" p-id="18349"></path></svg>