<?xml version="1.0" standalone="no"?><!DOCTYPE svg PUBLIC "-//W3C//DTD SVG 1.1//EN" "http://www.w3.org/Graphics/SVG/1.1/DTD/svg11.dtd"><svg t="1687240930034" class="icon" viewBox="0 0 1024 1024" version="1.1" xmlns="http://www.w3.org/2000/svg" p-id="23426" xmlns:xlink="http://www.w3.org/1999/xlink" width="200" height="200"><path d="M600.669091 915.316364h-176.872727c-12.8 0-23.272727-10.472727-23.272728-23.272728s10.472727-23.272727 23.272728-23.272727h176.872727c12.8 0 23.272727 10.472727 23.272727 23.272727s-10.472727 23.272727-23.272727 23.272728z" fill="#040000" p-id="23427"></path><path d="M600.669091 915.316364h-176.872727c-12.8 0-23.272727-10.472727-23.272728-23.272728v-174.545454c0-60.276364 48.872727-109.149091 109.149091-109.149091h5.12c60.276364 0 109.149091 48.872727 109.149091 109.149091v174.545454c0 12.8-10.472727 23.272727-23.272727 23.272728z m-153.832727-46.545455h130.327272v-151.272727c0-34.443636-28.16-62.603636-62.603636-62.603637h-5.12c-34.443636 0-62.603636 28.16-62.603636 62.603637v151.272727z" fill="#040000" p-id="23428"></path><path d="M777.774545 915.316364h-177.105454c-12.8 0-23.272727-10.472727-23.272727-23.272728v-174.545454c0-34.443636-28.16-62.603636-62.603637-62.603637h-5.12c-34.443636 0-62.603636 28.16-62.603636 62.603637v174.545454c0 12.8-10.472727 23.272727-23.272727 23.272728H246.690909c-26.763636 0-48.64-20.945455-48.64-46.778182V537.367273H143.127273c-19.549091 0-36.770909-11.636364-44.218182-29.789091-7.447273-18.152727-3.258182-38.632727 10.705454-52.363637l368.872728-358.4c18.618182-18.152727 48.174545-18.152727 66.792727 0l197.585455 192c9.309091 8.843636 9.541818 23.738182 0.465454 32.814546a23.179636 23.179636 0 0 1-32.814545 0.465454l-197.585455-192-370.734545 358.4 0.930909 2.327273H221.090909c12.8 0 23.272727 10.472727 23.272727 23.272727v354.443637l155.927273 0.232727v-151.272727c0-60.276364 48.872727-109.149091 109.149091-109.149091h5.12c60.276364 0 109.149091 48.872727 109.149091 109.149091v151.272727h153.832727l2.094546-354.676364c0-12.8 10.472727-23.272727 23.272727-23.272727h77.730909l17.221818-18.850909-16.290909 16.756364-80.523636-77.963637a22.970182 22.970182 0 0 1-0.465455-32.814545 22.970182 22.970182 0 0 1 32.814546-0.465455l80.523636 77.963637c13.963636 13.730909 18.385455 34.443636 10.938182 52.596363-7.447273 17.92-24.669091 29.789091-44.218182 29.789091H826.181818v331.170909c0.232727 25.134545-21.643636 46.312727-48.407273 46.312728z" fill="#040000" p-id="23429"></path></svg>