<?xml version="1.0" standalone="no"?><!DOCTYPE svg PUBLIC "-//W3C//DTD SVG 1.1//EN" "http://www.w3.org/Graphics/SVG/1.1/DTD/svg11.dtd"><svg t="1687656576814" class="icon" viewBox="0 0 1024 1024" version="1.1" xmlns="http://www.w3.org/2000/svg" p-id="23764" xmlns:xlink="http://www.w3.org/1999/xlink" width="200" height="200"><path d="M924.997905 294.443744l-129.820306-90.309779a20.206813 20.206813 0 0 0-11.288722-3.499504H559.017528v-20.714805c0-27.996031-22.75242-50.79925-50.79925-50.79925-27.996031 0-50.79925 22.803219-50.79925 50.79925v20.714805H215.67104c-8.071436 0-15.352662 4.910594-18.344174 12.474039a19.69882 19.69882 0 0 0 4.797707 21.617903l82.577003 77.83574-82.577003 77.83574a19.69882 19.69882 0 0 0-4.797707 21.617904 19.710109 19.710109 0 0 0 18.344174 12.468393h241.747988v39.510528h-217.307905c-4.007496 0-7.958549 1.247404-11.288722 3.561592l-129.820306 90.309779a19.794775 19.794775 0 0 0-8.466542 16.029985 19.845574 19.845574 0 0 0 8.184324 16.193673l129.820306 94.035056c3.386617 2.477875 7.450557 3.781722 11.57094 3.781722h217.307905v92.172418H236.385845c-31.664866 0-57.403153 25.743931-57.403153 57.403153 0 31.67051 25.738287 57.403153 57.403153 57.403153h543.726954c31.659222 0 57.403153-25.732642 57.403153-57.403153 0-31.659222-25.743931-57.403153-57.403153-57.403153H559.017528v-92.172418h249.311432c8.071436 0 15.352662-4.90495 18.344174-12.468394a19.828641 19.828641 0 0 0-4.803351-21.674346l-82.577004-77.784941 82.577004-77.830096a19.783486 19.783486 0 0 0-13.540823-34.15403H559.017528v-39.510528h224.871349a19.924595 19.924595 0 0 0 11.57094-3.725278l129.820306-94.085856a19.69882 19.69882 0 0 0 8.184324-16.199317 19.794775 19.794775 0 0 0-8.466542-16.029985z" fill="#5C5E65" p-id="23765"></path><path d="M758.545695 503.505236l-61.57998 58.086121c-4.007496 3.725278-6.208797 8.918091-6.208797 14.387477 0 5.424231 2.201301 10.617043 6.208797 14.342321l61.57998 58.074832H246.545695l-102.106493-73.99193 101.880719-70.898821h512.225774z" fill="#DFFF97" p-id="23766"></path><path d="M496.929556 179.914012a11.288722 11.288722 0 1 1 22.577444 0v20.714805h-22.577444v-20.714805zM797.99978 837.482086c0 9.877632-8.014993 17.892625-17.892625 17.892625H236.380201a17.898269 17.898269 0 0 1 0-35.78525h543.726954c9.877632 0 17.892625 8.014993 17.892625 17.892625zM496.929556 687.906515h22.577444v92.172418h-22.577444zM496.929556 424.48418h22.577444v39.510528h-22.577444zM777.448661 384.979297H265.454305l61.57998-58.024033c4.007496-3.725278 6.208797-8.918091 6.208797-14.393121 0-5.418587-2.201301-10.611399-6.208797-14.393121l-61.57998-58.024032h512.22013l101.880719 70.89882-102.106493 73.935487z" fill="#F9B49B" p-id="23767"></path></svg>