<?xml version="1.0" standalone="no"?><!DOCTYPE svg PUBLIC "-//W3C//DTD SVG 1.1//EN" "http://www.w3.org/Graphics/SVG/1.1/DTD/svg11.dtd"><svg t="1687657874788" class="icon" viewBox="0 0 1024 1024" version="1.1" xmlns="http://www.w3.org/2000/svg" p-id="17060" xmlns:xlink="http://www.w3.org/1999/xlink" width="200" height="200"><path d="M512.1024 972.8512A460.83072 460.83072 0 1 1 972.86656 512a461.39392 461.39392 0 0 1-460.76416 460.8512z m0-870.4a409.6 409.6 0 1 0 409.49248 409.6 410.112 410.112 0 0 0-409.4976-409.58976zM685.69088 558.08a51.63008 51.63008 0 0 1-51.58912-51.2 49.03424 49.03424 0 0 1 15.18592-36.05504 49.90464 49.90464 0 0 1 36.352-15.06304 49.31072 49.31072 0 0 1 20.1216 4.096 54.48704 54.48704 0 0 1 16.34816 10.95168 51.97824 51.97824 0 0 1 11.09504 16.21504 48.52736 48.52736 0 0 1 4.02432 19.84512 49.536 49.536 0 0 1-15.05792 36.1728 50.24768 50.24768 0 0 1-36.48 15.03744z m-181.28896-0.05632a49.80736 49.80736 0 0 1-36.4032-15.0016 50.688 50.688 0 0 1-0.06144-72.28928 51.2 51.2 0 0 1 56.46848-10.83392 54.784 54.784 0 0 1 16.34304 10.83392 57.2672 57.2672 0 0 1 11.09504 16.20992 50.6368 50.6368 0 0 1-11.09504 56.07936 49.86368 49.86368 0 0 1-36.34688 14.99136z m-181.47328 0a51.1488 51.1488 0 1 1 0-102.29248 50.4832 50.4832 0 0 1 20.06016 4.096 55.808 55.808 0 0 1 16.2816 10.89024 52.3008 52.3008 0 0 1 10.97216 16.19456 50.176 50.176 0 0 1-10.97728 56.07936 49.86368 49.86368 0 0 1-36.34176 15.02208z" p-id="17061"></path></svg>