<?xml version="1.0" standalone="no"?><!DOCTYPE svg PUBLIC "-//W3C//DTD SVG 1.1//EN" "http://www.w3.org/Graphics/SVG/1.1/DTD/svg11.dtd"><svg t="1687660206722" class="icon" viewBox="0 0 1024 1024" version="1.1" xmlns="http://www.w3.org/2000/svg" p-id="35205" xmlns:xlink="http://www.w3.org/1999/xlink" width="200" height="200"><path d="M740.907 354.189H717.89v-95.727c0-93.888-76.385-170.271-170.273-170.271-93.889 0-170.273 76.383-170.273 170.271h0.001v95.727h-23.018c-56.403 0-102.29 45.887-102.29 102.29V729.47c0 56.402 45.887 102.289 102.29 102.289h386.581c56.402 0 102.289-45.887 102.289-102.289V456.479c-0.001-56.402-45.887-102.29-102.29-102.29z m-313.564-95.726c0-66.318 53.955-120.271 120.273-120.271 66.319 0 120.273 53.954 120.273 120.271v95.727H427.344l-0.001-95.727z m365.853 471.008c0 28.832-23.457 52.289-52.289 52.289H354.326c-28.833 0-52.29-23.457-52.29-52.289V456.479c0-28.833 23.457-52.29 52.29-52.29h386.581c28.832 0 52.289 23.457 52.289 52.29v272.992z" fill="#464899" p-id="35206"></path><path d="M547.615 661.313c-43.976 0-79.752-35.777-79.752-79.753s35.776-79.752 79.752-79.752 79.753 35.776 79.753 79.752-35.777 79.753-79.753 79.753z m0-129.504c-27.434 0-49.752 22.318-49.752 49.752s22.318 49.753 49.752 49.753 49.753-22.319 49.753-49.753-22.319-49.752-49.753-49.752z" fill="#E84C57" p-id="35207"></path><path d="M547.616 734.814c-8.284 0-15-6.716-15-15v-74.376c0-8.284 6.716-15 15-15s15 6.716 15 15v74.376c0 8.285-6.716 15-15 15z" fill="#E84C57" p-id="35208"></path></svg>