<?xml version="1.0" standalone="no"?><!DOCTYPE svg PUBLIC "-//W3C//DTD SVG 1.1//EN" "http://www.w3.org/Graphics/SVG/1.1/DTD/svg11.dtd"><svg t="1687656647101" class="icon" viewBox="0 0 1024 1024" version="1.1" xmlns="http://www.w3.org/2000/svg" p-id="27984" xmlns:xlink="http://www.w3.org/1999/xlink" width="200" height="200"><path d="M742.4 588.8m-281.6 0a281.6 281.6 0 1 0 563.2 0 281.6 281.6 0 1 0-563.2 0Z" fill="#FED847" p-id="27985"></path><path d="M825.856 797.52192H27.4432a20.6336 20.6336 0 0 1-20.5824-20.69504V286.72c-0.0512-60.99968 49.28512-110.51008 110.2848-110.68416h715.776a20.72576 20.72576 0 0 1 0 41.43104h-715.776A69.18144 69.18144 0 0 0 48.128 286.72v469.42208h777.728c39.51616 0 89.7024-32.60416 89.7024-69.24288V175.98464a20.6336 20.6336 0 1 1 41.2672 0v510.86336c-0.01024 62.33088-70.44096 110.67392-130.9696 110.67392zM254.6688 548.9152c-68.6592 0.21504-124.49792-55.25504-124.7232-123.91424-0.22528-68.6592 55.2448-124.49792 123.904-124.7232 68.6592-0.22528 124.49792 55.2448 124.7232 123.904v0.4096c0.03072 68.51584-55.38816 124.12928-123.904 124.32384z m0-207.18592a82.88256 82.88256 0 1 0 82.6368 83.10784v-0.23552a82.8416 82.8416 0 0 0-82.6368-82.87232zM110.08 652.52352a20.76672 20.76672 0 0 1-7.68-39.94624l90.3168-36.21888v-48.128a20.6336 20.6336 0 1 1 41.2672 0v62.1568a20.70528 20.70528 0 0 1-13.0048 19.24096L117.76 651.06944a20.75648 20.75648 0 0 1-7.68 1.45408z m289.1776 0a20.75648 20.75648 0 0 1-7.68-1.49504L288.256 609.5872a20.76672 20.76672 0 0 1-12.9024-19.2512v-62.14656a20.6336 20.6336 0 1 1 41.2672 0v48.128l90.2144 36.21888a20.736 20.736 0 1 1-7.5776 39.9872z m227.1232-248.63744h-123.904a20.736 20.736 0 0 1 0-41.44128h123.904a20.736 20.736 0 0 1 0 41.44128z m206.5408 82.87232H502.4768a20.736 20.736 0 0 1 0-41.45152h330.4448a20.736 20.736 0 1 1 0 41.45152z m-103.3216-82.87232h-41.25696a20.72576 20.72576 0 0 1 0-41.44128h41.25696a20.71552 20.71552 0 1 1 0 41.44128z m-20.5824 165.74464H502.4768a20.72576 20.72576 0 0 1 0-41.44128h206.5408c11.58144 0 20.96128 9.15456 20.96128 20.71552a20.60288 20.60288 0 0 1-20.96128 20.72576z" fill="" p-id="27986"></path></svg>