<?xml version="1.0" standalone="no"?><!DOCTYPE svg PUBLIC "-//W3C//DTD SVG 1.1//EN" "http://www.w3.org/Graphics/SVG/1.1/DTD/svg11.dtd"><svg t="1687651011690" class="icon" viewBox="0 0 1024 1024" version="1.1" xmlns="http://www.w3.org/2000/svg" p-id="9815" xmlns:xlink="http://www.w3.org/1999/xlink" width="200" height="200"><path d="M512 0a512 512 0 1 0 512 512A512 512 0 0 0 512 0z m0 921.6a409.6 409.6 0 1 1 409.6-409.6 409.6 409.6 0 0 1-409.6 409.6z" fill="#13227a" p-id="9816"></path><path d="M716.8 460.8h-153.6V307.2a51.2 51.2 0 0 0-102.4 0v153.6H307.2a51.2 51.2 0 0 0 0 102.4h153.6v153.6a51.2 51.2 0 0 0 102.4 0v-153.6h153.6a51.2 51.2 0 0 0 0-102.4z" fill="#13227a" p-id="9817"></path></svg>