<?xml version="1.0" standalone="no"?><!DOCTYPE svg PUBLIC "-//W3C//DTD SVG 1.1//EN" "http://www.w3.org/Graphics/SVG/1.1/DTD/svg11.dtd"><svg t="1687248207209" class="icon" viewBox="0 0 1024 1024" version="1.1" xmlns="http://www.w3.org/2000/svg" p-id="35470" xmlns:xlink="http://www.w3.org/1999/xlink" width="200" height="200"><path d="M849.6 814.8l-432.8 33.5c-21.9 1.7-41.3-14.9-43-36.8L335 311.2c-1.7-21.9 14.9-41.3 36.8-43l432.8-33.5c21.9-1.7 41.3 14.9 43 36.8l38.8 500.3c1.7 22-14.9 41.3-36.8 43z" fill="#FFFFFF" p-id="35471"></path><path d="M413.7 858.5c-11.9 0-23.3-4.2-32.4-12.1-10.2-8.7-16.3-20.8-17.4-34.1L325.1 312c-2.1-27.5 18.5-51.6 46-53.7l432.8-33.5c27.5-2.1 51.6 18.5 53.7 46l38.8 500.3c2.1 27.5-18.5 51.6-46 53.7l-432.8 33.5c-1.3 0.1-2.6 0.2-3.9 0.2z m394-613.9c-0.8 0-1.6 0-2.3 0.1l-432.8 33.5c-7.9 0.6-15.2 4.3-20.4 10.4-5.2 6.1-7.8 13.9-7.2 21.8l38.8 500.3c0.6 7.9 4.3 15.2 10.4 20.4 6.1 5.2 13.8 7.8 21.8 7.2l432.8-33.5 0.8 10-0.8-10c16.5-1.3 28.9-15.7 27.6-32.2l-38.8-500.3c-0.6-7.9-4.3-15.2-10.4-20.4-5.5-4.7-12.4-7.3-19.5-7.3z" fill="#543630" p-id="35472"></path><path d="M847.5 273.6c-1.3-17.1-13.5-30.8-29.3-34.9l34.6 446.2c3.4 43.4-29.4 81.6-72.8 85l-394.5 30.6c-4.4 0.3-8.8-0.1-12.9-1.2l2 25.3c1.3 16.3 15.7 28.7 32 27.4l453.2-35.1c16.3-1.3 28.7-15.7 27.4-32l-39.7-511.3z" fill="#EFE7DA" p-id="35473"></path><path d="M803.9 650.1l-367.4 28.5c-5.5 0.4-10.3-3.7-10.7-9.2l-25.5-329.5c-0.4-5.5 3.7-10.3 9.2-10.7l367.4-28.5c5.5-0.4 10.3 3.7 10.7 9.2l25.5 329.5c0.5 5.4-3.7 10.3-9.2 10.7z" fill="#FFF5E1" p-id="35474"></path><path d="M435.7 688.6c-10.3 0-19.1-8-19.9-18.5l-25.5-329.5c-0.9-11 7.4-20.6 18.4-21.5l367.4-28.5c11-0.9 20.6 7.4 21.5 18.4l25.5 329.5c0.4 5.3-1.3 10.5-4.8 14.5-3.5 4.1-8.3 6.5-13.6 6.9l-367.4 28.5c-0.5 0.2-1 0.2-1.6 0.2z m341.9-378l-367.4 28.5 25.5 329.5 367.4-28.5-25.5-329.5z" fill="#543630" p-id="35475"></path><path d="M496.6 544.1l-10.4 0.8c-13.3 1-25-9-26-22.3v-0.6c-1-13.3 9-25 22.3-26l10.4-0.8c13.3-1 25 9 26 22.3v0.6c1 13.3-9 25-22.3 26zM734.3 525.7l-10.4 0.8c-13.3 1-25-9-26-22.3v-0.6c-1-13.3 9-25 22.3-26l10.4-0.8c13.3-1 25 9 26 22.3v0.6c1 13.3-9 25-22.3 26z" fill="#FFA9BA" p-id="35476"></path><path d="M503.449455 470.204829a18.199818 18.199818 0 1 0 36.290792-2.812814 18.199818 18.199818 0 1 0-36.290792 2.812814Z" fill="#543630" p-id="35477"></path><path d="M668.145285 457.405491a18.199818 18.199818 0 1 0 36.290792-2.812813 18.199818 18.199818 0 1 0-36.290792 2.812813Z" fill="#543630" p-id="35478"></path><path d="M604.6 531.3c-28.7 0-44.1-20.9-48.4-32.6l22.5-8.3v-0.1c0.7 1.9 7.9 18.5 28.7 16.9 20.9-1.6 25.3-19.5 25.8-21.5v0.1l23.6 4.6c-2.5 13-15.7 38.2-47.4 40.7-1.7 0.2-3.3 0.2-4.8 0.2z" fill="#543630" p-id="35479"></path><path d="M413.7 858.5c-11.9 0-23.3-4.2-32.4-12.1-10.2-8.7-16.3-20.8-17.4-34.1L325.1 312c-2.1-27.5 18.5-51.6 46-53.7l432.8-33.5c27.5-2.1 51.6 18.5 53.7 46l38.8 500.3c2.1 27.5-18.5 51.6-46 53.7l-432.8 33.5c-1.3 0.1-2.6 0.2-3.9 0.2z m394-613.9c-0.8 0-1.6 0-2.3 0.1l-432.8 33.5c-7.9 0.6-15.2 4.3-20.4 10.4-5.2 6.1-7.8 13.9-7.2 21.8l38.8 500.3c0.6 7.9 4.3 15.2 10.4 20.4 6.1 5.2 13.8 7.8 21.8 7.2l432.8-33.5 0.8 10-0.8-10c16.5-1.3 28.9-15.7 27.6-32.2l-38.8-500.3c-0.6-7.9-4.3-15.2-10.4-20.4-5.5-4.7-12.4-7.3-19.5-7.3z" fill="#543630" p-id="35480"></path><path d="M634.8 914.7L169.4 809c-21.5-4.9-35-26.4-30.2-47.9l121.9-537c4.9-21.5 26.4-35 47.9-30.2l465.5 105.7c21.5 4.9 35 26.4 30.2 47.9l-121.9 537c-5 21.5-26.5 35.1-48 30.2z" fill="#FFFFFF" p-id="35481"></path><path d="M643.7 925.7c-3.7 0-7.4-0.4-11.1-1.2L167.2 818.8c-26.9-6.1-43.8-32.9-37.7-59.8l121.9-537c2.9-13 10.8-24.1 22.1-31.2 11.3-7.1 24.7-9.4 37.7-6.5L776.7 290c26.9 6.1 43.8 32.9 37.7 59.8l-121.9 537c-5.3 23.1-26 38.9-48.8 38.9z m-6.6-20.7c16.1 3.7 32.2-6.5 35.9-22.6l121.9-537c3.7-16.1-6.5-32.2-22.6-35.9L306.8 203.7c-7.8-1.8-15.8-0.4-22.6 3.9s-11.5 10.9-13.3 18.7L149 763.4c-3.7 16.1 6.5 32.2 22.6 35.9L637.1 905z" fill="#543630" p-id="35482"></path><path d="M804.1 349.8c4.1-18.1-4.1-36.3-19.1-45.6L677.6 777.3c-10.4 46-56.6 75.1-102.6 64.7l-418.3-95c-4.7-1.1-9.1-2.9-13-5.3l-6.1 26.8c-3.9 17.3 7 34.7 24.3 38.6l480.5 109.1c17.3 3.9 34.7-7 38.6-24.3l123.1-542.1z" fill="#EFE7DA" p-id="35483"></path><path d="M638 728.9l-391.2-88.8c-5.4-1.2-8.8-6.6-7.5-12L319 277c1.2-5.4 6.6-8.8 12-7.5l391.2 88.8c5.4 1.2 8.8 6.6 7.5 12L650 721.4c-1.3 5.3-6.7 8.7-12 7.5z" fill="#FFDEE3" p-id="35484"></path><path d="M640.2 739.2c-1.5 0-3-0.2-4.4-0.5l-391.2-88.8c-10.8-2.4-17.5-13.2-15.1-23.9l79.7-351.1c1.2-5.2 4.3-9.6 8.9-12.5 4.5-2.9 9.9-3.8 15.1-2.6l391.2 88.8c10.8 2.4 17.5 13.2 15.1 23.9l-79.7 351.1c-1.2 5.2-4.3 9.6-8.9 12.5-3.3 2-7 3.1-10.7 3.1zM328.7 279.3l-79.7 351 391.2 88.8L719.9 368l-391.2-88.7z" fill="#543630" p-id="35485"></path><path d="M354.2 520.7l-13.5-3.1c-13.4-3-21.9-16.5-18.8-29.9l0.7-3.1c3-13.4 16.5-21.9 29.9-18.8l13.5 3.1c13.4 3 21.9 16.5 18.8 29.9l-0.7 3.1c-3 13.3-16.5 21.8-29.9 18.8zM606.2 577.9l-13.5-3.1c-13.4-3-21.9-16.5-18.8-29.9l0.7-3.1c3-13.4 16.5-21.9 29.9-18.8l13.5 3c13.4 3 21.9 16.5 18.8 29.9l-0.7 3.1c-3.1 13.4-16.5 21.9-29.9 18.9z" fill="#FFA9BA" p-id="35486"></path><path d="M398.663805 469.654807a19.7 19.7 0 1 0 8.722976-38.422256 19.7 19.7 0 1 0-8.722976 38.422256Z" fill="#543630" p-id="35487"></path><path d="M573.371495 509.262438a19.7 19.7 0 1 0 8.722976-38.422255 19.7 19.7 0 1 0-8.722976 38.422255Z" fill="#543630" p-id="35488"></path><path d="M487.5 543.7c-4.2 0-8.7-0.5-13.4-1.6-33-7.5-43.1-35.8-43.8-49.7l24-1.2v-0.1c0.2 2.3 2.2 22.4 25.1 27.6 22.9 5.2 33.5-12.4 34.7-14.5l-0.1 0.1 21.1 11.4c-5.7 10.6-22.2 28-47.6 28z" fill="#543630" p-id="35489"></path><path d="M643.7 925.7c-3.7 0-7.4-0.4-11.1-1.2L167.2 818.8c-26.9-6.1-43.8-32.9-37.7-59.8l121.9-537c2.9-13 10.8-24.1 22.1-31.2 11.3-7.1 24.7-9.4 37.7-6.5L776.7 290c26.9 6.1 43.8 32.9 37.7 59.8l-121.9 537c-5.3 23.1-26 38.9-48.8 38.9z m-6.6-20.7c16.1 3.7 32.2-6.5 35.9-22.6l121.9-537c3.7-16.1-6.5-32.2-22.6-35.9L306.8 203.7c-7.8-1.8-15.8-0.4-22.6 3.9s-11.5 10.9-13.3 18.7L149 763.4c-3.7 16.1 6.5 32.2 22.6 35.9L637.1 905z" fill="#543630" p-id="35490"></path><path d="M543.4 126.5c-2.2 2.5-5.9 3.3-9 2l-28.1-11.8-20.4 22.8c-2.2 2.5-5.9 3.3-9 2l-24.1-10.1 7 31L501.6 348l7 31 17.4-19.5c2.2-2.5 5.9-3.3 9-2l28.1 11.8 20.4-22.8c2.2-2.5 5.9-3.3 9-2l24.1 10.1-7-31L567.8 138l-7-31-17.4 19.5z" fill="#FF6687" p-id="35491"></path><path d="M508.5 389c-0.8 0-1.7-0.1-2.5-0.3-3.6-0.9-6.4-3.8-7.2-7.5l-55.7-247.7c-0.8-3.7 0.5-7.5 3.3-9.9 2.9-2.4 6.8-3 10.3-1.5l22.7 9.6 19.4-21.7c2.8-3.2 7.4-4.2 11.3-2.5l26.8 11.3 16.4-18.4c2.5-2.8 6.3-4 10-3 3.6 0.9 6.4 3.8 7.2 7.5l55.7 247.7c0.8 3.7-0.5 7.5-3.3 9.9-2.9 2.4-6.8 3-10.3 1.5l-22.7-9.6-19.4 21.6c-2.8 3.2-7.4 4.2-11.3 2.5l-26.8-11.3-16.4 18.5c-1.9 2.1-4.7 3.3-7.5 3.3z m-41.7-241L514 357.9l4.5-5c5.1-5.7 13.3-7.5 20.3-4.6l21.6 9.1L576 340c5.1-5.7 13.3-7.5 20.3-4.6l6.2 2.6-47.2-209.8-4.5 5c-5.1 5.7-13.3 7.5-20.3 4.6l-21.6-9.1-15.6 17.4c-5.1 5.7-13.3 7.5-20.3 4.6l-6.2-2.7z" fill="#543630" p-id="35492"></path></svg>