<?xml version="1.0" standalone="no"?><!DOCTYPE svg PUBLIC "-//W3C//DTD SVG 1.1//EN" "http://www.w3.org/Graphics/SVG/1.1/DTD/svg11.dtd"><svg t="1687660221267" class="icon" viewBox="0 0 1024 1024" version="1.1" xmlns="http://www.w3.org/2000/svg" p-id="36582" xmlns:xlink="http://www.w3.org/1999/xlink" width="200" height="200"><path d="M469.333333 810.666667l-277.333333-277.333334-64 4.266667 166.4-166.4 72.533333-12.8L554.666667 170.666667h277.333333v277.333333l-187.733333 187.733333-12.8 72.533334-166.4 166.4 4.266666-64z m0-59.733334l320-320V213.333333h-217.6l-320 320 217.6 217.6zM618.666667 298.666667c46.933333 0 85.333333 38.4 85.333333 85.333333s-38.4 85.333333-85.333333 85.333333-85.333333-38.4-85.333334-85.333333 38.4-85.333333 85.333334-85.333333z m0 42.666666c-25.6 0-42.666667 17.066667-42.666667 42.666667s17.066667 42.666667 42.666667 42.666667 42.666667-17.066667 42.666666-42.666667-17.066667-42.666667-42.666666-42.666667z m-290.133334 358.4l-81.066666 81.066667-34.133334-29.866667 81.066667-81.066666 34.133333 29.866666z" fill="#444444" p-id="36583"></path></svg>