<?xml version="1.0" standalone="no"?><!DOCTYPE svg PUBLIC "-//W3C//DTD SVG 1.1//EN" "http://www.w3.org/Graphics/SVG/1.1/DTD/svg11.dtd"><svg t="1687247679915" class="icon" viewBox="0 0 1024 1024" version="1.1" xmlns="http://www.w3.org/2000/svg" p-id="19001" xmlns:xlink="http://www.w3.org/1999/xlink" width="200" height="200"><path d="M250.034 553.66c-1.093-5.1-2.46-10.022-1.591-15.177 3.459-20.521 24.691-31.188 43.015-21.052 17.752 9.82 35.455 19.808 52.564 30.689q36.854 23.438 72.769 48.343c35.435 24.573 52.686 59.006 52.919 101.97 0.175 32.323 0.085 64.649-0.036 96.972-0.013 3.512 0.817 5.041 4.5 6.081a39.008 39.008 0 0 1 28.858 38.107c-0.008 12.636 1.359 25.368-0.842 37.9-3.181 18.114-19.155 31.985-37.535 32.095q-66.479 0.4-132.961 0a38.639 38.639 0 0 1-38.063-34.945 173.928 173.928 0 0 1 0.334-41.877c1.874-13.259 9.6-22.864 21.523-28.783 3.067-1.523 3.083-2.972 2.8-5.964-0.9-9.489-5.548-15.367-13.779-20.512-35.682-22.3-68.9-47.9-98.537-77.9-22.34-22.614-42.023-47.288-57-75.456-6.774-12.741-9.5-26.911-13.227-40.669-13.5-49.772-20.722-100.347-18.626-152.047a366.666 366.666 0 0 1 4.159-42.226c1.877-11.913 11.286-20.549 23.342-21.884 11.428-1.265 22.171 5.28 26.611 16.879 11.228 29.33 22.3 58.72 34.824 87.53 11.209 25.775 22.7 51.412 38 75.117 1.439 2.229 3.082 4.328 4.673 6.456 0.155 0.205 0.607 0.178 1.306 0.353zM430.075 889.6c11.637 0.04 23.275 0.219 34.91 0.073 7.993-0.1 15.806-6.32 17.128-14.126 2.2-13 1.507-26.194 0.54-39.211-0.7-9.45-6.209-14.238-15.788-15.769-12.19-1.949-24.521-0.554-36.79-0.726-32.146-0.037-64.292-0.232-96.436-0.035-13.035 0.08-20.546 8.3-20.519 21.248 0.021 9.994-0.1 19.989 0 29.981 0.1 9.757 8.794 18.657 18.515 18.672 32.816 0.057 65.628-0.055 98.44-0.107z m19.685-148.575c0-14.329 0.087-28.658-0.017-42.987-0.26-35.806-14.425-64.785-44.124-84.967-35.912-24.4-71.657-49.135-109.766-70.132-4.807-2.648-9.416-5.671-14.3-8.15-5.736-2.91-12.05 0.147-13.207 6.111-0.707 3.643 1.187 6.337 3.256 9.059a1095.118 1095.118 0 0 0 82.021 96.1c1.431 1.49 3.684 3.086 1.995 5.5-1.888 2.7-4.171 0.943-6.161-0.148-22.626-12.409-44.915-25.384-65.988-40.322-19.893-14.1-39.2-28.938-53.323-49.238-14.7-21.124-25.559-44.35-36.079-67.72-14.745-32.756-27.787-66.2-40.263-99.878-1.295-3.5-2.513-7.341-7.2-6.975-5.006 0.39-5.566 4.562-6.093 8.432-1.64 12.047-2.894 24.131-3.391 36.288-2.017 49.348 4.833 97.632 17.647 145.159 3.581 13.284 6.127 26.987 12.746 39.25 11.854 21.961 26.911 41.64 43.848 59.894 30.106 32.447 64.831 59.272 101.829 83.307 6.546 4.252 15.062 7.136 19.131 13.075 4.189 6.116 4.278 15.153 5.7 23 0.625 3.436 2.1 4.118 5.285 4.108q50.984-0.16 101.967 0.034c3.955 0.02 4.6-1.278 4.568-4.818-0.17-17.993-0.081-35.988-0.081-53.982zM779.06 554.92a86.858 86.858 0 0 0 10.183-14.495c17.989-30.062 31.593-62.219 44.75-94.556 8.39-20.62 16.027-41.546 24.216-62.25a25.712 25.712 0 0 1 24.555-16.471 26 26 0 0 1 23.953 17.374c2.264 6.642 2.587 13.715 3.366 20.65a421.421 421.421 0 0 1-0.054 91.274A550.437 550.437 0 0 1 883.293 617.5c-4.848 14.162-14.173 26.319-22.935 38.47C830.17 697.831 791.889 731.224 750 760.771c-10.059 7.1-20.35 13.882-30.76 20.453-3.634 2.294-6.088 4.663-6.532 9.157-0.357 3.612-2.635 7.345-2.033 10.655 0.65 3.574 5.624 3.793 8.449 5.919 10.665 8.024 16.749 18.557 16.866 31.887 0.113 12.8 1.408 25.7-0.772 38.407a38.917 38.917 0 0 1-37.814 32.36q-66.232 0.362-132.467 0c-21.078-0.13-38.4-17.6-38.69-38.681-0.177-12.637-1.392-25.392 0.674-37.913 2.684-16.267 12.568-26.9 28.316-31.546 3.88-1.144 4.325-2.915 4.317-6.222-0.08-32.159 0.013-64.318-0.066-96.477-0.071-28.6 8.092-54.412 25.719-77.072a115.75 115.75 0 0 1 26.926-25.127c40.6-27.292 81.133-54.672 124-78.383 17.425-9.638 37.329-2.808 43.372 15.153 2.078 6.172 2.058 9.559-0.445 21.579zM670.075 889.6c8.637 0.042 17.274 0.116 25.911 0.119 11.735 0 20-8.151 20.127-19.976 0.1-9.966 0.07-19.935 0.007-29.9-0.065-10.226-5.315-16.985-15.283-19.118-10.163-2.175-20.5-0.654-30.762-0.88-3-0.04-6-0.115-8.993-0.116-30.657-0.009-61.317 0.211-91.971-0.091-16.726-0.165-23.96 10.831-23.118 22.883 0.66 9.45 0.035 18.986 0.13 28.482 0.1 9.77 8.768 18.693 18.489 18.708 35.154 0.052 70.309-0.059 105.463-0.111z m-90.194-148.816h-0.387c0 18.328 0.057 36.656-0.058 54.982-0.018 2.916 0.568 4.042 3.809 4.031q51.733-0.179 103.467 0.005c3.1 0.011 3.927-1.26 4.435-3.893 1.227-6.366 2.812-12.664 4-19.037a9.92 9.92 0 0 1 5.064-7.33q26.515-16.021 51.367-34.542c34.892-26.022 66.9-55.023 92.423-90.574 10.477-14.594 20.449-29.463 25.122-47.288 4.384-16.725 9.178-33.343 12.709-50.278 10.268-49.255 14.06-98.841 7.185-148.921-0.585-4.261 0-9.853-6.129-10.562-5.872-0.68-6.478 4.618-7.967 8.555-16.707 44.166-34.193 87.975-54.891 130.493-16.054 32.979-38.53 59.943-68.685 80.863a767.875 767.875 0 0 1-69.612 43c-2.378 1.3-5.276 4.724-7.864 1.4-2.621-3.369 1.5-5.326 3.339-7.247a1093.682 1093.682 0 0 0 80.6-94.691c3.934-5.163 4.286-9.322 1.01-13.06-3.237-3.694-7.553-3.961-13.125-0.889-43.054 23.736-83.98 50.872-124.27 78.915-25.653 17.856-39.586 43.327-41.366 74.608-0.975 17.1-0.176 34.303-0.176 51.46zM725.893 336.171c-1.921 36.009-13.334 69.534-29.732 101.47-25.177 49.032-59.99 89.821-105.63 121.044a187.187 187.187 0 0 1-48.095 23.87c-24.871 8.062-48.928 5.124-72.446-5.247-31.3-13.8-57.492-34.666-80.758-59.338-37.881-40.17-65.087-86.5-79.452-140.043-7-26.082-9.626-52.4-2.813-78.951 11.05-43.059 38.693-69.652 81.572-80.038 30.472-7.381 60.181-2.488 89.136 8.307a200.358 200.358 0 0 1 33.632 16.243 4.838 4.838 0 0 0 5.844-0.043c23.09-14.184 47.8-24.315 74.9-27.046 47.946-4.831 88.366 8.793 116.018 50.509 13.781 20.787 18.094 44.414 17.824 69.263zM650.138 242.7c-1.579-0.49-3.181-0.918-4.734-1.481-16.63-6.023-33.821-7.192-51.184-5.141-25.418 3-48.63 12.419-69.834 26.462-7.184 4.758-12.7 4.629-19.965 0.2-31.549-19.222-65.262-31.131-102.9-25.921-30.642 4.242-54.22 19.525-68.286 47.664-11.575 23.156-12.726 47.835-7.657 72.641 12.587 61.6 43.345 113.245 87.993 156.972 19.058 18.664 40.441 34.058 64.69 45.339-3.211 2.94-7.975 2.5-11.761 5.212 2.733 1.277 5.087 2.423 7.477 3.487 22.189 9.887 44.839 12.208 68.106 4.078 27.909-9.753 51.854-26.085 73.508-45.713a325.192 325.192 0 0 0 36.749-39.279c28.01-35.428 48.324-74.526 58.814-118.586 4.214-17.7 6.47-35.583 3.748-53.669-2.931-19.475-9.636-37.452-22.5-52.879-11.483-13.77-25.755-23.322-42.268-29.823-2.482-0.977-2.939-0.132-2.221 2.306 0.787 2.691 2.257 5.213 2.225 8.131zM259.643 115.686c7.754 0.349 13.716 3.727 17.519 10.543q7.165 12.84 14.1 25.811a12.64 12.64 0 0 0 5.464 5.506c8.077 4.274 16 8.833 24.1 13.076 7.543 3.955 12.191 9.785 12.241 18.489s-4.535 14.582-12.033 18.625c-9.352 5.042-20.176 8.712-27.413 15.933-7.112 7.1-10.588 17.865-15.547 27.082-4.037 7.5-9.992 12-18.7 11.9-8.487-0.1-14.242-4.615-18.193-11.923-5.054-9.347-8.691-20.187-15.9-27.436-7.085-7.121-17.836-10.633-27.06-15.576-7.508-4.024-12.061-9.927-12.017-18.633 0.043-8.488 4.5-14.326 11.817-18.254 8.2-4.4 16.312-8.959 24.541-13.3a12.609 12.609 0 0 0 5.438-5.512q6.929-12.969 14.1-25.808c3.811-6.809 9.78-10.184 17.543-10.523z m-0.03 20.05c-4.739 8.683-9.536 16.687-13.546 25.067A30.079 30.079 0 0 1 231 175.779c-8.315 3.92-16.212 8.727-24.854 13.459 9.905 5.418 18.987 10.656 28.33 15.379a21.416 21.416 0 0 1 9.85 9.977c4.765 9.317 9.987 18.4 15.3 28.1 4.506-8.233 9.17-15.756 12.834-23.737a32.459 32.459 0 0 1 16.686-16.757c8.031-3.725 15.61-8.424 23.942-13-9.893-5.411-18.975-10.652-28.319-15.371a21.409 21.409 0 0 1-9.844-9.982c-4.767-9.315-9.987-18.4-15.312-28.111z" fill="#343741" p-id="19002"></path><path d="M449.76 741.025c0 17.994-0.09 35.99 0.077 53.982 0.033 3.541-0.613 4.839-4.568 4.818q-50.983-0.264-101.967-0.034c-3.188 0.01-4.66-0.672-5.285-4.108-1.427-7.842-1.516-16.88-5.7-23-4.068-5.939-12.585-8.823-19.131-13.075-37-24.034-71.722-50.86-101.829-83.307-16.937-18.253-31.994-37.932-43.848-59.894-6.62-12.264-9.165-25.967-12.746-39.25-12.82-47.523-19.669-95.806-17.653-145.157 0.5-12.157 1.751-24.241 3.391-36.288 0.527-3.87 1.087-8.042 6.093-8.432 4.691-0.366 5.91 3.48 7.2 6.975 12.476 33.674 25.519 67.122 40.263 99.878 10.52 23.37 21.38 46.6 36.079 67.72 14.126 20.3 33.43 35.137 53.323 49.238 21.073 14.938 43.362 27.914 65.988 40.322 1.99 1.091 4.274 2.85 6.161 0.148 1.689-2.417-0.564-4.014-1.995-5.5a1095.118 1095.118 0 0 1-82.021-96.1c-2.069-2.722-3.963-5.416-3.256-9.059 1.157-5.965 7.471-9.021 13.207-6.111 4.888 2.48 9.5 5.5 14.3 8.15 38.108 21 73.853 45.727 109.766 70.132 29.7 20.182 43.864 49.161 44.124 84.967 0.114 14.326 0.027 28.66 0.027 42.985z" fill="#FEE8CC" p-id="19003"></path><path d="M430.075 889.6c-32.812 0.049-65.624 0.161-98.435 0.108-9.721-0.016-18.417-8.915-18.515-18.672-0.1-9.993 0.016-19.988 0-29.981-0.028-12.951 7.484-21.169 20.519-21.248 32.144-0.2 64.291 0 96.437 0.035q-0.005 34.881-0.006 69.758z" fill="#717B9A" p-id="19004"></path><path d="M430.075 889.6v-69.759c12.268 0.172 24.6-1.222 36.789 0.726 9.578 1.531 15.085 6.32 15.788 15.769 0.967 13.017 1.662 26.215-0.54 39.211-1.322 7.806-9.135 14.025-17.128 14.126-11.634 0.15-23.272-0.029-34.909-0.073z" fill="#5A6286" p-id="19005"></path><path d="M579.881 740.784c0-17.157-0.8-34.36 0.174-51.462 1.781-31.281 15.713-56.752 41.366-74.608 40.29-28.044 81.216-55.179 124.27-78.915 5.572-3.072 9.888-2.8 13.125 0.889 3.276 3.738 2.924 7.9-1.01 13.06a1093.682 1093.682 0 0 1-80.6 94.691c-1.843 1.921-5.96 3.878-3.339 7.247 2.588 3.327 5.485-0.1 7.864-1.4a767.875 767.875 0 0 0 69.612-43c30.156-20.921 52.631-47.884 68.685-80.863 20.7-42.518 38.184-86.327 54.891-130.493 1.489-3.937 2.1-9.235 7.967-8.555 6.124 0.709 5.544 6.3 6.129 10.562 6.875 50.08 3.083 99.666-7.185 148.921-3.53 16.935-8.325 33.553-12.709 50.278-4.672 17.825-14.645 32.695-25.122 47.288-25.519 35.553-57.528 64.554-92.421 90.576q-24.838 18.523-51.363 34.543a9.92 9.92 0 0 0-5.064 7.33c-1.191 6.372-2.776 12.67-4 19.037-0.507 2.633-1.331 3.9-4.435 3.893q-51.733-0.189-103.467-0.005c-3.242 0.011-3.828-1.115-3.809-4.031 0.115-18.327 0.058-36.655 0.058-54.982z" fill="#FEE8CC" p-id="19006"></path><path d="M670.075 889.6c-35.154 0.049-70.309 0.159-105.463 0.107-9.721-0.014-18.391-8.938-18.489-18.708-0.095-9.5 0.53-19.031-0.13-28.482-0.842-12.052 6.392-23.047 23.118-22.883 30.654 0.3 61.314 0.083 91.971 0.091 3 0 6 0.075 8.993 0.115v69.76z" fill="#717B9A" p-id="19007"></path><path d="M670.075 889.6v-69.759c10.259 0.227 20.6-1.294 30.762 0.881 9.968 2.133 15.218 8.892 15.283 19.118 0.063 9.967 0.1 19.936-0.007 29.9-0.124 11.825-8.392 19.98-20.127 19.976-8.636 0.004-17.274-0.07-25.911-0.116z" fill="#5A6286" p-id="19008"></path><path d="M478.259 559.437c-24.249-11.281-45.632-26.675-64.69-45.339-44.648-43.726-75.406-95.369-87.993-156.972-5.068-24.806-3.918-49.484 7.657-72.641 14.066-28.139 37.644-43.422 68.286-47.664 37.64-5.21 71.353 6.7 102.9 25.921 7.266 4.427 12.78 4.555 19.965-0.2 21.2-14.043 44.417-23.46 69.834-26.462 17.362-2.051 34.554-0.882 51.184 5.141 1.553 0.563 3.155 0.99 4.734 1.481l1 1.063c8.546 26.865 13.314 54.153 11.138 82.556a222.948 222.948 0 0 1-9.556 50.077c-5.955 18.948-14.9 36.511-25.136 53.484-11.848 19.648-25.094 38.319-40.578 55.2-10.87 11.847-22.236 23.3-34.952 33.349-17.538 13.854-36.118 25.84-56.645 34.82-4.808 2.1-10.131 3.2-14.349 6.609z m-59.2-306.719a72.487 72.487 0 0 0-28.119 5.76c-13.962 5.951-25 15.069-31 29.423-2.811 6.728-1.041 12.249 4.563 14.681 5.48 2.378 10.511 0.006 13.559-6.477a28.906 28.906 0 0 1 4.292-7.272c11.724-13.082 26.5-17.646 43.608-15.382 6.585 0.872 11.5-2.185 12.6-8.274 1-5.547-2.747-10.254-9.093-11.488a44.151 44.151 0 0 0-10.408-0.972z m-72.84 85.992c0.245 2.226 0.521 4.858 0.827 7.487 0.772 6.617 5.24 10.349 11.436 9.57a9.79 9.79 0 0 0 8.347-11.545c-0.835-5.06-0.183-9.9 0.649-14.8 0.983-5.8-1.854-10.452-7.183-11.82-5.467-1.4-10.478 1.61-12.146 7.425-1.239 4.319-1.559 8.789-1.928 13.683z" fill="#F5715A" p-id="19009"></path><path d="M478.259 559.437l2.8 0.417c14.253 6.515 29.043 9.06 44.6 6.138 17.454-3.277 33.289-10.6 47.925-20.282 61.633-40.77 102.993-96.809 124.69-167.351 7.638-24.833 10.909-50.1 3.768-75.646-7.693-27.52-24.2-47.713-50.907-58.951l-1-1.063c0.033-2.918-1.434-5.441-2.226-8.132-0.718-2.438-0.26-3.283 2.221-2.306 16.513 6.5 30.784 16.053 42.268 29.823 12.865 15.428 19.57 33.4 22.5 52.879 2.722 18.086 0.466 35.971-3.748 53.669-10.49 44.059-30.8 83.158-58.814 118.586a325.192 325.192 0 0 1-36.747 39.282c-21.654 19.629-45.6 35.96-73.508 45.713-23.267 8.131-45.917 5.809-68.106-4.078-2.39-1.065-4.744-2.21-7.477-3.487 3.786-2.712 8.55-2.271 11.761-5.211z" fill="#292C34" p-id="19010"></path><path d="M259.613 135.736c5.325 9.711 10.545 18.8 15.312 28.113a21.409 21.409 0 0 0 9.844 9.982c9.344 4.719 18.426 9.96 28.319 15.371-8.332 4.578-15.912 9.277-23.942 13a32.459 32.459 0 0 0-16.679 16.751c-3.664 7.981-8.328 15.5-12.834 23.737-5.318-9.7-10.54-18.781-15.3-28.1a21.416 21.416 0 0 0-9.85-9.977c-9.343-4.723-18.425-9.961-28.33-15.379 8.642-4.732 16.539-9.539 24.854-13.459a30.079 30.079 0 0 0 15.061-14.975c4.009-8.378 8.807-16.381 13.545-25.064z" fill="#FEE180" p-id="19011"></path><path d="M651.14 243.763c26.71 11.238 43.214 31.43 50.907 58.951 7.141 25.548 3.87 50.813-3.768 75.646-21.7 70.542-63.057 126.581-124.69 167.351-14.636 9.682-30.471 17-47.925 20.282-15.56 2.921-30.35 0.377-44.6-6.138 4.218-3.409 9.541-4.5 14.349-6.609 20.528-8.98 39.108-20.966 56.645-34.82 12.716-10.045 24.082-21.5 34.952-33.349 15.485-16.876 28.73-35.548 40.578-55.2 10.235-16.973 19.181-34.536 25.136-53.484a222.948 222.948 0 0 0 9.556-50.077c2.174-28.4-2.594-55.688-11.14-82.553z" fill="#F35A48" p-id="19012"></path><path d="M419.061 252.717a44.151 44.151 0 0 1 10.411 0.972c6.346 1.234 10.1 5.941 9.093 11.488-1.1 6.089-6.014 9.145-12.6 8.274-17.106-2.264-31.884 2.3-43.608 15.382a28.906 28.906 0 0 0-4.292 7.272c-3.048 6.483-8.079 8.854-13.559 6.477-5.6-2.432-7.374-7.953-4.563-14.681 6-14.355 17.036-23.473 31-29.423a72.487 72.487 0 0 1 28.118-5.761zM346.221 338.71c0.37-4.893 0.69-9.363 1.93-13.685 1.669-5.815 6.68-8.828 12.146-7.425 5.329 1.368 8.166 6.023 7.183 11.82-0.832 4.906-1.484 9.743-0.649 14.8a9.79 9.79 0 0 1-8.347 11.545c-6.2 0.779-10.663-2.954-11.436-9.57-0.307-2.627-0.582-5.26-0.827-7.485z" fill="#FEFEFE" p-id="19013"></path></svg>