<?xml version="1.0" standalone="no"?><!DOCTYPE svg PUBLIC "-//W3C//DTD SVG 1.1//EN" "http://www.w3.org/Graphics/SVG/1.1/DTD/svg11.dtd"><svg t="1687610430070" class="icon" viewBox="0 0 1024 1024" version="1.1" xmlns="http://www.w3.org/2000/svg" p-id="3288" xmlns:xlink="http://www.w3.org/1999/xlink" width="200" height="200"><path d="M656 576a144.064 144.064 0 0 1 140.448 112H864a32 32 0 0 1 3.744 63.776L864 752l-67.584 0.032a144.064 144.064 0 0 1-280.832 0L160 752a32 32 0 0 1-3.744-63.776L160 688h355.552A144.064 144.064 0 0 1 656 576z m0 64a80 80 0 1 0 0 160 80 80 0 0 0 0-160z m-288-480c69.12 0 126.816 48.64 140.8 113.6H864a32 32 0 0 1 3.744 63.776L864 337.6l-355.936 0.032a144.064 144.064 0 0 1-280.128 0L160 337.6a32 32 0 0 1-3.744-63.776L160 273.6h67.2A144.064 144.064 0 0 1 368 160z m0 64a80 80 0 1 0 0 160 80 80 0 0 0 0-160z" fill="#979797" p-id="3289"></path></svg>