<?xml version="1.0" standalone="no"?><!DOCTYPE svg PUBLIC "-//W3C//DTD SVG 1.1//EN" "http://www.w3.org/Graphics/SVG/1.1/DTD/svg11.dtd"><svg t="1687258012811" class="icon" viewBox="0 0 1024 1024" version="1.1" xmlns="http://www.w3.org/2000/svg" p-id="7763" xmlns:xlink="http://www.w3.org/1999/xlink" width="200" height="200"><path d="M648.533333 674.474667a34.133333 34.133333 0 0 1 34.048 31.607466l0.085334 2.542934v51.2a68.266667 68.266667 0 0 1-64.853334 68.181333l-3.413333 0.085333H409.6a68.266667 68.266667 0 0 1-68.181333-64.853333l-0.085334-3.413333v-51.2a34.133333 34.133333 0 0 1 68.181334-2.56l0.085333 2.56v51.2h204.8v-51.2a34.133333 34.133333 0 0 1 34.133333-34.133334zM597.333333 871.1168a34.133333 34.133333 0 0 1 2.56 68.164267l-2.56 0.1024H426.666667a34.133333 34.133333 0 0 1-2.56-68.181334l2.56-0.085333h170.666666z" fill="#444444" p-id="7764"></path><path d="M512 51.2c197.9392 0 358.4 160.4608 358.4 358.4 0 145.749333-80.554667 272.7936-208.213333 328.567467a34.133333 34.133333 0 0 1-27.306667-62.549334C737.28 630.852267 802.133333 528.5888 802.133333 409.6c0-160.238933-129.8944-290.133333-290.133333-290.133333s-290.133333 129.8944-290.133333 290.133333c0 118.9888 64.836267 221.252267 167.253333 266.018133a34.133333 34.133333 0 0 1-27.306667 62.549334C234.154667 682.3936 153.6 555.349333 153.6 409.6 153.6 211.6608 314.0608 51.2 512 51.2z" fill="#444444" p-id="7765"></path><path d="M490.018133 204.868267L494.933333 204.8v68.266667c-64.477867 0-117.230933 51.421867-119.3984 115.370666L375.466667 392.533333a34.133333 34.133333 0 0 1-68.181334 2.56L307.2 392.533333c0-101.888 81.527467-185.053867 182.818133-187.665066z" fill="#00B386" p-id="7766"></path></svg>