<?xml version="1.0" standalone="no"?><!DOCTYPE svg PUBLIC "-//W3C//DTD SVG 1.1//EN" "http://www.w3.org/Graphics/SVG/1.1/DTD/svg11.dtd"><svg t="1687700013855" class="icon" viewBox="0 0 1024 1024" version="1.1" xmlns="http://www.w3.org/2000/svg" p-id="8445" xmlns:xlink="http://www.w3.org/1999/xlink" width="200" height="200"><path d="M554.8544 550.5536m-348.16 0a348.16 348.16 0 1 0 696.32 0 348.16 348.16 0 1 0-696.32 0Z" fill="#A5ADF6" p-id="8446"></path><path d="M513.28 88.576c-231.8336 0-420.4032 188.6208-420.4032 420.4032s188.6208 420.4032 420.4032 420.4032 420.4032-188.6208 420.4032-420.4032-188.5696-420.4032-420.4032-420.4032z m0 779.3664c-197.9392 0-358.9632-161.024-358.9632-358.9632S315.3408 150.016 513.28 150.016s358.9632 161.024 358.9632 358.9632-161.024 358.9632-358.9632 358.9632z" fill="#5D5D66" p-id="8447"></path><path d="M630.0672 445.3376L486.912 362.7008c-23.04-13.2608-50.4832-13.2608-73.5232 0-22.9888 13.2608-36.7616 37.0688-36.7616 63.6416v165.2736c0 26.5728 13.7216 50.3808 36.7616 63.6416 11.52 6.656 24.1152 9.984 36.7616 9.984 12.5952 0 25.2416-3.328 36.7616-9.984l143.104-82.6368c22.9888-13.2608 36.7616-37.0688 36.7616-63.6416 0-26.5728-13.7216-50.3808-36.7104-63.6416z m-30.72 74.0864L456.192 602.0608c-5.2224 3.0208-9.8304 1.28-12.0832 0-2.2528-1.28-6.0416-4.4032-6.0416-10.4448V426.3424c0-6.0416 3.7888-9.1648 6.0416-10.4448 1.3312-0.768 3.4816-1.6896 6.0416-1.6896 1.792 0 3.84 0.4608 5.9904 1.6896l143.104 82.6368c5.2224 3.0208 6.0416 7.8336 6.0416 10.4448 0.0512 2.6112-0.7168 7.424-5.9392 10.4448z" fill="#5D5D66" p-id="8448"></path></svg>