<?xml version="1.0" standalone="no"?><!DOCTYPE svg PUBLIC "-//W3C//DTD SVG 1.1//EN" "http://www.w3.org/Graphics/SVG/1.1/DTD/svg11.dtd"><svg t="1687700089780" class="icon" viewBox="0 0 1024 1024" version="1.1" xmlns="http://www.w3.org/2000/svg" p-id="1244" xmlns:xlink="http://www.w3.org/1999/xlink" width="200" height="200"><path d="M740.608 939.6736H289.3824c-113.1008 0-204.8-91.6992-204.8-204.8V287.2832c0-113.1008 91.6992-204.8 204.8-204.8h451.2256c113.1008 0 204.8 91.6992 204.8 204.8v447.5392c0 113.152-91.6992 204.8512-204.8 204.8512z" fill="#aaaaf8" p-id="1245"></path><path d="M675.9424 466.688L459.6736 341.8112c-25.7536-14.848-56.4736-14.848-82.176 0-25.7536 14.848-41.1136 41.472-41.1136 71.168v249.7024c0 29.696 15.36 56.32 41.1136 71.168 12.8512 7.424 26.9824 11.1616 41.1136 11.1616s28.2112-3.7376 41.1136-11.1616l216.2688-124.8768c25.7536-14.848 41.1136-41.472 41.1136-71.168-0.0512-29.6448-15.4112-56.2688-41.1648-71.1168z m-38.4 75.8272l-216.2688 124.8768c-0.6656 0.4096-2.7136 1.536-5.376 0-2.7136-1.536-2.7136-3.8912-2.7136-4.6592V412.9792c0-0.768 0-3.1232 2.7136-4.6592 1.024-0.5632 1.9456-0.768 2.7136-0.768 1.28 0 2.2528 0.5632 2.6624 0.768l216.2688 124.8768c0.6656 0.4096 2.7136 1.536 2.7136 4.6592 0 3.1232-2.048 4.3008-2.7136 4.6592z" fill="#FFCD43" p-id="1246"></path></svg>