<?xml version="1.0" standalone="no"?><!DOCTYPE svg PUBLIC "-//W3C//DTD SVG 1.1//EN" "http://www.w3.org/Graphics/SVG/1.1/DTD/svg11.dtd"><svg t="1687699993412" class="icon" viewBox="0 0 1024 1024" version="1.1" xmlns="http://www.w3.org/2000/svg" p-id="6531" xmlns:xlink="http://www.w3.org/1999/xlink" width="200" height="200"><path d="M744.7552 939.6736H293.5296c-113.1008 0-204.8-91.6992-204.8-204.8V287.2832c0-113.1008 91.6992-204.8 204.8-204.8h451.2256c113.1008 0 204.8 91.6992 204.8 204.8v447.5392c0 113.152-91.6992 204.8512-204.8 204.8512z" fill="#aaaaf8" p-id="6532"></path><path d="M396.288 713.984c-21.1968 0-38.4-17.2032-38.4-38.4V387.2768c0-21.1968 17.2032-38.4 38.4-38.4s38.4 17.2032 38.4 38.4v288.3584c0 21.1968-17.152 38.3488-38.4 38.3488zM628.2752 713.984c-21.1968 0-38.4-17.2032-38.4-38.4V387.2768c0-21.1968 17.2032-38.4 38.4-38.4s38.4 17.2032 38.4 38.4v288.3584c0 21.1968-17.2032 38.3488-38.4 38.3488z" fill="#FFCD43" p-id="6533"></path></svg>