<?xml version="1.0" standalone="no"?><!DOCTYPE svg PUBLIC "-//W3C//DTD SVG 1.1//EN" "http://www.w3.org/Graphics/SVG/1.1/DTD/svg11.dtd"><svg t="1687618016169" class="icon" viewBox="0 0 1024 1024" version="1.1" xmlns="http://www.w3.org/2000/svg" p-id="2090" xmlns:xlink="http://www.w3.org/1999/xlink" width="200" height="200"><path d="M133.6 587.2c-20 22.4-56.8 7.2-53.6-22.4v-0.8c1.6-15.2 4.8-29.6 8-44 1.6-7.2 4.8-14.4 7.2-21.6 2.4-7.2 4.8-14.4 8-21.6 25.6-56 69.6-108 125.6-143.2 56-35.2 123.2-56 192-56s138.4 17.6 198.4 53.6c59.2 35.2 109.6 87.2 142.4 148 32 60.8 47.2 129.6 43.2 195.2-4.8 66.4-27.2 129.6-65.6 179.2l-15.2 17.6c-4.8 5.6-9.6 11.2-15.2 16.8-11.2 10.4-22.4 20-35.2 28.8l-0.8 0.8c-24 16.8-55.2-8-45.6-36 24.8-72 24.8-140 10.4-196.8-10.4-37.6-27.2-71.2-48.8-100-21.6-28-48-51.2-78.4-69.6-30.4-18.4-63.2-29.6-98.4-35.2-4.8-0.8-8.8-0.8-13.6-1.6-4.8 0-8.8-1.6-13.6-1.6-8.8 0.8-18.4-0.8-28 0-4.8 0-9.6 0.8-14.4 0.8L328 480c-9.6 0.8-18.4 4-28.8 5.6-38.4 9.6-76.8 27.2-113.6 53.6-8.8 6.4-17.6 14.4-27.2 22.4-8.8 8-17.6 16.8-25.6 26.4 0.8-1.6 0.8-0.8 0.8-0.8z" fill="#E8AE82" p-id="2091"></path><path d="M133.6 587.2c-20 22.4-56.8 7.2-53.6-22.4v-0.8c1.6-15.2 4.8-29.6 8-44 1.6-7.2 4.8-14.4 7.2-21.6 2.4-7.2 4.8-14.4 8-21.6 25.6-56 69.6-108 125.6-143.2 56-35.2 123.2-56 192-56s138.4 17.6 198.4 53.6c59.2 35.2 109.6 87.2 142.4 148 32 60.8-152 133.6-172.8 104.8-21.6-28-48-51.2-78.4-69.6-30.4-18.4-63.2-29.6-98.4-35.2-4.8-0.8-8.8-0.8-13.6-1.6-4.8 0-8.8-1.6-13.6-1.6-8.8 0.8-18.4-0.8-28 0-4.8 0-9.6 0.8-14.4 0.8l-14.4 2.4c-9.6 0.8-18.4 4-28.8 5.6-38.4 9.6-76.8 27.2-113.6 53.6-8.8 6.4-17.6 14.4-27.2 22.4-8.8 8-17.6 16.8-25.6 26.4 0.8-0.8 0.8 0 0.8 0z" fill="#FFC697" p-id="2092"></path><path d="M215.2 469.6c-26.4 6.4-98.4 17.6-81.6 117.6 0 0.8 0.8-0.8 0.8-0.8 8.8-9.6 16.8-18.4 25.6-26.4 9.6-8 17.6-15.2 27.2-22.4 28.8-20.8 25.6-24.8 55.2-35.2-4 0-17.6-34.4-27.2-32.8zM672.8 916.8l0.8-0.8c12.8-8 24-18.4 35.2-28.8 5.6-4.8 10.4-11.2 15.2-16.8l15.2-17.6c16.8-21.6 30.4-46.4 40.8-72l6.4-20-136-22.4-4 39.2c111.2 60 2.4 156 26.4 139.2z" fill="#B77B53" p-id="2093"></path><path d="M134.4 610.4c-5.6 0-12-2.4-16-6.4-9.6-8.8-10.4-24-1.6-33.6 8-8.8 17.6-18.4 28-28l0.8-0.8c3.2-2.4 6.4-4.8 8.8-7.2 6.4-4.8 12-10.4 19.2-15.2 37.6-28 78.4-47.2 121.6-57.6 12.8-3.2 25.6 4.8 28.8 17.6s-4.8 25.6-17.6 28.8c-36.8 9.6-72.8 26.4-104.8 50.4-5.6 4-11.2 8.8-16.8 13.6-3.2 2.4-6.4 4.8-8.8 8-8.8 7.2-16.8 16.8-24 24-4.8 4-11.2 6.4-17.6 6.4z" fill="#3F4A54" p-id="2094"></path><path d="M110.4 621.6c-8 0-15.2-1.6-22.4-4.8-21.6-9.6-34.4-31.2-32-54.4l24 1.6 24 2.4-24-1.6 24 2.4c0 0.8-0.8 4 3.2 5.6 1.6 0.8 5.6 1.6 8.8-1.6l0.8-0.8c8.8-9.6 24-10.4 33.6-1.6 9.6 8.8 10.4 24 1.6 33.6l-0.8 0.8c-10.4 12-25.6 18.4-40.8 18.4zM656 946.4c-11.2 0-23.2-4-32.8-11.2-19.2-14.4-26.4-39.2-18.4-62.4 21.6-61.6 24.8-125.6 9.6-183.2-3.2-12.8 4-25.6 16.8-29.6 12.8-3.2 25.6 4 29.6 16.8 17.6 67.2 13.6 140-10.4 211.2-1.6 4 0.8 7.2 2.4 8 3.2 2.4 6.4 0.8 7.2 0l0.8-0.8c11.2-7.2 25.6-4.8 33.6 6.4 7.2 11.2 4.8 25.6-6.4 33.6l-1.6 0.8c-9.6 7.2-20 10.4-30.4 10.4z" fill="#3F4A54" p-id="2095"></path><path d="M674.4 940c-8 0-15.2-4-20-10.4-7.2-11.2-4.8-25.6 6.4-33.6 9.6-6.4 19.2-14.4 32-26.4 4.8-4 8.8-8.8 13.6-14.4l14.4-17.6c34.4-45.6 56-104 60-165.6 0.8-13.6 12-23.2 25.6-22.4 13.6 0.8 23.2 12 22.4 25.6-4.8 71.2-29.6 139.2-70.4 192l-0.8 0.8-15.2 17.6c-4.8 5.6-10.4 12.8-17.6 19.2-14.4 12.8-25.6 22.4-37.6 30.4-4 4-8.8 4.8-12.8 4.8z" fill="#3F4A54" p-id="2096"></path><path d="M625.6 309.6c-147.2-84.8-323.2-76.8-458.4 7.2-27.2 16.8-33.6 54.4-12.8 79.2l96 116.8c16 19.2 43.2 24.8 65.6 13.6 56-28 124-28.8 181.6 4.8 57.6 33.6 92 92.8 95.2 155.2 1.6 24.8 20 45.6 44 50.4l149.6 24.8c32 5.6 60.8-18.4 62.4-51.2 4.8-159.2-76-315.2-223.2-400.8z" fill="#E8AE82" p-id="2097"></path><path d="M625.6 309.6c-147.2-84.8-323.2-76.8-458.4 7.2-27.2 16.8-33.6 54.4-12.8 79.2l96 116.8c16 19.2 43.2 24.8 65.6 13.6 56-28 124-28.8 181.6 4.8 58.4 33.6 275.2-136 128-221.6z" fill="#FFC697" p-id="2098"></path><path d="M300 531.2c49.6-24.8 108.8-22.4 108.8-22.4l2.4-62.4C232 440.8 300 531.2 300 531.2z" fill="#B77B53" p-id="2099"></path><path d="M498.4 555.2c-4 0-8-0.8-12-3.2-48.8-28-108.8-29.6-159.2-4-12 5.6-26.4 0.8-32-10.4-5.6-12-0.8-26.4 10.4-32 65.6-32.8 141.6-30.4 204.8 5.6 11.2 6.4 15.2 21.6 8.8 32.8-4.8 7.2-12.8 11.2-20.8 11.2z" fill="#3F4A54" p-id="2100"></path><path d="M777.6 462.4L564.8 596l28.8 67.2 21.6 60.8 12.8-31.2c17.6-42.4 48-77.6 87.2-100.8l102.4-60-40-69.6z" fill="#B77B53" p-id="2101"></path><path d="M796 785.6c-4 0-8.8 0-12.8-0.8L633.6 760c-36-5.6-62.4-36-64-72-3.2-56.8-34.4-107.2-83.2-136-11.2-6.4-15.2-21.6-8.8-32.8 6.4-11.2 21.6-15.2 32.8-8.8 63.2 36 103.2 101.6 107.2 174.4 0.8 14.4 11.2 25.6 24 28l149.6 24.8c8.8 1.6 16.8-0.8 23.2-6.4 6.4-5.6 10.4-12.8 10.4-21.6 4-156-76.8-301.6-211.2-379.2-11.2-6.4-15.2-21.6-8.8-32.8 6.4-11.2 21.6-15.2 32.8-8.8 149.6 86.4 240 248 235.2 421.6-0.8 22.4-11.2 43.2-28 57.6-13.6 12-31.2 17.6-48.8 17.6zM291.2 556c-22.4 0-44-9.6-59.2-28L136 411.2c-14.4-17.6-20-40-16.8-61.6 4-21.6 16.8-41.6 35.2-52.8 53.6-32.8 112-54.4 174.4-64.8 12.8-2.4 25.6 7.2 27.2 20 2.4 12.8-7.2 25.6-20 27.2-56 8.8-108.8 28-156.8 57.6-7.2 4.8-12 11.2-13.6 20-1.6 8 0.8 16.8 6.4 23.2l96 116.8c8.8 10.4 23.2 13.6 36 7.2 12-5.6 26.4-0.8 32 10.4 5.6 12 0.8 26.4-10.4 32-10.4 7.2-22.4 9.6-34.4 9.6zM80 588h-2.4C64 586.4 54.4 575.2 56 561.6c1.6-14.4 4-29.6 8.8-48 1.6-6.4 4-12 5.6-17.6 0.8-1.6 1.6-4 2.4-5.6v-0.8c0.8-2.4 1.6-4 2.4-6.4 1.6-5.6 4-11.2 6.4-16.8 5.6-12 20-16.8 32-11.2 12 5.6 16.8 20 11.2 32-1.6 3.2-3.2 8-4.8 12l-2.4 7.2c-0.8 2.4-1.6 4-2.4 6.4-1.6 4.8-3.2 8.8-4 12.8-4 16-6.4 28.8-8 40.8-0.8 12-11.2 21.6-23.2 21.6z" fill="#3F4A54" p-id="2102"></path><path d="M657.6 254.4C600.8 221.6 540.8 201.6 480 192c-31.2-4.8-60 19.2-61.6 51.2L408 524c-0.8 23.2 13.6 44.8 35.2 52 8 2.4 15.2 6.4 22.4 10.4 7.2 4 14.4 8.8 20 14.4 17.6 15.2 43.2 16.8 62.4 4.8l240-149.6c27.2-16.8 33.6-53.6 13.6-78.4-39.2-48-87.2-90.4-144-123.2z" fill="#F4B887" p-id="2103"></path><path d="M480 192c-31.2-4.8-60 19.2-61.6 51.2l-8.8 239.2c88.8-7.2 177.6-62.4 229.6-152.8 12.8-21.6 22.4-44.8 29.6-68-4-2.4-7.2-4.8-11.2-7.2-56.8-32.8-116.8-52.8-177.6-62.4z" fill="#FFC697" p-id="2104"></path><path d="M422.4 514.4l-0.8 0.8c-5.6 12-7.2 25.6-2.4 38.4 4 10.4 12 17.6 24.8 22.4 8 2.4 15.2 6.4 22.4 10.4 7.2 4 13.6 8.8 19.2 13.6 17.6 15.2 42.4 18.4 62.4 5.6l66.4-41.6-122.4-71.2c-25.6-13.6-56.8-4-69.6 21.6z" fill="#B77B53" p-id="2105"></path><path d="M680.8 351.2c-4.8 0-10.4-1.6-14.4-4.8-14.4-10.4-28.8-20.8-44.8-29.6-26.4-15.2-54.4-28-82.4-36.8-12.8-4-19.2-17.6-15.2-30.4 4-12.8 17.6-19.2 30.4-15.2 32 10.4 62.4 24 92 40.8 16.8 9.6 33.6 20.8 49.6 32.8 10.4 8 12.8 23.2 4.8 33.6-5.6 6.4-12.8 9.6-20 9.6zM472.8 263.2h-4c-12.8-2.4-22.4-14.4-20-28 2.4-12.8 15.2-21.6 28-20 12.8 2.4 22.4 14.4 20.8 27.2-2.4 12.8-13.6 20.8-24.8 20.8z" fill="#FFFFFF" p-id="2106"></path><path d="M523.2 637.6c-19.2 0-36-8-49.6-15.2L432 597.6c-40.8-21.6-48-52-47.2-73.6l9.6-281.6c0.8-21.6 11.2-42.4 28-56.8 16.8-14.4 39.2-20 60.8-16.8 65.6 9.6 128.8 32 186.4 65.6 57.6 33.6 108.8 76.8 150.4 128.8 13.6 17.6 19.2 39.2 16 61.6-4 21.6-16.8 40.8-35.2 52.8L561.6 625.6c-13.6 8.8-26.4 12-38.4 12z m-52-422.4c-7.2 0-13.6 2.4-18.4 6.4-6.4 5.6-10.4 12.8-10.4 21.6L432 524.8c0 8.8 2.4 19.2 22.4 29.6 0 0 0.8 0 0.8 0.8l42.4 24.8c21.6 12.8 30.4 9.6 37.6 4.8l239.2-149.6c7.2-4.8 12-11.2 13.6-20 1.6-8-0.8-16.8-6.4-23.2-37.6-47.2-84-86.4-136.8-117.6-52-29.6-108.8-49.6-168.8-58.4-1.6-0.8-3.2-0.8-4.8-0.8z" fill="#3F4A54" p-id="2107"></path><path d="M268.8 345.6c-9.6 0-19.2-6.4-22.4-16-4.8-12.8 2.4-26.4 14.4-30.4 20-7.2 40.8-12.8 61.6-16.8 12.8-2.4 25.6 5.6 28 19.2 2.4 12.8-5.6 25.6-19.2 28-18.4 3.2-36.8 8.8-54.4 15.2-3.2 0-5.6 0.8-8 0.8zM209.6 372c-9.6 0-16.8-5.6-20.8-12.8-5.6-10.4-3.2-25.6 10.4-32.8 14.4-7.2 28-0.8 32.8 9.6 5.6 10.4 4 24.8-10.4 32.8h-0.8c-3.2 1.6-8 3.2-11.2 3.2z m0.8-24.8z m-12-20.8l1.6 1.6-1.6-1.6z" fill="#FFFFFF" p-id="2108"></path></svg>