<?xml version="1.0" standalone="no"?><!DOCTYPE svg PUBLIC "-//W3C//DTD SVG 1.1//EN" "http://www.w3.org/Graphics/SVG/1.1/DTD/svg11.dtd"><svg t="1687650978196" class="icon" viewBox="0 0 1024 1024" version="1.1" xmlns="http://www.w3.org/2000/svg" p-id="8442" xmlns:xlink="http://www.w3.org/1999/xlink" width="200" height="200"><path d="M925.7 337.2c-22.6-53.5-55-101.5-96.2-142.7-41.2-41.2-89.2-73.6-142.7-96.2C631.4 74.9 572.6 63 512 63S392.6 74.9 337.2 98.3c-53.5 22.6-101.5 55-142.7 96.2-41.2 41.2-73.6 89.2-96.2 142.7C74.9 392.6 63 451.4 63 512s11.9 119.4 35.3 174.8c22.6 53.5 55 101.5 96.2 142.7 41.2 41.2 89.2 73.6 142.7 96.2C392.6 949.1 451.4 961 512 961s119.4-11.9 174.8-35.3c53.5-22.6 101.5-55 142.7-96.2s73.6-89.2 96.2-142.7C949.1 631.4 961 572.6 961 512s-11.9-119.4-35.3-174.8zM512 911c-220 0-399-179-399-399s179-399 399-399 399 179 399 399-179 399-399 399z" fill="#13227a" p-id="8443"></path><path d="M671.5 255.6h-319c-13.8 0-25 11.2-25 25s11.2 25 25 25h319c13.8 0 25-11.2 25-25s-11.2-25-25-25zM530.2 337.3c-9.7-9.7-25.5-9.8-35.3-0.1L351.6 479.5c-9.8 9.7-9.9 25.6-0.1 35.4 9.7 9.8 25.6 9.9 35.4 0.1l97.2-96.5v325c0 13.8 11.2 25 25 25s25-11.2 25-25V411.9l103 103c4.9 4.9 11.3 7.3 17.7 7.3s12.8-2.4 17.7-7.3c9.8-9.8 9.8-25.6 0-35.4L530.2 337.3z" fill="#13227a" p-id="8444"></path></svg>