<?xml version="1.0" standalone="no"?><!DOCTYPE svg PUBLIC "-//W3C//DTD SVG 1.1//EN" "http://www.w3.org/Graphics/SVG/1.1/DTD/svg11.dtd"><svg t="1687656594264" class="icon" viewBox="0 0 1024 1024" version="1.1" xmlns="http://www.w3.org/2000/svg" p-id="24806" xmlns:xlink="http://www.w3.org/1999/xlink" width="200" height="200"><path d="M626.076 925.825H251.938c-49.626 0-90-40.374-90-90v-647.65c0-49.626 40.374-90 90-90h520.124c49.626 0 90 40.374 90 90v503.38c0 15.905-6.481 31.444-17.782 42.635L668.294 908.458c-11.31 11.199-26.303 17.367-42.218 17.367z m0-60v30-30z m-374.138-707.65c-16.542 0-30 13.458-30 30v647.65c0 16.542 13.458 30 30 30h374.138l175.987-174.27-0.001-503.38c0-16.542-13.458-30-30-30H251.938z" fill="" p-id="24807"></path><path d="M598.05 831.906c-16.569 0-30-13.431-30-30v-140c0-16.569 13.431-30 30-30 16.569 0 30 13.431 30 30v140c0 16.568-13.431 30-30 30z" fill="" p-id="24808"></path><path d="M568.05 661.906c0-16.569 13.431-30 30-30h140c16.569 0 30 13.431 30 30 0 16.569-13.431 30-30 30h-140c-16.568 0-30-13.432-30-30z" fill="" p-id="24809"></path><path d="M654.866 293.185H371.077c-15.522 0-28.106-12.583-28.106-28.106v-3.789c0-15.522 12.583-28.106 28.106-28.106h283.789c15.522 0 28.106 12.583 28.106 28.106v3.789c-0.001 15.523-12.584 28.106-28.106 28.106zM654.866 420.12H371.077c-15.522 0-28.106-12.583-28.106-28.106v-3.789c0-15.522 12.583-28.106 28.106-28.106h283.789c15.522 0 28.106 12.583 28.106 28.106v3.789c-0.001 15.523-12.584 28.106-28.106 28.106z" fill="#FFB100" p-id="24810"></path><path d="M654.866 547.055H371.077c-15.522 0-28.106-12.583-28.106-28.106v-3.789c0-15.522 12.583-28.106 28.106-28.106h283.789c15.522 0 28.106 12.583 28.106 28.106v3.789c-0.001 15.523-12.584 28.106-28.106 28.106z" fill="#FFB100" p-id="24811"></path></svg>