<?xml version="1.0" standalone="no"?><!DOCTYPE svg PUBLIC "-//W3C//DTD SVG 1.1//EN" "http://www.w3.org/Graphics/SVG/1.1/DTD/svg11.dtd"><svg t="1687248169594" class="icon" viewBox="0 0 1024 1024" version="1.1" xmlns="http://www.w3.org/2000/svg" p-id="33693" xmlns:xlink="http://www.w3.org/1999/xlink" width="200" height="200"><path d="M910.3 277H662.8c0-0.1 0.1-0.2 0.1-0.4H277.3c-0.1 0.1-0.3 0.2-0.4 0.4H174c-27.4 0-49.7 22.3-49.7 49.7V823c0 27.4 22.3 49.7 49.7 49.7h22.8c-3.6 2.4-6 6.6-6 11.3 0 7.5 6.1 13.6 13.6 13.6h674.2c7.5 0 13.6-6.1 13.6-13.6 0-4.7-2.4-8.8-6-11.3h24.2c27.3 0 49.7-22.4 49.7-49.7V326.7c-0.1-27.5-22.4-49.7-49.8-49.7z" fill="#A7B8C6" p-id="33694"></path><path d="M276.7 663.6c-3.5 0-7-1.3-9.6-4-5.3-5.3-5.3-13.9 0-19.2l476.7-476.7c5.3-5.3 13.9-5.3 19.2 0 5.3 5.3 5.3 13.9 0 19.2L286.3 659.6c-2.7 2.7-6.2 4-9.6 4z" fill="#A7B8C6" p-id="33695"></path><path d="M753.4 663.6c-3.5 0-7-1.3-9.6-4L267.1 182.8c-5.3-5.3-5.3-13.9 0-19.2s13.9-5.3 19.2 0L763 640.4c5.3 5.3 5.3 13.9 0 19.2-2.7 2.7-6.1 4-9.6 4z" fill="#A7B8C6" p-id="33696"></path><path d="M243.5 630.5c-3.5 0-7-1.3-9.6-4-5.3-5.3-5.3-13.9 0-19.2l476.7-476.7c5.3-5.3 13.9-5.3 19.2 0 5.3 5.3 5.3 13.9 0 19.2L253.1 626.5c-2.7 2.7-6.2 4-9.6 4z" fill="#3E3A39" p-id="33697"></path><path d="M720.3 630.5c-3.5 0-7-1.3-9.6-4L234 149.7c-5.3-5.3-5.3-13.9 0-19.2 5.3-5.3 13.9-5.3 19.2 0l476.7 476.7c5.3 5.3 5.3 13.9 0 19.2-2.7 2.8-6.1 4.1-9.6 4.1z" fill="#3E3A39" p-id="33698"></path><path d="M845.3 804.8H131.5c-19.9 0-36.1-16.3-36.1-36.1V272.5c0-19.9 16.3-36.1 36.1-36.1h713.9c19.9 0 36.1 16.3 36.1 36.1v496.2c0 19.8-16.3 36.1-36.2 36.1z" fill="#998D7B" p-id="33699"></path><path d="M845.3 812.3H131.5c-24.1 0-43.7-19.6-43.7-43.7V272.5c0-24.1 19.6-43.7 43.7-43.7h713.9c24.1 0 43.7 19.6 43.7 43.7v496.2c-0.2 24-19.7 43.6-43.8 43.6zM131.5 243.8c-15.8 0-28.6 12.9-28.6 28.6v496.2c0 15.8 12.9 28.6 28.6 28.6h713.9c15.8 0 28.6-12.9 28.6-28.6V272.5c0-15.8-12.9-28.6-28.6-28.6H131.5z" fill="#C8BB9B" p-id="33700"></path><path d="M850 818.4H113.7c-27.4 0-49.7-22.3-49.7-49.7V272.5c0-27.4 22.3-49.7 49.7-49.7H850c27.4 0 49.7 22.3 49.7 49.7v496.2c0 27.3-22.2 49.7-49.7 49.7zM113.7 249.8c-12.5 0-22.6 10.2-22.6 22.6v496.2c0 12.5 10.2 22.6 22.6 22.6H850c12.5 0 22.6-10.2 22.6-22.6V272.5c0-12.5-10.2-22.6-22.6-22.6l-736.3-0.1z" fill="#3E3A39" p-id="33701"></path><path d="M579.4 753.4H139.7c-19.9 0-36.1-16.3-36.1-36.1V329.7c0-19.9 16.3-36.1 36.1-36.1h439.6c19.9 0 36.1 16.3 36.1 36.1v387.6c0.1 19.8-16.2 36.1-36 36.1z" fill="#98805F" p-id="33702"></path><path d="M574.6 718.6H148.9c-6.6 0-12-5.4-12-12V334.4c0-6.6 5.4-12 12-12h425.5c6.6 0 12 5.4 12 12v372.2c0.2 6.6-5.2 12-11.8 12z" fill="#B9CCD9" p-id="33703"></path><path d="M160.4 718.6c75.4-44.4 160.3-113.5 241-200.1 61.2-65.7 112.1-133.1 150.1-196H137v396.1h23.4z" fill="#DADDEE" p-id="33704"></path><path d="M422.8 294.5H146.1c-2.5 0-4.5-2-4.5-4.5s2-4.5 4.5-4.5h276.6c2.5 0 4.5 2 4.5 4.5s-1.9 4.5-4.4 4.5zM572.9 756.2h-218c-2.5 0-4.5-2-4.5-4.5s2-4.5 4.5-4.5h218c2.5 0 4.5 2 4.5 4.5 0.1 2.4-2 4.5-4.5 4.5z" fill="#D8D8D8" p-id="33705"></path><path d="M313.9 386.4C254.5 444.1 195.2 501.9 137 547.1v22.3c59.5-45 120.2-103.6 180.8-162.5 29.5-28.7 59-57.4 88.4-84.5h-25.6c-22.2 20.9-44.5 42.5-66.7 64zM380.6 322.5h25.6" fill="#E8EAF5" p-id="33706"></path><path d="M818.3 843.1H144c-7.5 0-13.6-6.1-13.6-13.6s6.1-13.6 13.6-13.6h674.2c7.5 0 13.6 6.1 13.6 13.6 0.1 7.6-6 13.6-13.5 13.6z" fill="#3E3A39" p-id="33707"></path><path d="M759.8 393.3m-58.1 0a58.1 58.1 0 1 0 116.2 0 58.1 58.1 0 1 0-116.2 0Z" fill="#98805F" p-id="33708"></path><path d="M544.6 710.7H221.2c-2.5 0-4.5-2-4.5-4.5s2-4.5 4.5-4.5h323.5c2.5 0 4.5 2 4.5 4.5-0.1 2.4-2.1 4.5-4.6 4.5z" fill="#D8D8D8" p-id="33709"></path><path d="M759.8 393.3m-47.9 0a47.9 47.9 0 1 0 95.8 0 47.9 47.9 0 1 0-95.8 0Z" fill="#E1D8CC" p-id="33710"></path><path d="M772.8 400.9h-25.9c-4.2 0-7.5-3.4-7.5-7.5 0-4.2 3.4-7.5 7.5-7.5h25.9c4.2 0 7.5 3.4 7.5 7.5s-3.4 7.5-7.5 7.5z" fill="#40210F" p-id="33711"></path><path d="M759.8 549.4m-58.1 0a58.1 58.1 0 1 0 116.2 0 58.1 58.1 0 1 0-116.2 0Z" fill="#98805F" p-id="33712"></path><path d="M759.8 549.4m-47.9 0a47.9 47.9 0 1 0 95.8 0 47.9 47.9 0 1 0-95.8 0Z" fill="#E1D8CC" p-id="33713"></path><path d="M759.8 570c-4.2 0-7.5-3.4-7.5-7.5v-25.9c0-4.2 3.4-7.5 7.5-7.5s7.5 3.4 7.5 7.5v25.9c0 4.1-3.4 7.5-7.5 7.5z" fill="#40210F" p-id="33714"></path><path d="M732.3 746.3h-29c-2.1 0-3.8-1.7-3.8-3.8v-10.2c0-2.1 1.7-3.8 3.8-3.8h29c2.1 0 3.8 1.7 3.8 3.8v10.2c0 2.1-1.7 3.8-3.8 3.8zM774.9 746.3h-29c-2.1 0-3.8-1.7-3.8-3.8v-10.2c0-2.1 1.7-3.8 3.8-3.8h29c2.1 0 3.8 1.7 3.8 3.8v10.2c0 2.1-1.7 3.8-3.8 3.8zM817.5 746.3h-29c-2.1 0-3.8-1.7-3.8-3.8v-10.2c0-2.1 1.7-3.8 3.8-3.8h29c2.1 0 3.8 1.7 3.8 3.8v10.2c0 2.1-1.7 3.8-3.8 3.8z" fill="#E1D8CC" p-id="33715"></path><path d="M732.3 721.6h-29c-2.1 0-3.8-1.7-3.8-3.8v-10.2c0-2.1 1.7-3.8 3.8-3.8h29c2.1 0 3.8 1.7 3.8 3.8v10.2c0 2.1-1.7 3.8-3.8 3.8zM774.9 721.6h-29c-2.1 0-3.8-1.7-3.8-3.8v-10.2c0-2.1 1.7-3.8 3.8-3.8h29c2.1 0 3.8 1.7 3.8 3.8v10.2c0 2.1-1.7 3.8-3.8 3.8zM817.5 721.6h-29c-2.1 0-3.8-1.7-3.8-3.8v-10.2c0-2.1 1.7-3.8 3.8-3.8h29c2.1 0 3.8 1.7 3.8 3.8v10.2c0 2.1-1.7 3.8-3.8 3.8z" fill="#E1D8CC" p-id="33716"></path></svg>