<?xml version="1.0" standalone="no"?><!DOCTYPE svg PUBLIC "-//W3C//DTD SVG 1.1//EN" "http://www.w3.org/Graphics/SVG/1.1/DTD/svg11.dtd"><svg t="1687698397158" class="icon" viewBox="0 0 1024 1024" version="1.1" xmlns="http://www.w3.org/2000/svg" p-id="1445" xmlns:xlink="http://www.w3.org/1999/xlink" width="200" height="200"><path d="M901.6 912l-240-120h40l240 120z" fill="#BA7879" p-id="1446"></path><path d="M661.6 872H344l26.4-464h-24.8c-14.4 0-27.2 8-34.4 20L109.6 778.4c-5.6 8-14.4 13.6-24 13.6h-24v55.2c0 15.2 8.8 28.8 22.4 36l32.8 16 168.8 84c11.2 5.6 23.2 8.8 36 8.8h580.8l-240.8-120z" fill="#BA7879" p-id="1447"></path><path d="M661.6 872H344l26.4-464h-24.8c-14.4 0-27.2 8-34.4 20L109.6 778.4c-5.6 8-14.4 13.6-24 13.6h-24v55.2c0 15.2 8.8 28.8 22.4 36l32.8 16 168.8 84c11.2 5.6 23.2 8.8 36 8.8h580.8l-240.8-120z" fill="#D39497" p-id="1448"></path><path d="M397.6 792l193.6-363.2c7.2-12.8 20.8-20.8 35.2-20.8h24.8l-5.6 504" fill="#D39497" p-id="1449"></path><path d="M525.6 551.2L423.2 744l-0.8 60 216 138.4 7.2-30.4z" fill="#C18A8F" p-id="1450"></path><path d="M893.6 896L672.8 421.6c-4-8.8-12-13.6-21.6-13.6-13.6 0-24 11.2-24 24.8l17.6 449.6c0.8 16-12 29.6-28 29.6-11.2 0-21.6-7.2-25.6-17.6L392 422.4c-4-8.8-12-14.4-22.4-14.4h-0.8c-12.8 0-24 10.4-24 24l-4 452.8c0 15.2-12.8 28-28 28h-12l-240-120v55.2c0 15.2 8.8 28.8 22.4 36l200.8 100.8c11.2 5.6 23.2 8.8 36 8.8h620.8v-80h-22.4c-10.4-1.6-20-8-24.8-17.6z" fill="#96666C" p-id="1451"></path><path d="M313.6 936c-13.6 0-24-10.4-24-24s10.4-24 24-24c2.4 0 4-1.6 4-4l4-362.4c0-13.6 11.2-24 24-24 13.6 0 24 11.2 24 24l-4 362.4c0 28.8-24 52-52 52zM616 936c-20.8 0-40-12.8-48-32-4.8-12 0.8-26.4 12.8-31.2 12-4.8 26.4 0.8 31.2 12.8 0.8 1.6 2.4 2.4 4 2.4 13.6 0 24 10.4 24 24s-10.4 24-24 24z" fill="#3F4A54" p-id="1452"></path><path d="M616 936c-13.6 0-24-10.4-24-24s10.4-24 24-24c1.6 0 2.4-0.8 3.2-1.6 0.8-0.8 1.6-1.6 0.8-3.2l-13.6-361.6c-0.8-13.6 9.6-24 23.2-24.8 13.6-0.8 24 9.6 24.8 23.2l13.6 361.6c0.8 14.4-4.8 28-14.4 38.4-9.6 10.4-23.2 16-37.6 16zM512 724c-9.6 0-18.4-5.6-22.4-14.4L370.4 432c-13.6 0-24-11.2-24-24 0-13.6 10.4-24 24-24 19.2 0 36.8 11.2 44 29.6l120 276.8c5.6 12 0 26.4-12.8 31.2-3.2 1.6-6.4 2.4-9.6 2.4zM941.6 936c-33.6 0-64.8-20-78.4-50.4L650.4 432c-13.6 0-24-10.4-24-24s11.2-24 24-24c18.4 0 35.2 11.2 43.2 28l212 453.6c6.4 13.6 20 22.4 35.2 22.4 13.6 0 24 10.4 24 24s-10.4 24-23.2 24z" fill="#3F4A54" p-id="1453"></path><path d="M541.6 545.6c-4 0-8-0.8-11.2-3.2-12-6.4-16-20.8-9.6-32.8l48.8-92c11.2-20.8 32.8-33.6 56.8-33.6h24.8c13.6 0 24 10.4 24 24s-10.4 24-24 24h-24.8c-5.6 0-11.2 3.2-14.4 8.8l-48.8 92c-4.8 8-12.8 12.8-21.6 12.8zM941.6 1016H320c-16 0-32-4-46.4-11.2L56.8 896.8c-12-5.6-16.8-20-10.4-32 5.6-12 20-16.8 32-10.4l216.8 108.8c8 4 16 5.6 24.8 5.6h620.8c13.6 0 24 10.4 24 24s-10.4 23.2-23.2 23.2zM40 1016c-6.4 0-12.8-2.4-16.8-7.2l-3.2-3.2c-0.8-1.6-1.6-2.4-2.4-4-0.8-1.6-0.8-3.2-1.6-4.8 0-1.6-0.8-3.2-0.8-4.8 0-6.4 2.4-12.8 7.2-16.8 5.6-5.6 13.6-8 21.6-6.4 1.6 0 3.2 0.8 4.8 1.6 1.6 0.8 3.2 1.6 4 2.4 1.6 0.8 2.4 1.6 4 3.2 4.8 4.8 7.2 10.4 7.2 16.8 0 1.6 0 3.2-0.8 4.8 0 1.6-0.8 3.2-1.6 4.8-0.8 1.6-1.6 3.2-2.4 4-0.8 1.6-1.6 2.4-3.2 3.2-0.8 0.8-2.4 2.4-4 3.2-1.6 0.8-2.4 1.6-4 2.4-1.6 0.8-3.2 0.8-4.8 1.6s-1.6-0.8-3.2-0.8zM85.6 816h-24c-13.6 0-24-10.4-24-24s10.4-24 24-24h24c1.6 0 3.2-0.8 4-1.6l200-349.6c11.2-20 32.8-32 55.2-32h24.8c13.6 0 24 10.4 24 24s-10.4 24-24 24h-24.8c-5.6 0-11.2 3.2-13.6 8L130.4 790.4s0 0.8-0.8 0.8c-9.6 16-25.6 24.8-44 24.8z" fill="#3F4A54" p-id="1454"></path></svg>