<?xml version="1.0" standalone="no"?><!DOCTYPE svg PUBLIC "-//W3C//DTD SVG 1.1//EN" "http://www.w3.org/Graphics/SVG/1.1/DTD/svg11.dtd"><svg height="1024" node-id="1" sillyvg="true" template-height="1024" template-width="1024" version="1.1" viewBox="0 0 1024 1024" width="1024" xmlns="http://www.w3.org/2000/svg" xmlns:xlink="http://www.w3.org/1999/xlink"><defs node-id="71"></defs><g node-id="213"><g node-id="215"><g node-id="217"><g node-id="221"><g node-id="222"><path d="M 88.60 359.40 C 122.90 285.50 241.60 234.60 284.90 219.10 C 328.20 203.60 418.50 335.10 528.10 370.10 C 637.70 405.10 772.60 343.00 787.60 334.90 C 802.60 326.80 907.00 475.00 907.90 531.30 C 908.80 587.60 788.00 768.30 688.60 778.10 C 589.20 787.90 169.30 779.40 182.80 693.10 C 196.30 606.80 191.80 570.60 98.40 535.30 C 5.00 500.00 88.60 359.40 88.60 359.40 Z" fill="#dffdff" fill-rule="nonzero" group-id="1,3,5,9,10" node-id="85" stroke="none" target-height="584.30005" target-width="903.8" target-x="5" target-y="203.6"></path><path d="M 920.40 287.90 C 920.40 310.32 902.22 328.50 879.80 328.50 C 857.38 328.50 839.20 310.32 839.20 287.90 C 839.20 265.48 857.38 247.30 879.80 247.30 C 902.22 247.30 920.40 265.48 920.40 287.90 Z" fill="#dffdff" fill-rule="nonzero" group-id="1,3,5,9,10" node-id="87" stroke="none" target-height="81.2" target-width="81.20001" target-x="839.2" target-y="247.3"></path><path d="M 969.80 378.20 C 969.80 389.02 961.02 397.80 950.20 397.80 C 939.38 397.80 930.60 389.02 930.60 378.20 C 930.60 367.38 939.38 358.60 950.20 358.60 C 961.02 358.60 969.80 367.38 969.80 378.20 Z" fill="#dffdff" fill-rule="nonzero" group-id="1,3,5,9,10" node-id="89" stroke="none" target-height="39.19998" target-width="39.200012" target-x="930.6" target-y="358.6"></path></g></g></g></g></g><g node-id="214"><path d="M 407.70 878.90 C 407.70 878.90 527.10 778.60 599.50 752.80 C 671.90 727.00 692.80 721.10 709.10 719.40 C 725.40 717.70 844.90 738.60 857.50 756.20 C 870.10 773.70 947.30 827.90 956.40 842.20 C 979.70 878.90 965.70 935.20 965.70 935.20 L 394.70 935.20 L 407.70 878.90 Z" fill="#666666" fill-rule="nonzero" group-id="2" node-id="98" stroke="none" target-height="217.5" target-width="585" target-x="394.7" target-y="717.7"></path><g node-id="216"><g node-id="218"><path d="M 374.60 315.40 C 374.60 315.40 373.50 393.90 377.60 406.40 C 381.70 418.90 382.90 479.60 385.90 481.20 C 388.90 482.70 352.10 469.80 352.10 469.80 L 335.40 398.40 L 374.60 315.40 Z" fill="#ffd1d0" fill-rule="nonzero" group-id="2,4,6" node-id="104" stroke="none" target-height="167.30002" target-width="53.5" target-x="335.4" target-y="315.4"></path><path d="M 350.30 461.90 C 350.30 461.90 368.10 472.90 371.00 473.30 C 373.90 473.70 384.50 475.80 384.50 475.80 L 385.90 481.20 L 370.60 476.20 L 352.10 469.80 L 350.30 461.90 Z" fill="#fcc3c4" fill-rule="nonzero" group-id="2,4,6" node-id="106" stroke="none" target-height="19.300018" target-width="35.600006" target-x="350.3" target-y="461.9"></path><path d="M 374.90 375.70 L 365.50 371.80 C 365.50 371.80 363.20 377.90 360.80 383.00 C 358.40 388.10 348.40 425.10 348.40 430.50 C 348.40 435.90 347.70 450.50 347.70 450.50 L 340.60 420.70 L 354.10 379.30 L 360.90 362.50 L 375.70 373.20 L 374.90 375.70 Z" fill="#fcc3c4" fill-rule="nonzero" group-id="2,4,6" node-id="108" stroke="none" target-height="88" target-width="35.100006" target-x="340.6" target-y="362.5"></path><path d="M 380.00 284.40 C 380.00 284.40 390.50 300.30 388.80 310.00 C 387.10 319.70 385.70 334.80 382.50 340.60 C 379.40 346.40 379.90 358.40 379.90 358.40 L 375.60 373.00 C 375.60 373.00 362.80 365.50 360.80 362.30 C 358.90 359.30 380.00 284.40 380.00 284.40 Z" fill="#ffa634" fill-rule="nonzero" group-id="2,4,6" node-id="110" stroke="none" target-height="88.600006" target-width="31.600006" target-x="358.9" target-y="284.4"></path><path d="M 378.80 301.90 L 368.00 368.20 L 365.30 366.30 L 363.00 364.50 Z" fill="#f59e37" fill-rule="nonzero" group-id="2,4,6" node-id="112" stroke="none" target-height="66.30002" target-width="15.799988" target-x="363" target-y="301.9"></path></g><path d="M 312.50 210.50 C 312.50 210.50 299.40 196.40 278.90 192.60 C 258.40 188.80 255.90 188.10 246.50 195.70 C 237.00 203.30 221.50 213.90 214.60 222.30 C 207.70 230.70 204.00 235.20 204.00 239.40 C 204.00 243.60 201.30 258.40 201.30 258.40 C 201.30 258.40 192.60 263.00 188.00 271.30 C 183.40 279.60 183.80 283.10 183.80 283.10 C 183.80 283.10 164.10 301.90 163.30 306.80 C 162.50 311.60 171.60 320.30 170.10 324.10 C 168.60 327.90 163.60 339.80 163.20 352.70 C 162.90 365.50 158.70 390.20 159.80 410.30 C 160.90 430.40 167.80 458.90 171.60 465.30 C 175.40 471.80 182.60 473.30 185.60 475.90 C 188.60 478.60 188.30 482.00 191.70 484.60 C 195.10 487.30 233.60 502.80 236.00 500.20 C 238.40 497.50 244.40 452.80 245.60 448.60 C 246.70 444.40 250.20 441.80 250.20 441.80 C 250.20 441.80 252.10 381.80 252.90 374.60 C 253.70 367.40 256.30 352.70 256.30 352.70 C 256.30 352.70 285.90 216.20 312.50 210.50 Z" fill="#4d7395" fill-rule="nonzero" group-id="2,4" node-id="115" stroke="none" target-height="314.69998" target-width="153.8" target-x="158.7" target-y="188.1"></path><path d="M 255.60 649.90 C 255.60 649.90 254.20 663.00 249.90 670.40 C 245.60 677.80 228.60 718.20 228.00 727.60 C 227.40 737.00 224.90 782.50 222.90 795.60 C 220.90 808.70 216.40 841.40 216.40 841.40 C 216.40 841.40 233.80 847.40 240.60 841.40 C 247.40 835.40 255.50 834.90 255.50 834.90 C 255.50 834.90 255.40 818.00 255.60 811.20 C 255.90 804.40 272.40 756.60 274.40 751.10 C 276.40 745.70 287.80 702.70 294.90 694.50 C 302.00 686.20 316.00 668.90 317.70 662.90 C 319.40 656.90 319.70 646.10 319.70 646.10 L 255.60 649.90 Z" fill="#ffd1d0" fill-rule="nonzero" group-id="2,4" node-id="117" stroke="none" target-height="201.30005" target-width="103.30002" target-x="216.4" target-y="646.1"></path><path d="M 440.20 524.50 C 440.20 524.50 467.80 531.90 471.50 544.70 C 475.20 557.50 472.90 585.40 474.10 592.20 C 474.10 592.20 485.20 636.90 485.50 647.70 C 485.80 658.50 493.20 713.40 496.30 718.30 C 499.40 723.10 504.00 732.80 504.00 732.80 C 504.00 732.80 490.30 747.30 484.90 751.60 C 479.50 755.90 466.10 759.60 466.10 759.60 C 466.10 759.60 461.30 741.10 455.90 728.60 C 450.50 716.10 424.60 655.20 419.80 640.90 C 415.00 626.70 417.50 585.10 417.50 585.10 C 417.50 585.10 414.40 576.00 409.80 575.70 C 405.20 575.40 402.40 575.40 402.40 575.40 L 440.20 524.50 Z" fill="#ffd1d0" fill-rule="nonzero" group-id="2,4" node-id="119" stroke="none" target-height="235.09998" target-width="101.600006" target-x="402.4" target-y="524.5"></path><path d="M 254.00 658.90 C 254.00 658.90 268.60 651.80 280.70 652.60 C 292.80 653.40 305.70 658.30 306.70 663.80 C 307.60 669.30 306.50 680.10 306.50 680.10 C 306.50 680.10 315.70 669.20 317.40 663.80 C 319.60 656.90 319.10 654.90 319.10 654.90 C 319.10 654.90 298.60 646.50 286.60 645.80 C 274.50 645.10 255.40 651.70 255.40 651.70 L 254.00 658.90 Z" fill="#fcc3c4" fill-rule="nonzero" group-id="2,4" node-id="121" stroke="none" target-height="35" target-width="65.600006" target-x="254" target-y="645.1"></path><path d="M 412.20 576.70 C 412.20 576.70 410.30 575.00 407.50 575.60 C 404.70 576.20 402.80 575.00 402.80 575.00 C 402.80 575.00 425.60 538.50 433.20 531.30 C 440.80 524.10 442.50 525.20 442.50 525.20 L 445.80 526.30 C 445.80 526.30 427.80 539.80 421.10 553.30 C 414.40 566.90 412.20 576.70 412.20 576.70 Z" fill="#fcc3c4" fill-rule="nonzero" group-id="2,4" node-id="123" stroke="none" target-height="52.600037" target-width="43" target-x="402.8" target-y="524.1"></path><path d="M 229.90 525.00 C 229.90 525.00 244.10 540.40 245.80 563.10 C 247.50 585.80 245.80 653.00 245.80 653.00 C 245.80 653.00 283.90 648.40 292.50 650.20 C 301.10 652.00 328.90 657.00 328.90 657.00 L 338.00 560.80 L 229.90 525.00 Z" fill="#bbbbbb" fill-rule="nonzero" group-id="2,4" node-id="125" stroke="none" target-height="132" target-width="108.100006" target-x="229.9" target-y="525"></path><path d="M 233.60 529.70 C 233.60 529.70 266.20 571.40 296.60 579.90 C 328.60 588.90 330.40 642.10 330.40 642.10 L 338.10 560.90 L 233.60 529.70 Z" fill="#b1b1b1" fill-rule="nonzero" group-id="2,4" node-id="127" stroke="none" target-height="112.39996" target-width="104.5" target-x="233.6" target-y="529.7"></path><path d="M 220.60 442.60 C 220.60 442.60 201.60 480.50 217.60 506.00 C 233.50 531.40 238.50 540.90 266.60 547.70 C 294.70 554.50 361.50 580.30 374.80 587.90 C 388.10 595.50 394.20 599.70 394.20 599.70 C 394.20 599.70 411.70 557.60 434.40 534.10 C 457.20 510.60 453.00 508.30 453.00 508.30 L 337.60 462.40 C 337.60 462.40 287.10 446.10 287.10 442.70 C 287.10 439.30 272.30 437.80 267.00 438.50 C 261.60 439.20 220.60 442.60 220.60 442.60 Z" fill="#bbbbbb" fill-rule="nonzero" group-id="2,4" node-id="129" stroke="none" target-height="161.90002" target-width="255.6" target-x="201.6" target-y="437.8"></path><path d="M 212.60 467.20 L 211.60 474.00 C 211.60 474.00 260.60 466.00 274.00 467.20 C 287.50 468.50 315.90 476.20 321.80 474.00 C 327.70 471.70 344.80 465.20 344.80 465.20 L 340.80 463.60 L 315.70 467.40 C 315.70 467.40 284.80 461.20 274.40 460.90 C 258.90 460.50 212.60 467.20 212.60 467.20 Z" fill="#b1b1b1" fill-rule="nonzero" group-id="2,4" node-id="131" stroke="none" target-height="15.700012" target-width="133.19998" target-x="211.6" target-y="460.5"></path><path d="M 340.20 185.20 L 338.10 203.90 L 335.00 217.60 L 357.70 271.60 L 369.30 269.20 L 376.10 242.50 L 404.50 198.20 Z" fill="#ffd1d0" fill-rule="nonzero" group-id="2,4" node-id="133" stroke="none" target-height="86.40001" target-width="69.5" target-x="335" target-y="185.2"></path><path d="M 339.30 193.60 L 363.90 252.50 C 363.90 252.50 360.90 257.30 360.80 259.80 C 360.60 262.20 361.50 265.60 361.50 265.60 L 366.90 262.50 L 367.60 264.90 L 360.80 271.00 L 336.70 210.30 L 339.30 193.60 Z" fill="#fcc3c4" fill-rule="nonzero" group-id="2,4" node-id="135" stroke="none" target-height="77.399994" target-width="30.899994" target-x="336.7" target-y="193.6"></path><path d="M 340.20 185.20 C 340.20 185.20 335.00 213.70 348.70 219.30 C 382.60 233.10 399.40 206.50 399.40 206.50 L 340.20 185.20 Z" fill="#fcc3c4" fill-rule="nonzero" group-id="2,4" node-id="137" stroke="none" target-height="47.90001" target-width="64.399994" target-x="335" target-y="185.2"></path><path d="M 391.10 114.00 C 380.40 110.20 357.50 109.00 347.30 132.90 C 337.10 156.80 333.70 178.80 346.50 198.50 C 359.30 218.20 381.40 218.50 392.60 211.30 C 405.40 203.00 421.60 189.10 418.20 159.20 C 414.80 129.30 404.20 118.60 391.10 114.00 Z" fill="#ffd1d0" fill-rule="nonzero" group-id="2,4" node-id="139" stroke="none" target-height="109.5" target-width="87.899994" target-x="333.7" target-y="109"></path><path d="M 339.00 159.50 C 339.00 159.50 328.80 143.30 338.10 123.40 C 339.60 120.30 346.50 109.40 351.40 107.10 C 356.30 104.80 362.80 95.00 365.40 94.20 C 368.00 93.40 371.50 97.60 371.50 97.60 C 371.50 97.60 373.40 86.60 384.80 88.50 C 396.20 90.40 398.80 91.90 406.40 93.80 C 414.00 95.70 412.50 101.40 412.50 101.40 C 412.50 101.40 419.70 105.20 420.10 106.30 C 420.50 107.40 417.40 111.60 421.60 116.50 C 425.80 121.40 427.70 125.60 427.70 129.80 C 427.70 134.00 425.80 140.00 427.70 143.10 C 429.60 146.10 431.50 148.40 427.70 155.20 C 423.90 162.00 418.60 172.30 418.60 172.30 C 418.60 172.30 410.60 140.40 396.20 132.50 C 381.80 124.60 357.60 129.10 339.00 159.50 Z" fill="#0a0a0a" fill-rule="nonzero" group-id="2,4" node-id="141" stroke="none" target-height="85.700005" target-width="102.70001" target-x="328.8" target-y="86.6"></path><path d="M 418.60 172.30 C 418.60 172.30 425.80 167.40 427.30 172.30 C 428.80 177.20 428.00 184.10 422.90 189.80 C 417.80 195.50 411.00 194.00 411.00 194.00 L 418.60 172.30 Z" fill="#ffd1d0" fill-rule="nonzero" group-id="2,4" node-id="143" stroke="none" target-height="28.100006" target-width="17.799988" target-x="411" target-y="167.4"></path><path d="M 345.20 420.20 L 344.80 450.50 C 344.80 450.50 337.40 447.30 336.40 446.30 C 335.40 445.30 338.20 428.00 341.60 424.40 C 344.90 420.70 345.20 420.20 345.20 420.20 Z" fill="#4d7395" fill-rule="nonzero" group-id="2,4" node-id="145" stroke="none" target-height="30.299988" target-width="9.800018" target-x="335.4" target-y="420.2"></path><path d="M 339.80 160.00 C 339.80 160.00 331.30 154.20 330.30 161.60 C 329.30 169.10 333.80 183.90 335.20 184.10 C 336.60 184.30 339.80 182.60 339.80 182.60 L 339.80 160.00 Z" fill="#ffd1d0" fill-rule="nonzero" group-id="2,4" node-id="147" stroke="none" target-height="30.100006" target-width="10.5" target-x="329.3" target-y="154.2"></path><path d="M 332.50 203.10 C 332.50 203.10 323.10 206.80 321.40 207.90 C 319.70 209.00 277.00 211.60 264.20 231.80 C 251.40 252.00 226.60 319.20 224.60 340.80 C 222.60 362.40 221.20 374.70 221.20 374.70 C 221.20 374.70 219.20 438.20 216.90 441.00 C 214.60 443.80 209.80 443.80 211.50 448.10 C 213.20 452.40 214.30 456.90 213.50 458.90 C 212.60 460.90 211.20 467.40 211.20 467.40 C 211.20 467.40 265.90 458.60 280.40 461.40 C 294.90 464.20 312.30 466.20 315.70 467.40 C 319.10 468.50 340.80 463.60 340.80 463.60 C 340.80 463.60 341.00 427.80 343.00 419.00 C 345.00 410.20 350.70 386.30 355.00 382.90 C 359.30 379.50 360.10 373.80 361.00 369.00 C 361.90 364.20 376.40 346.20 380.60 318.60 C 384.90 291.00 378.30 271.40 378.30 271.40 L 375.20 260.40 L 380.50 257.60 L 376.10 242.60 C 376.10 242.60 373.40 249.10 371.00 251.70 C 368.50 254.40 366.40 265.00 366.40 265.00 L 361.10 269.00 C 361.10 269.00 355.80 260.10 358.80 256.30 C 361.80 252.50 361.80 252.50 361.80 252.50 C 361.80 252.50 337.90 212.20 332.50 203.10 Z" fill="#ffa634" fill-rule="nonzero" group-id="2,4" node-id="149" stroke="none" target-height="265.4" target-width="175.09999" target-x="209.8" target-y="203.1"></path><path d="M 375.10 260.40 L 360.80 269.50 L 376.50 264.90 Z" fill="#f59e37" fill-rule="nonzero" group-id="2,4" node-id="151" stroke="none" target-height="9.100006" target-width="15.700012" target-x="360.8" target-y="260.4"></path><path d="M 323.90 206.70 L 349.60 254.00 L 317.40 208.70 L 320.90 208.10 Z" fill="#f59e37" fill-rule="nonzero" group-id="2,4" node-id="153" stroke="none" target-height="47.300003" target-width="32.200012" target-x="317.4" target-y="206.7"></path><path d="M 241.60 239.90 C 241.60 239.90 205.20 257.50 200.00 261.00 C 194.90 264.40 152.20 290.00 153.90 307.70 C 155.60 325.30 179.60 328.60 191.50 333.30 C 202.80 337.80 249.00 345.60 252.40 345.10 C 261.00 344.00 266.60 336.70 266.60 336.70 L 248.20 307.30 L 236.80 304.60 L 276.10 283.30 C 276.10 283.30 272.10 254.10 266.20 249.10 C 260.40 244.30 241.60 239.90 241.60 239.90 Z" fill="#ffd1d0" fill-rule="nonzero" group-id="2,4" node-id="155" stroke="none" target-height="105.70001" target-width="123.90001" target-x="152.2" target-y="239.9"></path><path d="M 306.40 210.60 C 306.40 210.60 286.60 211.90 279.70 215.70 C 272.90 219.50 236.10 242.30 236.10 242.30 C 236.10 242.30 254.70 251.80 257.40 262.40 C 260.10 273.00 263.50 290.50 263.50 290.50 L 292.00 286.70 C 292.00 286.70 324.40 280.90 327.30 240.80 C 329.10 214.50 306.40 210.60 306.40 210.60 Z" fill="#ffa634" fill-rule="nonzero" group-id="2,4" node-id="157" stroke="none" target-height="79.899994" target-width="93" target-x="236.1" target-y="210.6"></path><path d="M 317.40 254.00 C 317.40 254.00 303.00 280.90 294.40 284.40 C 285.80 287.90 267.30 292.40 267.30 292.40 C 267.30 292.40 276.60 315.70 291.40 308.60 C 299.00 305.00 315.80 265.80 317.40 254.00 Z" fill="#f69c30" fill-rule="nonzero" group-id="2,4" node-id="159" stroke="none" target-height="61.700012" target-width="50.100006" target-x="267.3" target-y="254"></path><path d="M 277.40 207.00 C 277.40 207.00 287.90 208.40 291.60 207.00 C 295.30 205.60 309.50 203.30 318.60 210.10 C 327.70 216.90 339.70 220.90 336.00 253.10 C 332.30 285.30 326.90 304.90 315.80 318.30 C 304.70 331.70 269.40 350.70 269.40 350.70 L 238.10 392.80 L 229.60 386.00 L 265.50 342.70 C 265.50 342.70 277.90 321.40 283.20 313.40 C 288.50 305.40 314.20 262.50 317.60 247.10 C 321.00 231.70 317.60 215.80 307.40 212.70 C 297.20 209.60 291.20 211.60 285.20 213.00 C 279.20 214.40 273.80 211.30 273.80 211.30 L 277.40 207.00 Z" fill="#4d7395" fill-rule="nonzero" group-id="2,4" node-id="161" stroke="none" target-height="189.49998" target-width="110.100006" target-x="229.6" target-y="203.3"></path><path d="M 378.40 258.60 C 378.40 258.60 383.00 267.40 383.70 283.30 C 384.50 299.20 385.60 327.70 382.50 336.70 C 379.40 345.70 366.50 363.50 365.40 366.90 C 364.30 370.30 361.70 380.60 360.30 387.00 C 358.90 393.50 347.50 418.60 345.20 422.40 C 342.90 426.20 342.50 423.30 342.50 423.30 C 342.50 423.30 350.30 392.30 351.10 386.20 C 351.90 380.10 357.20 375.20 360.40 370.60 C 363.60 366.00 368.10 356.90 369.70 355.00 C 371.20 353.10 377.70 326.40 376.90 321.90 C 376.10 317.40 379.40 285.20 379.70 281.80 C 380.00 278.40 375.30 260.20 375.30 260.20 L 378.40 258.60 Z" fill="#4d7395" fill-rule="nonzero" group-id="2,4" node-id="163" stroke="none" target-height="167.6" target-width="43.100006" target-x="342.5" target-y="258.6"></path><path d="M 195.90 291.20 C 195.90 291.20 212.70 279.90 224.90 288.70 C 237.00 297.40 236.80 304.70 236.80 304.70 C 236.80 304.70 229.60 290.60 217.90 288.50 C 208.00 286.70 195.90 291.20 195.90 291.20 Z" fill="#fcc3c4" fill-rule="nonzero" group-id="2,4" node-id="165" stroke="none" target-height="24.800018" target-width="41.100006" target-x="195.9" target-y="279.9"></path><path d="M 236.80 304.60 L 219.30 299.20 C 219.30 299.20 225.40 302.50 226.90 303.30 C 228.40 304.10 236.80 304.60 236.80 304.60 Z" fill="#fcc3c4" fill-rule="nonzero" group-id="2,4" node-id="167" stroke="none" target-height="5.399994" target-width="17.5" target-x="219.3" target-y="299.2"></path><path d="M 263.40 290.40 C 263.40 290.40 262.20 284.00 261.70 282.10 C 258.30 283.00 244.00 288.40 241.50 289.90 C 239.20 291.30 235.10 293.70 232.00 294.90 C 232.60 297.10 233.90 299.60 234.20 300.10 C 234.90 301.20 236.70 303.60 236.70 303.60 L 263.40 290.40 Z" fill="#fcc3c4" fill-rule="nonzero" group-id="2,4" node-id="169" stroke="none" target-height="21.5" target-width="31.399994" target-x="232" target-y="282.1"></path><path d="M 237.90 307.80 C 237.90 307.80 236.60 322.20 237.90 326.80 C 239.20 331.40 245.90 340.30 248.30 340.10 C 250.80 339.90 264.30 338.30 264.30 338.30 C 264.30 338.30 249.80 334.40 246.90 330.80 C 244.00 327.20 237.00 313.70 237.90 307.80 Z" fill="#30303c" fill-rule="nonzero" group-id="2,4" node-id="171" stroke="none" target-height="32.5" target-width="27.699982" target-x="236.6" target-y="307.8"></path><path d="M 272.30 292.50 L 248.60 290.40 C 248.60 290.40 244.60 291.70 245.00 294.00 C 245.40 296.30 246.70 297.00 245.00 298.20 C 243.30 299.30 237.10 301.00 237.40 304.70 C 237.80 308.30 239.10 312.90 239.10 312.90 C 239.10 312.90 236.40 317.80 239.70 324.10 C 242.90 330.40 251.70 337.20 251.70 337.20 C 251.70 337.20 256.30 337.00 258.70 337.20 C 261.10 337.40 276.20 341.60 280.00 340.00 C 283.80 338.50 282.80 334.30 282.80 334.30 C 282.80 334.30 285.40 332.30 285.30 329.60 C 285.20 326.90 281.90 323.60 281.90 323.60 C 281.90 323.60 285.50 324.20 286.30 321.30 C 287.20 318.50 285.00 315.30 285.00 315.30 C 285.00 315.30 287.40 308.30 287.30 307.00 C 287.20 305.70 272.30 292.50 272.30 292.50 Z" fill="#ffd1d0" fill-rule="nonzero" group-id="2,4,7" node-id="175" stroke="none" target-height="51.200012" target-width="51" target-x="236.4" target-y="290.4"></path><path d="M 258.10 301.00 C 258.10 301.00 266.60 305.70 268.90 306.30 C 271.20 306.90 283.10 312.40 283.10 312.40 L 258.10 301.00 Z" fill="#fcc3c4" fill-rule="nonzero" group-id="2,4,7" node-id="177" stroke="none" target-height="11.399994" target-width="25" target-x="258.1" target-y="301"></path><path d="M 254.40 310.50 C 254.40 310.50 263.10 316.40 264.30 316.40 C 265.50 316.40 271.50 316.40 271.50 316.40 L 282.10 324.00 L 270.70 317.30 L 263.30 317.30 L 254.40 310.50 Z" fill="#fcc3c4" fill-rule="nonzero" group-id="2,4,7" node-id="179" stroke="none" target-height="13.5" target-width="27.700012" target-x="254.4" target-y="310.5"></path><path d="M 254.40 323.00 L 261.80 327.00 L 274.30 329.10 L 283.10 334.50 L 273.80 329.90 L 261.70 328.10 Z" fill="#fcc3c4" fill-rule="nonzero" group-id="2,4,7" node-id="181" stroke="none" target-height="11.5" target-width="28.700012" target-x="254.4" target-y="323"></path><path d="M 187.50 471.70 C 187.50 471.70 182.90 500.70 186.10 511.50 C 189.20 522.30 194.90 547.10 194.90 547.10 L 206.90 541.10 C 206.90 541.10 194.90 507.50 191.20 489.60 C 187.50 471.70 187.50 471.70 187.50 471.70 Z" fill="#4d7395" fill-rule="nonzero" group-id="2,4" node-id="184" stroke="none" target-height="75.39996" target-width="24" target-x="182.9" target-y="471.7"></path><path d="M 220.10 372.40 C 220.70 372.50 270.50 411.40 292.90 424.50 C 315.30 437.60 333.10 442.20 333.10 442.20 L 309.10 456.20 C 309.10 456.20 266.80 453.20 238.30 441.40 C 209.80 429.60 208.20 421.70 208.20 421.70 L 220.10 372.40 Z" fill="#4d7395" fill-rule="nonzero" group-id="2,4" node-id="186" stroke="none" target-height="83.80002" target-width="124.90001" target-x="208.2" target-y="372.4"></path><path d="M 320.30 438.80 C 323.60 439.60 325.10 440.50 328.00 441.10 C 330.80 441.70 338.80 443.10 338.80 443.10 C 338.80 443.10 344.80 443.40 344.80 448.80 C 344.80 454.20 345.40 460.50 344.80 462.20 C 344.20 463.90 340.50 469.00 340.50 469.00 L 315.20 462.20 L 299.00 452.20 L 294.40 447.40 C 294.40 447.40 306.80 435.50 320.30 438.80 Z" fill="#426a89" fill-rule="nonzero" group-id="2,4" node-id="188" stroke="none" target-height="33.5" target-width="51" target-x="294.4" target-y="435.5"></path><path d="M 382.90 331.80 C 382.90 331.80 378.00 343.60 381.40 348.50 C 384.80 353.40 389.10 361.00 386.80 367.90 C 384.50 374.70 382.10 376.20 383.80 384.60 C 385.50 393.00 386.80 410.40 386.80 410.40 C 386.80 410.40 389.30 413.10 386.80 417.40 C 384.30 421.80 380.30 425.20 377.40 424.40 C 374.60 423.60 377.40 416.20 377.40 414.30 C 377.40 412.40 375.40 406.30 376.10 403.50 C 376.80 400.70 375.10 386.40 377.70 381.30 C 380.40 376.20 381.70 366.70 377.10 360.80 C 372.50 354.90 374.60 340.70 374.60 340.70 L 382.90 331.80 Z" fill="#4d7395" fill-rule="nonzero" group-id="2,4" node-id="190" stroke="none" target-height="93.400024" target-width="16.799988" target-x="372.5" target-y="331.8"></path><path d="M 465.10 758.10 C 465.10 758.10 479.90 751.80 483.30 747.90 C 486.70 744.00 503.20 726.80 503.20 726.80 C 503.20 726.80 524.30 743.90 528.20 742.50 C 532.20 741.10 566.90 746.20 577.20 742.50 C 587.40 738.80 601.70 737.10 599.40 749.00 C 597.10 761.00 581.20 772.90 568.10 781.40 C 555.00 789.90 549.90 784.80 543.60 789.40 C 537.30 794.00 533.40 796.20 523.10 799.60 C 512.90 803.00 504.30 816.10 496.30 819.00 C 488.30 821.80 478.10 831.00 469.00 811.60 C 459.90 792.20 464.50 762.00 465.10 758.10 Z" fill="#4d7395" fill-rule="nonzero" group-id="2,4" node-id="192" stroke="none" target-height="104.20001" target-width="141.80002" target-x="459.9" target-y="726.8"></path><path d="M 218.60 825.30 L 219.60 818.20 C 219.60 818.20 230.50 835.50 240.40 834.80 C 250.30 834.10 255.40 824.50 255.40 824.50 C 255.40 824.50 256.40 829.20 252.70 833.20 C 249.00 837.20 246.20 841.50 233.70 837.80 C 221.20 834.10 218.60 825.30 218.60 825.30 Z" fill="#fcc3c4" fill-rule="nonzero" group-id="2,4" node-id="194" stroke="none" target-height="23.299988" target-width="37.799988" target-x="218.6" target-y="818.2"></path><path d="M 218.30 824.50 C 218.30 824.50 203.50 839.90 206.90 846.70 C 210.30 853.50 202.50 890.00 206.40 894.50 C 210.30 899.10 233.10 900.80 250.70 887.70 C 268.30 874.60 279.70 874.00 286.60 871.80 C 293.50 869.60 324.20 859.30 326.40 853.60 C 328.70 847.90 321.80 833.70 315.60 834.80 C 309.30 835.90 301.50 842.80 283.80 835.90 C 266.10 829.10 255.50 824.70 255.50 824.70 C 255.50 824.70 254.70 837.60 241.60 837.60 C 228.50 837.60 218.30 824.50 218.30 824.50 Z" fill="#4d7395" fill-rule="nonzero" group-id="2,4" node-id="196" stroke="none" target-height="76.29999" target-width="126.20001" target-x="202.5" target-y="824.5"></path><path d="M 254.70 343.00 C 254.70 343.00 257.50 373.40 255.70 378.90 C 254.50 382.60 252.10 385.70 252.10 385.70 C 252.10 385.70 258.90 388.90 267.10 388.00 C 275.40 387.10 278.00 384.00 278.00 384.00 C 278.00 384.00 273.80 379.30 272.90 373.80 C 272.00 368.30 270.80 339.60 270.80 339.60 L 258.60 337.20 L 255.40 337.10 L 254.70 343.00 Z" fill="#141522" fill-rule="nonzero" group-id="2,4,8" node-id="200" stroke="none" target-height="51.799988" target-width="25.899994" target-x="252.1" target-y="337.1"></path><path d="M 259.60 388.10 L 283.50 723.20 L 295.20 723.20 L 271.00 385.10 Z" fill="#1a1c2d" fill-rule="nonzero" group-id="2,4,8" node-id="202" stroke="none" target-height="338.1" target-width="35.600006" target-x="259.6" target-y="385.1"></path><path d="M 282.60 721.20 C 282.60 721.20 285.10 723.20 289.10 723.20 C 293.10 723.20 295.90 720.10 295.90 720.10 C 295.90 720.10 297.10 731.90 295.60 736.00 C 294.70 738.60 286.80 739.80 285.00 736.40 C 283.10 732.90 282.60 721.20 282.60 721.20 Z" fill="#1a1c2d" fill-rule="nonzero" group-id="2,4,8" node-id="204" stroke="none" target-height="19.700012" target-width="14.5" target-x="282.6" target-y="720.1"></path><path d="M 284.90 735.00 L 303.40 941.20 L 309.70 941.20 L 295.20 732.90 Z" fill="#1a1c2d" fill-rule="nonzero" group-id="2,4,8" node-id="206" stroke="none" target-height="208.29999" target-width="24.800018" target-x="284.9" target-y="732.9"></path><path d="M 301.80 938.90 C 301.80 938.90 303.80 941.00 306.50 940.80 C 309.20 940.60 310.70 938.00 310.70 938.00 C 310.70 938.00 311.70 953.10 310.90 953.40 C 310.10 953.70 304.80 954.60 304.10 954.20 C 303.30 953.60 301.80 938.90 301.80 938.90 Z" fill="#1a1c2d" fill-rule="nonzero" group-id="2,4,8" node-id="208" stroke="none" target-height="16.599976" target-width="9.900024" target-x="301.8" target-y="938"></path><path d="M 498.80 722.60 C 498.80 722.60 487.80 739.70 483.10 743.40 C 478.40 747.10 464.40 753.40 464.40 753.40 L 465.10 758.00 C 465.10 758.00 479.50 755.10 485.60 747.60 C 491.70 740.10 501.70 728.20 501.70 728.20 L 498.80 722.60 Z" fill="#fcc3c4" fill-rule="nonzero" group-id="2,4" node-id="211" stroke="none" target-height="35.400024" target-width="37.30002" target-x="464.4" target-y="722.6"></path></g></g></svg>