<?xml version="1.0" standalone="no"?><!DOCTYPE svg PUBLIC "-//W3C//DTD SVG 1.1//EN" "http://www.w3.org/Graphics/SVG/1.1/DTD/svg11.dtd"><svg height="1024" node-id="1" sillyvg="true" template-height="1024" template-width="1024" version="1.1" viewBox="0 0 1024 1024" width="1024" xmlns="http://www.w3.org/2000/svg" xmlns:xlink="http://www.w3.org/1999/xlink"><defs node-id="53"></defs><g node-id="154"><g node-id="156"><path d="M 150.80 369.60 C 183.20 299.60 295.60 251.50 336.50 236.90 C 377.50 222.20 463.00 346.70 566.70 379.80 C 670.40 412.90 798.10 354.20 812.30 346.50 C 826.50 338.80 925.30 479.00 926.20 532.30 C 927.00 585.60 812.70 756.60 718.70 765.90 C 624.70 775.20 227.30 767.10 240.00 685.40 C 252.70 603.70 248.60 569.50 160.10 536.10 C 71.60 502.70 150.80 369.60 150.80 369.60 Z" fill="#dffdff" fill-rule="nonzero" group-id="1,3" node-id="61" stroke="none" target-height="553" target-width="855.4" target-x="71.6" target-y="222.2"></path><path d="M 939.40 301.90 C 939.40 323.16 922.16 340.40 900.90 340.40 C 879.64 340.40 862.40 323.16 862.40 301.90 C 862.40 280.64 879.64 263.40 900.90 263.40 C 922.16 263.40 939.40 280.64 939.40 301.90 Z" fill="#dffdff" fill-rule="nonzero" group-id="1,3" node-id="63" stroke="none" target-height="77" target-width="77" target-x="862.4" target-y="263.4"></path><path d="M 986.10 387.40 C 986.10 397.62 977.82 405.90 967.60 405.90 C 957.38 405.90 949.10 397.62 949.10 387.40 C 949.10 377.18 957.38 368.90 967.60 368.90 C 977.82 368.90 986.10 377.18 986.10 387.40 Z" fill="#dffdff" fill-rule="nonzero" group-id="1,3" node-id="65" stroke="none" target-height="37" target-width="37" target-x="949.1" target-y="368.9"></path></g></g><g node-id="155"><path d="M 383.60 444.70 C 383.60 444.70 425.00 449.10 433.60 447.50 C 442.20 445.90 445.80 441.60 445.80 441.60 C 445.80 441.60 494.40 471.20 500.30 485.60 C 504.30 495.40 497.40 531.80 497.40 531.80 L 467.40 549.40 L 447.40 532.90 L 446.40 511.90 C 446.40 511.90 441.70 512.10 430.10 517.20 C 418.50 522.30 383.60 444.70 383.60 444.70 Z" fill="#ffd1d0" fill-rule="nonzero" group-id="2" node-id="71" stroke="none" target-height="107.80002" target-width="120.69998" target-x="383.6" target-y="441.6"></path><path d="M 581.00 662.50 C 581.00 662.50 484.60 673.10 460.30 677.00 C 436.00 680.90 396.70 686.00 386.10 707.20 C 375.50 728.40 382.60 746.60 392.40 748.90 C 402.20 751.20 445.40 764.90 513.70 759.00 C 540.10 756.70 626.90 735.00 659.80 742.10 C 692.70 749.20 654.80 666.00 654.80 666.00 L 581.00 662.50 Z" fill="#c679ff" fill-rule="nonzero" group-id="2" node-id="73" stroke="none" target-height="102.400024" target-width="317.2" target-x="375.5" target-y="662.5"></path><path d="M 401.20 450.10 C 401.20 450.10 428.00 449.40 444.60 476.10 C 448.90 483.10 457.00 512.70 456.40 524.00 C 454.60 523.30 447.50 521.10 446.70 519.90 C 446.50 515.50 446.40 514.50 446.30 512.00 C 441.00 511.80 428.90 518.30 428.90 518.30 L 401.20 450.10 Z" fill="#fcc3c4" fill-rule="nonzero" group-id="2" node-id="75" stroke="none" target-height="74.600006" target-width="55.799988" target-x="401.2" target-y="449.4"></path><path d="M 354.50 441.60 C 354.50 441.60 356.10 435.00 361.00 434.40 C 365.90 433.80 374.20 437.90 379.40 437.00 C 384.60 436.10 389.40 437.20 393.50 440.20 C 397.60 443.10 394.70 448.40 394.70 448.40 L 354.50 441.60 Z" fill="#ffd1d0" fill-rule="nonzero" group-id="2" node-id="77" stroke="none" target-height="14.600006" target-width="43.100006" target-x="354.5" target-y="433.8"></path><path d="M 381.40 545.80 C 381.40 545.80 386.20 547.90 390.90 543.50 C 395.60 539.10 402.40 536.20 407.70 537.70 C 413.00 539.20 411.20 529.50 409.20 530.50 C 408.10 531.10 397.20 534.20 389.70 538.40 C 384.20 541.40 381.40 545.80 381.40 545.80 Z" fill="#ffd1d0" fill-rule="nonzero" group-id="2" node-id="79" stroke="none" target-height="18.400024" target-width="31.600006" target-x="381.4" target-y="529.5"></path><path d="M 476.40 598.70 L 476.40 599.00 L 476.50 599.30 L 476.90 598.70 Z" fill="#b473fb" fill-rule="nonzero" group-id="2" node-id="81" stroke="none" target-height="0.5999756" target-width="0.5" target-x="476.4" target-y="598.7"></path><path d="M 444.30 443.00 C 444.30 443.00 483.70 488.20 483.70 501.80 C 483.70 515.50 480.80 517.90 471.10 520.30 C 461.40 522.70 448.60 514.40 448.60 514.40 C 448.60 514.40 475.20 543.40 490.50 530.40 C 505.80 517.40 496.10 474.10 480.80 461.40 C 465.50 448.70 444.30 443.00 444.30 443.00 Z" fill="#fcc3c4" fill-rule="nonzero" group-id="2" node-id="83" stroke="none" target-height="100.400024" target-width="61.5" target-x="444.3" target-y="443"></path><path d="M 354.50 441.60 C 354.50 441.60 371.80 442.50 376.60 443.20 C 381.50 443.90 394.70 448.30 394.70 448.30 C 394.70 448.30 379.20 446.30 367.50 444.70 C 355.70 443.10 354.50 441.60 354.50 441.60 Z" fill="#fcc3c4" fill-rule="nonzero" group-id="2" node-id="85" stroke="none" target-height="6.6999817" target-width="40.200012" target-x="354.5" target-y="441.6"></path><path d="M 409.70 530.20 C 409.70 530.20 394.20 540.20 389.80 541.30 C 385.40 542.50 379.30 546.20 379.30 546.20 C 379.30 546.20 394.70 531.70 401.10 530.30 C 407.70 529.00 409.70 530.20 409.70 530.20 Z" fill="#fcc3c4" fill-rule="nonzero" group-id="2" node-id="87" stroke="none" target-height="17.200012" target-width="30.400024" target-x="379.3" target-y="529"></path><path d="M 352.50 441.60 C 332.70 440.80 288.40 453.50 298.10 510.00 C 307.80 566.50 366.40 553.10 403.90 533.30 C 429.40 519.80 446.10 512.50 441.60 478.50 C 438.30 453.50 375.50 442.50 352.50 441.60 Z" fill="#ffd1d0" fill-rule="nonzero" group-id="2" node-id="89" stroke="none" target-height="125.70001" target-width="157.70001" target-x="288.4" target-y="440.8"></path><path d="M 749.30 570.90 C 749.30 570.90 759.60 586.90 764.30 597.30 C 769.00 607.70 769.00 607.70 769.00 607.70 L 652.00 650.50 C 652.00 650.50 727.80 563.70 738.00 566.30 C 748.20 568.90 749.30 570.90 749.30 570.90 Z" fill="#ffd1d0" fill-rule="nonzero" group-id="2" node-id="91" stroke="none" target-height="86.79999" target-width="117" target-x="652" target-y="563.7"></path><path d="M 461.20 377.30 C 461.20 377.30 441.10 375.90 416.40 378.80 C 391.70 381.70 323.80 388.40 315.10 392.00 C 306.40 395.60 293.50 396.90 288.50 396.90 C 283.50 396.90 265.70 402.60 259.40 404.70 C 253.10 406.80 231.50 411.90 219.60 417.20 C 207.70 422.50 174.90 438.30 163.50 441.70 C 152.10 445.10 146.40 449.40 142.50 449.80 C 138.60 450.20 135.60 450.30 131.50 452.60 C 127.40 455.00 108.20 468.80 105.10 471.50 C 102.00 474.20 92.00 479.40 88.50 481.60 C 85.00 483.80 84.20 487.60 79.40 491.20 C 74.60 494.80 66.20 502.30 59.90 505.70 C 53.50 509.10 40.30 515.10 38.60 517.10 C 36.90 519.10 39.80 522.20 41.20 523.10 C 42.60 524.00 52.30 522.00 57.10 518.80 C 61.90 515.60 72.50 510.40 79.30 508.60 C 86.10 506.80 89.00 501.50 91.40 501.10 C 93.80 500.70 99.50 502.10 103.40 498.30 C 107.20 494.50 119.70 490.70 127.70 487.30 C 135.70 483.90 145.20 474.10 145.60 473.90 C 146.00 473.70 210.80 456.60 225.30 452.50 C 239.80 448.40 283.00 436.00 297.10 435.20 C 311.20 434.40 365.40 431.70 387.20 429.90 C 409.00 428.10 423.10 427.20 423.10 427.20 L 434.40 435.00 C 434.40 435.00 487.30 429.50 495.80 418.30 C 504.20 407.10 498.60 388.90 487.60 385.40 C 476.60 381.90 461.20 377.30 461.20 377.30 Z" fill="#ffd1d0" fill-rule="nonzero" group-id="2" node-id="93" stroke="none" target-height="148.1" target-width="467.30002" target-x="36.9" target-y="375.9"></path><path d="M 747.50 568.00 L 750.80 573.30 C 750.80 573.30 746.70 570.80 739.80 576.50 C 732.90 582.20 701.70 611.00 693.90 618.70 C 686.10 626.40 666.40 640.90 669.20 641.50 C 672.00 642.10 753.70 613.30 753.70 613.30 C 753.70 613.30 652.00 651.50 652.10 650.50 C 652.40 646.30 708.90 585.10 720.30 579.50 C 731.50 573.90 747.50 568.00 747.50 568.00 Z" fill="#fcc3c4" fill-rule="nonzero" group-id="2" node-id="95" stroke="none" target-height="83.5" target-width="101.70001" target-x="652" target-y="568"></path><path d="M 565.80 599.10 C 565.80 599.10 573.60 590.60 574.40 586.70 C 575.20 582.80 569.80 601.10 569.80 601.10 C 569.80 601.10 568.60 600.30 568.20 600.10 C 567.60 599.80 565.80 599.10 565.80 599.10 Z" fill="#ad67f6" fill-rule="nonzero" group-id="2" node-id="97" stroke="none" target-height="18.299988" target-width="9.400024" target-x="565.8" target-y="582.8"></path><path d="M 651.20 650.50 C 651.20 650.50 730.90 621.60 747.60 615.60 C 764.30 609.60 769.10 607.70 769.10 607.70 C 769.10 607.70 785.80 632.00 797.80 661.50 C 804.10 677.00 807.40 688.70 807.00 692.30 C 806.60 695.80 793.90 657.50 749.40 658.40 C 704.90 659.30 707.40 669.50 688.70 665.60 C 669.90 661.70 651.20 650.50 651.20 650.50 Z" fill="#c679ff" fill-rule="nonzero" group-id="2" node-id="99" stroke="none" target-height="88.099976" target-width="156.20001" target-x="651.2" target-y="607.7"></path><path d="M 806.90 690.30 C 806.90 690.30 798.00 669.00 787.70 661.60 C 766.90 646.40 746.50 642.70 738.60 641.90 C 732.50 641.30 683.40 647.40 676.20 649.50 C 669.00 651.60 689.30 641.40 704.70 633.60 C 721.40 625.10 769.10 607.70 769.10 607.70 L 654.80 649.50 C 654.80 649.50 678.60 660.70 683.70 660.50 C 688.80 660.30 726.50 659.00 729.10 659.70 C 731.70 660.40 778.50 654.20 806.90 690.30 Z" fill="#b774ff" fill-rule="nonzero" group-id="2" node-id="101" stroke="none" target-height="82.599976" target-width="152.10004" target-x="654.8" target-y="607.7"></path><path d="M 432.50 706.40 C 432.50 706.40 430.80 708.60 449.00 708.20 C 467.20 707.80 510.00 693.40 535.00 697.30 C 560.00 701.20 560.00 701.20 560.00 701.20 C 560.00 701.20 525.80 697.30 496.20 703.60 C 466.60 709.90 448.50 711.80 432.50 706.40 Z" fill="#b774ff" fill-rule="nonzero" group-id="2" node-id="103" stroke="none" target-height="18.399963" target-width="129.20001" target-x="430.8" target-y="693.4"></path><g node-id="157"><path d="M 530.80 673.30 C 504.00 666.90 440.00 680.40 437.50 680.90 C 436.00 681.20 432.30 682.00 429.60 682.60 C 429.60 682.60 429.60 682.60 429.60 682.60 C 410.50 686.30 391.70 697.60 388.00 704.10 C 384.30 710.60 378.70 720.60 381.40 734.00 C 384.10 747.40 390.30 748.20 394.40 749.40 C 398.40 750.60 406.30 752.40 421.90 755.60 C 425.90 756.40 463.50 761.30 493.00 760.60 C 520.50 759.90 539.70 754.90 545.70 754.10 C 520.60 748.60 390.70 729.70 398.30 711.60 C 405.90 693.50 444.90 686.60 454.20 684.30 C 463.50 683.60 478.30 682.40 488.40 683.60 C 511.10 686.20 534.00 690.80 553.20 702.40 C 572.40 714.00 581.50 724.00 595.60 726.60 C 609.70 729.20 626.20 741.60 626.20 741.60 L 643.50 739.90 C 643.50 739.80 557.60 679.70 530.80 673.30 Z" fill="#b774ff" fill-rule="nonzero" group-id="2,4" node-id="107" stroke="none" target-height="94.39996" target-width="264.8" target-x="378.7" target-y="666.9"></path><path d="M 458.00 759.10 C 461.30 759.80 464.30 760.20 466.90 760.20 C 478.10 760.30 470.40 759.90 458.00 759.10 Z" fill="#b774ff" fill-rule="nonzero" group-id="2,4" node-id="109" stroke="none" target-height="1.2000122" target-width="20.100006" target-x="458" target-y="759.1"></path></g><path d="M 478.00 552.30 C 476.60 548.10 485.20 571.50 487.10 572.70 C 489.10 573.90 496.10 577.60 496.10 577.60 C 496.10 577.60 482.20 564.80 478.00 552.30 Z" fill="#ad67f6" fill-rule="nonzero" group-id="2" node-id="112" stroke="none" target-height="29.5" target-width="19.5" target-x="476.6" target-y="548.1"></path><path d="M 348.20 533.30 C 325.20 524.50 318.80 489.70 324.10 479.70 C 329.40 469.70 326.50 449.20 345.80 441.80 C 328.20 439.60 313.50 451.00 313.50 451.00 C 313.50 451.00 285.00 464.90 288.80 501.10 C 281.80 502.00 250.60 507.40 246.10 530.60 C 241.10 556.80 260.50 632.20 246.10 660.40 C 231.70 688.70 228.10 719.30 228.10 719.30 C 228.10 719.30 236.30 687.50 248.10 680.40 C 241.20 719.70 245.40 709.10 259.10 738.10 C 257.50 710.60 260.30 684.30 277.50 658.00 C 268.90 699.20 277.90 700.40 290.80 733.40 C 283.50 715.10 358.30 672.20 308.10 568.50 C 295.20 541.80 293.50 529.70 292.50 518.60 C 301.70 558.30 322.60 556.30 344.00 557.40 C 371.10 558.80 377.80 547.60 387.90 540.70 C 381.80 540.80 371.20 542.10 348.20 533.30 Z" fill="#0a0a0a" fill-rule="nonzero" group-id="2" node-id="114" stroke="none" target-height="298.49997" target-width="159.79999" target-x="228.1" target-y="439.6"></path><path d="M 578.10 617.40 C 578.10 617.40 574.50 623.30 570.80 626.40 C 569.10 627.90 581.90 619.80 581.90 619.80 L 578.10 617.40 Z" fill="#fcc3c4" fill-rule="nonzero" group-id="2" node-id="116" stroke="none" target-height="10.5" target-width="12.800049" target-x="569.1" target-y="617.4"></path><path d="M 563.80 671.50 C 554.70 665.40 547.60 662.90 545.20 661.70" fill="none" group-id="2" node-id="118" stroke="none" target-height="9.799988" target-width="18.599976" target-x="545.2" target-y="661.7"></path><path d="M 581.00 662.50 L 553.10 665.30 C 553.10 665.30 553.30 676.50 582.50 677.90 C 611.70 679.20 607.70 673.90 607.70 673.90 L 581.00 662.50 Z" fill="#b774ff" fill-rule="nonzero" group-id="2" node-id="120" stroke="none" target-height="16.700012" target-width="58.600037" target-x="553.1" target-y="662.5"></path><path d="M 647.90 687.30 C 647.90 687.30 642.00 668.10 626.40 669.30 C 610.80 670.50 600.70 679.90 586.00 678.30 C 571.30 676.70 569.00 674.50 561.20 670.10 C 553.40 665.70 545.40 660.70 540.70 661.00 C 536.00 661.30 527.50 663.90 526.10 665.40 C 524.70 666.90 519.30 663.20 513.30 663.50 C 507.30 663.80 495.60 674.20 495.60 674.20 C 495.60 674.20 508.30 674.50 517.80 677.90 C 527.40 681.30 535.90 683.50 558.70 701.50 C 581.50 719.50 585.90 719.00 594.20 720.90 C 602.40 722.80 613.80 728.00 619.40 733.10 C 620.70 734.30 626.60 736.60 626.60 736.60 L 647.90 687.30 Z" fill="#ffd1d0" fill-rule="nonzero" group-id="2" node-id="122" stroke="none" target-height="75.89996" target-width="152.30002" target-x="495.6" target-y="660.7"></path><path d="M 646.40 683.50 C 644.00 678.30 629.00 669.10 621.20 670.20 C 613.40 671.20 600.20 676.80 600.20 676.80 C 600.20 676.80 623.90 685.80 627.10 687.00 C 628.20 687.40 630.90 687.90 634.00 687.60 C 645.10 686.60 630.00 696.80 628.00 700.20 C 626.00 703.60 619.40 710.10 618.10 715.50 C 616.80 720.90 619.60 733.00 619.60 733.00 L 624.90 735.70 C 624.90 735.70 621.60 726.40 624.10 722.40 C 626.70 718.40 636.90 694.00 640.70 692.50 C 644.50 690.90 648.00 687.30 648.00 687.30 C 648.00 687.30 647.60 686.10 646.40 683.50 Z" fill="#fcc3c4" fill-rule="nonzero" group-id="2" node-id="124" stroke="none" target-height="66.60004" target-width="47.799988" target-x="600.2" target-y="669.1"></path><path d="M 752.10 655.60 C 752.10 655.60 776.40 656.50 796.00 674.90 C 815.60 693.30 811.70 719.30 807.00 725.20 C 802.30 731.10 794.40 747.20 756.30 748.80 C 718.20 750.40 635.40 740.20 625.60 736.20 C 615.80 732.30 631.70 705.00 632.10 702.30 C 632.50 699.60 645.20 687.80 648.00 687.40 C 650.70 687.00 649.10 690.20 667.00 684.00 C 684.90 677.80 708.60 659.00 714.20 658.70 C 719.60 658.40 752.10 655.60 752.10 655.60 Z" fill="#c679ff" fill-rule="nonzero" group-id="2" node-id="126" stroke="none" target-height="94.80005" target-width="199.79999" target-x="615.8" target-y="655.6"></path><path d="M 682.90 743.50 C 682.90 743.50 632.00 743.50 629.90 721.70 C 628.90 711.40 647.80 690.20 691.60 702.20 C 703.00 705.30 708.10 694.30 716.50 688.90 C 739.90 673.70 746.70 654.40 757.60 656.20 C 745.40 650.80 743.80 647.50 707.30 661.40 C 680.90 671.40 664.30 685.70 651.10 686.80 C 646.80 687.20 642.40 690.40 640.20 692.50 C 631.80 700.20 622.80 714.10 622.30 723.90 C 621.80 733.70 619.00 735.90 630.20 738.90 C 641.30 741.80 682.90 743.50 682.90 743.50 Z" fill="#b774ff" fill-rule="nonzero" group-id="2" node-id="128" stroke="none" target-height="96" target-width="138.59998" target-x="619" target-y="647.5"></path><path d="M 492.10 576.50 C 492.10 576.50 483.70 576.50 477.90 585.20 C 472.80 592.90 474.50 598.10 479.30 600.60 C 484.00 603.10 526.30 635.20 549.30 646.00 C 572.30 656.80 585.60 666.80 609.40 674.90 C 633.10 682.90 651.20 685.10 655.00 685.20 C 658.80 685.30 662.30 684.70 662.30 684.70 C 662.30 684.70 662.20 689.00 664.80 690.50 C 667.40 692.00 673.50 691.00 677.20 692.00 C 680.80 693.00 687.40 698.20 689.90 698.80 C 692.40 699.40 695.20 699.90 696.70 696.40 C 698.20 693.00 683.40 683.20 681.80 682.70 C 680.20 682.20 686.80 681.20 693.90 684.50 C 701.00 687.70 711.70 692.30 713.20 688.60 C 714.80 685.00 712.30 683.10 712.30 683.10 C 712.30 683.10 719.90 684.30 721.40 681.80 C 723.00 679.30 725.20 679.00 719.40 675.10 C 713.60 671.30 702.70 666.80 702.70 666.80 C 702.70 666.80 717.60 672.70 723.10 674.80 C 728.60 677.00 731.30 676.40 732.30 674.10 C 733.30 671.80 731.50 668.10 725.10 664.40 C 718.70 660.70 714.60 658.40 714.60 658.40 C 714.60 658.40 719.30 659.60 721.50 658.70 C 723.70 657.80 723.70 657.80 723.70 657.80 C 723.70 657.80 728.40 660.80 734.10 660.90 C 739.80 661.00 742.00 661.60 740.20 658.80 C 738.40 656.00 732.00 646.50 729.70 645.50 C 727.40 644.40 711.10 650.50 707.90 651.40 C 704.80 652.30 698.60 651.30 697.40 652.30 C 696.20 653.30 691.80 659.20 689.60 658.90 C 687.40 658.60 676.00 657.50 671.60 655.50 C 667.30 653.40 627.80 642.00 604.10 631.80 C 580.40 621.60 558.80 603.90 554.60 598.20 C 550.40 592.40 492.10 576.50 492.10 576.50 Z" fill="#ffd1d0" fill-rule="nonzero" group-id="2,5,6" node-id="134" stroke="none" target-height="123.400024" target-width="269.2" target-x="472.8" target-y="576.5"></path><path d="M 687.20 661.50 C 687.20 661.50 683.10 663.80 679.50 667.20 C 674.70 671.70 670.00 677.80 667.60 679.50 C 663.50 682.60 680.70 663.10 680.70 663.10 L 687.20 661.50 Z" fill="#fcc3c4" fill-rule="nonzero" group-id="2,5,6" node-id="136" stroke="none" target-height="21.099976" target-width="23.700012" target-x="663.5" target-y="661.5"></path><path d="M 681.40 682.30 C 681.40 682.30 682.40 681.10 684.70 680.60 C 687.00 680.10 688.60 682.60 688.60 682.60 C 688.60 682.60 686.00 682.20 684.80 682.10 C 682.70 681.90 681.40 682.30 681.40 682.30 Z" fill="#fcc3c4" fill-rule="nonzero" group-id="2,5,6" node-id="138" stroke="none" target-height="2.5" target-width="7.199951" target-x="681.4" target-y="680.1"></path><path d="M 724.70 658.40 L 721.40 652.70 L 723.50 657.70 Z" fill="#fcc3c4" fill-rule="nonzero" group-id="2,5,6" node-id="140" stroke="none" target-height="5.700012" target-width="3.2999878" target-x="721.4" target-y="652.7"></path><path d="M 477.90 599.70 C 477.90 599.70 482.50 585.30 487.00 585.50 C 491.50 585.70 495.60 598.80 507.40 602.20 C 519.20 605.50 555.30 602.80 557.30 601.20 C 559.30 599.60 527.20 581.20 527.20 581.20 L 477.80 574.70 C 477.80 574.70 474.10 595.00 474.50 596.60 C 475.00 598.10 477.90 599.70 477.90 599.70 Z" fill="#fcc3c4" fill-rule="nonzero" group-id="2,5" node-id="143" stroke="none" target-height="30.799988" target-width="85.19998" target-x="474.1" target-y="574.7"></path><path d="M 440.80 515.50 C 440.80 515.50 425.10 557.90 440.80 571.20 C 456.50 584.50 475.40 599.10 476.50 599.20 C 476.10 597.20 477.70 584.50 482.80 580.20 C 487.90 575.90 493.00 575.50 496.90 578.20 C 500.80 580.90 504.40 591.50 516.50 594.30 C 528.70 597.00 562.40 594.30 570.30 601.40 C 578.20 608.50 575.90 613.80 594.10 623.90 C 608.20 631.70 618.50 634.20 618.50 634.20 C 618.50 634.20 630.70 641.50 654.00 649.50 C 683.00 627.50 741.90 565.40 749.40 570.90 C 746.80 565.30 727.40 544.10 703.80 510.00 C 680.20 475.80 677.50 470.40 621.40 437.40 C 565.30 404.40 513.80 389.10 506.40 387.90 C 498.90 386.70 461.30 377.30 461.30 377.30 C 461.30 377.30 491.50 386.30 495.80 398.50 C 500.10 410.70 491.90 417.30 481.30 421.30 C 470.70 425.30 439.20 430.70 433.90 431.10 C 428.70 431.50 422.90 427.20 422.90 427.20 C 422.90 427.20 489.90 468.20 489.90 517.30 C 489.80 536.50 440.80 515.50 440.80 515.50 Z" fill="#c679ff" fill-rule="nonzero" group-id="2,5" node-id="145" stroke="none" target-height="272.2" target-width="326.50003" target-x="422.9" target-y="377.3"></path><path d="M 557.40 531.30 C 547.80 547.10 557.40 572.70 557.40 572.70 C 557.40 572.70 559.00 547.20 569.00 531.30 C 579.00 515.40 590.80 490.70 590.80 490.70 C 590.80 490.70 566.40 516.60 557.40 531.30 Z" fill="#b473fb" fill-rule="nonzero" group-id="2,5" node-id="147" stroke="none" target-height="82" target-width="43" target-x="547.8" target-y="490.7"></path><path d="M 509.60 427.10 C 513.30 416.40 510.20 399.30 510.20 399.30 C 510.20 399.30 507.90 416.40 503.50 420.80 C 499.10 425.20 496.30 427.50 496.30 427.50 C 496.30 427.50 508.50 430.60 509.60 427.10 Z" fill="#b473fb" fill-rule="nonzero" group-id="2,5" node-id="149" stroke="none" target-height="31.300018" target-width="17" target-x="496.3" target-y="399.3"></path><path d="M 477.90 559.20 C 477.90 559.20 484.40 564.60 487.10 567.60 C 489.80 570.60 493.30 574.70 493.30 574.70 C 493.30 574.70 488.10 563.10 485.60 561.90 C 483.10 560.70 477.90 559.20 477.90 559.20 Z" fill="#b473fb" fill-rule="nonzero" group-id="2" node-id="152" stroke="none" target-height="15.5" target-width="15.399994" target-x="477.9" target-y="559.2"></path></g></svg>