<?xml version="1.0" standalone="no"?><!DOCTYPE svg PUBLIC "-//W3C//DTD SVG 1.1//EN" "http://www.w3.org/Graphics/SVG/1.1/DTD/svg11.dtd"><svg t="1687698113625" class="icon" viewBox="0 0 1024 1024" version="1.1" xmlns="http://www.w3.org/2000/svg" p-id="2857" xmlns:xlink="http://www.w3.org/1999/xlink" width="200" height="200"><path d="M472.86 460.2a9.02 9.02 0 0 0-8.28 5.48l-40.76 96.2-166.6 25.08a37.5 37.5 0 0 0-26.54 17.76l-2.68 4.54a37.8 37.8 0 0 0 0.94 40.42 38.2 38.2 0 0 0 41.06 15.5l51.48-18.56c3.06 15.78 6.18 52.1-17.24 91.88a82.64 82.64 0 0 0-53.7 10.8 53.36 53.36 0 0 0-42.2 23.74c-22.92 5.68-101.1 32.46-76.54 130.5l39.74-2s-33.76-85.1 53.2-97.74c21.86 0 52 2.96 70 16.44a310.44 310.44 0 0 0 46.54-51.68c19.52-16.9 43.62-97.18 36.38-136.68 0-2 0-3.86 0.1-5.58l30.78-11.1 32.42-11.7v-0.16c27.04-8.44 40.94-34.16 40.94-56.1v-78a8.98 8.98 0 0 0-9.04-9.04z" fill="#DCD3D4" p-id="2858"></path><path d="M374.36 343.7v107.78s-39.32 34.94-32.48 77.38l-91.42 15.4s92.92-186.66 123.9-200.56zM614.64 345.7v107.78s39.32 34.94 32.48 77.38l91.42 15.4s-92.92-186.66-123.9-200.56z" fill="#E08476" p-id="2859"></path><path d="M383.26 341.38s17.54-14.22 53-14.14c0 0-2.94 55.76 59.26 55.76s56.3-55.76 56.3-55.76 37.88 5.38 55.52 16v110s38.38 36.12 32.38 75.56l-86.62-8.54-44.86-102-27.2-0.36-45.5 102.32-85.34 11.42S341.76 502 377.74 452l5.52-113.64" fill="#FFEEF0" p-id="2860"></path><path d="M356.78 596.4s-3.06 17.36 46.94 17.36h203.18s21.22-4.26 26-17.36c0 0-135.2-40.6-135.5-75.58 0.02 0-9.4 41.46-140.62 75.58z" fill="#DCD3D4" p-id="2861"></path><path d="M751.32 566.8l-2.72-4.52a37.56 37.56 0 0 0-26.6-17.78l-166.6-25.08-40.76-96.2a9 9 0 0 0-17.26 3.52v78c0 22 14 47.66 40.94 56.12v0.16l32.44 11.7 138.6 50a37.72 37.72 0 0 0 42-56zM240 566.8l2.72-4.52a37.56 37.56 0 0 1 26.56-17.78l166.6-25.08 40.76-96.2a9 9 0 0 1 17.26 3.52v78c0 22-14 47.66-40.94 56.12v0.16l-32.44 11.7-138.58 50a38.18 38.18 0 0 1-41.04-15.52 37.8 37.8 0 0 1-0.9-40.4zM375.16 614.36h238.2s-9.7 81.18 12.34 98c0 0-135.12 34.12-261.54 0 0 0.06 20.44-51.96 11-98z" fill="#F3B5AF" p-id="2862"></path><path d="M383.7 318.8V183.62c0-53.56 50-97 111.82-97 30.88 0 58.84 10.84 79.06 28.42s32.76 41.8 32.76 68.58v142.96" fill="#3D5890" p-id="2863"></path><path d="M383.7 320.24V198.54c0-48.2 41.12-87.3 91.82-87.3a94 94 0 0 1 64.92 25.56 84.96 84.96 0 0 1 26.9 61.74v128.7" fill="#4966A2" p-id="2864"></path><path d="M497.78 314.58h-6.92a69.56 69.56 0 0 1-69.56-69.58v-34.34h146v34.34a69.56 69.56 0 0 1-69.52 69.58z" fill="#F3B5AF" p-id="2865"></path><path d="M447.08 304.4l-10.82 22.84v7c0 26.94 25.2 48.76 56.3 48.76 31.1 0 56.3-21.82 56.3-48.76v-7l-9.04-20.66" fill="#E08476" p-id="2866"></path><path d="M617.34 895.62c-127.04 36-225.54 0-225.54 0l112.76-36.66z" fill="#3D5890" p-id="2867"></path><path d="M358.52 720s130.72 30.68 271.46 0c0 0 7.26 52 56.5 73.62l-209.6-12.56s-39.44-35.4-87.8-8.56-66.42-2.82-66.42-2.82 40.66-29.02 35.86-49.68zM753.26 936.4l-251.4-70.96 11.8-80.1s3.02 0 22.66 1.46L788 805.58a65.42 65.42 0 0 1 53.4 52.82 64.38 64.38 0 0 1-26.74 63.6l-7.44 5.18a64.42 64.42 0 0 1-53.96 9.22z" fill="#4966A2" p-id="2868"></path><path d="M842.3 866.44a64.44 64.44 0 0 1-27.66 53.3l-7.44 5.16a64.44 64.44 0 0 1-54 9.18l-251.4-70.96 4.26-28.94c57.1 17.96 253.94 74.86 336.24 32.26z" fill="#3D5890" p-id="2869"></path><path d="M250.96 936.4l225.78-59.52-11.68-21.64s-164.98-56-248.88-49.66a65.42 65.42 0 0 0-53.36 52.82A64.38 64.38 0 0 0 189.58 922l7.44 5.18a64.38 64.38 0 0 0 53.94 9.22z" fill="#4966A2" p-id="2870"></path><path d="M460.48 855.24l-190.94-44.4-23.38 0.38a13.86 13.86 0 0 1-14-16 13.86 13.86 0 0 1 11.68-11.52l13.5-2s28.34-21.8 76.1-4.62c52.8 18.98 70.24-46.74 138.76 4z" fill="#F3B5AF" p-id="2871"></path><path d="M162 866.44a64.44 64.44 0 0 0 27.66 53.3l7.44 5.16a64.44 64.44 0 0 0 54 9.18l251.4-70.96-51.54-15.12c-56.24 12.58-206.78 61.04-288.96 18.44z" fill="#3D5890" p-id="2872"></path><path d="M471.146 852.894l11.772-70.038 28.224 4.744-11.772 70.038z" fill="#FFFFFF" p-id="2873"></path><path d="M37.56 889.54h47.94v24H37.56zM986.42 889.54h-135.9a76 76 0 0 0 2.18-34.52 77.32 77.32 0 0 0-63.1-62.62l-98.16-7.34c-62-34.86-68.58-133.56-69.12-162.7a38 38 0 0 0 16.8-12.2L705.28 634l1.16 0.36a51.24 51.24 0 0 0 12.36 1.52 49.6 49.6 0 0 0 42.8-75.28l-2.66-4.44-91.74-160.4c-11.14-26.44-28-47.54-48.3-61.5V190.38a111.28 111.28 0 0 0-36.6-82.16 127.5 127.5 0 0 0-87.22-33.6c-68.28 0-123.82 52-123.82 115.76v140.92c-22.52 14-41.28 36.58-53.22 65.46L230.3 556l-2.64 4.36a49.86 49.86 0 0 0 55.18 73.74l64-23.02a39.18 39.18 0 0 0 18.12 12c0.42 24.22-1.66 94.66-36.94 138.42-37.08-8.74-62 3.58-70.28 8.66l-10.84 1.58a25.7 25.7 0 0 0-21.46 19.72l-10 0.74-1.2 0.16a77.36 77.36 0 0 0-63.24 62.66 76 76 0 0 0 2.18 34.52H109.64v24h55.58a75.6 75.6 0 0 0 17.5 17l7.44 5.18a76.2 76.2 0 0 0 64 10.86l136.6-37.88c14.36 4.46 54 14.94 108.6 14.94a434.28 434.28 0 0 0 113.08-15.08l137.1 38a76.2 76.2 0 0 0 64-10.86l7.44-5.18a75.6 75.6 0 0 0 17.5-17h148zM720.26 556.38a25.4 25.4 0 0 1 18 12l2.72 4.54a25.7 25.7 0 0 1-28.24 38.22l-160-57.72 5.8-21.42 161.72 24.36z m-331.32 70h209.4a338 338 0 0 0 11.02 77.62c-98.24 21.3-191.46 8-229.24 0.72a326.22 326.22 0 0 0 8.82-78.36z m209.5-24H386.68a47.84 47.84 0 0 1-12-1.34l80-28.82a68.22 68.22 0 0 0 10-3.6l0.72-0.26a69.68 69.68 0 0 0 28.92-25.28 69.4 69.4 0 0 0 29.56 25.56l0.52 0.18a70.48 70.48 0 0 0 9 3.26l78.9 28.44a44.52 44.52 0 0 1-13.86 1.84z m-147.46-87.72l31.34-74V504a48.16 48.16 0 0 1-23.3 40.64z m55.34-10.66v-63.2L538 515.66l-7.84 29.22A48.12 48.12 0 0 1 506.32 504z m119.04-131.46a127.74 127.74 0 0 1 20 33.26l0.3 0.7 71.62 125.26-59.04-8.9a118.74 118.74 0 0 0-21.58-59.26l-11.28-15.34z m-230-182c0-50.6 44.78-91.76 99.82-91.76A103.56 103.56 0 0 1 566 125.82a87.44 87.44 0 0 1 28.92 64.56v131.34a101.14 101.14 0 0 0-35.24-6.48l-4.92-11.24a81.34 81.34 0 0 0 25.34-59.02V198.66H410v46.34a81.28 81.28 0 0 0 26.4 60l-4.84 10.22h-5.28a100.92 100.92 0 0 0-31.08 4.9z m103.28 112.2h-6.92A57.62 57.62 0 0 1 434 245v-22.34h122v22.34a57.62 57.62 0 0 1-57.46 57.58z m41.28 27.16v4.5c0 20.28-19.88 36.76-44.3 36.76s-44.3-16.48-44.3-36.76V330l5.34-11.3a81.14 81.14 0 0 0 35.06 8h6.92a81.16 81.16 0 0 0 36.08-8.7z m-168.54 146.58l15.88-22V349.8a79.22 79.22 0 0 1 39.18-10.56h1.12c2.88 31.18 32.28 55.76 68 55.76s65.1-24.52 68-55.64a80.26 80.26 0 0 1 37.8 12.16V456l16 21.7a92.84 92.84 0 0 1 16.34 41.34l-72.68-10.94-38.34-90.44a20.94 20.94 0 0 0-28.3-10.76 20.94 20.94 0 0 0-28.38 10.78L427.76 508l-72.9 10.98a96.76 96.76 0 0 1 16.42-42.66z m-31.9-68.58l0.6-1.24a126 126 0 0 1 23.18-37.34v77.34l-11.36 15.82a122.38 122.38 0 0 0-21.5 60.28l-59.12 8.9z m-63 203.06a25.72 25.72 0 0 1-28.24-38.24l2.72-4.52a25.42 25.42 0 0 1 18-12.1l161.72-24.34 5.76 21.48z m96.68 116.84a631.62 631.62 0 0 0 122.28 11.86 560.42 560.42 0 0 0 121.34-12.84c7.5 19.76 18 39.08 32.72 55.1l-168.36-12.6c-43.68-30.94-71.36-18.92-93.68-9.22-12.14 5.28-22.3 9.68-34.68 8.22a175 175 0 0 0 20.38-40.52zM500 794.8l-8 55.44-13.34-3.7 8.4-52.72z m-251.28 2.28a1.84 1.84 0 0 1 1.56-1.54l13.5-2 3-0.38 2.48-2c0.98-0.72 24.44-17.44 64.84-2.92 26.62 9.58 46 1.16 62.98-6.26 20.22-8.8 36.46-15.84 66.82 4.44l-8.62 54.1-179.88-41.7-24.86 0.4a1.86 1.86 0 0 1-1.42-0.64 1.84 1.84 0 0 1-0.44-1.5z m-0.92 126.38a52.3 52.3 0 0 1-43.94-7.46l-7.44-5.18a52.62 52.62 0 0 1-21.76-51.8 53.28 53.28 0 0 1 43.06-42.9l14-1.06a25.58 25.58 0 0 0 19.18 8.12l22-0.34 183.68 42.7z m192.48-28.48l61.6-16.98 60.46 16.76a405.62 405.62 0 0 1-122.1 0.22z m367.04 15.86l-7.48 5.16a52.22 52.22 0 0 1-43.84 7.46l-240.74-66.76 8.74-60.12 262 19.56a53.24 53.24 0 0 1 43.04 42.9 52.62 52.62 0 0 1-21.76 51.8z" fill="#142546" p-id="2874"></path><path d="M508.24 683.7a13.6 13.6 0 1 1-13.6-13.58 13.6 13.6 0 0 1 13.6 13.58z" fill="#122546" p-id="2875"></path></svg>