<?xml version="1.0" standalone="no"?><!DOCTYPE svg PUBLIC "-//W3C//DTD SVG 1.1//EN" "http://www.w3.org/Graphics/SVG/1.1/DTD/svg11.dtd"><svg t="1687651893007" class="icon" viewBox="0 0 1024 1024" version="1.1" xmlns="http://www.w3.org/2000/svg" p-id="2581" xmlns:xlink="http://www.w3.org/1999/xlink" width="200" height="200"><path d="M592 752H112l32 240h416z" fill="#BA7879" p-id="2582"></path><path d="M592 752H488l-24 240h96zM352 1016c-13.6 0-24-10.4-24-24v-120c0-13.6 10.4-24 24-24s24 10.4 24 24v120c0 13.6-10.4 24-24 24z" fill="#825559" p-id="2583"></path><path d="M464 1016h-1.6c-13.6-0.8-23.2-12-22.4-25.6l8-120c0.8-13.6 12.8-23.2 25.6-22.4 13.6 0.8 23.2 12 22.4 25.6l-8 120c-0.8 12.8-11.2 22.4-24 22.4zM240 1016c-12.8 0-23.2-9.6-24-22.4l-8-120c-0.8-13.6 8.8-24.8 22.4-25.6 12.8-0.8 24.8 8.8 25.6 22.4l8 120c0.8 13.6-8.8 24.8-22.4 25.6H240z" fill="#825559" p-id="2584"></path><path d="M672 609.6c0-180.8-149.6-326.4-332-320C178.4 296 44.8 424 32.8 585.6 32 594.4 32 602.4 32 611.2 32 689.6 97.6 752 175.2 752H528c78.4 0 144-62.4 144-140.8v-1.6z" fill="#FFE4CF" p-id="2585"></path><path d="M672 609.6c0-180.8-149.6-326.4-332-320-30.4 0.8-23.2 48-9.6 81.6 42.4 103.2 170.4 272.8-156 272.8-65.6 0-26.4 108 0.8 108H528c78.4 0 144-62.4 144-140.8v-1.6z" fill="#BA7879" opacity=".5" p-id="2586"></path><path d="M528.8 776H175.2C83.2 776 8 701.6 8 611.2c0-8.8 0-18.4 0.8-27.2 4.8-62.4 26.4-123.2 63.2-174.4 8-10.4 22.4-13.6 33.6-5.6 10.4 8 13.6 22.4 5.6 33.6-32 44-50.4 96-54.4 149.6-0.8 8-0.8 16-0.8 23.2C56 675.2 109.6 728 175.2 728H528c66.4 0 120-52 120-116.8v-1.6c0-80.8-32-156.8-90.4-212.8-58.4-56-135.2-85.6-216.8-82.4-42.4 1.6-84 12-121.6 32-12 6.4-26.4 1.6-32-10.4-6.4-12-1.6-26.4 10.4-32 44.8-22.4 92-35.2 141.6-36.8 94.4-3.2 184 30.4 252 96s105.6 153.6 105.6 248v1.6c-1.6 89.6-76 163.2-168 163.2zM872 1016H560c-13.6 0-24-10.4-24-24s10.4-24 24-24h312c13.6 0 24 10.4 24 24s-10.4 24-24 24zM992 1016c-1.6 0-3.2 0-4.8-0.8-1.6 0-3.2-0.8-4.8-1.6-1.6-0.8-2.4-1.6-4-2.4-1.6-0.8-2.4-1.6-3.2-3.2l-3.2-3.2c-0.8-1.6-1.6-2.4-2.4-4-0.8-1.6-0.8-3.2-1.6-4.8 0-1.6-0.8-3.2-0.8-4.8 0-1.6 0-3.2 0.8-4.8 0-1.6 0.8-3.2 1.6-4.8 0.8-1.6 1.6-2.4 2.4-4 0.8-1.6 1.6-2.4 3.2-4 8.8-8.8 24.8-8.8 33.6 0 0.8 0.8 2.4 2.4 3.2 4 0.8 1.6 1.6 2.4 2.4 4 0.8 1.6 0.8 3.2 1.6 4.8 0 1.6 0.8 3.2 0.8 4.8 0 1.6 0 3.2-0.8 4.8 0 1.6-0.8 3.2-1.6 4.8-0.8 1.6-1.6 3.2-2.4 4-0.8 1.6-1.6 2.4-3.2 3.2-4 5.6-10.4 8-16.8 8z" fill="#3F4A54" p-id="2587"></path><path d="M256 488.8m-32 0a32 32 0 1 0 64 0 32 32 0 1 0-64 0Z" fill="#BA7879" opacity=".5" p-id="2588"></path><path d="M120 584.8m-32 0a32 32 0 1 0 64 0 32 32 0 1 0-64 0Z" fill="#BA7879" opacity=".5" p-id="2589"></path><path d="M560 1016H144c-12 0-22.4-8.8-24-20.8l-22.4-170.4c-1.6-12.8 7.2-25.6 20.8-27.2 12.8-1.6 25.6 7.2 27.2 20.8l20 149.6h373.6l25.6-192H161.6c-13.6 0-24-10.4-24-24s10.4-24 24-24H592c7.2 0 13.6 3.2 18.4 8 4.8 5.6 6.4 12 5.6 19.2l-32 240c-1.6 12-12 20.8-24 20.8z" fill="#3F4A54" p-id="2590"></path><path d="M793.6 911.2m-80 0a80 80 0 1 0 160 0 80 80 0 1 0-160 0Z" fill="#FF697D" p-id="2591"></path><path d="M793.6 1016c-4 0-8.8 0-12.8-0.8-52-6.4-91.2-51.2-91.2-103.2 0-57.6 46.4-104 104-104s104 46.4 104 104-46.4 104-104 104z m0-160c-31.2 0-56 24.8-56 56 0 28 20.8 52 48.8 55.2 2.4 0 4.8 0.8 7.2 0.8 31.2 0 56-24.8 56-56s-25.6-56-56-56z" fill="#3F4A54" p-id="2592"></path><path d="M768.8 916c-1.6 0-3.2 0-4.8-0.8-1.6 0-3.2-0.8-4.8-1.6-1.6-0.8-3.2-1.6-4-2.4-1.6-0.8-2.4-1.6-4-3.2l-3.2-3.2c-0.8-1.6-1.6-2.4-2.4-4-0.8-1.6-0.8-3.2-1.6-4.8 0-1.6-0.8-3.2-0.8-4.8 0-1.6 0-3.2 0.8-4.8 0-1.6 0.8-3.2 1.6-4.8 0.8-1.6 1.6-2.4 2.4-4 0.8-1.6 1.6-2.4 3.2-4 0.8-0.8 2.4-2.4 4-3.2 1.6-0.8 2.4-1.6 4-2.4 1.6-0.8 3.2-0.8 4.8-1.6 8-1.6 16 0.8 21.6 6.4 0.8 0.8 2.4 2.4 3.2 4 0.8 1.6 1.6 2.4 2.4 4 0.8 1.6 0.8 3.2 1.6 4.8v4.8c0 6.4-2.4 12.8-7.2 16.8l-3.2 3.2c-1.6 0.8-2.4 1.6-4 2.4-1.6 0.8-3.2 0.8-4.8 1.6s-3.2 1.6-4.8 1.6z" fill="#FFFFFF" p-id="2593"></path><path d="M139.2 395.2c-1.6 0-3.2 0-4.8-0.8-1.6 0-3.2-0.8-4.8-1.6-1.6-0.8-3.2-1.6-4-2.4-1.6-0.8-2.4-1.6-4-3.2l-3.2-3.2c-0.8-1.6-1.6-2.4-2.4-4-0.8-1.6-0.8-3.2-1.6-4.8s-0.8-3.2-0.8-4.8c0-1.6 0-3.2 0.8-4.8 0-1.6 0.8-3.2 1.6-4.8 0.8-1.6 1.6-3.2 2.4-4 0.8-1.6 1.6-2.4 3.2-4 5.6-5.6 13.6-8 21.6-6.4 1.6 0 3.2 0.8 4.8 1.6 1.6 0.8 3.2 1.6 4 2.4s2.4 1.6 4 3.2c0.8 0.8 2.4 2.4 3.2 4 0.8 1.6 1.6 2.4 2.4 4 0.8 1.6 0.8 3.2 1.6 4.8 0 1.6 0.8 3.2 0.8 4.8 0 1.6 0 3.2-0.8 4.8 0 1.6-0.8 3.2-1.6 4.8-0.8 1.6-1.6 3.2-2.4 4-0.8 1.6-1.6 2.4-3.2 3.2-0.8 0.8-2.4 2.4-4 3.2-1.6 0.8-2.4 1.6-4 2.4-1.6 0.8-3.2 0.8-4.8 1.6h-4z" fill="#3F4A54" p-id="2594"></path></svg>