<?xml version="1.0" standalone="no"?><!DOCTYPE svg PUBLIC "-//W3C//DTD SVG 1.1//EN" "http://www.w3.org/Graphics/SVG/1.1/DTD/svg11.dtd"><svg height="1024" node-id="1" sillyvg="true" template-height="1024" template-width="1024" version="1.1" viewBox="0 0 1024 1024" width="1024" xmlns="http://www.w3.org/2000/svg" xmlns:xlink="http://www.w3.org/1999/xlink"><defs node-id="43"></defs><g node-id="125"><g node-id="127"><g node-id="128"><g node-id="129"><path d="M 81.00 352.50 C 116.20 276.60 237.90 224.50 282.30 208.60 C 326.70 192.70 419.40 327.60 531.80 363.50 C 644.20 399.40 782.60 335.70 798.00 327.40 C 813.40 319.00 920.60 471.20 921.50 528.90 C 922.40 586.60 798.50 772.00 696.50 782.10 C 594.50 792.20 163.80 783.40 177.60 694.90 C 191.40 606.40 186.90 569.30 91.00 533.00 C -4.90 496.70 81.00 352.50 81.00 352.50 Z" fill="#dffdff" fill-rule="nonzero" group-id="1,3,4,5" node-id="55" stroke="none" target-height="599.5" target-width="927.30005" target-x="-4.9" target-y="192.7"></path><path d="M 935.80 279.10 C 935.80 302.13 917.13 320.80 894.10 320.80 C 871.07 320.80 852.40 302.13 852.40 279.10 C 852.40 256.07 871.07 237.40 894.10 237.40 C 917.13 237.40 935.80 256.07 935.80 279.10 Z" fill="#dffdff" fill-rule="nonzero" group-id="1,3,4,5" node-id="57" stroke="none" target-height="83.399994" target-width="83.39996" target-x="852.4" target-y="237.4"></path><path d="M 986.50 371.80 C 986.50 382.90 977.50 391.90 966.40 391.90 C 955.30 391.90 946.30 382.90 946.30 371.80 C 946.30 360.70 955.30 351.70 966.40 351.70 C 977.50 351.70 986.50 360.70 986.50 371.80 Z" fill="#dffdff" fill-rule="nonzero" group-id="1,3,4,5" node-id="59" stroke="none" target-height="40.19998" target-width="40.200012" target-x="946.3" target-y="351.7"></path></g></g></g></g><g node-id="126"><path d="M 331.30 569.20 C 331.30 569.20 346.10 567.40 349.20 570.70 C 349.90 571.50 349.20 574.80 349.20 574.80 C 349.20 574.80 357.80 581.20 362.30 572.00 C 366.80 562.80 372.60 537.00 368.10 522.00 C 363.60 507.00 359.90 513.90 359.90 513.90 C 359.90 513.90 351.70 519.00 338.10 502.70 C 332.60 496.20 331.30 569.20 331.30 569.20 Z" fill="#ffd1d0" fill-rule="nonzero" group-id="2" node-id="67" stroke="none" target-height="85" target-width="41.30002" target-x="331.3" target-y="496.2"></path><path d="M 355.60 514.70 C 355.60 514.70 362.60 520.10 362.00 539.70 C 361.50 557.30 355.60 559.00 351.70 562.80 C 355.70 560.30 356.50 539.70 355.30 532.90 C 352.90 520.00 348.30 512.10 348.30 512.10 L 342.60 568.80 C 342.60 568.80 346.30 568.80 348.80 570.40 C 348.80 570.40 348.50 572.40 348.50 572.40 L 347.70 578.00 L 358.50 577.50 C 358.50 577.50 365.00 582.40 370.40 576.10 C 375.40 570.30 379.10 530.50 359.80 514.00 C 359.50 514.20 356.90 515.00 355.60 514.70 Z" fill="#fcc3c4" fill-rule="nonzero" group-id="2" node-id="69" stroke="none" target-height="70.30005" target-width="36.5" target-x="342.6" target-y="512.1"></path><path d="M 218.10 518.00 C 218.10 537.40 219.20 557.30 247.90 569.80 C 276.60 582.30 300.10 585.70 302.90 590.40 C 305.70 595.10 321.10 591.50 327.30 587.60 C 333.50 583.70 340.40 583.20 342.50 569.80 C 344.50 556.40 348.90 503.30 348.90 503.30 C 348.90 503.30 344.70 508.20 340.20 499.70 C 335.70 491.30 332.10 471.90 292.20 464.00 C 252.30 456.20 218.10 481.80 218.10 518.00 Z" fill="#0a0a0a" fill-rule="nonzero" group-id="2" node-id="71" stroke="none" target-height="138.89996" target-width="130.79999" target-x="218.1" target-y="456.2"></path><path d="M 246.40 502.60 C 246.40 502.60 236.40 528.80 254.40 546.80 C 272.40 564.80 301.30 572.50 315.80 573.00 C 328.90 573.50 346.10 561.60 349.50 547.50 C 354.70 526.00 354.00 505.60 313.60 487.60 C 273.10 469.70 246.40 502.60 246.40 502.60 Z" fill="#ffd1d0" fill-rule="nonzero" group-id="2" node-id="73" stroke="none" target-height="103.79999" target-width="118.30002" target-x="236.4" target-y="469.7"></path><path d="M 281.00 567.00 C 281.00 567.00 274.30 539.10 267.20 535.80 C 260.10 532.50 279.20 526.90 288.50 506.30 C 297.90 485.70 296.00 477.50 296.00 477.50 C 296.00 477.50 254.80 473.80 245.80 492.10 C 236.80 510.40 223.00 524.70 240.60 543.00 C 258.20 561.30 281.00 567.00 281.00 567.00 Z" fill="#0a0a0a" fill-rule="nonzero" group-id="2" node-id="75" stroke="none" target-height="93.20001" target-width="74.899994" target-x="223" target-y="473.8"></path><path d="M 449.10 375.70 L 458.20 364.60 L 504.50 375.70 L 471.40 421.90 Z" fill="#ffd1d0" fill-rule="nonzero" group-id="2" node-id="77" stroke="none" target-height="57.299988" target-width="55.399994" target-x="449.1" target-y="364.6"></path><path d="M 449.10 375.70 L 451.10 373.30 C 451.10 373.30 461.30 378.10 463.70 385.00 C 466.10 391.90 474.60 417.50 474.60 417.50 L 471.90 421.00 L 449.10 375.70 Z" fill="#fcc3c4" fill-rule="nonzero" group-id="2" node-id="79" stroke="none" target-height="47.700012" target-width="25.5" target-x="449.1" target-y="373.3"></path><path d="M 605.10 493.30 C 605.10 493.30 618.60 475.00 620.80 468.60 C 623.00 462.20 623.40 460.40 623.40 460.40 L 520.50 395.60 L 513.00 418.40 L 605.10 493.30 Z" fill="#ffd1d0" fill-rule="nonzero" group-id="2" node-id="81" stroke="none" target-height="97.69998" target-width="110.400024" target-x="513" target-y="395.6"></path><path d="M 545.80 418.70 L 622.10 464.70 L 623.50 458.30 L 542.60 412.00 Z" fill="#fcc3c4" fill-rule="nonzero" group-id="2" node-id="83" stroke="none" target-height="52.700012" target-width="80.900024" target-x="542.6" target-y="412"></path><path d="M 744.40 300.30 C 744.40 300.30 737.80 317.20 738.10 326.20 C 738.40 335.20 735.30 341.60 738.10 345.30 C 740.90 349.00 747.90 356.00 763.70 354.80 C 779.40 353.70 806.10 336.30 820.10 330.90 C 834.10 325.60 839.00 319.00 840.30 316.90 C 846.30 307.10 854.60 300.10 851.80 288.30 C 849.00 276.50 844.90 270.30 822.10 272.30 C 799.30 274.30 744.40 300.30 744.40 300.30 Z" fill="#2c2e3b" fill-rule="nonzero" group-id="2" node-id="85" stroke="none" target-height="85.70001" target-width="119.29999" target-x="735.3" target-y="270.3"></path><path d="M 213.00 180.90 L 198.20 172.10 C 198.20 172.10 191.40 162.00 200.20 145.10 C 207.30 131.60 213.00 130.80 213.00 130.80 L 219.30 135.00" fill="#ffd1d0" fill-rule="nonzero" group-id="2" node-id="87" stroke="none" target-height="50.09999" target-width="27.90001" target-x="191.4" target-y="130.8"></path><path d="M 217.70 134.00 C 217.70 134.00 215.90 134.80 215.20 137.10 C 214.50 139.40 210.60 151.80 210.50 159.30 C 210.40 166.80 211.30 173.60 211.10 176.60 C 210.80 179.60 210.80 179.60 210.80 179.60 L 213.00 180.90 L 215.00 181.70 L 219.30 135.00 L 217.70 134.00 Z" fill="#fcc3c4" fill-rule="nonzero" group-id="2" node-id="89" stroke="none" target-height="47.699997" target-width="8.900009" target-x="210.4" target-y="134"></path><path d="M 215.10 132.30 C 215.10 132.30 205.50 136.60 200.70 146.60 C 195.90 156.60 203.70 175.50 203.70 175.50 L 195.40 170.50 C 195.40 170.50 192.50 149.90 198.20 143.60 C 203.90 137.30 214.00 131.60 214.00 131.60 L 215.10 132.30 Z" fill="#fcc3c4" fill-rule="nonzero" group-id="2" node-id="91" stroke="none" target-height="43.899994" target-width="22.600006" target-x="192.5" target-y="131.6"></path><path d="M 375.20 247.50 C 375.20 247.50 384.70 244.00 387.20 244.90 C 389.70 245.70 390.00 246.90 393.10 244.80 C 396.20 242.70 402.40 243.50 406.00 244.80 C 409.60 246.10 438.00 260.20 438.70 266.10 C 439.40 271.90 375.20 250.30 375.20 250.30 L 375.20 247.50 Z" fill="#ffd1d0" fill-rule="nonzero" group-id="2" node-id="93" stroke="none" target-height="29.199997" target-width="64.19998" target-x="375.2" target-y="242.7"></path><path d="M 544.70 415.20 C 544.70 415.20 554.40 437.70 561.90 442.50 C 569.40 447.40 607.40 489.80 607.40 489.80 L 601.60 500.10 C 601.60 500.10 556.70 448.10 549.90 440.20 C 543.20 432.30 532.70 409.50 532.70 409.50 L 544.70 415.20 Z" fill="#fcc3c4" fill-rule="nonzero" group-id="2" node-id="95" stroke="none" target-height="90.600006" target-width="74.70001" target-x="532.7" target-y="409.5"></path><path d="M 514.20 406.00 C 514.20 406.00 516.60 391.40 510.40 382.90 C 504.20 374.50 479.00 378.10 444.40 357.10 C 409.90 336.00 395.30 325.90 386.30 323.10 C 377.30 320.30 365.20 320.60 365.20 320.60 C 365.20 320.60 362.40 316.70 355.40 313.30 C 348.40 309.90 349.80 313.90 344.20 308.20 C 338.60 302.60 344.50 297.30 334.10 290.50 C 323.70 283.80 284.40 274.80 268.10 267.20 C 251.80 259.60 240.00 249.00 228.50 237.70 C 217.00 226.50 201.50 209.10 201.50 209.10 C 201.50 209.10 214.10 186.90 213.30 175.40 C 212.50 163.90 213.90 135.80 219.20 135.00 C 224.50 134.20 230.30 131.10 243.50 147.90 C 256.70 164.70 307.90 192.50 325.00 203.50 C 342.10 214.40 362.30 244.80 383.10 250.90 C 403.90 257.00 511.40 284.60 517.00 287.40 C 522.60 290.20 587.20 305.90 590.80 310.40 C 594.40 314.90 594.40 314.90 594.40 314.90 C 594.40 314.90 618.30 295.20 630.30 280.90 C 642.40 266.60 689.50 193.30 707.20 167.20 C 724.90 141.10 741.50 144.50 752.40 146.40 C 763.30 148.40 777.90 159.90 792.00 180.90 C 806.00 202.00 823.20 248.70 821.80 269.90 C 820.40 291.10 818.40 310.30 805.20 313.10 C 792.00 315.90 761.40 328.50 748.50 309.20 C 735.60 289.90 749.10 272.70 742.00 268.80 C 735.00 264.90 717.60 309.50 715.30 316.80 C 713.10 324.10 702.70 322.70 702.90 338.10 C 703.20 353.50 695.90 354.10 695.90 354.10 C 695.90 354.10 678.80 388.90 671.80 409.40 C 664.80 429.90 635.90 467.00 631.70 466.10 C 627.50 465.30 587.10 439.10 560.70 423.40 C 534.60 407.90 514.20 406.00 514.20 406.00 Z" fill="#373846" fill-rule="nonzero" group-id="2" node-id="97" stroke="none" target-height="335.9" target-width="621.7" target-x="201.5" target-y="131.1"></path><path d="M 205.80 180.90 C 205.80 180.90 188.70 163.90 200.20 145.10 C 211.70 126.30 223.20 131.10 223.20 127.40 C 223.20 123.70 193.20 95.40 178.80 92.60 C 164.50 89.80 160.00 117.90 152.40 128.30 C 144.80 138.70 126.00 169.80 120.70 179.70 C 115.40 189.50 107.50 219.60 113.10 224.30 C 118.70 229.00 128.50 225.70 128.50 225.70 C 128.50 225.70 138.30 207.20 151.50 197.60 C 164.70 188.10 176.80 175.70 182.70 176.30 C 188.60 176.90 199.80 186.10 203.50 186.40 C 207.20 186.70 209.50 185.60 205.80 180.90 Z" fill="#2c2e3b" fill-rule="nonzero" group-id="2" node-id="99" stroke="none" target-height="139.2" target-width="115.7" target-x="107.5" target-y="89.8"></path><path d="M 452.50 745.20 C 452.50 745.20 456.20 736.80 463.10 731.40 C 470.00 726.00 471.50 723.90 471.50 723.90 C 471.50 723.90 459.00 724.80 455.60 727.50 C 452.20 730.20 452.50 734.30 452.50 734.30 L 452.50 745.20 Z" fill="#6a8e64" fill-rule="nonzero" group-id="2" node-id="101" stroke="none" target-height="21.299988" target-width="19.299988" target-x="452.2" target-y="723.9"></path><path d="M 346.30 573.00 C 344.20 576.00 342.90 584.10 344.20 587.60 C 346.80 595.10 367.40 609.30 367.40 609.30 C 367.40 609.30 361.80 642.20 367.40 657.20 C 373.00 672.20 391.00 693.90 391.00 693.90 C 391.00 693.90 396.20 723.80 401.10 735.80 C 406.00 747.80 414.60 763.50 414.60 763.50 C 414.60 763.50 450.20 736.50 456.90 730.60 C 463.60 724.60 471.50 723.90 471.50 723.90 C 471.50 723.90 465.50 703.70 465.50 682.00 C 465.50 660.30 468.90 645.30 481.20 644.60 C 493.60 643.90 511.90 641.60 526.90 636.00 C 541.90 630.40 600.60 600.10 615.60 590.70 C 630.60 581.30 676.60 534.90 676.60 534.90 C 676.60 534.90 677.30 526.70 651.50 506.10 C 625.70 485.50 616.10 477.40 616.10 477.40 L 605.10 493.40 C 605.10 493.40 580.40 462.70 567.70 454.50 C 555.00 446.30 553.30 439.00 549.20 432.60 C 545.10 426.20 540.60 409.80 520.70 400.00 C 510.50 397.90 492.90 414.40 492.90 414.40 C 492.90 414.40 488.80 421.10 484.30 421.10 C 479.80 421.10 470.70 428.50 472.90 425.40 C 475.40 421.90 471.60 415.10 471.60 415.10 C 471.60 415.10 464.50 392.30 459.20 385.50 C 454.00 378.80 446.80 374.10 446.80 374.10 C 446.80 374.10 412.40 402.70 412.00 405.00 C 411.60 407.20 401.70 405.90 396.10 409.90 C 390.50 413.80 374.20 429.40 367.50 441.20 C 360.80 453.00 361.90 456.90 359.10 462.80 C 356.30 468.70 354.80 474.10 355.50 477.40 C 356.20 480.70 362.20 494.70 362.60 495.70 C 363.00 496.70 358.00 505.70 358.00 505.70 C 358.00 505.70 367.20 542.50 363.10 553.00 C 359.00 563.30 350.10 567.60 346.30 573.00 Z" fill="#7ca576" fill-rule="nonzero" group-id="2" node-id="103" stroke="none" target-height="389.4" target-width="334.4" target-x="342.9" target-y="374.1"></path><path d="M 416.40 762.20 C 416.40 762.20 415.30 874.80 413.30 881.00 C 411.30 887.20 411.30 894.50 390.30 895.30 C 369.20 896.10 360.20 895.90 360.00 897.80 C 359.80 899.60 364.80 901.40 364.80 901.40 C 364.80 901.40 352.10 901.30 352.20 902.20 C 352.30 903.50 354.60 904.10 354.60 904.10 C 354.60 904.10 346.50 903.80 346.10 905.30 C 345.70 906.80 350.60 907.80 360.30 908.00 C 370.00 908.10 391.10 908.80 391.10 908.80 C 391.10 908.80 369.00 911.60 366.80 912.20 C 364.60 912.80 359.60 912.90 359.60 912.90 C 359.60 912.90 354.70 919.80 367.50 919.60 C 380.30 919.50 414.20 918.20 416.80 918.20 C 419.30 918.20 437.10 919.90 438.30 909.10 C 439.50 898.30 450.10 841.70 450.10 827.10 C 450.10 812.50 452.70 734.30 452.70 734.30 L 416.40 762.20 Z" fill="#ffd1d0" fill-rule="nonzero" group-id="2" node-id="105" stroke="none" target-height="185.60004" target-width="107" target-x="345.7" target-y="734.3"></path><path d="M 605.10 493.30 C 605.10 493.30 631.90 519.70 651.10 526.10 C 670.30 532.50 676.50 534.20 676.50 534.20 C 676.50 534.20 673.90 524.10 652.30 506.70 C 630.70 489.30 616.10 477.40 616.10 477.40 L 605.10 493.30 Z" fill="#6a8e64" fill-rule="nonzero" group-id="2" node-id="107" stroke="none" target-height="56.80002" target-width="71.400024" target-x="605.1" target-y="477.4"></path><path d="M 416.40 762.20 L 416.40 767.50 L 452.30 738.10 L 452.50 734.30 Z" fill="#fcc3c4" fill-rule="nonzero" group-id="2" node-id="109" stroke="none" target-height="33.200012" target-width="36.100006" target-x="416.4" target-y="734.3"></path><path d="M 486.00 644.20 C 486.00 644.20 465.70 638.70 464.20 632.70 C 462.70 626.70 465.50 682.00 465.50 682.00 C 465.50 682.00 464.80 656.10 472.50 648.40 C 477.50 643.40 486.00 644.20 486.00 644.20 Z" fill="#74996d" fill-rule="nonzero" group-id="2" node-id="111" stroke="none" target-height="55.299988" target-width="23.299988" target-x="462.7" target-y="626.7"></path><path d="M 364.30 607.10 C 364.30 607.10 382.80 596.70 387.80 580.70 C 386.10 600.10 366.50 615.50 366.50 615.50 L 367.40 609.40 L 364.30 607.10 Z" fill="#74996d" fill-rule="nonzero" group-id="2" node-id="113" stroke="none" target-height="34.799988" target-width="23.5" target-x="364.3" target-y="580.7"></path><path d="M 360.90 491.60 C 360.90 491.60 374.90 502.60 381.10 533.20 C 378.80 523.70 360.90 499.80 360.90 499.80 L 362.50 495.50 L 360.90 491.60 Z" fill="#74996d" fill-rule="nonzero" group-id="2" node-id="115" stroke="none" target-height="41.600006" target-width="20.200012" target-x="360.9" target-y="491.6"></path><path d="M 472.50 426.10 C 472.50 426.10 468.40 435.30 468.20 440.30 C 471.00 433.40 474.60 425.40 479.20 422.60 C 477.40 423.60 472.50 426.10 472.50 426.10 Z" fill="#74996d" fill-rule="nonzero" group-id="2" node-id="117" stroke="none" target-height="17.699982" target-width="11" target-x="468.2" target-y="422.6"></path><path d="M 504.50 375.70 C 504.50 375.70 526.50 362.20 532.70 364.50 C 521.80 368.50 513.00 388.10 513.00 388.10 C 513.00 388.10 510.90 382.10 508.00 380.70 C 505.10 379.30 501.50 378.00 501.50 378.00 L 504.50 375.70 Z" fill="#2d2e3b" fill-rule="nonzero" group-id="2" node-id="119" stroke="none" target-height="25.899994" target-width="31.200012" target-x="501.5" target-y="362.2"></path><path d="M 733.50 276.80 L 747.90 251.70 L 743.70 280.00 C 743.70 280.00 745.50 269.10 742.20 269.00 C 739.00 268.90 733.50 276.80 733.50 276.80 Z" fill="#2d2e3b" fill-rule="nonzero" group-id="2" node-id="121" stroke="none" target-height="28.300003" target-width="14.400024" target-x="733.5" target-y="251.7"></path><path d="M 456.40 366.80 L 458.30 364.50 C 458.30 364.50 471.80 370.20 476.90 371.70 C 481.90 373.20 502.70 378.40 502.70 378.40 L 500.10 382.10 C 500.10 382.10 474.60 373.50 470.80 372.10 C 467.00 370.70 456.40 366.80 456.40 366.80 Z" fill="#fcc3c4" fill-rule="nonzero" group-id="2" node-id="123" stroke="none" target-height="17.600006" target-width="46.30002" target-x="456.4" target-y="364.5"></path></g></svg>