<?xml version="1.0" standalone="no"?><!DOCTYPE svg PUBLIC "-//W3C//DTD SVG 1.1//EN" "http://www.w3.org/Graphics/SVG/1.1/DTD/svg11.dtd"><svg t="1687762700055" class="icon" viewBox="0 0 1024 1024" version="1.1" xmlns="http://www.w3.org/2000/svg" p-id="1535" xmlns:xlink="http://www.w3.org/1999/xlink" width="200" height="200"><path d="M712.9 220.7c-12.5-48.9-54.6-84.3-100.2-84.3-35 0-66.8 20.6-89.4 57.9-3 4.9-8.4 8-14.1 8-5.8 0-11.2-3-14.1-8-22.6-37.3-54.3-57.9-89.3-57.9-45.6 0-87.7 35.5-100.2 84.3-8.9 34.7-19.9 156.7 203.7 281.6 223.5-124.9 212.4-246.9 203.6-281.6zM411.6 194c-16.6 2.9-31.9 14.2-40.9 30.1-11.2 19.8-11.9 44.6-2.1 69.8 3.3 8.5-0.9 18.1-9.4 21.4-2 0.8-4 1.1-6 1.1-6.6 0-12.9-4-15.4-10.5-13.5-34.6-12-69.5 4.1-98.1 14-24.9 37.3-41.8 64-46.5 9-1.6 17.6 4.4 19.1 13.4 1.7 9.2-4.4 17.8-13.4 19.3z" fill="#FDB9D0" p-id="1536"></path><path d="M405.9 161.4c-26.6 4.7-50 21.6-64 46.5-16.1 28.6-17.6 63.4-4.1 98.1 2.5 6.5 8.8 10.5 15.4 10.5 2 0 4-0.4 6-1.1 8.5-3.3 12.7-12.9 9.4-21.4-9.8-25.2-9.1-50 2.1-69.8 9-16 24.3-27.2 40.9-30.1 9-1.6 15-10.1 13.4-19.1-1.5-9.1-10.1-15.1-19.1-13.6zM175.3 345.8c-18 3.1-33.7 14.5-43.1 31.2-10.7 19-11.7 41.9-2.9 64.6 2.5 6.5 8.8 10.5 15.4 10.5 2 0 4-0.4 6-1.1 8.5-3.3 12.7-12.9 9.4-21.4-5.2-13.3-4.9-26.2 0.9-36.4 4.5-7.9 11.9-13.5 20-14.9 9-1.6 15-10.1 13.4-19.1-1.5-8.9-10.1-14.9-19.1-13.4zM890.5 377.1c-9.4-16.7-25.1-28.1-43.1-31.2-9-1.6-17.6 4.4-19.1 13.4-1.6 9 4.4 17.6 13.4 19.1 8.1 1.4 15.5 7 20 14.9 5.7 10.2 6 23.1 0.9 36.4-3.3 8.5 0.9 18.1 9.4 21.4 2 0.8 4 1.1 6 1.1 6.6 0 12.9-4 15.4-10.5 8.8-22.7 7.8-45.7-2.9-64.6z" fill="#3EBAC4" p-id="1537"></path><path d="M957.4 386c-7.7-50.2-44.1-90.2-90.6-99.4-37.8-7.5-74.4 6.6-101.4 38.3-6.9-8.1-14.4-15.1-22.5-20.8 10.5-37.6 7.8-69 2.1-91.5-16.4-64.3-70.8-109.3-132.3-109.3-39.8 0-75.9 18.8-103.5 53.5-27.6-34.7-63.7-53.5-103.5-53.5-61.5 0-115.9 44.9-132.3 109.2-5.9 23.1-8.6 55.4 2.9 94.3-6.7 5.2-13 11.2-18.8 18.1-27-31.7-63.6-45.8-101.4-38.3-46.5 9.3-83 49.2-90.6 99.4-6 39.1-1 138.4 165 235.8l-28 28c-6.5 6.5-6.5 16.9 0 23.4 3.2 3.2 7.5 4.8 11.7 4.8s8.5-1.6 11.7-4.8l14.5-14.5c0.8 64.6 10.8 195.9 75.9 257.3 3.2 3 7.3 4.5 11.3 4.5 4.4 0 8.8-1.7 12-5.2 6.3-6.6 6-17.1-0.7-23.4-56-52.8-64.7-174.6-65.4-234.3l15.6 15.6c6.5 6.5 16.9 6.5 23.4 0s6.5-16.9 0-23.4l-28-28c67.2-39.5 115.9-84.5 142.7-131.5 16.9 11.8 35.2 23.4 54.7 34.7l-27.1 27.1c-6.5 6.5-6.5 16.9 0 23.4s16.9 6.5 23.4 0l15.1-15.1V904c0 9.1 7.4 16.5 16.5 16.5s16.5-7.4 16.5-16.5V560.2l15.1 15.1c3.2 3.2 7.5 4.8 11.7 4.8 4.2 0 8.5-1.6 11.7-4.8 6.5-6.5 6.5-16.9 0-23.4l-27.6-27.6c20.4-11.8 39.5-24 57-36.5 26.5 47.9 75.7 93.7 143.9 133.8l-28 28c-6.5 6.5-6.5 16.9 0 23.4s16.9 6.5 23.4 0l15.6-15.6c-0.8 59.8-9.5 181.5-65.4 234.3-6.6 6.3-7 16.7-0.7 23.4 3.3 3.5 7.6 5.2 12 5.2 4.1 0 8.2-1.5 11.3-4.5 65.1-61.4 75.1-192.7 75.9-257.3l14.5 14.5c3.2 3.2 7.5 4.8 11.7 4.8 4.2 0 8.5-1.6 11.7-4.8 6.5-6.5 6.5-16.9 0-23.4l-28-28C958.4 524.3 963.3 425.1 957.4 386z m-652-165.3c12.5-48.9 54.6-84.3 100.2-84.3 35 0 66.7 20.6 89.3 57.9 3 4.9 8.4 8 14.1 8 5.8 0 11.1-3 14.1-8 22.6-37.3 54.4-57.9 89.4-57.9 45.6 0 87.8 35.5 100.2 84.3 8.9 34.7 19.9 156.7-203.8 281.6-223.4-124.9-212.4-246.9-203.5-281.6z m-48 378.4c-60.8-34.2-105.3-71.6-132.3-111.3-22.4-32.9-31.7-66.4-27.1-96.8 5.6-36.5 31.4-65.4 64.4-72 31.2-6.2 60.6 9.4 80.8 42.7 3 5 8.4 8 14.1 8 5.8 0 11.1-3 14.1-8 5.2-8.6 11-15.9 17.3-22.1 4.3 9.2 9.5 18.6 15.5 28.3 22.5 35.8 54.6 70.1 95.9 102.4-24.3 45.5-73.3 89.7-142.7 128.8z m507.9 0c-70.7-39.8-120.2-84.9-144.3-131.3 39.8-31.6 70.9-65 92.8-99.9 6.7-10.7 12.3-21.2 16.9-31.3 7.5 6.7 14.4 15.1 20.4 25 3 4.9 8.4 8 14.1 8 5.8 0 11.2-3 14.1-8 20.2-33.3 49.6-48.9 80.8-42.7 32.9 6.6 58.8 35.5 64.4 72 4.7 30.5-4.7 64-27.1 96.8-26.8 39.8-71.3 77.2-132.1 111.4z" fill="#3EBAC4" p-id="1538"></path></svg>