<?xml version="1.0" standalone="no"?><!DOCTYPE svg PUBLIC "-//W3C//DTD SVG 1.1//EN" "http://www.w3.org/Graphics/SVG/1.1/DTD/svg11.dtd"><svg t="1687762253744" class="icon" viewBox="0 0 1024 1024" version="1.1" xmlns="http://www.w3.org/2000/svg" p-id="965" xmlns:xlink="http://www.w3.org/1999/xlink" width="200" height="200"><path d="M921.3 489.3c-16.4-66-73.3-113.9-135.3-113.9-46.3 0-88.3 26.6-118.4 74.8-3.1 5-8.6 8.1-14.5 8.1s-11.4-3-14.5-8.1c-30-48.2-72.1-74.8-118.4-74.8-62 0-118.9 47.9-135.3 113.9-11.3 45.4-24.9 204.9 268.2 363 293.1-158.1 279.5-317.6 268.2-363z m-396.1-39.8c-22.7 4.3-43.4 19.9-55.4 41.9-14.8 27-15.4 60.4-1.8 94.1 3.5 8.8-0.7 18.7-9.5 22.2-2.1 0.8-4.3 1.2-6.4 1.2-6.8 0-13.2-4-15.9-10.7-17.5-43.4-16.3-87.2 3.5-123.3 16.9-30.8 46.4-52.9 79.1-59.1 9.3-1.7 18.2 4.4 20 13.6 1.8 9.4-4.3 18.3-13.6 20.1z" fill="#FDB9D0" p-id="966"></path><path d="M287.8 213.4c-49.1 9.2-93.7 42.6-119.2 89.1-30.1 54.9-31.9 121.8-5.1 188.2 2.7 6.7 9.1 10.7 15.9 10.7 2.1 0 4.3-0.4 6.4-1.2 8.8-3.5 13-13.5 9.5-22.2-22.9-56.7-21.7-113.2 3.4-159 20.6-37.7 56.3-64.6 95.5-72 9.3-1.7 15.4-10.7 13.6-20-1.8-9.3-10.8-15.4-20-13.6zM518.9 415.9c-32.7 6.1-62.2 28.2-79.1 59.1-19.8 36.1-21 79.9-3.5 123.3 2.7 6.7 9.1 10.7 15.9 10.7 2.1 0 4.3-0.4 6.4-1.2 8.8-3.5 13-13.5 9.5-22.2-13.6-33.7-13-67.2 1.8-94.1 12-21.9 32.7-37.6 55.4-41.9 9.3-1.7 15.4-10.7 13.6-20-1.8-9.4-10.7-15.5-20-13.7z" fill="#3EBAC4" p-id="967"></path><path d="M954.5 481.1c-5.3-21.1-14.1-41.2-25.8-59.1 6.3-64.2-7.1-125.2-39.1-177-30.6-49.5-76.4-86.9-129-105.3-77.3-27.1-184.8-15.6-263.7 92.7-28.9-39.6-63.3-68.5-102.5-86.3-41.9-18.9-88-23.9-133.2-14.3C159.9 153.3 81.6 241.3 66.3 350.9c-11.9 85.1 14 176.2 75 263.5 68.5 98 182.4 193.7 347.6 281.2 2.5 1.3 5.2 2 8 2 2.7 0 5.5-0.7 8-2 27.1-14.4 53.3-29.2 78.1-44.2 19.6 12.1 40.3 24 62.2 35.5 2.5 1.3 5.2 2 8 2 2.7 0 5.5-0.7 8-2 118.4-62.7 203.4-133.4 252.6-210.3 53.1-83 51.4-152.2 40.7-195.5zM653.1 852.3C360 694.2 373.6 534.7 384.9 489.3c16.4-66 73.3-113.9 135.3-113.9 46.3 0 88.3 26.6 118.4 74.8 3.1 5 8.6 8.1 14.5 8.1s11.4-3 14.5-8.1c30-48.2 72.1-74.8 118.4-74.8 62 0 118.9 47.9 135.3 113.9 11.3 45.4 24.9 204.9-268.2 363zM496.9 861c-150.2-80.6-260.4-170.1-327.6-266.3-55.9-80-79.8-162.7-69.1-239.1 13.3-95.4 80.9-171.9 168.1-190.4 82.9-17.6 161 21.3 214.2 106.7 3.1 5 8.6 8.1 14.5 8.1s11.4-3 14.5-8.1c58.7-94.3 147.7-131.7 237.9-100C821.6 197.3 893.1 273 896 384c-1.6-1.4-3.1-2.7-4.8-4.1-30.5-25-67.9-38.8-105.2-38.8-51.2 0-97.6 24.7-132.9 70-35.3-45.4-81.7-70-132.9-70-37.4 0-74.7 13.8-105.3 38.8-30.9 25.3-53.4 61.2-63.3 101.1-10.8 43.4-12.5 112.5 40.7 195.5 35 54.7 88.2 106.2 158.5 154-17.2 10.4-35.3 20.6-53.9 30.5z" fill="#3EBAC4" p-id="968"></path></svg>