<?xml version="1.0" standalone="no"?><!DOCTYPE svg PUBLIC "-//W3C//DTD SVG 1.1//EN" "http://www.w3.org/Graphics/SVG/1.1/DTD/svg11.dtd"><svg t="1687762631212" class="icon" viewBox="0 0 1024 1024" version="1.1" xmlns="http://www.w3.org/2000/svg" p-id="1106" xmlns:xlink="http://www.w3.org/1999/xlink" width="200" height="200"><path d="M512.2 317.5c123.2 0 223.5 93.6 224.9 209.1 6.7 3.9 13 8.8 18.8 14.5 4.9-5.1 10.2-9.5 15.8-13.2-0.6-133.9-116.8-242.7-259.5-242.7S253.4 393.9 252.7 527.8c5.9 3.7 11.6 8.2 16.8 13.4 5.5-5.7 11.4-10.5 17.8-14.5 1.4-115.6 101.7-209.2 224.9-209.2z" fill="#FDB9D0" p-id="1107"></path><path d="M355.9 532.1c-28.6 0-54.6 14.8-73.2 41.5-3 4.3-7.8 6.8-13 6.8s-10.1-2.6-13-6.8c-18.5-26.8-44.5-41.5-73.2-41.5-40.1 0-75.6 27.8-84.2 66.2-14.9 66 48.7 140.5 170.4 200.1C391.4 738.8 455 664.3 440.1 598.3c-8.7-38.4-44.1-66.2-84.2-66.2zM926.2 598.3c-8.7-38.3-44.1-66.2-84.2-66.2-28.6 0-54.6 14.8-73.2 41.5-3 4.3-7.8 6.8-13 6.8s-10.1-2.6-13-6.8c-18.5-26.8-44.5-41.5-73.2-41.5-40.1 0-75.6 27.8-84.2 66.2-14.9 66 48.7 140.5 170.4 200.1 121.7-59.6 185.4-134.1 170.4-200.1z" fill="#FDB9D0" p-id="1108"></path><path d="M957.2 591.3c-10-44.5-46.1-78.6-90.1-88.2-11-81.1-49.3-155.8-109.6-212.4-66.7-62.7-153.8-97.2-245.3-97.2-91.1 0-178 34.3-244.5 96.5-60.7 56.8-99.4 131.9-110.4 213.4-43.4 9.9-78.9 43.9-88.9 87.9-6 26.5-5.5 68.4 30.9 117.7 32.8 44.4 87.9 85.2 163.6 121.3 2.2 1 4.5 1.5 6.8 1.5s4.7-0.5 6.8-1.5c75.8-36.1 130.8-76.9 163.6-121.3 36.4-49.3 36.9-91.2 30.9-117.7-9.6-42.6-43.2-75.8-84.7-86.9 15.8-55.2 66.2-94.3 125.8-94.3 58.8 0 109.8 39.9 125.8 94.6-41 11.4-74 44.3-83.5 86.5-6 26.5-5.5 68.4 30.9 117.7 32.8 44.4 87.9 85.2 163.6 121.3 2.2 1 4.5 1.5 6.8 1.5s4.7-0.5 6.8-1.5c75.8-36.1 130.8-76.9 163.6-121.3 36.5-49.2 37-91.1 31.1-117.6z m-371.8 7c8.7-38.3 44.1-66.2 84.2-66.2 28.7 0 54.6 14.7 73.2 41.5 3 4.3 7.8 6.8 13 6.8s10.1-2.6 13-6.8c18.5-26.8 44.5-41.5 73.2-41.5 40.1 0 75.6 27.8 84.2 66.2 14.9 66-48.7 140.5-170.4 200.1-121.7-59.6-185.4-134.1-170.4-200.1zM269.7 798.4C147.9 738.8 84.3 664.3 99.2 598.3c8.7-38.3 44.1-66.2 84.2-66.2 28.7 0 54.6 14.7 73.2 41.5 3 4.3 7.8 6.8 13 6.8s10.1-2.6 13-6.8c18.5-26.8 44.5-41.5 73.2-41.5 40.1 0 75.6 27.8 84.2 66.2 15 66-48.6 140.5-170.3 200.1z m17.7-275.1c-6.3 4.7-12.2 10-17.7 16-5.3-5.7-10.9-10.8-16.9-15.3 2.8-132.1 118.1-238.8 259.4-238.8 141.6 0 257 107.1 259.4 239.6-5.5 4.3-10.8 9.1-15.8 14.5-5.9-6.3-12.2-12-18.8-16.8-3.7-113.6-103.1-205-224.8-205-122 0-221.6 91.8-224.8 205.8z m224.7-298.1c161.5 0 297.9 118.8 322.5 275.4-11.1 0.7-21.9 3-32.1 6.8-11.6-141.9-137.4-254-290.3-254-152.8 0-278.4 111.9-290.3 253.6-10.3-3.7-21.1-6-32.3-6.5C214.4 344.1 351 225.2 512.1 225.2z m110.6 196.5c-30.2-27.9-69.4-43.3-110.5-43.3-40.9 0-80 15.2-110.1 42.9-23.3 21.5-39.6 48.9-47.4 79.1-11.8 0.1-23.2 2-34 5.5 12.2-88.3 93.5-156.8 191.6-156.8 98 0 179.2 68.3 191.6 156.4-10.9-3.4-22.3-5.2-34.1-5.2-7.8-29.9-24-57.2-47.1-78.6z" fill="#3EBAC4" p-id="1109"></path></svg>