<?xml version="1.0" standalone="no"?><!DOCTYPE svg PUBLIC "-//W3C//DTD SVG 1.1//EN" "http://www.w3.org/Graphics/SVG/1.1/DTD/svg11.dtd"><svg t="1687762646312" class="icon" viewBox="0 0 1024 1024" version="1.1" xmlns="http://www.w3.org/2000/svg" p-id="1248" xmlns:xlink="http://www.w3.org/1999/xlink" width="200" height="200"><path d="M513.7 303.9l-80 46.6h159.6zM513.4 473.4c-125.2 0-227.1 101.9-227.1 227.1 0 125.2 101.9 227.1 227.1 227.1 125.2 0 227.1-101.9 227.1-227.1 0-125.3-101.9-227.1-227.1-227.1z m0 413.2c-102.6 0-186.1-83.5-186.1-186.1s83.5-186.1 186.1-186.1 186.1 83.5 186.1 186.1S616 886.6 513.4 886.6z" fill="#FDB9D0" p-id="1249"></path><path d="M559.6 445.8l101-66.1c6.2-4.1 8.8-11.9 6.2-18.8L636.7 280c-2.3-6.2-8.2-10.3-14.9-10.3H404.9c-6.6 0-12.6 4.1-14.9 10.3l-30 80.8c-2.6 6.9 0 14.8 6.2 18.8l101 66.1c-120.8 21.8-212.7 127.7-212.7 254.7 0 142.7 116.1 258.9 258.9 258.9s258.9-116.1 258.9-258.9c-0.1-126.9-91.9-232.8-212.7-254.6z m-46.2 481.8c-125.2 0-227.1-101.9-227.1-227.1 0-125.2 101.9-227.1 227.1-227.1 125.2 0 227.1 101.9 227.1 227.1 0 125.2-101.9 227.1-227.1 227.1z m0.3-623.7l79.6 46.6H433.7l80-46.6z m97.1-2.5l10.7 28.8-49.2-28.8h38.5z m-194.8 0h39l-49.7 28.9 10.7-28.9z m12.1 80.8h170.6l-85.3 55.9-85.3-55.9z" fill="#3EBAC4" p-id="1250"></path><path d="M513.4 514.4c-102.6 0-186.1 83.5-186.1 186.1s83.5 186.1 186.1 186.1 186.1-83.5 186.1-186.1c0-102.7-83.5-186.1-186.1-186.1z m0 340.5c-85.1 0-154.4-69.3-154.4-154.4 0-85.1 69.3-154.4 154.4-154.4s154.4 69.3 154.4 154.4c0 85.1-69.3 154.4-154.4 154.4zM512.2 169.6c8.8 0 15.9-7.1 15.9-15.9V81.2c0-8.8-7.1-15.9-15.9-15.9s-15.9 7.1-15.9 15.9v72.6c0 8.7 7.1 15.8 15.9 15.8zM295.9 387.1c0-8.8-7.1-15.9-15.9-15.9h-72.6c-8.8 0-15.9 7.1-15.9 15.9s7.1 15.9 15.9 15.9H280c8.8 0 15.9-7.1 15.9-15.9zM819.3 371.2h-72.6c-8.8 0-15.9 7.1-15.9 15.9s7.1 15.9 15.9 15.9h72.6c8.8 0 15.9-7.1 15.9-15.9s-7.2-15.9-15.9-15.9zM336 235.9c3.1 3.1 7.2 4.6 11.2 4.6 4.1 0 8.1-1.5 11.2-4.6 6.2-6.2 6.2-16.2 0-22.4l-51.3-51.3c-6.2-6.2-16.2-6.2-22.4 0-6.2 6.2-6.2 16.2 0 22.4l51.3 51.3zM677.2 240.6c4.1 0 8.1-1.5 11.2-4.6l51.3-51.3c6.2-6.2 6.2-16.2 0-22.4-6.2-6.2-16.2-6.2-22.4 0L666 213.5c-6.2 6.2-6.2 16.2 0 22.4 3.1 3.1 7.1 4.7 11.2 4.7z" fill="#3EBAC4" p-id="1251"></path></svg>