<?xml version="1.0" standalone="no"?><!DOCTYPE svg PUBLIC "-//W3C//DTD SVG 1.1//EN" "http://www.w3.org/Graphics/SVG/1.1/DTD/svg11.dtd"><svg t="1687651669171" class="icon" viewBox="0 0 1024 1024" version="1.1" xmlns="http://www.w3.org/2000/svg" p-id="2422" xmlns:xlink="http://www.w3.org/1999/xlink" width="200" height="200"><path d="M472 512h80v480H472z" fill="#FFFFFF" p-id="2423"></path><path d="M472 616c-1.6 0-3.2 0-4.8-0.8-1.6 0-3.2-0.8-4.8-1.6-1.6-0.8-2.4-1.6-4-2.4-1.6-0.8-2.4-1.6-4-3.2-4-3.2-6.4-9.6-6.4-16 0-1.6 0-3.2 0.8-4.8 0-1.6 0.8-3.2 1.6-4.8 0.8-1.6 1.6-2.4 2.4-4 0.8-1.6 1.6-2.4 3.2-4 8.8-8.8 24.8-8.8 33.6 0 0.8 0.8 2.4 2.4 3.2 4 0.8 1.6 1.6 2.4 2.4 4 0.8 1.6 0.8 3.2 1.6 4.8 0 1.6 0.8 3.2 0.8 4.8 0 6.4-2.4 12.8-7.2 16.8l-3.2 3.2c-1.6 0.8-2.4 1.6-4 2.4-1.6 0.8-3.2 0.8-4.8 1.6H472zM472 1016c-13.6 0-24-10.4-24-24V688c0-13.6 10.4-24 24-24s24 10.4 24 24v304c0 13.6-10.4 24-24 24zM552 1016c-13.6 0-24-10.4-24-24V512c0-13.6 10.4-24 24-24s24 10.4 24 24v480c0 13.6-10.4 24-24 24z" fill="#3F4A54" p-id="2424"></path><path d="M512 272m-240 0a240 240 0 1 0 480 0 240 240 0 1 0-480 0Z" fill="#FF697D" p-id="2425"></path><path d="M512 488c-13.6 0-24-10.4-24-24s10.4-24 24-24c92.8 0 168-75.2 168-168 0-13.6 10.4-24 24-24s24 10.4 24 24c0 119.2-96.8 216-216 216z" fill="#C95065" p-id="2426"></path><path d="M320 296c-13.6 0-24-10.4-24-24C296 152.8 392.8 56 512 56c13.6 0 24 10.4 24 24s-10.4 24-24 24c-92.8 0-168 75.2-168 168 0 13.6-10.4 24-24 24z" fill="#FFFFFF" p-id="2427"></path><path d="M288 296c-13.6 0-24-10.4-24-24C264 152.8 360.8 56 480 56c13.6 0 24 10.4 24 24s-10.4 24-24 24c-92.8 0-168 75.2-168 168 0 13.6-10.4 24-24 24z" fill="#FFFFFF" p-id="2428"></path><path d="M512 536c-145.6 0-264-118.4-264-264 0-13.6 10.4-24 24-24s24 10.4 24 24c0 119.2 96.8 216 216 216s216-96.8 216-216S631.2 56 512 56c-68.8 0-132 32-173.6 87.2-8 10.4-23.2 12.8-33.6 4.8-10.4-8-12.8-23.2-4.8-33.6C349.6 48 428.8 8 512 8c145.6 0 264 118.4 264 264S657.6 536 512 536z" fill="#3F4A54" p-id="2429"></path><path d="M728 336H296c-35.2 0-64-28.8-64-64s28.8-64 64-64h432c35.2 0 64 28.8 64 64s-28.8 64-64 64z" fill="#FF697D" p-id="2430"></path><path d="M576 208h16c35.2 0 64 28.8 64 64s-28.8 64-64 64h-16 152c35.2 0 64-28.8 64-64s-28.8-64-64-64H576z" fill="#C95065" p-id="2431"></path><path d="M728 360H296c-48.8 0-88-39.2-88-88s39.2-88 88-88h432c48.8 0 88 39.2 88 88s-39.2 88-88 88zM296 232c-22.4 0-40 17.6-40 40s17.6 40 40 40h432c22.4 0 40-17.6 40-40s-17.6-40-40-40H296z" fill="#3F4A54" p-id="2432"></path></svg>