<?xml version="1.0" standalone="no"?><!DOCTYPE svg PUBLIC "-//W3C//DTD SVG 1.1//EN" "http://www.w3.org/Graphics/SVG/1.1/DTD/svg11.dtd"><svg t="1687763074549" class="icon" viewBox="0 0 1024 1024" version="1.1" xmlns="http://www.w3.org/2000/svg" p-id="965" xmlns:xlink="http://www.w3.org/1999/xlink" width="200" height="200"><path d="M528 587.6c-23.1-41.3-21.8-76-16.2-98.4 11.4-46.1 51.9-79.5 96.3-79.5 24.4 0 46.8 9.6 65.2 27.6 25.8-65.6 2-122-39.3-146.6-33.8-20.1-86.6-22.2-124.3 38.2-3.2 5.2-8.9 8.4-15.1 8.4-6.1 0-11.8-3.2-15.1-8.4-24.3-39.1-59.7-56.9-97-49-39.7 8.4-70.4 43.4-76.5 87.1-5.4 38.7 2.5 138.8 188.5 240.1 11.7-6.5 22.8-13 33.5-19.5z" fill="#FDB9D0" p-id="966"></path><path d="M884.6 75.2H240.2c-41.1 0-74.5 33.4-74.5 74.5v582.8L65.8 924.2c-3.4 6.4-2.4 14.3 2.3 19.8 3.4 4 8.4 6.2 13.4 6.2 1.9 0 3.9-0.3 5.8-1l233.5-80.5h563.7c41.1 0 74.5-33.4 74.5-74.5V149.7c0.1-41.1-33.3-74.5-74.4-74.5z m39 718.9c0 21.5-17.5 39-39 39H317.9c-2 0-3.9 0.3-5.8 1l-194.3 67L199.1 745c1.3-2.5 2-5.3 2-8.2V149.7c0-21.5 17.5-39 39-39h644.4c21.5 0 39 17.5 39 39v644.4z" fill="#3EBAC4" p-id="967"></path><path d="M746.3 409.7c-10.3 0-20.2 1.7-29.6 5 13-68.6-17.6-126.5-64.7-154.6-44.7-26.7-110.1-26.9-157.5 29.2-31.7-37.3-74.9-53.7-119.3-44.2-54.3 11.5-96.2 58.5-104.3 116.9-6.5 46.7 1.4 167.5 215.4 280.8 2.6 1.4 5.4 2.1 8.3 2.1 2.9 0 5.7-0.7 8.3-2.1 15.8-8.4 30.9-17 45.2-25.9 27.3 33.9 67.8 65.2 120.9 93.3 2.6 1.4 5.4 2.1 8.3 2.1s5.7-0.7 8.3-2.1c63-33.3 108.3-71.2 134.8-112.4 29.4-45.8 28.4-84.4 22.3-108.6-11.6-46.1-52-79.5-96.4-79.5zM306 366.9c6.1-43.7 36.9-78.7 76.5-87.1 37.3-7.9 72.6 10 97 49 3.2 5.2 8.9 8.4 15.1 8.4 6.1 0 11.8-3.2 15.1-8.4 37.7-60.5 90.5-58.4 124.3-38.2 41.4 24.7 65.2 81.1 39.3 146.6-18.4-17.9-40.8-27.6-65.2-27.6-44.3 0-84.8 33.4-96.3 79.5-5.6 22.4-6.8 57.1 16.2 98.4-10.7 6.6-21.8 13.1-33.5 19.4-186-101.2-193.9-201.3-188.5-240z m371.2 307.5c-142.6-78.4-136.4-154.8-131-176.7 7.6-30.5 33.6-52.6 61.8-52.6 20.9 0 40.1 12.3 54.1 34.7 3.2 5.2 8.9 8.4 15.1 8.4s11.8-3.2 15.1-8.4c14-22.4 33.2-34.7 54.1-34.7 28.3 0 54.3 22.1 61.8 52.6 5.4 21.9 11.5 98.3-131 176.7z" fill="#3EBAC4" p-id="968"></path></svg>