<?xml version="1.0" standalone="no"?><!DOCTYPE svg PUBLIC "-//W3C//DTD SVG 1.1//EN" "http://www.w3.org/Graphics/SVG/1.1/DTD/svg11.dtd"><svg t="1687763089413" class="icon" viewBox="0 0 1024 1024" version="1.1" xmlns="http://www.w3.org/2000/svg" p-id="1107" xmlns:xlink="http://www.w3.org/1999/xlink" width="200" height="200"><path d="M196.1 927.9h77.4V712.8l-77.4 36zM753.6 927.9H831V748.8l-77.4-36zM513.5 409.2c-20.5 0-37.1 16.7-37.1 37.1 0 20.5 16.7 37.1 37.1 37.1s37.1-16.7 37.1-37.1c0.1-20.4-16.6-37.1-37.1-37.1zM513.5 765.5c-21.3 0-37.1 10.4-37.1 19.7v142.7h74.3V785.1c0-9.2-15.9-19.6-37.2-19.6z" fill="#FDB9D0" p-id="1108"></path><path d="M513.5 377.9c-37.7 0-68.4 30.7-68.4 68.4s30.7 68.4 68.4 68.4 68.4-30.7 68.4-68.4c0.1-37.7-30.6-68.4-68.4-68.4z m0 105.6c-20.5 0-37.1-16.7-37.1-37.1 0-20.5 16.7-37.1 37.1-37.1s37.1 16.7 37.1 37.1c0.1 20.4-16.6 37.1-37.1 37.1z" fill="#3EBAC4" p-id="1109"></path><path d="M917.1 927.9h-54.8v-189c0-6.1-3.5-11.6-9-14.2l-99.7-46.5v-62.5c0-5.9-3.3-11.3-8.7-14L648 553.3V395.8c0-3.6-1.2-7-3.5-9.8L529.2 242.9v-95.4h31.4c8.6 0 15.7-7 15.7-15.7 0-8.6-7-15.7-15.7-15.7h-31.4V81.2c0-8.6-7-15.7-15.7-15.7-8.6 0-15.7 7-15.7 15.7v34.9h-31.4c-8.6 0-15.7 7-15.7 15.7 0 8.6 7 15.7 15.7 15.7h31.4v95.4l-115.2 143c-2.2 2.8-3.5 6.2-3.5 9.8v157.5l-96.9 48.5c-5.3 2.7-8.7 8.1-8.7 14v62.5l-99.7 46.5c-5.5 2.6-9 8.1-9 14.2v189H110c-8.6 0-15.7 7-15.7 15.7 0 8.6 7 15.7 15.7 15.7h807.2c8.6 0 15.7-7 15.7-15.7-0.1-8.7-7.1-15.7-15.8-15.7z m-86.1 0h-77.4V712.8l77.4 36.1v179z m-557.5 0h-77.4v-179l77.4-36.1v215.1z m202.9 0V785.1c0-9.3 15.9-19.7 37.1-19.7 21.3 0 37.1 10.4 37.1 19.7v142.7h-74.2z m245.9 0H582V785.1c0-28.6-30.1-51-68.4-51s-68.4 22.4-68.4 51v142.7H304.8V625.4l96.9-48.5c5.3-2.7 8.7-8.1 8.7-14V401.3l103.1-128 103.1 128V563c0 5.9 3.4 11.3 8.7 14l96.9 48.5v302.4z" fill="#3EBAC4" p-id="1110"></path></svg>