<?xml version="1.0" standalone="no"?><!DOCTYPE svg PUBLIC "-//W3C//DTD SVG 1.1//EN" "http://www.w3.org/Graphics/SVG/1.1/DTD/svg11.dtd"><svg t="1687651635157" class="icon" viewBox="0 0 1024 1024" version="1.1" xmlns="http://www.w3.org/2000/svg" p-id="2257" xmlns:xlink="http://www.w3.org/1999/xlink" width="200" height="200"><path d="M56 989.6s0-326.4 60-460L824.8 656S776 813.6 776 992l-720-2.4z" fill="#FFFFFF" p-id="2258"></path><path d="M541.581789 557.44253a80 80 0 1 0 27.775458-157.570695 80 80 0 1 0-27.775458 157.570695Z" fill="#6F4986" p-id="2259"></path><path d="M556 582.4c-6.4 0-12-0.8-18.4-1.6-56.8-9.6-94.4-64-84-120.8 4.8-27.2 20-51.2 42.4-67.2s50.4-22.4 77.6-17.6c27.2 4.8 51.2 20 67.2 42.4s22.4 50.4 17.6 77.6c-4.8 27.2-20 51.2-42.4 67.2-18.4 13.6-39.2 20-60 20z m-0.8-160c-11.2 0-22.4 3.2-32 10.4-12 8.8-20.8 21.6-23.2 36-5.6 30.4 15.2 59.2 45.6 64.8 14.4 2.4 29.6-0.8 41.6-9.6s20.8-21.6 23.2-36c2.4-14.4-0.8-29.6-9.6-41.6s-21.6-20.8-36-23.2c-3.2-0.8-6.4-0.8-9.6-0.8z" fill="#3F4A54" p-id="2260"></path><path d="M476.8 464.8c-8 43.2-48.8 72.8-92.8 64.8-24-4-43.2-18.4-55.2-38.4-9.6-16-13.6-35.2-9.6-54.4 8-43.2 48.8-72.8 92.8-64.8 43.2 7.2 72.8 48.8 64.8 92.8z" fill="#B379DB" p-id="2261"></path><path d="M376.8 452c-6.4 0-12.8-2.4-16.8-7.2-0.8-0.8-2.4-2.4-3.2-4-0.8-1.6-1.6-2.4-2.4-4-0.8-1.6-0.8-3.2-1.6-4.8 0-1.6-0.8-3.2-0.8-4.8 0-1.6 0-3.2 0.8-4.8 0-1.6 0.8-3.2 1.6-4.8 0.8-1.6 1.6-3.2 2.4-4 0.8-1.6 1.6-2.4 3.2-4 8.8-8.8 24.8-8.8 33.6 0 0.8 0.8 2.4 2.4 3.2 4 0.8 1.6 1.6 2.4 2.4 4 0.8 1.6 0.8 3.2 1.6 4.8 0 1.6 0.8 3.2 0.8 4.8 0 1.6 0 3.2-0.8 4.8 0 1.6-0.8 3.2-1.6 4.8-0.8 1.6-1.6 3.2-2.4 4-0.8 1.6-1.6 2.4-3.2 4-0.8 0.8-2.4 2.4-4 3.2-1.6 0.8-2.4 1.6-4 2.4-1.6 0.8-3.2 0.8-4.8 1.6h-4zM534.4 480c-6.4 0-12.8-2.4-16.8-7.2-0.8-0.8-2.4-2.4-3.2-4-0.8-1.6-1.6-2.4-2.4-4-0.8-1.6-0.8-3.2-1.6-4.8s-0.8-3.2-0.8-4.8c0-6.4 2.4-12.8 7.2-16.8 8.8-8.8 24.8-8.8 33.6 0 4.8 4.8 7.2 10.4 7.2 16.8 0 1.6 0 3.2-0.8 4.8s-0.8 3.2-1.6 4.8c-0.8 1.6-1.6 3.2-2.4 4-0.8 1.6-1.6 2.4-3.2 4-0.8 0.8-2.4 2.4-4 3.2-1.6 0.8-2.4 1.6-4 2.4-1.6 0.8-3.2 0.8-4.8 1.6 0.8-0.8-0.8 0-2.4 0z" fill="#FFFFFF" p-id="2262"></path><path d="M398.4 554.4c-5.6 0-12-0.8-18.4-1.6-12.8-2.4-21.6-14.4-19.2-28 2.4-12.8 14.4-21.6 28-19.2 30.4 5.6 59.2-15.2 64.8-45.6 2.4-14.4-0.8-29.6-9.6-41.6-8.8-12-21.6-20.8-36-23.2-30.4-5.6-59.2 15.2-64.8 45.6-2.4 12.8-14.4 21.6-28 19.2-12.8-2.4-21.6-14.4-19.2-28 9.6-56.8 64-94.4 120.8-84 56.8 9.6 94.4 64 84 120.8-9.6 50.4-53.6 85.6-102.4 85.6z" fill="#3F4A54" p-id="2263"></path><path d="M737.6 840.8l-621.6-54.4c-26.4-2.4-45.6-25.6-44-52 2.4-26.4 25.6-45.6 52-44l621.6 54.4c26.4 2.4 45.6 25.6 44 52-2.4 27.2-25.6 46.4-52 44z" fill="#FFDD7D" p-id="2264"></path><path d="M789.6 821.6h-2.4c-13.6-0.8-23.2-12.8-21.6-25.6 0.8-12.8-8.8-24.8-21.6-26.4-13.6-0.8-23.2-12.8-21.6-25.6 0.8-13.6 12.8-23.2 25.6-21.6 39.2 3.2 68.8 38.4 65.6 77.6-0.8 12-12 21.6-24 21.6zM347.2 831.2h-2.4l-279.2-24.8c-13.6-0.8-23.2-12.8-21.6-25.6 0.8-13.6 12.8-23.2 25.6-21.6L348.8 784c13.6 0.8 23.2 12.8 21.6 25.6-0.8 12-11.2 21.6-23.2 21.6z" fill="#3F4A54" p-id="2265"></path><path d="M741.6 864.8h-6.4c-13.6-0.8-23.2-12.8-21.6-25.6 0.8-13.6 12.8-23.2 25.6-21.6 12.8 0.8 24.8-8.8 25.6-21.6 0.8-13.6 12.8-23.2 25.6-21.6 13.6 0.8 23.2 12.8 21.6 26.4-1.6 36-33.6 64-70.4 64z" fill="#3F4A54" p-id="2266"></path><path d="M728 989.6H104c-26.4 0-48-21.6-48-48s21.6-48 48-48h624c26.4 0 48 21.6 48 48s-21.6 48-48 48z" fill="#FFDD7D" p-id="2267"></path><path d="M776 965.6c-13.6 0-24-10.4-24-24s-10.4-24-24-24-24-10.4-24-24 10.4-24 24-24c40 0 72 32 72 72 0 13.6-10.4 24-24 24z" fill="#3F4A54" p-id="2268"></path><path d="M704 1013.6H56c-13.6 0-24-10.4-24-24s10.4-24 24-24h648c14.4 0 48-2.4 48-24 0-13.6 10.4-24 24-24s24 10.4 24 24c0 35.2-25.6 72-96 72z" fill="#3F4A54" p-id="2269"></path><path d="M848 1013.6H264c-13.6 0-24-10.4-24-24s10.4-24 24-24h584c13.6 0 24 10.4 24 24s-10.4 24-24 24zM968 1013.6c-1.6 0-3.2 0-4.8-0.8-1.6 0-3.2-0.8-4.8-1.6-1.6-0.8-2.4-1.6-4-2.4-1.6-0.8-2.4-1.6-4-3.2-4.8-4.8-7.2-10.4-7.2-16.8s2.4-12.8 7.2-16.8c8.8-8.8 24.8-8.8 33.6 0 4.8 4.8 7.2 10.4 7.2 16.8s-2.4 12.8-7.2 16.8c-3.2 5.6-9.6 8-16 8z" fill="#3F4A54" p-id="2270"></path><path d="M776.8 598.4L173.6 492c-25.6-4.8-52 11.2-57.6 36.8-5.6 26.4 12 52 38.4 56.8l240 42.4c18.4 3.2 32 19.2 32 38.4v203.2c0 20.8 15.2 39.2 36 41.6 24 2.4 44-16.8 44-40V694.4c0-24 21.6-42.4 45.6-38.4 18.4 3.2 32 19.2 32 38.4v99.2c0 20.8 15.2 39.2 36 41.6 24 2.4 44-16.8 44-40v-73.6c0-24 21.6-42.4 45.6-38.4l67.2 12c26.4 4.8 48-13.6 48-40s-21.6-52-48-56.8z" fill="#FFA6B5" p-id="2271"></path><path d="M624 860h-6.4c-32.8-3.2-57.6-32-57.6-65.6v-3.2c0-13.6 10.4-24 24-24s24 10.4 24 24v3.2c0 8.8 6.4 16.8 14.4 17.6 6.4 0.8 10.4-2.4 12.8-4 3.2-3.2 5.6-7.2 5.6-12v-73.6c0-18.4 8-36 22.4-48 14.4-12 32.8-16.8 51.2-13.6l67.2 12c5.6 0.8 10.4 0 14.4-3.2 3.2-3.2 5.6-8 5.6-13.6 0-15.2-12.8-31.2-28-33.6L168.8 516c-13.6-2.4-27.2 5.6-29.6 18.4-1.6 6.4 0 12.8 4 18.4 4 5.6 9.6 8.8 16 10.4l240 42.4c30.4 5.6 52 31.2 52 61.6 0 13.6-10.4 24-24 24s-24-10.4-24-24c0-7.2-4.8-13.6-12-14.4l-240-42.4c-19.2-3.2-36-14.4-47.2-30.4-11.2-16-15.2-36-11.2-55.2 8-37.6 45.6-62.4 84.8-56l603.2 106.4c38.4 6.4 68 42.4 68 80.8 0 20-8 38.4-22.4 50.4-14.4 12-33.6 16.8-53.6 13.6l-67.2-12c-5.6-0.8-10.4 1.6-12 3.2-1.6 1.6-5.6 5.6-5.6 11.2v73.6c0 17.6-8 35.2-20.8 47.2-12 11.2-27.2 16.8-43.2 16.8z" fill="#3F4A54" p-id="2272"></path><path d="M466.4 936h-6.4c-32.8-3.2-57.6-32-57.6-65.6V739.2c0-13.6 10.4-24 24-24s24 10.4 24 24v131.2c0 8.8 6.4 16.8 14.4 17.6 6.4 0.8 10.4-2.4 12.8-4 3.2-3.2 5.6-7.2 5.6-12V694.4c0-18.4 8-36 22.4-48 14.4-12 32.8-16.8 51.2-13.6 30.4 5.6 52 31.2 52 61.6 0 13.6-10.4 24-24 24s-24-10.4-24-24c0-7.2-4.8-13.6-12-14.4-5.6-0.8-10.4 1.6-12 3.2-1.6 1.6-5.6 5.6-5.6 11.2V872c0 17.6-8 35.2-20.8 47.2-12.8 11.2-28 16.8-44 16.8z" fill="#3F4A54" p-id="2273"></path></svg>