<?xml version="1.0" standalone="no"?><!DOCTYPE svg PUBLIC "-//W3C//DTD SVG 1.1//EN" "http://www.w3.org/Graphics/SVG/1.1/DTD/svg11.dtd"><svg t="1687762607955" class="icon" viewBox="0 0 1024 1024" version="1.1" xmlns="http://www.w3.org/2000/svg" p-id="965" xmlns:xlink="http://www.w3.org/1999/xlink" width="200" height="200"><path d="M587.9 587.2c-13.9 4.1-28.3 6.8-42.9 8.1-23.8 56.1-79 93.1-140.4 93.1-84.3 0-152.8-68.5-152.8-152.8 0-38 14.1-74.5 39.7-102.7 25.4-28 60.1-45.5 97.5-49.3 5.2-0.5 10.4-0.8 15.6-0.8 67.6 0 127.1 45.1 146.2 109 12.6-2.6 24.7-7 35.6-13.1-24.8-79.2-98-133.7-181.9-133.7-2.7 0-5.5 0.1-8.2 0.2-24 1-47.2 6.5-69.1 16.2-69 30.7-113.5 99.1-113.5 174.3 0 91.7 65.4 170.5 155.5 187.4 7.4 1.4 12.8 7.8 12.8 15.4V801c0 8.6-7 15.6-15.6 15.6h-54.1c-10.5 0-19 8.5-19 18.8 0 10.5 8.5 19 19 19h54.1c8.6 0 15.6 7 15.6 15.6v38.9c0 10.4 8.5 18.8 19 18.8s19-8.5 19-18.8V870c0-8.6 7-15.6 15.6-15.6h56.7c10.5 0 19-8.5 19-19 0-10.6-8.3-18.8-19-18.8h-56.7c-8.6 0-15.6-7-15.6-15.6v-61.3c0-7.7 5.7-14.3 13.3-15.5 74.2-11.4 134.6-66 154.6-137z" fill="#FDB9D0" p-id="966"></path><path d="M842.4 110.9c-0.9-12.1-6.2-23.4-14.8-32-9.7-9.7-22.7-14.4-39.7-14.4H665.1c-27.6 0.4-49.8 23.2-49.6 50.9 0.4 27.5 21.5 48.3 50 49.6h2.7l-22.8 22.7c-35.7-23.2-77-35.4-120.2-35.4-59.2 0-115 23.1-156.9 65-32.7 32.7-53.8 73.8-61.6 119.1-75.7 37.3-124.3 114.5-124.3 199.2 0 102.4 70 190.9 168.3 215.3v34.2h-38.5c-27.7 0-50.3 22.5-50.3 50.1 0 27.7 22.6 50.3 50.3 50.3h38.5v23.2c0 27.6 22.5 50.1 50.3 50.1 27.7 0 50.3-22.5 50.3-50.1v-23.2h41.1c27.7 0 50.3-22.5 50.3-50.3 0-27.6-22.6-50.1-50.3-50.1h-41.1v-32.6c87.7-18.9 156.4-90.3 171.8-179 21.7-10.6 41.7-24.9 59.2-42.5 72.4-72.5 85.5-184.6 33.4-271.3l26.4-26.3v7.5c0 27.6 22.5 50.1 50.3 50.1 27.7 0 50.3-22.5 50.3-50.1V113.1c-0.2-0.7-0.2-1.4-0.3-2.2zM433.2 724.1c-7.6 1.2-13.3 7.7-13.3 15.5v61.3c0 8.6 7 15.6 15.6 15.6h56.7c10.7 0 19 8.3 19 18.8s-8.5 19-19 19h-56.7c-8.6 0-15.6 7-15.6 15.6v38.9c0 10.4-8.5 18.8-19 18.8s-19-8.5-19-18.8v-38.9c0-8.6-7-15.6-15.6-15.6h-54.1c-10.5 0-19-8.5-19-19 0-10.4 8.5-18.8 19-18.8h54.1c8.6 0 15.6-7 15.6-15.6v-62.5c0-7.5-5.4-14-12.8-15.4-90.1-16.9-155.5-95.7-155.5-187.4 0-75.2 44.6-143.6 113.5-174.3 21.9-9.7 45.1-15.2 69.1-16.2 2.7-0.1 5.4-0.2 8.2-0.2 83.9 0 157.1 54.5 181.8 133.8-10.9 6.1-23 10.5-35.6 13.1-19.1-63.9-78.6-109-146.2-109-5.2 0-10.5 0.3-15.6 0.8-37.4 3.8-72.1 21.3-97.5 49.3-25.6 28.2-39.7 64.6-39.7 102.7 0 84.2 68.6 152.8 152.8 152.8 61.5 0 116.6-37 140.4-93.1 14.7-1.3 29-4 42.9-8.1-19.8 71-80.2 125.6-154.5 136.9z m-28.7-67c-67 0-121.6-54.5-121.6-121.5 0-32.8 12.9-62.7 34.2-84.7 11 30 28.4 57.4 51.2 80.1 38.2 38.3 88 60.9 141.7 64.5-21.3 37.6-61.3 61.6-105.5 61.6z m114.1-162.9c-30.3-1.6-58.9-13.8-79.2-34.2-13.1-13-22.8-28.6-28.8-45.8 48.9 2.5 91.5 34.6 108 80z m-98.9-179.9c5.3-9.4 11.9-18.1 19.7-25.9 22.9-22.9 53.4-35.5 85.9-35.5s63 12.6 85.9 35.5c22.9 22.9 35.6 53.5 35.5 86 0 31.8-12.2 61.7-34.2 84.4-30.1-81.8-105.3-138.6-192.8-144.5zM811.3 241c0 10.4-8.5 18.8-19 18.8s-19-8.5-19-18.8v-45.2c0-6.3-3.8-12-9.6-14.4-5.8-2.4-12.6-1.1-17 3.4l-62 61.8c-5.3 5.3-6.1 13.7-1.9 19.9 51.7 75.6 42.2 177.6-22.6 242.5-36 36-83.9 55.9-134.8 55.9-51 0-98.9-19.8-134.8-55.9-22-22-38.2-48.9-47.2-78.5 10.8-6.3 22.7-10.9 35.4-13.7 7.1 24.7 20.3 47 38.6 65.3 27.5 27.6 66.8 43.5 107.9 43.5h0.1c41 0 80.4-15.8 108-43.5 28.8-28.7 44.7-67 44.7-107.8 0-40.9-15.8-79.3-44.7-108.1-28.8-28.8-67.1-44.7-108-44.7-40.9 0-79.2 15.9-108 44.7-14.1 14.1-25 30.3-32.6 48.4-14.6 1.3-28.9 4-42.9 8.1 8.7-31.4 25.2-59.9 48.7-83.3 36.1-36 83.9-55.9 134.8-55.9 41 0 80 12.8 112.7 37 6.2 4.6 14.9 4 20.4-1.5l59.2-59.2c4.5-4.5 5.8-11.3 3.4-17.1-2.5-5.9-8.3-9.7-14.6-9.6l-39.9 0.6c-11.6-0.7-19.5-8.2-19.7-18.7-0.1-10.5 8.3-19.1 18.7-19.3H788c11.1 0 15.4 3 17.6 5.3 3.5 3.5 5.5 8 5.8 12.8V241z" fill="#3EBAC4" p-id="967"></path></svg>