<?xml version="1.0" standalone="no"?><!DOCTYPE svg PUBLIC "-//W3C//DTD SVG 1.1//EN" "http://www.w3.org/Graphics/SVG/1.1/DTD/svg11.dtd"><svg height="1024" node-id="1" sillyvg="true" template-height="1024" template-width="1024" version="1.1" viewBox="0 0 1024 1024" width="1024" xmlns="http://www.w3.org/2000/svg" xmlns:xlink="http://www.w3.org/1999/xlink"><defs node-id="43"></defs><g node-id="130"><path d="M 518.91 360.85 C 514.92 360.85 511.54 357.91 510.99 353.95 L 478.76 122.55 C 477.15 110.99 480.63 99.28 488.33 90.44 C 496.04 81.58 507.19 76.49 518.92 76.49 C 530.66 76.49 541.81 81.56 549.52 90.40 C 557.20 99.22 560.68 110.94 559.07 122.54 L 526.84 353.94 C 526.28 357.91 522.90 360.85 518.91 360.85 Z" fill="#e3b8ff" fill-rule="nonzero" group-id="1" node-id="49" stroke="none" target-height="284.36002" target-width="83.53" target-x="477.15" target-y="76.49"></path><path d="M 518.91 84.50 C 538.63 84.50 553.86 101.85 551.14 121.46 L 518.91 352.86 L 486.68 121.46 C 483.96 101.97 499.19 84.50 518.91 84.50 M 518.91 68.50 C 504.87 68.50 491.52 74.59 482.29 85.20 C 473.08 95.79 468.90 109.81 470.84 123.67 L 503.07 355.06 C 504.17 362.97 510.93 368.85 518.92 368.85 C 518.92 368.85 518.92 368.85 518.92 368.85 C 526.90 368.85 533.67 362.96 534.77 355.06 L 567.00 123.66 C 568.93 109.75 564.76 95.72 555.55 85.16 C 546.32 74.57 532.97 68.50 518.91 68.50 L 518.91 68.50 Z" fill="#26282b" fill-rule="nonzero" group-id="1" node-id="51" stroke="none" target-height="300.35" target-width="100.03" target-x="468.9" target-y="68.5"></path></g><g node-id="131"><path d="M 377.59 434.53 C 376.59 434.53 375.57 434.34 374.59 433.94 L 158.06 346.10 C 147.23 341.70 138.84 332.85 135.03 321.81 C 131.20 310.72 132.35 298.52 138.19 288.32 C 145.47 275.76 158.95 267.98 173.40 267.98 C 182.46 267.98 191.05 270.94 198.23 276.54 L 382.52 420.22 C 385.67 422.67 386.52 427.07 384.53 430.53 C 383.05 433.07 380.37 434.53 377.59 434.53 Z" fill="#e3b8ff" fill-rule="nonzero" group-id="2" node-id="56" stroke="none" target-height="166.54999" target-width="255.31999" target-x="131.2" target-y="267.98"></path><path d="M 173.39 275.97 C 180.32 275.97 187.33 278.19 193.29 282.84 L 377.59 426.52 L 161.06 338.68 C 142.76 331.24 135.32 309.40 145.12 292.28 C 151.24 281.72 162.22 275.97 173.39 275.97 M 173.39 259.97 C 156.10 259.97 139.96 269.28 131.28 284.27 C 131.27 284.29 131.25 284.32 131.24 284.34 C 124.26 296.54 122.88 311.15 127.46 324.42 C 132.03 337.64 142.08 348.25 155.04 353.51 L 371.58 441.35 C 373.54 442.15 375.58 442.53 377.59 442.53 C 383.16 442.53 388.52 439.61 391.45 434.53 C 395.44 427.62 393.73 418.82 387.43 413.91 L 203.13 270.23 C 194.54 263.52 184.25 259.97 173.39 259.97 L 173.39 259.97 Z" fill="#26282b" fill-rule="nonzero" group-id="2" node-id="58" stroke="none" target-height="182.56" target-width="272.56" target-x="122.88" target-y="259.97"></path></g><g node-id="132"><path d="M 166.52 744.05 C 152.07 744.05 138.59 736.29 131.35 723.80 C 125.48 713.66 124.28 701.49 128.07 690.42 C 131.87 679.32 140.30 670.41 151.19 665.98 L 367.73 578.25 C 368.71 577.85 369.73 577.66 370.73 577.66 C 373.52 577.66 376.20 579.12 377.66 581.66 C 379.66 585.12 378.80 589.52 375.65 591.97 L 191.35 735.53 C 184.15 741.12 175.57 744.05 166.52 744.05 Z" fill="#e3b8ff" fill-rule="nonzero" group-id="3" node-id="63" stroke="none" target-height="166.39001" target-width="255.38" target-x="124.28" target-y="577.66"></path><path d="M 370.74 585.67 L 370.74 585.67 M 370.74 585.67 L 186.44 729.23 C 180.47 733.85 173.45 736.05 166.52 736.05 C 155.36 736.05 144.39 730.34 138.27 719.79 C 128.35 702.67 135.91 680.83 154.21 673.39 L 370.74 585.67 M 370.74 569.67 C 369.92 569.67 369.11 569.73 368.29 569.86 C 366.93 570.07 365.63 570.45 364.41 570.98 L 148.22 658.57 C 135.16 663.88 125.08 674.54 120.52 687.83 C 115.98 701.09 117.41 715.67 124.44 727.81 C 133.11 742.77 149.23 752.05 166.53 752.05 C 177.37 752.05 187.64 748.54 196.24 741.89 C 196.26 741.88 196.27 741.87 196.29 741.85 L 380.42 598.42 C 380.92 598.04 381.40 597.63 381.85 597.19 C 382.54 596.52 383.16 595.81 383.71 595.05 C 385.62 592.41 386.75 589.17 386.75 585.66 C 386.75 577.32 380.37 570.46 372.21 569.73 C 371.72 569.69 371.23 569.67 370.74 569.67 L 370.74 569.67 Z M 370.74 601.67 L 370.74 601.67 L 370.74 601.67 L 370.74 601.67 Z" fill="#26282b" fill-rule="nonzero" group-id="3" node-id="65" stroke="none" target-height="182.38" target-width="270.77" target-x="115.98" target-y="569.67"></path></g><g node-id="133"><path d="M 505.10 947.50 C 493.35 947.50 482.20 942.43 474.50 933.58 C 466.82 924.76 463.34 913.05 464.94 901.44 L 497.17 670.04 C 497.72 666.09 501.10 663.14 505.09 663.14 C 505.09 663.14 505.09 663.14 505.09 663.14 C 509.08 663.14 512.46 666.08 513.01 670.04 L 545.24 901.44 C 546.85 913.01 543.36 924.71 535.67 933.56 C 527.97 942.42 516.82 947.50 505.10 947.50 Z" fill="#e3b8ff" fill-rule="nonzero" group-id="4" node-id="70" stroke="none" target-height="284.36" target-width="83.50998" target-x="463.34" target-y="663.14"></path><path d="M 505.10 671.14 L 537.33 902.54 C 540.05 922.02 524.82 939.50 505.10 939.50 C 485.38 939.50 470.15 922.15 472.87 902.54 L 505.10 671.14 M 505.10 655.14 C 497.12 655.14 490.35 661.03 489.25 668.93 L 457.02 900.33 C 455.09 914.24 459.26 928.27 468.47 938.83 C 477.69 949.42 491.04 955.49 505.10 955.49 C 519.14 955.49 532.48 949.41 541.72 938.80 C 550.93 928.21 555.11 914.19 553.18 900.33 L 520.95 668.93 C 519.84 661.03 513.08 655.14 505.10 655.14 L 505.10 655.14 Z" fill="#26282b" fill-rule="nonzero" group-id="4" node-id="72" stroke="none" target-height="300.34998" target-width="100.01999" target-x="455.09" target-y="655.14"></path></g><g node-id="134"><path d="M 850.49 756.03 C 841.43 756.03 832.84 753.07 825.66 747.47 L 641.38 603.91 C 638.23 601.46 637.37 597.06 639.37 593.60 C 640.84 591.06 643.52 589.60 646.30 589.60 C 647.30 589.60 648.32 589.79 649.30 590.19 L 865.82 678.03 C 876.74 682.47 885.18 691.40 888.98 702.53 C 892.74 713.58 891.54 725.69 885.67 735.75 C 878.42 748.25 864.94 756.03 850.49 756.03 C 850.49 756.03 850.49 756.03 850.49 756.03 Z" fill="#e3b8ff" fill-rule="nonzero" group-id="5" node-id="77" stroke="none" target-height="166.43005" target-width="255.37" target-x="637.37" target-y="589.6"></path><path d="M 646.30 597.59 L 862.82 685.43 C 881.12 692.87 888.68 714.71 878.76 731.71 C 872.64 742.28 861.67 748.03 850.50 748.03 C 843.57 748.03 836.56 745.81 830.59 741.16 L 646.30 597.59 M 646.30 581.59 C 640.73 581.59 635.37 584.51 632.44 589.59 C 628.45 596.51 630.16 605.31 636.46 610.21 L 820.75 753.77 C 829.34 760.47 839.63 764.02 850.49 764.02 C 867.78 764.02 883.92 754.71 892.60 739.72 C 899.62 727.69 901.06 713.17 896.55 699.93 C 892.01 686.60 881.91 675.91 868.84 670.60 L 652.31 582.76 C 650.35 581.97 648.31 581.59 646.30 581.59 L 646.30 581.59 Z" fill="#26282b" fill-rule="nonzero" group-id="5" node-id="79" stroke="none" target-height="182.43" target-width="272.61" target-x="628.45" target-y="581.59"></path></g><g node-id="135"><path d="M 653.27 446.45 C 650.48 446.45 647.81 444.99 646.34 442.45 C 644.34 438.99 645.20 434.59 648.35 432.14 L 832.64 288.46 C 839.85 282.88 848.44 279.95 857.48 279.95 C 871.93 279.95 885.41 287.71 892.65 300.20 C 898.52 310.34 899.72 322.51 895.93 333.58 C 892.13 344.68 883.70 353.59 872.81 358.02 L 656.28 445.86 C 655.29 446.26 654.27 446.45 653.27 446.45 Z" fill="#e3b8ff" fill-rule="nonzero" group-id="6" node-id="84" stroke="none" target-height="166.5" target-width="255.37994" target-x="644.34" target-y="279.95"></path><path d="M 857.48 287.95 C 868.64 287.95 879.61 293.66 885.72 304.21 C 895.64 321.33 888.08 343.17 869.78 350.61 L 653.26 438.45 L 837.55 294.77 C 843.53 290.15 850.54 287.95 857.48 287.95 M 857.48 271.95 C 846.65 271.95 836.37 275.46 827.77 282.11 C 827.75 282.12 827.73 282.14 827.72 282.15 L 643.43 425.83 C 637.13 430.74 635.42 439.54 639.41 446.45 C 642.34 451.53 647.70 454.45 653.27 454.45 C 655.28 454.45 657.32 454.07 659.28 453.27 L 875.80 365.43 C 888.85 360.13 898.94 349.46 903.49 336.17 C 908.03 322.91 906.60 308.33 899.57 296.19 C 890.90 281.24 874.78 271.95 857.48 271.95 L 857.48 271.95 Z" fill="#26282b" fill-rule="nonzero" group-id="6" node-id="86" stroke="none" target-height="182.5" target-width="272.61005" target-x="635.42" target-y="271.95"></path></g><g node-id="136"><path d="M 465.15 430.07 C 462.75 430.07 460.40 428.99 458.83 426.99 L 367.43 309.63 C 362.31 303.07 360.29 294.62 361.89 286.46 C 363.48 278.31 368.52 271.26 375.72 267.11 C 380.08 264.60 385.02 263.27 390.02 263.27 C 401.78 263.27 412.24 270.31 416.65 281.19 L 472.56 419.07 C 474.06 422.77 472.60 427.01 469.15 429.01 C 467.89 429.72 466.51 430.07 465.15 430.07 Z" fill="#ffbdf3" fill-rule="nonzero" group-id="7" node-id="91" stroke="none" target-height="166.80002" target-width="113.76999" target-x="360.29" target-y="263.27"></path><path d="M 390.02 271.26 C 398.14 271.26 405.94 276.06 409.24 284.19 L 465.15 422.07 L 373.75 304.71 C 366.00 294.77 368.83 280.32 379.72 274.04 C 382.99 272.15 386.53 271.26 390.02 271.26 M 390.02 255.26 C 383.62 255.26 377.29 256.96 371.72 260.18 C 362.52 265.48 356.08 274.50 354.04 284.92 C 352.00 295.35 354.59 306.15 361.13 314.54 L 452.52 431.90 C 455.65 435.92 460.36 438.07 465.15 438.07 C 467.88 438.07 470.63 437.37 473.14 435.93 C 480.06 431.94 482.97 423.46 479.97 416.06 L 424.06 278.18 C 418.42 264.26 405.06 255.26 390.02 255.26 L 390.02 255.26 Z" fill="#26282b" fill-rule="nonzero" group-id="7" node-id="93" stroke="none" target-height="182.81001" target-width="130.97" target-x="352" target-y="255.26"></path></g><g node-id="137"><path d="M 260.47 536.31 C 244.63 536.31 231.74 523.43 231.74 507.60 C 231.74 491.77 244.67 478.89 260.55 478.89 C 261.85 478.89 263.16 478.98 264.46 479.15 L 411.81 499.67 C 415.76 500.22 418.71 503.60 418.71 507.59 C 418.71 511.58 415.77 514.96 411.81 515.51 L 264.40 536.05 C 263.07 536.22 261.76 536.31 260.47 536.31 C 260.47 536.31 260.47 536.31 260.47 536.31 Z" fill="#ffbdf3" fill-rule="nonzero" group-id="8" node-id="98" stroke="none" target-height="57.419983" target-width="186.96999" target-x="231.74" target-y="478.89"></path><path d="M 260.55 486.89 C 261.49 486.89 262.44 486.95 263.40 487.08 L 410.70 507.60 L 263.29 528.12 C 262.34 528.25 261.40 528.31 260.47 528.31 C 249.21 528.31 239.74 519.20 239.74 507.60 C 239.74 496.00 249.20 486.89 260.55 486.89 M 260.55 470.89 C 240.25 470.89 223.74 487.36 223.74 507.60 C 223.74 527.84 240.22 544.31 260.47 544.31 C 262.12 544.31 263.79 544.20 265.43 543.98 C 265.45 543.98 265.48 543.97 265.50 543.97 L 412.91 523.45 C 420.82 522.35 426.70 515.59 426.70 507.60 C 426.70 499.62 420.81 492.85 412.91 491.75 L 265.61 471.23 C 265.58 471.23 265.55 471.22 265.52 471.22 C 263.87 471.01 262.20 470.89 260.55 470.89 L 260.55 470.89 Z" fill="#26282b" fill-rule="nonzero" group-id="8" node-id="100" stroke="none" target-height="73.41998" target-width="202.96" target-x="223.74" target-y="470.89"></path></g><g node-id="138"><path d="M 382.38 756.35 C 377.38 756.35 372.43 755.02 368.07 752.50 C 360.88 748.35 355.84 741.30 354.25 733.16 C 352.66 725.00 354.67 716.56 359.79 709.98 L 451.19 592.62 C 452.75 590.61 455.11 589.54 457.51 589.54 C 458.87 589.54 460.25 589.89 461.50 590.61 C 464.96 592.61 466.42 596.85 464.91 600.54 L 409.01 738.42 C 404.60 749.31 394.14 756.35 382.38 756.35 C 382.38 756.35 382.38 756.35 382.38 756.35 Z" fill="#ffbdf3" fill-rule="nonzero" group-id="9" node-id="105" stroke="none" target-height="166.81" target-width="113.76001" target-x="352.66" target-y="589.54"></path><path d="M 457.50 597.54 L 457.50 597.54 M 457.50 597.54 L 401.60 735.42 C 398.31 743.55 390.50 748.35 382.38 748.35 C 378.89 748.35 375.35 747.46 372.07 745.58 C 361.18 739.30 358.36 724.85 366.10 714.90 L 457.50 597.54 M 457.51 581.54 C 457.17 581.54 456.82 581.55 456.48 581.57 C 453.85 581.74 451.39 582.54 449.26 583.82 C 447.84 584.67 446.53 585.76 445.40 587.07 C 445.18 587.32 444.97 587.58 444.77 587.84 L 353.47 705.07 C 346.93 713.47 344.35 724.27 346.39 734.70 C 348.43 745.12 354.87 754.13 364.06 759.44 C 369.63 762.66 375.96 764.36 382.36 764.36 C 397.40 764.36 410.77 755.36 416.41 741.44 L 472.15 603.97 C 473.01 602.01 473.49 599.83 473.49 597.55 C 473.49 589.36 467.33 582.60 459.40 581.66 C 458.78 581.57 458.14 581.54 457.51 581.54 L 457.51 581.54 Z M 457.50 613.54 L 457.50 613.54 L 457.50 613.54 L 457.50 613.54 Z" fill="#26282b" fill-rule="nonzero" group-id="9" node-id="107" stroke="none" target-height="182.82" target-width="129.13998" target-x="344.35" target-y="581.54"></path></g><g node-id="139"><path d="M 633.97 760.74 C 622.21 760.74 611.75 753.70 607.34 742.82 L 551.43 604.94 C 549.93 601.24 551.39 597.00 554.85 595.01 C 556.10 594.29 557.48 593.94 558.84 593.94 C 561.24 593.94 563.59 595.02 565.16 597.03 L 656.56 714.39 C 661.68 720.96 663.70 729.40 662.10 737.56 C 660.51 745.71 655.47 752.76 648.27 756.91 C 643.91 759.41 638.97 760.74 633.97 760.74 C 633.97 760.74 633.97 760.74 633.97 760.74 Z" fill="#ffbdf3" fill-rule="nonzero" group-id="10" node-id="112" stroke="none" target-height="166.79999" target-width="113.77002" target-x="549.93" target-y="593.94"></path><path d="M 558.84 601.93 L 650.24 719.29 C 657.99 729.24 655.16 743.68 644.27 749.96 C 641.00 751.85 637.45 752.73 633.96 752.73 C 625.84 752.73 618.04 747.93 614.74 739.80 L 558.84 601.93 M 558.83 585.93 C 556.10 585.93 553.35 586.63 550.84 588.07 C 543.92 592.06 541.01 600.54 544.01 607.94 L 599.92 745.82 C 605.56 759.74 618.93 768.74 633.96 768.74 C 640.36 768.74 646.69 767.04 652.26 763.82 C 661.46 758.52 667.90 749.50 669.94 739.08 C 671.98 728.65 669.40 717.85 662.85 709.46 L 571.45 592.10 C 568.34 588.08 563.63 585.93 558.83 585.93 L 558.83 585.93 Z" fill="#26282b" fill-rule="nonzero" group-id="10" node-id="114" stroke="none" target-height="182.81" target-width="130.96997" target-x="541.01" target-y="585.93"></path></g><g node-id="140"><path d="M 763.54 545.13 C 762.18 545.13 760.81 545.03 759.46 544.84 L 612.19 524.32 C 608.24 523.77 605.29 520.39 605.29 516.40 C 605.29 512.41 608.23 509.03 612.19 508.48 L 759.49 487.96 C 760.82 487.78 762.13 487.69 763.42 487.69 C 779.26 487.69 792.15 500.57 792.15 516.40 C 792.15 524.10 789.15 531.34 783.70 536.77 C 778.28 542.16 771.12 545.13 763.54 545.13 C 763.54 545.13 763.54 545.13 763.54 545.13 Z" fill="#ffbdf3" fill-rule="nonzero" group-id="11" node-id="119" stroke="none" target-height="57.440002" target-width="186.86005" target-x="605.29" target-y="487.69"></path><path d="M 763.41 495.69 C 774.67 495.69 784.14 504.79 784.14 516.40 C 784.14 527.96 774.74 537.13 763.53 537.13 C 762.56 537.13 761.57 537.06 760.58 536.92 L 613.28 516.40 L 760.58 495.88 C 761.54 495.75 762.48 495.69 763.41 495.69 M 763.41 479.69 C 761.76 479.69 760.09 479.80 758.45 480.02 C 758.43 480.02 758.40 480.03 758.38 480.03 L 611.08 500.55 C 603.17 501.65 597.29 508.41 597.29 516.40 C 597.29 524.38 603.18 531.15 611.08 532.25 L 758.35 552.77 C 760.07 553.01 761.81 553.14 763.54 553.14 C 783.73 553.14 800.15 536.66 800.15 516.41 C 800.15 496.15 783.67 479.69 763.41 479.69 L 763.41 479.69 Z" fill="#26282b" fill-rule="nonzero" group-id="11" node-id="121" stroke="none" target-height="73.45001" target-width="202.86005" target-x="597.29" target-y="479.69"></path></g><g node-id="141"><path d="M 566.48 434.46 C 565.12 434.46 563.74 434.11 562.49 433.39 C 559.03 431.39 557.57 427.15 559.07 423.45 L 614.98 285.57 C 619.39 274.68 629.85 267.65 641.61 267.65 C 646.61 267.65 651.56 268.98 655.91 271.49 C 663.12 275.65 668.17 282.74 669.75 290.95 C 671.32 299.12 669.29 307.54 664.17 314.05 L 572.80 431.38 C 571.23 433.39 568.88 434.46 566.48 434.46 Z" fill="#ffbdf3" fill-rule="nonzero" group-id="12" node-id="126" stroke="none" target-height="166.81" target-width="113.75" target-x="557.57" target-y="267.65"></path><path d="M 641.61 275.65 C 645.10 275.65 648.64 276.54 651.92 278.42 C 662.81 284.70 665.64 299.25 657.89 309.10 L 566.49 426.46 L 622.40 288.58 C 625.69 280.45 633.49 275.65 641.61 275.65 M 641.61 259.65 C 626.57 259.65 613.21 268.65 607.56 282.57 L 551.65 420.45 C 548.65 427.85 551.56 436.33 558.48 440.32 C 560.99 441.77 563.74 442.46 566.47 442.46 C 571.27 442.46 575.98 440.31 579.10 436.29 L 670.47 318.97 C 677.01 310.64 679.61 299.88 677.60 289.44 C 675.58 278.96 669.13 269.89 659.91 264.57 C 654.34 261.35 648.01 259.65 641.61 259.65 L 641.61 259.65 Z" fill="#26282b" fill-rule="nonzero" group-id="12" node-id="128" stroke="none" target-height="182.81" target-width="130.95996" target-x="548.65" target-y="259.65"></path></g></svg>