<?xml version="1.0" standalone="no"?><!DOCTYPE svg PUBLIC "-//W3C//DTD SVG 1.1//EN" "http://www.w3.org/Graphics/SVG/1.1/DTD/svg11.dtd"><svg t="1687656617940" class="icon" viewBox="0 0 1024 1024" version="1.1" xmlns="http://www.w3.org/2000/svg" p-id="25747" xmlns:xlink="http://www.w3.org/1999/xlink" width="200" height="200"><path d="M844.8 200.533333L554.666667 55.466667c-25.6-12.8-57.6-12.8-83.2 0L181.333333 200.533333c-34.133333 14.933333-53.333333 46.933333-53.333333 83.2v264.533334c0 121.6 59.733333 236.8 162.133333 315.733333 74.666667 57.6 200.533333 110.933333 204.8 113.066667 4.266667 2.133333 10.666667 4.266667 17.066667 4.266666s10.666667-2.133333 17.066667-4.266666c4.266667-2.133333 132.266667-55.466667 204.8-113.066667 102.4-78.933333 162.133333-194.133333 162.133333-315.733333V283.733333c0-36.266667-19.2-68.266667-51.2-83.2zM554.666667 522.666667v136.533333c0 23.466667-19.2 42.666667-42.666667 42.666667s-42.666667-19.2-42.666667-42.666667v-136.533333c-38.4-17.066667-64-53.333333-64-98.133334 0-59.733333 46.933333-106.666667 106.666667-106.666666s106.666667 46.933333 106.666667 106.666666c0 44.8-25.6 81.066667-64 98.133334z" fill="#13227a" p-id="25748"></path></svg>