<?xml version="1.0" standalone="no"?><!DOCTYPE svg PUBLIC "-//W3C//DTD SVG 1.1//EN" "http://www.w3.org/Graphics/SVG/1.1/DTD/svg11.dtd"><svg t="1687660163146" class="icon" viewBox="0 0 1024 1024" version="1.1" xmlns="http://www.w3.org/2000/svg" p-id="32615" xmlns:xlink="http://www.w3.org/1999/xlink" width="200" height="200"><path d="M670.48 159A194.51 194.51 0 0 1 865 353.52v317A194.51 194.51 0 0 1 670.48 865h-317A194.51 194.51 0 0 1 159 670.48v-317A194.51 194.51 0 0 1 353.52 159h317m0-21.61h-317c-119.36 0-216.11 96.75-216.11 216.11v317c0 119.36 96.75 216.11 216.11 216.11h317c119.36 0 216.11-96.75 216.11-216.11v-317c0-119.36-96.75-216.11-216.11-216.11z" fill="#D3D3D3" p-id="32616"></path><path d="M710.32 509.65h-1c-9.46-95.77-89.42-170.57-186.7-170.57-101.39 0-184 81.26-187.53 182.84h15.36l-15.39 0.53c-2.64 88.15 47.12 166.43 141.15 192.44s78.95-43.6 70.58-48.71-14.28-18.91-6.89-34.79 13.76-15 48.2-15.66c93.39 1.55 115.49-65.54 120.66-93.81h1.39c-0.07-2.22-0.2-4.44-0.35-6.64 0.44-3.55 0.52-5.63 0.52-5.63z m-303.88 21A33.94 33.94 0 1 1 440 496.7a33.74 33.74 0 0 1-33.56 33.94z m62.05-82A33.77 33.77 0 1 1 502 414.87a33.65 33.65 0 0 1-33.51 33.77z m105 2c-18.53 0-33.54-15.24-33.54-34s15-34 33.54-34 33.54 15.24 33.54 34-15.03 33.98-33.51 33.98z m65.37 80a33.94 33.94 0 1 1 33.63-33.94 33.78 33.78 0 0 1-33.6 33.93z" fill="#DD4F47" p-id="32617"></path></svg>