<svg width="24" height="24" viewBox="0 0 24 24" fill="none" xmlns="http://www.w3.org/2000/svg">
<g id="ic_age">
<path id="Rectangle 178" d="M2.7 14C2.7 12.1775 4.17746 10.7 6 10.7H18C19.8225 10.7 21.3 12.1775 21.3 14V21C21.3 21.1657 21.1657 21.3 21 21.3H3C2.83431 21.3 2.7 21.1657 2.7 21V14Z" stroke="black" stroke-width="1.4"/>
<g id="Group 48">
<rect id="Rectangle 179" x="4.69922" y="4" width="1.4" height="5" rx="0.7" fill="black"/>
<rect id="Rectangle 180" x="9.09961" y="4" width="1.4" height="5" rx="0.7" fill="black"/>
<rect id="Rectangle 181" x="13.5" y="4" width="1.4" height="5" rx="0.7" fill="black"/>
<rect id="Rectangle 182" x="17.8984" y="4" width="1.4" height="5" rx="0.7" fill="black"/>
<rect id="Rectangle 183" x="4.69922" y="2" width="1.4" height="1.4" rx="0.7" fill="black"/>
<rect id="Rectangle 184" x="9.09961" y="2" width="1.4" height="1.4" rx="0.7" fill="black"/>
<rect id="Rectangle 185" x="13.5" y="2" width="1.4" height="1.4" rx="0.7" fill="black"/>
<rect id="Rectangle 186" x="17.8984" y="2" width="1.4" height="1.4" rx="0.7" fill="black"/>
</g>
</g>
</svg>
