<svg width="24" height="24" viewBox="0 0 24 24" fill="none" xmlns="http://www.w3.org/2000/svg">
<g id="ic_public_user">
<g id="__Public/ic_public_contacts">
<path id="__&#229;&#189;&#162;&#231;&#138;&#182;&#231;&#187;&#147;&#229;&#144;&#136;" d="M12 2.5C14.8995 2.5 17.25 4.85051 17.25 7.75C17.25 10.577 15.0156 12.8821 12.2164 12.9956L12 13C11.1664 13 10.3625 13.1275 9.60687 13.3641L9.38165 13.4383C9.2195 13.4945 9.05971 13.5557 8.90248 13.6217C8.8646 13.6377 8.82725 13.6537 8.79005 13.67L8.90248 13.6217C8.83767 13.649 8.77329 13.6771 8.70935 13.706L8.79005 13.67C8.71659 13.7022 8.6437 13.7355 8.57142 13.7699L8.70935 13.706C8.61973 13.7464 8.53099 13.7885 8.44317 13.8322L8.57142 13.7699C8.50322 13.8023 8.43556 13.8356 8.36844 13.8699L8.44317 13.8322C8.35529 13.8759 8.26834 13.9212 8.18233 13.9679L8.36844 13.8699C8.30345 13.903 8.23897 13.937 8.17502 13.9719C8.04616 14.042 7.91238 14.12 7.78114 14.2016C7.73112 14.2327 7.68176 14.2641 7.63277 14.2961C7.51805 14.371 7.40497 14.449 7.29405 14.5298C7.26673 14.5497 7.23894 14.5703 7.21129 14.591L7.29405 14.5298C7.22318 14.5815 7.15319 14.6342 7.0841 14.6881L7.21129 14.591C7.14959 14.6371 7.08859 14.6842 7.02829 14.7321L7.0841 14.6881C7.02212 14.7365 6.96087 14.7857 6.90037 14.8358L7.02829 14.7321C6.95482 14.7904 6.8824 14.85 6.81106 14.9109L6.90037 14.8358C6.83669 14.8886 6.77384 14.9423 6.71184 14.9969L6.81106 14.9109C6.74918 14.9637 6.68812 15.0174 6.62789 15.072L6.71184 14.9969C6.64785 15.0533 6.58477 15.1108 6.52262 15.1692L6.62789 15.072C6.57566 15.1193 6.52405 15.1674 6.47308 15.2161L6.52262 15.1692C6.38763 15.296 6.25704 15.4275 6.13112 15.5634C6.03106 15.6713 5.93357 15.7825 5.83919 15.8963C5.82097 15.9183 5.80259 15.9407 5.78434 15.9632L5.83919 15.8963C5.79434 15.9504 5.75019 16.005 5.70676 16.0603L5.78434 15.9632C5.73917 16.0188 5.69473 16.0751 5.65104 16.132L5.70676 16.0603C5.65523 16.1259 5.60472 16.1922 5.55522 16.2594L5.65104 16.132C5.59201 16.2089 5.53434 16.2869 5.47808 16.3659L5.55522 16.2594C5.50462 16.3281 5.4551 16.3976 5.40667 16.4679L5.47808 16.3659C5.43261 16.4298 5.38806 16.4944 5.34445 16.5596L5.40667 16.4679C5.35873 16.5375 5.31187 16.6079 5.2661 16.6791L5.34445 16.5596C5.29456 16.6342 5.24588 16.7098 5.19846 16.7861L5.2661 16.6791C5.22427 16.7442 5.18335 16.8099 5.14337 16.8762L5.19846 16.7861C5.04782 17.0288 4.90981 17.28 4.78533 17.5391C4.76837 17.5744 4.75193 17.6092 4.73574 17.6442L4.78533 17.5391C4.74922 17.6142 4.71426 17.69 4.68046 17.7664L4.73574 17.6442C4.70485 17.711 4.67485 17.7782 4.64576 17.846L4.68046 17.7664C4.64247 17.8522 4.60596 17.9389 4.57094 18.0263L4.64576 17.846C4.61266 17.923 4.58074 18.0007 4.55002 18.079L4.57094 18.0263C4.54234 18.0976 4.51474 18.1695 4.48816 18.2419L4.55002 18.079C4.51431 18.17 4.48022 18.2619 4.44778 18.3545L4.48816 18.2419C4.46999 18.2914 4.45229 18.3411 4.43507 18.391L4.44778 18.3545C4.32835 18.6954 4.23135 19.0469 4.15857 19.4072C4.14763 19.4614 4.1373 19.5154 4.12752 19.5695L4.15857 19.4072C4.14117 19.4933 4.12515 19.58 4.11054 19.6671L4.12752 19.5695C4.11192 19.656 4.0977 19.743 4.08489 19.8304L4.11054 19.6671C4.09455 19.7625 4.08024 19.8584 4.06765 19.9549L4.08489 19.8304C4.07328 19.9096 4.06284 19.9892 4.05357 20.0692L4.06765 19.9549C4.05729 20.0343 4.04811 20.114 4.0401 20.194L4.05357 20.0692C4.04198 20.1692 4.03224 20.2698 4.02437 20.3709L4.0401 20.194C4.0224 20.3709 4.01046 20.5496 4.00448 20.7297C4.00156 20.8175 4.00006 20.9061 4 20.995L4.00448 20.7297C4.0015 20.8194 4 20.9095 4 21C4 21.4142 3.66421 21.75 3.25 21.75C2.83579 21.75 2.5 21.4142 2.5 21C2.5 20.8017 2.50607 20.6049 2.51804 20.4096C2.52118 20.3585 2.52467 20.3082 2.52856 20.2579C2.53178 20.2162 2.53531 20.1741 2.5391 20.1322C2.5433 20.0858 2.54784 20.0395 2.5527 19.9933C2.55829 19.9403 2.56433 19.8872 2.5708 19.8343C2.57523 19.7981 2.57988 19.7618 2.58474 19.7256C2.62249 19.4441 2.67248 19.1669 2.7342 18.8942L2.73986 18.8694C2.76906 18.7419 2.80081 18.6155 2.83507 18.4901C2.85217 18.4275 2.86991 18.3652 2.88826 18.3031C2.89392 18.2839 2.89971 18.2646 2.90556 18.2452C2.92516 18.1804 2.94537 18.1161 2.96624 18.0521C2.97852 18.0145 2.99119 17.9764 3.00409 17.9385C3.01969 17.8927 3.03564 17.8469 3.05194 17.8013C3.06646 17.7607 3.0812 17.7204 3.0962 17.6801C3.15856 17.513 3.22559 17.3478 3.29705 17.185L3.30105 17.1759C3.39335 16.9663 3.493 16.7606 3.59969 16.5592C3.62542 16.5106 3.65161 16.4622 3.67821 16.414C3.69237 16.3884 3.70673 16.3627 3.7212 16.337C3.74452 16.2957 3.76809 16.2547 3.79195 16.2139C3.81803 16.1692 3.84457 16.1246 3.87146 16.0803C3.88941 16.0507 3.90747 16.0213 3.92569 15.992C3.97264 15.9165 4.02076 15.8414 4.0699 15.7671C4.14677 15.6508 4.22601 15.5365 4.30765 15.4241C4.32815 15.3959 4.34878 15.3678 4.36956 15.3398C4.46075 15.2171 4.55469 15.0968 4.65141 14.9789C4.67271 14.9529 4.69431 14.9269 4.71604 14.901C4.75431 14.8553 4.79303 14.81 4.83218 14.765C4.85541 14.7383 4.87856 14.712 4.90186 14.6859C4.95266 14.6288 5.00433 14.5721 5.05667 14.5161C5.06272 14.5096 5.06927 14.5026 5.07584 14.4957C5.26113 14.2985 5.45436 14.1096 5.65532 13.9292C5.70423 13.8852 5.75386 13.8416 5.80394 13.7985C5.82257 13.7824 5.84093 13.7667 5.85935 13.7511C5.90937 13.7087 5.95992 13.6667 6.0109 13.6253C6.03652 13.6044 6.06208 13.5839 6.08775 13.5634C6.11477 13.5419 6.14177 13.5207 6.16889 13.4996C6.22779 13.4537 6.28745 13.4084 6.34764 13.3637C6.36259 13.3527 6.37728 13.3418 6.39199 13.3311C6.44144 13.2948 6.49141 13.259 6.54174 13.2236C6.56805 13.2051 6.59422 13.1869 6.62049 13.1688C6.69578 13.117 6.7722 13.066 6.84939 13.0161C6.88867 12.9907 6.92813 12.9656 6.96778 12.9408C7.00618 12.9168 7.0446 12.8931 7.0832 12.8697C7.10413 12.857 7.12506 12.8444 7.14603 12.832C7.20876 12.7946 7.27212 12.7578 7.33594 12.7218C7.35023 12.7137 7.36419 12.7059 7.37818 12.6981C7.44289 12.662 7.50833 12.6265 7.57423 12.5917C7.60197 12.5771 7.62998 12.5625 7.65807 12.548C7.704 12.5244 7.74994 12.5012 7.79611 12.4784C7.82142 12.4659 7.84664 12.4536 7.87192 12.4414C8.21329 12.2764 8.56602 12.1313 8.92864 12.0075C7.60862 11.0543 6.75 9.50244 6.75 7.75C6.75 4.85051 9.1005 2.5 12 2.5ZM16.1282 12.4427C19.3071 13.9775 21.5 17.2327 21.5 21C21.5 21.4142 21.1642 21.75 20.75 21.75C20.3358 21.75 20 21.4142 20 21C20 17.4935 17.7441 14.514 14.6044 13.4335C15.1613 13.1776 15.674 12.8426 16.1282 12.4427ZM12 4C9.92893 4 8.25 5.67893 8.25 7.75C8.25 9.82107 9.92893 11.5 12 11.5C14.0711 11.5 15.75 9.82107 15.75 7.75C15.75 5.67893 14.0711 4 12 4Z" fill="black"/>
</g>
</g>
</svg>
