<svg width="24" height="24" viewBox="0 0 24 24" fill="none" xmlns="http://www.w3.org/2000/svg">
<g id="ic_public_phone">
<g id="_Public/ic_public_phone">
<path id="_&#229;&#189;&#162;&#231;&#138;&#182;" d="M5.16791 2.1557C4.58052 2.29023 4.01734 2.67345 3.45866 3.28098L3.40071 3.34528L3.41776 3.32777C2.32054 4.41609 1.86339 5.991 2.20895 7.49461C2.84141 10.217 4.91294 13.465 7.7065 16.2871C10.534 19.086 13.782 21.1576 16.5026 21.7896L16.5949 21.8098C18.0413 22.1103 19.5412 21.6749 20.604 20.6476L20.6538 20.598L20.6375 20.6132C21.319 20.0063 21.7367 19.3951 21.8594 18.7543C22.0411 17.8054 21.6735 16.83 20.918 16.2222L18.8917 14.5798C17.9737 13.7649 16.5939 13.7824 15.7 14.6145L15.6484 14.6641L15.6235 14.6893L14.6873 15.6816C14.5553 15.8137 14.3288 15.8397 14.1535 15.7302C13.318 15.2108 12.1311 14.1975 10.981 13.0272L10.7618 12.8096C9.67672 11.7209 8.75573 10.6289 8.26968 9.84696C8.15924 9.6702 8.18532 9.44367 8.33223 9.29719L9.30967 8.37547L9.33485 8.35057L9.37534 8.30858C10.201 7.42181 10.2332 6.07622 9.46579 5.16114L9.35448 5.02966L8.22794 3.6408C8.07204 3.44764 7.91771 3.25617 7.77678 3.08101C7.16893 2.32551 6.19354 1.95792 5.24466 2.13956L5.16791 2.1557ZM20.3862 18.4723C20.3355 18.7371 20.0972 19.0858 19.6399 19.4929L19.6062 19.5249C18.883 20.254 17.8379 20.5574 16.8403 20.3281C14.43 19.7682 11.4085 17.8411 8.76714 15.2265C6.15791 12.5905 4.2308 9.56894 3.67044 7.1569C3.44813 6.18957 3.72807 5.17563 4.41264 4.45552L4.50604 4.35903C4.91318 3.90182 5.26184 3.66352 5.5267 3.61281C5.92586 3.5364 6.34506 3.69438 6.60808 4.0213L8.0243 5.77225L8.33261 6.14461C8.59782 6.47832 8.58131 6.96027 8.28655 7.2769L8.2672 7.29677L7.288 8.22054C6.63124 8.875 6.5165 9.8718 6.99665 10.6403C7.58722 11.5904 8.67239 12.8614 9.92035 14.0878L10.1565 14.3256C11.3002 15.4645 12.47 16.4499 13.3601 17.0032L13.4153 17.0365C14.1744 17.4767 15.1392 17.3525 15.764 16.7259L16.7017 15.732L16.7317 15.7033C17.0391 15.4173 17.5207 15.4011 17.8567 15.6684L18.0411 15.8228C18.388 16.1082 19.253 16.8078 19.9777 17.3909C20.3046 17.6539 20.4626 18.0731 20.3862 18.4723Z" fill="black"/>
</g>
</g>
</svg>
