<svg width="24" height="24" viewBox="0 0 24 24" fill="none" xmlns="http://www.w3.org/2000/svg">
<g id="public/ic_public_back">
<path id="&#229;&#189;&#162;&#231;&#138;&#182;&#231;&#187;&#147;&#229;&#144;&#136;" fill-rule="evenodd" clip-rule="evenodd" d="M11.2803 3.21967C10.9874 2.92678 10.5125 2.92678 10.2196 3.21967L2.39641 11.0429L2.35866 11.0827C2.00632 11.4754 2.0189 12.0796 2.39641 12.4571C2.58395 12.6446 2.8383 12.75 3.10352 12.75H21L21.044 12.7487C21.4377 12.7259 21.75 12.3994 21.75 12L21.7487 11.9559C21.7259 11.5622 21.3994 11.25 21 11.25H4.31046L11.2803 4.28033L11.314 4.24433C11.5727 3.94974 11.5615 3.50085 11.2803 3.21967ZM11.2803 19.7197L5.31076 13.75H3.18926L10.2196 20.7803L10.2556 20.8141C10.5502 21.0728 10.9991 21.0615 11.2803 20.7803C11.5615 20.4992 11.5727 20.0503 11.314 19.7557L11.2803 19.7197Z" fill="black" fill-opacity="0.9"/>
</g>
</svg>
