<svg width="24" height="24" viewBox="0 0 24 24" fill="none" xmlns="http://www.w3.org/2000/svg">
<g id="ic_public_confirm">
<path id="&#229;&#189;&#162;&#231;&#138;&#182;&#231;&#187;&#147;&#229;&#144;&#136;" d="M22.218 6.74827C22.4803 6.45375 22.4702 6.0021 22.1878 5.71967C21.8949 5.42678 21.42 5.42678 21.1271 5.71967L15.3777 11.4691L10.7809 16.0659L10.7489 16.0961C10.4544 16.3584 10.0027 16.3483 9.72027 16.0659L4.37408 10.7197L4.34202 10.6894C4.0475 10.4272 3.59585 10.4372 3.31342 10.7197C3.02053 11.0126 3.02053 11.4874 3.31342 11.7803L4.06268 12.5296L4.06342 12.5303L9.01317 17.4801L9.05643 17.5219C9.74257 18.1632 10.8189 18.1493 11.488 17.4801L11.8414 17.1268L22.1878 6.78033L22.218 6.74827Z" fill="black" fill-opacity="0.9"/>
</g>
</svg>
