<?xml version="1.0" encoding="UTF-8"?>
<svg width="24px" height="24px" viewBox="0 0 24 24" version="1.1" xmlns="http://www.w3.org/2000/svg" xmlns:xlink="http://www.w3.org/1999/xlink">
    <title>ic_random_play</title>
    <defs>
        <path d="M21.5820995,16.1666667 C21.6051218,16.1666667 21.6272011,16.1758122 21.6434803,16.1920914 C21.67738,16.2259911 21.67738,16.2809533 21.6434803,16.314853 L21.6434803,16.314853 L18.6065197,19.3518136 C18.5902405,19.3680928 18.5681612,19.3772384 18.5451389,19.3772384 C18.4971975,19.3772384 18.4583333,19.3383742 18.4583333,19.2904329 L18.4583333,19.2904329 L18.4583333,17.4142557 L18.2797423,17.4099025 C17.1800578,17.3514246 16.1336742,16.9156744 15.3175247,16.1763331 L15.1333501,16.0003602 L12.6393333,13.4873333 L13.5233333,12.6033333 L16.0205756,15.1198315 C16.634372,15.738296 17.452627,16.1069578 18.3173294,16.1600154 L18.5343812,16.1666667 Z M18.5451389,4.62276159 C18.5681612,4.62276159 18.5902405,4.63190715 18.6065197,4.64818635 L21.6434803,7.68514698 C21.67738,7.71904666 21.67738,7.7740089 21.6434803,7.80790857 C21.6272011,7.82418777 21.6051218,7.83333333 21.5820995,7.83333333 L18.5343812,7.83333333 C17.5904227,7.83333333 16.6855217,8.21016529 16.0205756,8.88016853 L8.95412699,16.0003602 C8.05449407,16.9068352 6.83021616,17.4166667 5.55309585,17.4166667 L3.45833333,17.4166667 C3.11315536,17.4166667 2.83333333,17.1368446 2.83333333,16.7916667 C2.83333333,16.4464887 3.11315536,16.1666667 3.45833333,16.1666667 L5.55309585,16.1666667 C6.49705434,16.1666667 7.4019554,15.7898347 8.06690148,15.1198315 L15.1333501,7.99963978 C16.015108,7.1111758 17.208738,6.60374989 18.4583196,6.58393627 L18.4583333,4.70956715 C18.4583333,4.66162576 18.4971975,4.62276159 18.5451389,4.62276159 Z M5.55309585,6.58333333 C6.74507481,6.58333333 7.89102216,7.02745319 8.76995234,7.8236669 L8.95412699,7.99963978 L11.4693333,10.5343333 L10.5853333,11.4183333 L8.06690148,8.88016853 C7.4531051,8.261704 6.63485004,7.89304222 5.77014766,7.83998458 L5.55309585,7.83333333 L3.45833333,7.83333333 C3.11315536,7.83333333 2.83333333,7.5535113 2.83333333,7.20833333 C2.83333333,6.89453518 3.06459121,6.6347502 3.36597541,6.59010994 L3.45833333,6.58333333 L5.55309585,6.58333333 Z" id="path-1"></path>
    </defs>
    <g id="ic_random_play" stroke="none" stroke-width="1" fill="none" fill-rule="evenodd">
        <mask id="mask-2" fill="white">
            <use xlink:href="#path-1"></use>
        </mask>
        <use id="合并形状" fill-opacity="0.6" fill="#000000" fill-rule="nonzero" xlink:href="#path-1"></use>
    </g>
</svg>