<?xml version="1.0" encoding="UTF-8"?>
<svg width="24px" height="24px" viewBox="0 0 24 24" version="1.1" xmlns="http://www.w3.org/2000/svg" xmlns:xlink="http://www.w3.org/1999/xlink">
    <title>ic_single_play</title>
    <defs>
        <path d="M20.3030813,9.56096816 C20.8622624,10.3688681 21.1666667,11.3273906 21.1666667,12.32991 C21.1666667,15.0245444 18.9760163,17.2083333 16.274879,17.2083333 L8.24933333,17.207589 L8.25,19.0401861 C8.25,19.0977157 8.20336299,19.1443528 8.14583333,19.1443528 C8.11820662,19.1443528 8.09171142,19.1333781 8.07217638,19.113843 L5.09449029,16.136157 C5.05381068,16.0954773 5.05381068,16.0295227 5.09449029,15.988843 C5.11402533,15.969308 5.14052053,15.9583333 5.16814725,15.9583333 L16.274879,15.9583333 C18.2865366,15.9583333 19.9166667,14.3333092 19.9166667,12.32991 C19.9166667,11.5837172 19.6909376,10.8729309 19.2752611,10.2723652 C19.0788143,9.98854047 19.149648,9.59920345 19.4334727,9.40275658 C19.7172974,9.20630972 20.1066344,9.27714346 20.3030813,9.56096816 Z M15.8541667,4.85564725 C15.8817934,4.85564725 15.9082886,4.86662192 15.9278236,4.88615696 L18.9055097,7.86384304 C18.9461893,7.90452266 18.9461893,7.97047734 18.9055097,8.01115696 C18.8859747,8.030692 18.8594795,8.04166667 18.8318528,8.04166667 L7.72483894,8.04166667 C5.71331633,8.04166667 4.08333333,9.66671137 4.08333333,11.6703162 C4.08333333,12.4163756 4.30909627,13.1271095 4.72484742,13.7275358 C4.92134898,14.0113226 4.85059027,14.4006733 4.56680344,14.5971749 C4.2830166,14.7936764 3.89366593,14.7229177 3.69716437,14.4391309 C3.13781424,13.6313194 2.83333333,12.6727701 2.83333333,11.6703162 C2.83333333,8.97550496 5.02380802,6.79166667 7.72483894,6.79166667 L15.7493333,6.79158898 L15.75,4.95981391 C15.75,4.90228425 15.796637,4.85564725 15.8541667,4.85564725 Z M12.7291667,9.5 L12.7291667,14.5 L11.6659994,14.5 L11.6658333,10.8977083 L10.6458333,11.4838452 L10.6458333,10.3217819 L11.9752836,9.5 L12.7291667,9.5 Z" id="path-1"></path>
    </defs>
    <g id="ic_single_play" stroke="none" stroke-width="1" fill="none" fill-rule="evenodd">
        <mask id="mask-2" fill="white">
            <use xlink:href="#path-1"></use>
        </mask>
        <use id="形状结合" fill-opacity="0.6" fill="#000000" fill-rule="nonzero" xlink:href="#path-1"></use>
    </g>
</svg>