<?xml version="1.0" encoding="UTF-8"?>
<svg width="28px" height="28px" viewBox="0 0 28 28" version="1.1" xmlns="http://www.w3.org/2000/svg" xmlns:xlink="http://www.w3.org/1999/xlink">
    <title>icon_play</title>
    <g id="icon_play" stroke="none" stroke-width="1" fill="none" fill-rule="evenodd">
        <path d="M14,1.76470588 C7.24263365,1.76470588 1.76470588,7.24263365 1.76470588,14 C1.76470588,20.7573664 7.24263365,26.2352941 14,26.2352941 C20.7573664,26.2352941 26.2352941,20.7573664 26.2352941,14 C26.2352941,7.24263365 20.7573664,1.76470588 14,1.76470588 Z M13.872549,3.80392157 C19.5740769,3.80392157 24.1960784,8.42592312 24.1960784,14.127451 C24.1960784,19.8289788 19.5740769,24.4509804 13.872549,24.4509804 C8.17102116,24.4509804 3.54901961,19.8289788 3.54901961,14.127451 C3.54901961,8.42592312 8.17102116,3.80392157 13.872549,3.80392157 Z" id="椭圆形" fill-opacity="0.2" fill="#FF1949" fill-rule="nonzero"></path>
        <path d="M14,1.78431373 C20.7465372,1.78431373 26.2156863,7.25346276 26.2156863,14 C26.2156863,20.7465372 20.7465372,26.2156863 14,26.2156863 C7.25346276,26.2156863 1.78431373,20.7465372 1.78431373,14 C1.78431373,13.4477153 2.23202898,13 2.78431373,13 C3.33659848,13 3.78431373,13.4477153 3.78431373,14 C3.78431373,19.6419677 8.35803226,24.2156863 14,24.2156863 C19.6419677,24.2156863 24.2156863,19.6419677 24.2156863,14 C24.2156863,8.35803226 19.6419677,3.78431373 14,3.78431373 C13.4477153,3.78431373 13,3.33659848 13,2.78431373 C13,2.23202898 13.4477153,1.78431373 14,1.78431373 Z" id="路径" fill="#FF1949" fill-rule="nonzero"></path>
        <path d="M10.1764706,7.6274162 C10.8803629,7.6274162 11.4509804,8.19803368 11.4509804,8.90192601 L11.4509804,19.098074 C11.4509804,19.8019663 10.8803629,20.3725838 10.1764706,20.3725838 C9.47257826,20.3725838 8.90196078,19.8019663 8.90196078,19.098074 L8.90196078,8.90192601 C8.90196078,8.19803368 9.47257826,7.6274162 10.1764706,7.6274162 Z M17.8235294,7.62748576 C18.5274217,7.62748576 19.0980392,8.19810323 19.0980392,8.90199556 L19.0980392,19.098074 C19.0980392,19.8019663 18.5274217,20.3725838 17.8235294,20.3725838 C17.1196371,20.3725838 16.5490196,19.8019663 16.5490196,19.098074 L16.5490196,8.90199556 C16.5490196,8.19810323 17.1196371,7.62748576 17.8235294,7.62748576 Z" id="Combined-Shape" fill="#FF1949"></path>
    </g>
</svg>