<?xml version="1.0" encoding="UTF-8"?>
<svg width="26px" height="26px" viewBox="0 0 26 26" version="1.1" xmlns="http://www.w3.org/2000/svg" xmlns:xlink="http://www.w3.org/1999/xlink">
    <title>编组 14</title>
    <g id="主页面" stroke="none" stroke-width="1" fill="none" fill-rule="evenodd">
        <g id="Setting__首页下备份" transform="translate(-47.000000, -210.000000)">
            <g id="编组-13" transform="translate(24.000000, 80.000000)">
                <g id="编组-10" transform="translate(4.000000, 60.000000)">
                    <g id="编组-14" transform="translate(19.500000, 71.000000)">
                        <rect id="矩形" x="0.5" y="4.54747351e-13" width="24" height="24"></rect>
                        <path d="M12.6,7.4 C13.5664983,7.4 14.35,8.18350169 14.35,9.15 L14.35,10.4 L14.349,10.4 L14.349,20.4 L14.5,20.4 C15.3284271,20.4 16,21.0715729 16,21.9 C16,22.7284271 15.3284271,23.4 14.5,23.4 L10.5,23.4 C9.67157288,23.4 9,22.7284271 9,21.9 C9,21.0715729 9.67157288,20.4 10.5,20.4 L10.849,20.4 L10.849,10.4 L10.5,10.4 C9.67157288,10.4 9,9.72842712 9,8.9 C9,8.07157288 9.67157288,7.4 10.5,7.4 L12.6,7.4 Z M12.05,4.54747351e-13 C13.5686875,4.54747351e-13 14.8,1.2313125 14.8,2.75 C14.8,4.2686875 13.5686875,5.5 12.05,5.5 C10.5313125,5.5 9.3,4.2686875 9.3,2.75 C9.3,1.2313125 10.5313125,4.54747351e-13 12.05,4.54747351e-13 Z" id="形状结合" fill-opacity="0.599213287" fill="#182431" fill-rule="nonzero"></path>
                    </g>
                </g>
            </g>
        </g>
    </g>
</svg>