<?xml version="1.0" encoding="UTF-8"?>
<svg width="24px" height="25px" viewBox="0 0 24 25" version="1.1" xmlns="http://www.w3.org/2000/svg" xmlns:xlink="http://www.w3.org/1999/xlink">
    <title>ic/All folders</title>
    <defs>
        <path d="M24,0 L24,24 L0,24 L0,0 L24,0 Z M9.2771524,4.5 L2,4.5 C1.17157288,4.5 0.5,5.17157288 0.5,6 L0.5,6 L0.5,20 C0.5,20.8284271 1.17157288,21.5 2,21.5 L2,21.5 L20,21.5 C20.8284271,21.5 21.5,20.8284271 21.5,20 L21.5,20 L21.5,8 C21.5,7.17157288 20.8284271,6.5 20,6.5 L20,6.5 L11.359211,6.5 L9.2771524,4.5 Z" id="path-1"></path>
    </defs>
    <g id="Demo-Sample" stroke="none" stroke-width="1" fill="none" fill-rule="evenodd" opacity="0.600000024">
        <g id="画板备份-2" transform="translate(-69.000000, -450.000000)">
            <g id="ic/favourites/ic_favourites" transform="translate(69.000000, 450.500000)">
                <g id="symbol/frame/symbol_grid24-copy-2"></g>
                <g id="select-all">
                    <path d="M8.20782307,6.75 L10.3851916,8.75 L17,8.75 C17.6213203,8.75 18.1838203,9.00183983 18.5909903,9.40900974 C18.9981602,9.81617966 19.25,10.3786797 19.25,11 L19.25,11 L19.25,18 C19.25,18.6213203 18.9981602,19.1838203 18.5909903,19.5909903 C18.1838203,19.9981602 17.6213203,20.25 17,20.25 L17,20.25 L4,20.25 C3.37867966,20.25 2.81617966,19.9981602 2.40900974,19.5909903 C2.00183983,19.1838203 1.75,18.6213203 1.75,18 L1.75,18 L1.75,9 C1.75,8.37867966 2.00183983,7.81617966 2.40900974,7.40900974 C2.81617966,7.00183983 3.37867966,6.75 4,6.75 L4,6.75 L8.20782307,6.75 Z" id="Rectangle-9" stroke="#000000" stroke-width="1.5"></path>
                    <mask id="mask-2" fill="white">
                        <use xlink:href="#path-1"></use>
                    </mask>
                    <g id="Mask"></g>
                    <path d="M11.2078231,3.75 L13.3851916,5.75 L20,5.75 C20.6213203,5.75 21.1838203,6.00183983 21.5909903,6.40900974 C21.9981602,6.81617966 22.25,7.37867966 22.25,8 L22.25,8 L22.25,15 C22.25,15.6213203 21.9981602,16.1838203 21.5909903,16.5909903 C21.1838203,16.9981602 20.6213203,17.25 20,17.25 L20,17.25 L7,17.25 C6.37867966,17.25 5.81617966,16.9981602 5.40900974,16.5909903 C5.00183983,16.1838203 4.75,15.6213203 4.75,15 L4.75,15 L4.75,6 C4.75,5.37867966 5.00183983,4.81617966 5.40900974,4.40900974 C5.81617966,4.00183983 6.37867966,3.75 7,3.75 L7,3.75 L11.2078231,3.75 Z" id="Rectangle-9" stroke="#000000" stroke-width="1.5" mask="url(#mask-2)"></path>
                </g>
            </g>
        </g>
    </g>
</svg>