<?xml version="1.0" encoding="UTF-8"?>
<svg width="30px" height="31px" viewBox="0 0 30 31" version="1.1" xmlns="http://www.w3.org/2000/svg" xmlns:xlink="http://www.w3.org/1999/xlink">
    <title>forward</title>
    <g id="Demo-Sample" stroke="none" stroke-width="1" fill="none" fill-rule="evenodd">
        <g id="画板备份-2" transform="translate(-152.000000, -170.000000)" stroke="#000000" stroke-width="1.5625">
            <g id="ic/favourites/ic_favourites" transform="translate(152.000000, 171.000000)">
                <path d="M20.8905308,3.35371627 L25.7095998,7.63138702 L27.9246609,9.59767522 L20.8905308,15.8557206 L20.8905308,11.9915159 C18.0208037,12.0556973 15.1386858,12.2897964 12.6765278,13.7533542 C11.521785,14.4394173 10.4952772,15.2827996 9.57880093,16.2565501 C9.14975946,16.7128279 8.77312483,17.2104954 8.41257725,17.7199216 L8.519,17.571 L8.53072811,17.5272836 C8.67054298,16.9767167 8.80905111,16.5198024 8.96770064,16.0844274 L9.06547891,15.8252101 C9.95709404,13.5374235 11.4994124,11.5749166 13.4353451,10.1258 C15.557483,8.53730182 18.1535503,7.56494181 20.8905308,7.46146118 L20.8905308,7.46146118 L20.8905308,3.35371627 Z" id="Fill-1"></path>
                <g id="email" transform="translate(2.187500, 4.687500)" stroke-linecap="round" stroke-linejoin="round">
                    <path d="M14.1432054,0 L2.60416667,0 C1.16592513,2.64200684e-16 -1.50840142e-15,1.16592513 0,2.60416667 L0,18.0208333 C1.76133789e-16,19.4590749 1.16592513,20.625 2.60416667,20.625 L23.0208333,20.625 C24.4590749,20.625 25.625,19.4590749 25.625,18.0208333 L25.625,10.3266958 L25.625,10.3266958" id="路径"></path>
                </g>
            </g>
        </g>
    </g>
</svg>