<?xml version="1.0" encoding="UTF-8"?>
<svg width="24px" height="24px" viewBox="0 0 24 24" version="1.1" xmlns="http://www.w3.org/2000/svg" xmlns:xlink="http://www.w3.org/1999/xlink">
    <title>Public/ic_public_folder</title>
    <g id="Demo-Sample" stroke="none" stroke-width="1" fill="none" fill-rule="evenodd">
        <g id="画板" transform="translate(-198.000000, -265.000000)">
            <g id="编组" transform="translate(198.000000, 265.000000)" fill="#000000">
                <path d="M18,2 C20.209139,2 22,3.790861 22,6 L22,18 C22,20.209139 20.209139,22 18,22 L6,22 C3.790861,22 2,20.209139 2,18 L2,6 C2,3.790861 3.790861,2 6,2 L18,2 Z" id="路径" fill-opacity="0.2" fill-rule="nonzero"></path>
                <path d="M8.25,7.25 C7.28350169,7.25 6.5,8.03350169 6.5,9 C6.5,9.96649831 7.28350169,10.75 8.25,10.75 C9.21649831,10.75 10,9.96649831 10,9 C10,8.03350169 9.21649831,7.25 8.25,7.25 Z M17.5863647,11.830408 C17.9278857,11.9339218 18.2139555,12.0894067 18.8006866,12.6674148 L20.3533478,14.2198191 C20.4471216,14.3135774 20.4998237,14.4407465 20.4998237,14.5733517 L20.4984379,16.5799462 L20.4984379,16.5799462 L20.4860088,17.0194859 C20.4488341,17.8324571 20.3381205,18.2669066 20.1603517,18.6491137 L20.0659094,18.8373743 L20.0659094,18.8373743 C19.7826603,19.3670039 19.3670039,19.7826603 18.8373743,20.0659094 L18.757846,20.1074014 C18.2529022,20.3638654 17.7099686,20.5 16.3336866,20.5 L7.66631345,20.5 L7.20797976,20.4942144 L7.20797976,20.4942144 L6.76997214,20.4741894 C5.96518516,20.4199694 5.56514425,20.2811786 5.16262573,20.0659094 C4.6329961,19.7826603 4.21733967,19.3670039 3.93409064,18.8373743 L3.84897594,18.6612512 C3.83296011,18.6256467 3.81602925,18.5869169 3.79818336,18.5450618 C3.75805942,18.4511841 3.77912161,18.3423608 3.85131193,18.27017 L6.68705939,15.4344051 C7.12348943,14.997975 7.39879972,14.7855837 7.64427199,14.6606258 L7.80494041,14.5887747 C7.85798352,14.5681426 7.91099383,14.5503291 7.96541201,14.5338352 C8.31913016,14.4266244 8.68086984,14.4266244 9.03458799,14.5338352 L9.1070521,14.5569472 L9.17859739,14.5824604 C9.46397916,14.6903961 9.74599755,14.8754064 10.2489099,15.370842 L10.3632243,15.4851003 C10.9493275,16.070348 11.898856,16.0702419 12.4848285,15.4848634 L15.2388361,12.730978 C15.869235,12.100579 16.1634705,11.9376187 16.5171887,11.830408 C16.8709069,11.7231973 17.2326465,11.7231973 17.5863647,11.830408 Z" id="形状结合" fill-opacity="0.25"></path>
            </g>
            <rect id="Public/ic_public_folder" x="198" y="265" width="24" height="24"></rect>
        </g>
    </g>
</svg>