<?xml version="1.0" encoding="UTF-8"?>
<svg width="16px" height="16px" viewBox="0 0 16 16" version="1.1" xmlns="http://www.w3.org/2000/svg" xmlns:xlink="http://www.w3.org/1999/xlink">
    <title>Public/ic_public_lock_filled</title>
    <defs>
        <path d="M8,1.33333333 C9.63844476,1.33333333 10.9701136,2.64679722 10.999504,4.27822246 L11,4.33333333 L11,6 C12.1045695,6 13,6.8954305 13,8 L13,12.3333333 C13,13.4379028 12.1045695,14.3333333 11,14.3333333 L5,14.3333333 C3.8954305,14.3333333 3,13.4379028 3,12.3333333 L3,8 C3,6.8954305 3.8954305,6 5,6 L5,4.33333333 C5,2.67647908 6.34314575,1.33333333 8,1.33333333 Z M8,8.83333333 C7.26362033,8.83333333 6.66666667,9.430287 6.66666667,10.1666667 C6.66666667,10.9030463 7.26362033,11.5 8,11.5 C8.73637967,11.5 9.33333333,10.9030463 9.33333333,10.1666667 C9.33333333,9.430287 8.73637967,8.83333333 8,8.83333333 Z M8,2.66666667 C7.09512668,2.66666667 6.35867805,3.38777846 6.33397363,4.28668253 L6.333,5.99933333 L9.666,5.99933333 L9.66666667,4.33333333 C9.66666667,3.41285875 8.92047458,2.66666667 8,2.66666667 Z" id="path-1"></path>
    </defs>
    <g id="Demo-Sample" stroke="none" stroke-width="1" fill="none" fill-rule="evenodd">
        <g id="画板" transform="translate(-330.000000, -268.000000)">
            <g id="Public/ic_public_lock_filled" transform="translate(330.000000, 268.310000)">
                <mask id="mask-2" fill="white">
                    <use xlink:href="#path-1"></use>
                </mask>
                <g id="形状结合" fill-rule="nonzero"></g>
                <g id="编组" mask="url(#mask-2)" fill="#000000" fill-opacity="0.6">
                    <g id="Symbol/color-light/colorPrimary">
                        <rect id="color/#000000" x="0" y="0" width="16" height="16"></rect>
                    </g>
                </g>
            </g>
        </g>
    </g>
</svg>