<?xml version="1.0" encoding="UTF-8"?>
<svg width="24px" height="24px" viewBox="0 0 24 24" version="1.1" xmlns="http://www.w3.org/2000/svg" xmlns:xlink="http://www.w3.org/1999/xlink">
    <title>Public/ic_public_folder 2</title>
    <g id="Demo-Sample" stroke="none" stroke-width="1" fill="none" fill-rule="evenodd">
        <g id="画板" transform="translate(-240.000000, -265.000000)" fill="#0A59F7">
            <g id="编组" transform="translate(240.000000, 265.000000)">
                <path d="M8.6277704,2.5 L16.590287,2.5 L17.1639919,2.50573235 C18.6957725,2.53815527 19.4567843,2.70760588 20.1055302,3.00099869 L20.33091,3.10967418 C20.3680538,3.12863739 20.4050772,3.14802414 20.4421143,3.16783176 C21.2569291,3.60359949 21.8964005,4.24307093 22.3321682,5.05788574 L22.4459422,5.28101661 C22.7900981,5.99387056 22.980395,6.79857399 22.9985643,8.61445738 L22.9985643,14.0769164 L22.9985643,14.0769164 L22.986204,14.5687544 C22.9373105,15.7920119 22.7593044,16.337196 22.4657346,16.8861238 C22.2201431,17.34534 21.8936745,17.7349391 21.4942613,18.0469886 L21.4985008,17.7985782 L21.4985008,17.7985782 L21.4985008,8.76898935 C21.4828731,7.5238355 21.3429795,6.85435009 20.9811141,6.15943347 C20.6264537,5.47835293 20.1000248,4.9376962 19.4368674,4.57345034 C18.7384113,4.1898163 18.0663405,4.0490982 16.7768869,4.04092211 L4.8458278,4.04054054 C4.67164175,4.04054054 4.50841225,4.04275922 4.35468879,4.04744528 C4.67147849,3.628281 5.0717147,3.288081 5.54630859,3.03426541 C5.61492458,2.99756918 5.68348206,2.96267863 5.75331273,2.92962023 L5.96795593,2.83596793 C6.41020809,2.65976206 6.94623491,2.55046611 7.86367807,2.51379596 L8.35551601,2.5015395 C8.44323035,2.50051427 8.53392632,2.5 8.6277704,2.5 Z" id="路径" fill-opacity="0.6"></path>
                <path d="M5.4867991,5.06756757 L16.0132009,5.06756757 C17.2980367,5.06756757 17.9084651,5.17773776 18.4024605,5.3869903 L18.608671,5.48270391 C18.6423936,5.49965644 18.6759288,5.51710642 18.70948,5.5350498 C19.2798504,5.84008721 19.7274804,6.28771722 20.0325178,6.85808759 L20.1342249,7.06082971 C20.3097147,7.4381367 20.4245252,7.8627187 20.4732782,8.60522584 L20.4932872,9.04338624 C20.4955194,9.12221019 20.4971976,9.2040683 20.4983178,9.28916392 L20.5,17.0132009 C20.5,17.1967489 20.4977516,17.3665334 20.4932872,17.5241813 L20.4732782,17.9623417 C20.4245252,18.7048489 20.3097147,19.1294309 20.1342249,19.5067379 L20.0325178,19.70948 L20.0325178,19.70948 C19.7274804,20.2798504 19.2798504,20.7274804 18.70948,21.0325178 L18.5067379,21.1342249 C18.1294309,21.3097147 17.7048489,21.4245252 16.9623417,21.4732782 L16.5241813,21.4932872 C16.4453574,21.4955194 16.3634993,21.4971976 16.2784036,21.4983178 L5.4867991,21.5 C5.30325112,21.5 5.13346657,21.4977516 4.97581868,21.4932872 L4.53765827,21.4732782 C3.79515113,21.4245252 3.37056913,21.3097147 2.99326214,21.1342249 L2.79052002,21.0325178 L2.79052002,21.0325178 C2.22014965,20.7274804 1.77251964,20.2798504 1.46748223,19.70948 L1.36577509,19.5067379 C1.19028534,19.1294309 1.07547484,18.7048489 1.02672185,17.9623417 L1.00671279,17.5241813 C1.00224837,17.3665334 1,17.1967489 1,17.0132009 L1,9.55436667 C1,9.37081869 1.00224837,9.20103413 1.00671279,9.04338624 L1.02672185,8.60522584 C1.07547484,7.8627187 1.19028534,7.4381367 1.36577509,7.06082971 L1.46748223,6.85808759 L1.46748223,6.85808759 C1.77251964,6.28771722 2.22014965,5.84008721 2.79052002,5.5350498 L2.891329,5.48270391 L2.891329,5.48270391 L3.0975395,5.3869903 C3.59153487,5.17773776 4.20196327,5.06756757 5.4867991,5.06756757 Z" id="Rectangle-9"></path>
            </g>
        </g>
    </g>
</svg>