<?xml version="1.0" encoding="UTF-8"?>
<svg width="24px" height="25px" viewBox="0 0 24 25" version="1.1" xmlns="http://www.w3.org/2000/svg" xmlns:xlink="http://www.w3.org/1999/xlink">
    <title>ic/INBOX</title>
    <defs>
        <path d="M19,2 C20.6568542,2 22,3.34314575 22,5 L22,19 C22,20.6568542 20.6568542,22 19,22 L5,22 C3.34314575,22 2,20.6568542 2,19 L2,5 C2,3.34314575 3.34314575,2 5,2 L19,2 Z M3.5,19 C3.5,19.8284271 4.17157288,20.5 5,20.5 L19,20.5 C19.8284271,20.5 20.5,19.8284271 20.5,19 L20.5,16 L15.6718744,16 C15.3238727,17.7119365 13.808316,19 11.997,19 C10.185684,19 8.67012733,17.7119365 8.32212559,16 L3.5,16 L3.5,19 Z M19,3.5 L5,3.5 C4.17157288,3.5 3.5,4.17157288 3.5,5 L3.5,14.5 L9.747,14.5 L9.747,15.25 C9.747,16.4922967 10.7569672,17.5 11.997,17.5 C13.2370328,17.5 14.247,16.4922967 14.247,15.25 L14.247,14.5 L20.5,14.5 L20.5,5 C20.5,4.17157288 19.8284271,3.5 19,3.5 Z" id="path-1"></path>
    </defs>
    <g id="Demo-Sample" stroke="none" stroke-width="1" fill="none" fill-rule="evenodd">
        <g id="画板备份-2" transform="translate(-69.000000, -283.000000)">
            <g id="ic/favourites/ic_favourites" transform="translate(69.000000, 283.500000)">
                <g id="symbol/frame/symbol_grid24-copy-2"></g>
                <mask id="mask-2" fill="white">
                    <use xlink:href="#path-1"></use>
                </mask>
                <use id="Combined-Shape" fill="#000000" fill-rule="nonzero" xlink:href="#path-1"></use>
                <rect id="color/#000000" fill="#3F56EA" mask="url(#mask-2)" x="0" y="0" width="24" height="24"></rect>
            </g>
        </g>
    </g>
</svg>