<?xml version="1.0" encoding="UTF-8"?>
<svg width="24px" height="24px" viewBox="0 0 24 24" version="1.1" xmlns="http://www.w3.org/2000/svg" xmlns:xlink="http://www.w3.org/1999/xlink">
    <title>编组</title>
    <defs>
        <path d="M10.6911795,1.30107415 C11.5177131,0.900330583 12.4822869,0.900330583 13.3088205,1.30107415 L13.3088205,1.30107415 L19.7316154,4.41515652 C20.5073719,4.79128086 21,5.57760856 21,6.43973826 L21,6.43973826 L21,11.25 C21,16.5158971 17.6459225,21.1101108 12.7508862,22.7973636 C12.7379871,22.8018097 12.7161694,22.8089491 12.685433,22.8187818 C12.2393172,22.9614959 11.759784,22.9614277 11.3137088,22.8185866 L11.3137088,22.8185866 L11.2767569,22.806645 L11.2767569,22.806645 L11.2519921,22.7983767 C6.35549222,21.1121681 3,16.5172142 3,11.25 L3,11.25 L3,6.43973826 C3,5.57760856 3.49262814,4.79128086 4.26838461,4.41515652 L4.26838461,4.41515652 Z M12.6544103,2.65079531 C12.2411435,2.45042353 11.7588565,2.45042353 11.3455897,2.65079531 L11.3455897,2.65079531 L4.92279487,5.76487768 C4.66420938,5.89025246 4.5,6.15236169 4.5,6.43973826 L4.5,6.43973826 L4.5,11.25 C4.5,13.306318 5.08294865,15.2457214 6.10883718,16.8954286 C6.16805226,16.5722513 6.25148905,16.3022524 6.3591187,16.0833333 C6.77029622,15.2469969 7.83866878,12.75 12.0017996,12.75 C16.1649304,12.75 17.2514993,15.2469969 17.6444805,16.0833333 C17.7479928,16.3036266 17.8289012,16.575643 17.8872059,16.8993825 C18.892194,15.287859 19.4730678,13.3972004 19.4990866,11.3909195 L19.4990866,11.3909195 L19.5,11.25 L19.5,6.43973826 C19.5,6.15236169 19.3357906,5.89025246 19.0772051,5.76487768 L19.0772051,5.76487768 Z M11.875,6.12 C13.5346157,6.12 14.88,7.46538433 14.88,9.125 C14.88,10.7846157 13.5346157,12.13 11.875,12.13 C10.2153843,12.13 8.87,10.7846157 8.87,9.125 C8.87,7.46538433 10.2153843,6.12 11.875,6.12 Z" id="path-1"></path>
    </defs>
    <g id="首页" stroke="none" stroke-width="1" fill="none" fill-rule="evenodd">
        <g id="编组">
            <rect id="color/#000000" x="0" y="0" width="24" height="24"></rect>
            <mask id="mask-2" fill="white">
                <use xlink:href="#path-1"></use>
            </mask>
            <use id="形状结合" fill="#00BFC9" fill-rule="nonzero" xlink:href="#path-1"></use>
        </g>
    </g>
</svg>