<?xml version="1.0" encoding="UTF-8"?>
<svg width="32px" height="32px" viewBox="0 0 32 32" version="1.1" xmlns="http://www.w3.org/2000/svg" xmlns:xlink="http://www.w3.org/1999/xlink">
    <title>安全</title>
    <g id="SR000HFO4F-【天枢】恢复出厂设置" stroke="none" stroke-width="1" fill="none" fill-rule="evenodd">
        <g id="安全">
            <circle id="椭圆形" fill="#61CFBE" cx="16" cy="16" r="16"></circle>
            <path d="M14.9529436,7.44044614 C15.6141705,7.11985129 16.3858295,7.11985129 17.0470564,7.44044614 L17.0470564,7.44044614 L22.1852923,9.93171203 C22.8058975,10.2326115 23.2,10.8616737 23.2,11.5513774 L23.2,11.5513774 L23.2,15.3995868 C23.2,19.6123045 20.516738,23.2876754 16.6007089,24.6374777 C16.5903825,24.6410371 16.5729111,24.6467541 16.5482947,24.6546288 C16.1913939,24.7688001 15.8077594,24.7687425 15.4508929,24.654464 L15.4508929,24.654464 L15.4213823,24.6448952 L15.4213823,24.6448952 L15.4015937,24.6382882 C11.4843938,23.2893213 8.8,19.6133582 8.8,15.3995868 L8.8,15.3995868 L8.8,11.5513774 C8.8,10.8616737 9.19410252,10.2326115 9.81470769,9.93171203 L9.81470769,9.93171203 Z M19.6148232,12.81441 L15.2928932,17.1363401 C15.1366835,17.2925498 14.8834175,17.2925498 14.7272078,17.1363401 L12.7952273,15.2043595 L12.7654352,15.1761259 C12.4455507,14.8911677 11.9639203,14.9042957 11.6638564,15.2043595 C11.351437,15.516779 11.351437,16.023311 11.6638564,16.3357304 L13.9156918,18.5863775 C14.5471031,19.1765595 15.5310573,19.1609177 16.1414214,18.5505536 L20.7744277,13.9159889 C21.0593859,13.5961043 21.046258,13.1144739 20.7461941,12.81441 C20.4337746,12.5019906 19.9272427,12.5019906 19.6148232,12.81441 Z" id="形状结合" fill="#FFFFFF" fill-rule="nonzero"></path>
            <path d="M18.1711418,10.1190042 C17.729314,10.1190042 17.3711418,10.4771764 17.3711418,10.9190042 L17.3711418,17.0311362 C17.3711418,17.2520501 17.1920557,17.4311362 16.9711418,17.4311362 L14.2389087,17.4311362 L14.2389087,17.4311362 L14.1978784,17.4322382 C13.77019,17.4569348 13.4389087,17.8067818 13.4389087,18.2311362 C13.4389087,18.672964 13.7970809,19.0311362 14.2389087,19.0311362 L17.4226446,19.030296 C18.2864415,19.0011425 18.9711418,18.2943213 18.9711418,17.4311362 L18.9700398,10.8779739 C18.9453432,10.4502855 18.5954962,10.1190042 18.1711418,10.1190042 Z" id="路径" fill-opacity="0.4" fill="#FFFFFF" fill-rule="nonzero" transform="translate(16.205025, 14.575070) rotate(-315.000000) translate(-16.205025, -14.575070) "></path>
        </g>
    </g>
</svg>