<?xml version="1.0" encoding="UTF-8"?>
<svg width="24px" height="24px" viewBox="0 0 24 24" version="1.1" xmlns="http://www.w3.org/2000/svg" xmlns:xlink="http://www.w3.org/1999/xlink">
    <title>ic/unread</title>
    <defs>
        <path d="M17.5357075,2.99899996 C17.2741084,3.45092515 17.0984026,3.95878109 17.0309168,4.50024088 L4,4.5 C3.93675337,4.5 3.87442099,4.50391435 3.8132319,4.511514 L11.1223213,11.9628431 C11.6057926,12.455638 12.3972127,12.4631963 12.8900076,11.979725 C12.893936,11.9758596 12.893936,11.9758596 12.8978417,11.9719712 L17.6650818,7.20947787 C17.9444365,7.63028297 18.3013099,7.99516906 18.7153259,8.28375999 L13.9577251,13.0334075 L13.9404903,13.050466 C12.8563415,14.1141028 11.1152172,14.0974746 10.0515804,13.0133258 L2.61184278,5.43061172 C2.53975176,5.60618163 2.5,5.79844855 2.5,6 L2.5,18 C2.5,18.8284271 3.17157288,19.5 4,19.5 L20,19.5 C20.8284271,19.5 21.5,18.8284271 21.5,18 L21.5003541,8.96900895 C22.0414774,8.90148285 22.5490273,8.72586947 23.0007156,8.46445715 L23,18 C23,19.6568542 21.6568542,21 20,21 L4,21 C2.34314575,21 1,19.6568542 1,18 L1,6 C1,4.34314575 2.34314575,3 4,3 L17.5357075,2.99899996 Z M21,2 C22.6568542,2 24,3.34314575 24,5 C24,6.65685425 22.6568542,8 21,8 C19.3431458,8 18,6.65685425 18,5 C18,3.34314575 19.3431458,2 21,2 Z" id="path-1"></path>
    </defs>
    <g id="Demo-Sample" stroke="none" stroke-width="1" fill="none" fill-rule="evenodd" opacity="0.600000024">
        <g id="画板备份-2" transform="translate(-69.000000, -339.000000)">
            <g id="ic/favourites/ic_favourites" transform="translate(69.000000, 339.500000)">
                <g id="symbol/frame/symbol_grid24-copy-2"></g>
                <mask id="mask-2" fill="white">
                    <use xlink:href="#path-1"></use>
                </mask>
                <g id="Combined-Shape"></g>
                <rect id="color/#000000" fill="#000000" mask="url(#mask-2)" x="0" y="0" width="24" height="24"></rect>
                <g id="email" mask="url(#mask-2)">
                    <g transform="translate(1.000000, 3.000000)"></g>
                </g>
            </g>
        </g>
    </g>
</svg>