<?xml version="1.0" encoding="UTF-8"?>
<svg width="28px" height="24px" viewBox="0 0 28 24" version="1.1" xmlns="http://www.w3.org/2000/svg" xmlns:xlink="http://www.w3.org/1999/xlink">
    <title>形状结合</title>
    <g id="Demo-Sample" stroke="none" stroke-width="1" fill="none" fill-rule="evenodd" opacity="0.9">
        <g id="画板备份-2" transform="translate(-110.000000, -114.000000)" fill="#000000" fill-rule="nonzero">
            <path d="M123.636111,130.420732 C124.925898,130.420732 125.971477,131.403521 125.971477,132.615854 C125.971477,133.828186 124.925898,134.810976 123.636111,134.810976 C122.346324,134.810976 121.300745,133.828186 121.300745,132.615854 C121.300745,131.403521 122.346324,130.420732 123.636111,130.420732 Z M132.413194,125.25 C133.770829,125.25 134.852802,126.322128 134.852802,127.625 L134.852583,128.812 L135.136806,128.8125 C135.68909,128.8125 136.136806,129.260215 136.136806,129.8125 L136.136806,133.75 C136.136806,134.302285 135.68909,134.75 135.136806,134.75 L129.689583,134.75 C129.137299,134.75 128.689583,134.302285 128.689583,133.75 L128.689583,129.8125 C128.689583,129.260215 129.137299,128.8125 129.689583,128.8125 L129.973583,128.812 L129.973587,127.625 C129.973587,126.322128 131.05556,125.25 132.413194,125.25 Z M123.636111,125.780488 C125.107452,125.780488 126.513346,126.165768 127.721361,126.864353 C127.411325,127.183817 127.207796,127.606472 127.166395,128.075696 L127.158578,128.253727 L127.159405,128.310087 C126.140216,127.648491 124.920255,127.280488 123.636111,127.280488 C121.833195,127.280488 120.156806,128.005889 118.984958,129.250702 C118.692933,129.56091 118.18866,129.589867 117.858633,129.315379 C117.528607,129.04089 117.4978,128.5669 117.789825,128.256692 C119.261463,126.693422 121.371239,125.780488 123.636111,125.780488 Z M132.413194,126.4375 C131.785249,126.4375 131.257591,126.960357 131.257591,127.625 L131.257583,128.812 L133.568583,128.812 L133.568798,127.625 C133.568798,126.960357 133.04114,126.4375 132.413194,126.4375 Z M123.636111,121.390244 C126.271032,121.390244 128.77534,122.162657 130.852099,123.549321 L130.722114,123.578893 C130.186116,123.716904 129.724669,124.02763 129.401532,124.444539 C127.702249,123.441574 125.716619,122.890244 123.636111,122.890244 C120.570756,122.890244 117.71137,124.087081 115.665226,126.156634 C115.365238,126.460054 114.860363,126.47744 114.537558,126.195467 C114.214752,125.913494 114.196255,125.438938 114.496244,125.135518 C116.841253,122.76368 120.122556,121.390244 123.636111,121.390244 Z M123.636111,117 C128.401742,117 132.857081,118.837747 136.073517,122.022896 C136.376896,122.323323 136.363728,122.798035 136.044107,123.083195 C135.724486,123.368355 135.219444,123.355979 134.916066,123.055551 C131.997901,120.165773 127.959488,118.5 123.636111,118.5 C119.313241,118.5 115.275258,120.16538 112.357153,123.054564 C112.053745,123.354966 111.548702,123.367298 111.229109,123.082111 C110.909516,122.796923 110.896395,122.322209 111.199803,122.021808 C114.416174,118.837314 118.871038,117 123.636111,117 Z" id="形状结合"></path>
        </g>
    </g>
</svg>