<?xml version="1.0" encoding="UTF-8"?>
<svg width="28px" height="24px" viewBox="0 0 28 24" version="1.1" xmlns="http://www.w3.org/2000/svg" xmlns:xlink="http://www.w3.org/1999/xlink">
    <title>形状结合 2</title>
    <g id="Demo-Sample" stroke="none" stroke-width="1" fill="none" fill-rule="evenodd" opacity="0.9">
        <g id="画板备份-2" transform="translate(-157.000000, -114.000000)" fill="#000000" fill-rule="nonzero">
            <path d="M171.273902,131.193878 C172.590377,131.193878 173.658012,132.196256 173.65951,133.433673 C173.65951,134.670346 172.593202,135.672999 171.277519,135.673468 C169.961837,135.673937 168.894721,134.672045 168.893722,133.435372 C168.892724,132.1987 169.95822,131.195286 171.273902,131.193878 Z M181.500856,126.24947 C182.231464,126.656094 182.687794,127.381893 182.720982,128.171705 L182.721563,128.341837 L182.721563,129.553571 L182.944111,129.553571 C183.503701,129.553571 183.964402,129.951541 184.023342,130.462795 L184.029712,130.57398 L184.029712,134.591837 C184.029712,135.117822 183.606317,135.550857 183.0624,135.606257 L182.944111,135.612245 L177.516107,135.612245 C176.956517,135.612245 176.495816,135.214276 176.436876,134.703021 L176.430506,134.591837 L176.430506,130.57398 C176.430506,130.047994 176.853901,129.614959 177.397819,129.559559 L177.516107,129.553571 L177.741369,129.553571 L177.74195,128.171705 C177.775138,127.381893 178.231468,126.656094 178.962076,126.24947 C179.74487,125.813801 180.718062,125.813801 181.500856,126.24947 Z M171.273902,126.459176 C172.754109,126.459745 174.204646,126.849422 175.461607,127.584184 C175.119728,127.919728 174.912646,128.354363 174.871933,128.813897 L174.864527,128.987245 L174.864527,129.045918 C172.226439,127.337214 168.646368,127.748952 166.524398,130.005102 C166.330474,130.210165 166.034891,130.302407 165.748993,130.247081 C165.463096,130.191755 165.230317,129.997266 165.138343,129.736877 C165.046369,129.476488 165.109173,129.189757 165.303097,128.984694 C166.815205,127.376019 168.990149,126.456069 171.273902,126.459176 Z M179.6117,127.302171 C179.269586,127.499883 179.060152,127.845273 179.048647,128.217086 L179.052232,128.341837 L179.052232,129.553571 L181.4107,129.553571 L181.4107,128.341837 C181.447683,127.923849 181.231359,127.521851 180.851232,127.302171 C180.471105,127.08249 179.991827,127.08249 179.6117,127.302171 Z M178.639704,124.181122 C178.109895,124.289974 177.634776,124.559076 177.285509,124.944491 L177.160573,125.094388 C172.637791,122.445296 166.758543,123.178197 163.134609,126.841837 C162.936806,127.042343 162.640227,127.128429 162.356588,127.067667 C162.072949,127.006906 161.845344,126.808527 161.759508,126.547259 C161.673671,126.285991 161.742645,126.001527 161.940448,125.80102 C166.287757,121.402529 173.428335,120.709863 178.639704,124.181122 Z M183.96729,122.632653 C184.196845,122.825232 184.291296,123.122996 184.21142,123.402292 C184.131545,123.681588 183.890987,123.894705 183.589645,123.953141 C183.288302,124.011576 182.977652,123.905349 182.786699,123.678571 C178.855144,119.790962 173.016699,118.188489 167.492015,119.457085 L167.124192,119.545918 L167.124192,117.964286 C173.22277,116.576715 179.645396,118.356861 183.96729,122.632653 Z M161.294516,116.254197 L161.489923,116.255102 L161.720614,116.255102 L161.720614,117.489796 L161.644622,117.489796 C161.138006,117.462829 160.643569,117.642221 160.28762,117.982143 C159.938031,118.360607 159.726845,118.834512 159.685112,119.334184 C159.984618,118.994425 160.4316,118.800298 160.900985,118.806122 C161.483359,118.787141 162.025314,119.085041 162.293268,119.571429 C162.6123,120.117864 162.771502,120.734034 162.754649,121.357143 C162.773395,122.008252 162.556156,122.646018 162.13857,123.165816 C161.745949,123.652034 161.126637,123.928826 160.477601,123.908163 C159.795954,123.924193 159.15294,123.611407 158.773207,123.079082 C158.371194,122.508158 158.151675,121.842699 158.137816,121.161292 L158.140845,120.933673 L158.140845,120.354592 C158.140845,119.152211 158.430338,118.169218 159.009325,117.405612 C159.500402,116.752861 160.266894,116.340694 161.10094,116.265519 L161.294516,116.254197 Z M160.428749,120.005102 C160.249669,120.000714 160.07601,120.063071 159.945656,120.178571 C159.846836,120.26711 159.766105,120.371437 159.70701,120.486347 L159.655258,120.604592 L159.655258,121.132653 C159.629906,121.535167 159.704227,121.937723 159.872378,122.308673 C159.964626,122.533186 160.189256,122.685287 160.445033,122.696429 C160.702133,122.688602 160.93048,122.539855 161.028543,122.316327 C161.184986,122.018575 161.260514,121.68903 161.248377,121.357143 C161.263234,121.019547 161.185672,120.684016 161.023115,120.382653 C160.91986,120.158948 160.688084,120.01172 160.428749,120.005102 Z M164.65445,116.382653 C164.714406,116.382653 164.765281,116.419201 164.783232,116.469888 L164.79015,116.510204 L164.79015,117.530612 L165.875751,117.530612 C165.935707,117.530612 165.986582,117.56716 166.004533,117.617847 L166.011451,117.658163 L166.011451,118.423469 C166.011451,118.479825 165.972568,118.527644 165.918643,118.544518 L165.875751,118.55102 L164.79015,118.55102 L164.79015,119.571429 C164.79015,119.627784 164.751267,119.675603 164.697342,119.692477 L164.65445,119.69898 L163.840249,119.69898 C163.780293,119.69898 163.729419,119.662431 163.711467,119.611745 L163.704549,119.571429 L163.704549,118.55102 L162.618948,118.55102 C162.558992,118.55102 162.508118,118.514472 162.490166,118.463785 L162.483248,118.423469 L162.483248,117.658163 C162.483248,117.601808 162.522132,117.553988 162.576057,117.537115 L162.618948,117.530612 L163.704549,117.530612 L163.704549,116.510204 C163.704549,116.453848 163.743433,116.406029 163.797358,116.389156 L163.840249,116.382653 L164.65445,116.382653 Z" id="形状结合"></path>
        </g>
    </g>
</svg>