<?xml version="1.0" encoding="UTF-8"?>
<svg width="28px" height="24px" viewBox="0 0 28 24" version="1.1" xmlns="http://www.w3.org/2000/svg" xmlns:xlink="http://www.w3.org/1999/xlink">
    <title>形状结合 3</title>
    <g id="Demo-Sample" stroke="none" stroke-width="1" fill="none" fill-rule="evenodd" opacity="0.9">
        <g id="画板备份-2" transform="translate(-201.000000, -113.000000)" fill="#000000" fill-rule="nonzero">
            <path d="M214.7,129.420732 C215.989787,129.420732 217.035366,130.403521 217.035366,131.615854 C217.035366,132.828186 215.989787,133.810976 214.7,133.810976 C213.410213,133.810976 212.364634,132.828186 212.364634,131.615854 C212.364634,130.403521 213.410213,129.420732 214.7,129.420732 Z M225.338889,131.75 C225.926458,131.75 226.402778,132.197715 226.402778,132.75 C226.402778,133.302285 225.926458,133.75 225.338889,133.75 C224.751319,133.75 224.275,133.302285 224.275,132.75 C224.275,132.197715 224.751319,131.75 225.338889,131.75 Z M225.338889,124.75 C225.926458,124.75 226.402778,125.197715 226.402778,125.75 C226.402778,125.798629 226.399085,125.846447 226.391948,125.89322 L226.136806,130 C226.136806,130.414214 225.779566,130.75 225.338889,130.75 C224.934935,130.75 224.601092,130.467846 224.548256,130.101771 L224.540972,130 L224.282086,125.866044 C224.277406,125.827973 224.275,125.78925 224.275,125.75 C224.275,125.197715 224.751319,124.75 225.338889,124.75 Z M214.7,124.780488 C216.963978,124.780488 219.073002,125.692698 220.544597,127.254898 C220.836729,127.565017 220.806086,128.039016 220.476154,128.313606 C220.146222,128.588195 219.64194,128.559392 219.349807,128.249273 C218.177994,127.005312 216.502205,126.280488 214.7,126.280488 C212.897084,126.280488 211.220695,127.005889 210.048847,128.250702 C209.756822,128.56091 209.252549,128.589867 208.922522,128.315379 C208.592495,128.04089 208.561689,127.5669 208.853714,127.256692 C210.325352,125.693422 212.435128,124.780488 214.7,124.780488 Z M214.7,120.390244 C218.213228,120.390244 221.494255,121.763423 223.839233,124.134876 C224.139245,124.438275 224.120786,124.912832 223.798002,125.194828 C223.475219,125.476824 222.970343,125.459473 222.670331,125.156073 C220.624215,123.086857 217.765071,121.890244 214.7,121.890244 C211.634645,121.890244 208.775258,123.087081 206.729115,125.156634 C206.429126,125.460054 205.924252,125.47744 205.601447,125.195467 C205.278641,124.913494 205.260144,124.438938 205.560132,124.135518 C207.905142,121.76368 211.186445,120.390244 214.7,120.390244 Z M214.7,116 C219.465631,116 223.92097,117.837747 227.137406,121.022896 C227.440785,121.323323 227.427617,121.798035 227.107996,122.083195 C226.788374,122.368355 226.283333,122.355979 225.979955,122.055551 C223.06179,119.165773 219.023376,117.5 214.7,117.5 C210.37713,117.5 206.339147,119.16538 203.421042,122.054564 C203.117634,122.354966 202.612591,122.367298 202.292998,122.082111 C201.973405,121.796923 201.960284,121.322209 202.263692,121.021808 C205.480063,117.837314 209.934927,116 214.7,116 Z" id="形状结合"></path>
        </g>
    </g>
</svg>