<?xml version="1.0" encoding="UTF-8"?>
<svg xmlns="http://www.w3.org/2000/svg" xmlns:xlink="http://www.w3.org/1999/xlink" width="24" height="24" viewBox="0 0 24 24" version="1.1">
    <title>Public/ic_public_devices_phone</title>
    <defs>
        <path d="M14.6541722,0.5 C15.9914503,0.5 16.4763797,0.639238417 16.9652686,0.900699056 C17.4541574,1.16215969 17.8378403,1.54584256 18.0993009,2.03473144 L18.139566,2.11201637 C18.3750326,2.57702661 18.5,3.07893275 18.5,4.3458278 L18.5,7.75 L18.5,7.75 C18.7761424,7.75 19,7.97385763 19,8.25 L19,10.25 C19,10.5261424 18.7761424,10.75 18.5,10.75 L18.5,19.6541722 L18.4988454,19.858363 C18.4850048,21.0425065 18.3470005,21.5021107 18.0993009,21.9652686 C17.8378403,22.4541574 17.4541574,22.8378403 16.9652686,23.0993009 L16.8879836,23.139566 C16.4229734,23.3750326 15.9210673,23.5 14.6541722,23.5 L9.3458278,23.5 L9.14163701,23.4988454 C7.95749353,23.4850048 7.49788934,23.3470005 7.03473144,23.0993009 C6.54584256,22.8378403 6.16215969,22.4541574 5.90069906,21.9652686 L5.86043397,21.8879836 C5.62496744,21.4229734 5.5,20.9210673 5.5,19.6541722 L5.5,4.3458278 C5.5,3.00854969 5.63923842,2.52362033 5.90069906,2.03473144 C6.16215969,1.54584256 6.54584256,1.16215969 7.03473144,0.900699056 L7.11201637,0.860433975 C7.57702661,0.624967443 8.07893275,0.5 9.3458278,0.5 L14.6541722,0.5 Z M14.7425421,2 L9.3458278,2 L9.09166532,2.00148376 C8.29802929,2.01149642 8.02266732,2.07338571 7.74212973,2.22341885 C7.51464355,2.34507979 7.34507979,2.51464355 7.22341885,2.74212973 C7.0633835,3.04136983 7.00363626,3.33472121 7.00016218,4.25745794 L7.00016218,19.7425421 L7.00154908,19.9134477 C7.01176302,20.7031551 7.07370836,20.977936 7.22341885,21.2578703 C7.34507979,21.4853564 7.51464355,21.6549202 7.74212973,21.7765811 C8.02266732,21.9266143 8.29802929,21.9885036 9.09166532,21.9985162 L9.3458278,22 L14.6541722,22 C15.6469501,22 15.9492789,21.9416176 16.2578703,21.7765811 C16.4853564,21.6549202 16.6549202,21.4853564 16.7765811,21.2578703 C16.9266143,20.9773327 16.9885036,20.7019707 16.9985162,19.9083347 L17,19.6541722 L17,4.3458278 C17,3.35304992 16.9416176,3.05072108 16.7765811,2.74212973 C16.6549202,2.51464355 16.4853564,2.34507979 16.2578703,2.22341885 C15.9586302,2.0633835 15.6652788,2.00363626 14.7425421,2 Z" id="_path-1"/>
    </defs>
    <g id="_Public/ic_public_devices_phone" stroke="none" stroke-width="1" fill="none" fill-rule="evenodd">
        <mask id="_mask-2" fill="white">
            <use xlink:href="#_path-1"/>
        </mask>
        <use id="_形状结合" fill="#000000" fill-rule="nonzero" xlink:href="#_path-1"/>
    </g>
</svg>