<?xml version="1.0" encoding="UTF-8"?>
<svg xmlns="http://www.w3.org/2000/svg" xmlns:xlink="http://www.w3.org/1999/xlink" width="24" height="24" viewBox="0 0 24 24" version="1.1">
    <title>Public/ic_public_shuffle</title>
    <defs>
        <path d="M20.75,14.5 C21.1642136,14.5 21.5,14.8357864 21.5,15.25 C21.5,15.6642136 21.1642136,16 20.75,16 L5.74910678,15.9991068 L5.75,17.2928932 C5.75,17.5690356 5.52614237,17.7928932 5.25,17.7928932 C5.11739176,17.7928932 4.9902148,17.7402148 4.89644661,17.6464466 L2.60355339,15.3535534 C2.40829124,15.1582912 2.40829124,14.8417088 2.60355339,14.6464466 C2.69732158,14.5526784 2.82449854,14.5 2.95710678,14.5 L20.75,14.5 Z M18.75,6.45710678 C18.8826082,6.45710678 19.0097852,6.5097852 19.1035534,6.60355339 L21.3964466,8.89644661 C21.5917088,9.09170876 21.5917088,9.40829124 21.3964466,9.60355339 C21.3026784,9.69732158 21.1755015,9.75 21.0428932,9.75 L3.25,9.75 C2.83578644,9.75 2.5,9.41421356 2.5,9 C2.5,8.58578644 2.83578644,8.25 3.25,8.25 L18.2491068,8.24910678 L18.25,6.95710678 C18.25,6.68096441 18.4738576,6.45710678 18.75,6.45710678 Z" id="_path-1"/>
    </defs>
    <g id="_Public/ic_public_shuffle" stroke="none" stroke-width="1" fill="none" fill-rule="evenodd">
        <mask id="_mask-2" fill="white">
            <use xlink:href="#_path-1"/>
        </mask>
        <use id="_合并形状" fill="#ffffff" xlink:href="#_path-1"/>
    </g>
</svg>