<?xml version="1.0" encoding="UTF-8"?>
<svg xmlns="http://www.w3.org/2000/svg" xmlns:xlink="http://www.w3.org/1999/xlink" width="24" height="24" viewBox="0 0 24 24" version="1.1">
    <title>Public/ic_public_view_list</title>
    <defs>
        <path d="M3.5,17.5 C4.05228475,17.5 4.5,17.9477153 4.5,18.5 C4.5,19.0522847 4.05228475,19.5 3.5,19.5 C2.94771525,19.5 2.5,19.0522847 2.5,18.5 C2.5,17.9477153 2.94771525,17.5 3.5,17.5 Z M21.25,17.75 C21.6642136,17.75 22,18.0857864 22,18.5 C22,18.9142136 21.6642136,19.25 21.25,19.25 L7.75,19.25 C7.33578644,19.25 7,18.9142136 7,18.5 C7,18.0857864 7.33578644,17.75 7.75,17.75 L21.25,17.75 Z M3.5,11 C4.05228475,11 4.5,11.4477153 4.5,12 C4.5,12.5522847 4.05228475,13 3.5,13 C2.94771525,13 2.5,12.5522847 2.5,12 C2.5,11.4477153 2.94771525,11 3.5,11 Z M21.25,11.25 C21.6642136,11.25 22,11.5857864 22,12 C22,12.4142136 21.6642136,12.75 21.25,12.75 L7.75,12.75 C7.33578644,12.75 7,12.4142136 7,12 C7,11.5857864 7.33578644,11.25 7.75,11.25 L21.25,11.25 Z M3.5,4.5 C4.05228475,4.5 4.5,4.94771525 4.5,5.5 C4.5,6.05228475 4.05228475,6.5 3.5,6.5 C2.94771525,6.5 2.5,6.05228475 2.5,5.5 C2.5,4.94771525 2.94771525,4.5 3.5,4.5 Z M21.25,4.75 C21.6642136,4.75 22,5.08578644 22,5.5 C22,5.91421356 21.6642136,6.25 21.25,6.25 L7.75,6.25 C7.33578644,6.25 7,5.91421356 7,5.5 C7,5.08578644 7.33578644,4.75 7.75,4.75 L21.25,4.75 Z" id="_path-1"/>
    </defs>
    <g id="_Public/ic_public_view_list" stroke="none" stroke-width="1" fill="none" fill-rule="evenodd">
        <mask id="_mask-2" fill="white">
            <use xlink:href="#_path-1"/>
        </mask>
        <use id="_形状结合" fill="#000000" fill-rule="nonzero" xlink:href="#_path-1"/>
    </g>
</svg>