<?xml version="1.0" encoding="UTF-8"?>
<svg xmlns:xlink="http://www.w3.org/1999/xlink"
     height="24px"
     version="1.1"
     viewBox="0 0 24 24"
     width="24px"
     xmlns="http://www.w3.org/2000/svg">
    <title>icon_Previous</title>
    <defs>
        <path
            d="M19.2659255,6.65608891 C19.4195201,6.92212253 19.5003811,7.22389975 19.5003811,7.53108891 L19.5003811,16.4689111 C19.5003811,17.4354094 18.7168794,18.2189111 17.7503811,18.2189111 C17.4431919,18.2189111 17.1414147,18.1380501 16.8753811,17.9844555 L9.135,13.5155445 C8.29798791,13.0322953 8.01120639,11.9620121 8.49445554,11.125 C8.64805012,10.8589664 8.86896638,10.6380501 9.135,10.4844555 L16.8753811,6.01554446 C17.7123931,5.5322953 18.7826764,5.81907682 19.2659255,6.65608891 Z M5,6.25 C5.55228475,6.25 6,6.69771525 6,7.25 L6,7.25 L6,16.75 C6,17.3022847 5.55228475,17.75 5,17.75 C4.44771525,17.75 4,17.3022847 4,16.75 L4,16.75 L4,7.25 C4,6.69771525 4.44771525,6.25 5,6.25 Z"
            id="path-1"></path>
    </defs>
    <g
        fill="none"
        fill-rule="evenodd"
        id="icon_Previous"
        stroke="none"
        stroke-width="1">
        <mask
            fill="white"
            id="mask-2">
            <use xlink:href="#path-1"></use>
        </mask>
        <use
            fill="#000000"
            id="形状结合"
            xlink:href="#path-1"></use>
    </g>
</svg>