<svg width="120"
     height="120"
     viewBox="0 0 120 120"
     fill="none"
     xmlns="http://www.w3.org/2000/svg">
    <g id="EmptyPage">
        <g id="&#231;&#188;&#150;&#231;&#187;&#132;">
            <path
                id="Subtract"
                opacity="0.1"
                fill-rule="evenodd"
                clip-rule="evenodd"
                d="M29.25 96.5151H72.2577C72.3751 96.5151 72.511 96.5194 72.6627 96.5241C74.4425 96.5802 78.4008 96.705 80.2104 90.7878C86.6691 92.1757 90.7499 94.2175 90.7499 96.494C90.7499 100.675 76.9826 104.065 59.9999 104.065C43.0456 104.065 29.2961 100.687 29.25 96.5151Z"
                fill="#A1A7B3"/>
            <g id="&#229;&#144;&#141;&#229;&#141;&#149;">
                <path
                    id="&#229;&#189;&#162;&#231;&#138;&#182;&#231;&#187;&#147;&#229;&#144;&#136;"
                    opacity="0.6"
                    fill-rule="evenodd"
                    clip-rule="evenodd"
                    d="M98.1178 24.8395C98.1269 24.6711 98.1315 24.5014 98.1315 24.3306C98.1315 19.4232 94.3239 15.4449 89.627 15.4449C84.9301 15.4449 81.1226 19.4232 81.1226 24.3306C81.1226 24.5014 81.1272 24.6711 81.1363 24.8395H81.1226V33.8146H98.1315V24.8395H98.1178Z"
                    fill="#A1A7B3"/>
                <path
                    id="Subtract_2"
                    opacity="0.3"
                    fill-rule="evenodd"
                    clip-rule="evenodd"
                    d="M25.3335 25.494V80.0809H62.7296C62.7296 80.0809 62.1642 88.6388 64.9158 92.2244C67.6674 95.8099 73.064 96.4939 73.064 96.4939H25.3335V96.5148H72.258C72.3753 96.5148 72.5112 96.5191 72.6629 96.5238C74.7389 96.5893 79.7791 96.7481 80.9157 87.3024C72.7587 85.4289 66.675 78.1243 66.675 69.3987C66.675 60.5912 72.8734 53.2314 81.146 51.4436V27.584C81.146 27.584 81.1228 25.9679 81.146 24.3124C81.1691 22.657 81.6575 20.8552 83.067 18.9024C84.1819 17.3578 86.3876 15.5966 89.7541 15.5966H32.8567C32.8567 15.5966 25.3335 17.7782 25.3335 25.494Z"
                    fill="#A1A7B3"/>
                <path
                    id="&#231;&#159;&#169;&#229;&#189;&#162;"
                    opacity="0.2"
                    fill-rule="evenodd"
                    clip-rule="evenodd"
                    d="M5.60571 80.0811H62.7295C62.7295 80.0811 62.1641 88.639 64.9157 92.2245C67.6673 95.81 73.0638 96.494 73.0638 96.494C73.0638 96.494 14.2742 96.494 13.2834 96.494C12.2927 96.494 9.13545 94.2418 7.33515 90.673C5.53485 87.1042 5.60571 80.0811 5.60571 80.0811Z"
                    fill="#A1A7B3"/>
                <path
                    id="&#231;&#159;&#169;&#229;&#189;&#162;_2"
                    opacity="0.4"
                    fill-rule="evenodd"
                    clip-rule="evenodd"
                    d="M5.60571 80.0811H62.7295C62.7295 80.0811 62.1641 88.639 64.9157 92.2245C67.6673 95.81 73.0638 96.494 73.0638 96.494C73.0638 96.494 14.2742 96.494 13.2834 96.494C12.2927 96.494 9.13545 94.2418 7.33515 90.673C5.53485 87.1042 5.60571 80.0811 5.60571 80.0811Z"
                    fill="#A1A7B3"/>
                <path
                    id="&#229;&#189;&#162;&#231;&#138;&#182;&#231;&#187;&#147;&#229;&#144;&#136;_2"
                    opacity="0.4"
                    fill-rule="evenodd"
                    clip-rule="evenodd"
                    d="M85.0444 87.7683C95.1897 87.7683 103.414 79.544 103.414 69.3987C103.414 59.2534 95.1897 51.0291 85.0444 51.0291C74.8992 51.0291 66.6748 59.2534 66.6748 69.3987C66.6748 79.544 74.8992 87.7683 85.0444 87.7683ZM85.0444 83.6862C92.9352 83.6862 99.3319 77.2895 99.3319 69.3987C99.3319 61.5079 92.9352 55.1112 85.0444 55.1112C77.1537 55.1112 70.7569 61.5079 70.7569 69.3987C70.7569 77.2895 77.1537 83.6862 85.0444 83.6862Z"
                    fill="#A1A7B3"/>
            </g>
            <g id="&#230;&#148;&#190;&#229;&#164;&#167;&#233;&#149;&#156;">
                <path
                    id="&#229;&#189;&#162;&#231;&#138;&#182;&#231;&#187;&#147;&#229;&#144;&#136;_3"
                    opacity="0.6"
                    fill-rule="evenodd"
                    clip-rule="evenodd"
                    d="M96.7891 83.5217L100.401 87.1335C100.018 88.0792 100.21 89.2035 100.977 89.9704L110.218 99.2116C111.241 100.235 112.899 100.235 113.922 99.2116L114.175 98.9589C115.198 97.936 115.198 96.2775 114.175 95.2545L104.934 86.0133C104.167 85.2464 103.042 85.0544 102.097 85.4376L98.5295 81.8704C97.9859 82.4577 97.4045 83.0094 96.7891 83.5217Z"
                    fill="#A1A7B3"/>
                <path
                    id="&#229;&#189;&#162;&#231;&#138;&#182;&#231;&#187;&#147;&#229;&#144;&#136;_4"
                    opacity="0.5"
                    fill-rule="evenodd"
                    clip-rule="evenodd"
                    d="M85.0444 87.7661C95.1897 87.7661 103.414 79.5418 103.414 69.3965C103.414 59.2512 95.1897 51.0269 85.0444 51.0269C74.8992 51.0269 66.6748 59.2512 66.6748 69.3965C66.6748 79.5418 74.8992 87.7661 85.0444 87.7661ZM85.0444 83.684C92.9352 83.684 99.3319 77.2873 99.3319 69.3965C99.3319 61.5057 92.9352 55.109 85.0444 55.109C77.1537 55.109 70.7569 61.5057 70.7569 69.3965C70.7569 77.2873 77.1537 83.684 85.0444 83.684Z"
                    fill="#A1A7B3"/>
                <circle
                    id="&#230;&#164;&#173;&#229;&#156;&#134;&#229;&#189;&#162;"
                    opacity="0.2"
                    cx="85.0443"
                    cy="69.3964"
                    r="14.2875"
                    fill="#A1A7B3"/>
                <rect
                    id="&#231;&#159;&#169;&#229;&#189;&#162;_3"
                    opacity="0.2"
                    x="95.4277"
                    y="66.4165"
                    width="8.16429"
                    height="1.36071"
                    rx="0.680357"
                    transform="rotate(105 95.4277 66.4165)"
                    fill="#A1A7B3"/>
                <rect
                    id="&#231;&#159;&#169;&#229;&#189;&#162;&#229;&#164;&#135;&#228;&#187;&#189;"
                    opacity="0.2"
                    x="92.8584"
                    y="63.6255"
                    width="4.08214"
                    height="1.36071"
                    rx="0.680357"
                    transform="rotate(105 92.8584 63.6255)"
                    fill="#A1A7B3"/>
            </g>
        </g>
        <path
            id="&#229;&#189;&#162;&#231;&#138;&#182;&#231;&#187;&#147;&#229;&#144;&#136;_5"
            opacity="0.3"
            fill-rule="evenodd"
            clip-rule="evenodd"
            d="M58.9986 49.951C58.3984 49.4988 58.2785 48.6456 58.7308 48.0454C59.183 47.4452 60.0362 47.3253 60.6364 47.7776L66.3114 52.0541C66.9116 52.5063 67.0315 53.3595 66.5793 53.9597C66.127 54.5599 65.2738 54.6798 64.6736 54.2275L58.9986 49.951ZM53.9954 58.6329C53.2986 58.3514 52.962 57.5583 53.2435 56.8616C53.525 56.1648 54.3181 55.8281 55.0149 56.1097L61.6034 58.7716C62.3002 59.0531 62.6368 59.8462 62.3553 60.543C62.0738 61.2397 61.2807 61.5764 60.584 61.2949L53.9954 58.6329ZM65.238 40.9444C64.6458 41.4071 64.5408 42.2622 65.0034 42.8544L69.3783 48.454C69.841 49.0462 70.6961 49.1512 71.2883 48.6885C71.8805 48.2258 71.9855 47.3707 71.5228 46.7785L67.1479 41.1789C66.6853 40.5867 65.8301 40.4817 65.238 40.9444Z"
            fill="#A1A7B3"/>
    </g>
</svg>
