<svg width="24"
     height="24"
     viewBox="0 0 24 24"
     fill="none"
     xmlns="http://www.w3.org/2000/svg">
    <g id="ic_delete_plane">
        <g id="Public/ic_public_delete">
            <path
                id="&#229;&#189;&#162;&#231;&#138;&#182;&#231;&#187;&#147;&#229;&#144;&#136;"
                fill-rule="evenodd"
                clip-rule="evenodd"
                d="M14.9897 4.5H21.25C21.6642 4.5 22 4.83579 22 5.25C22 5.64942 21.6878 5.97591 21.2941 5.99873L21.25 6H20.25H20.0029H3.99565H3.75H2.75C2.33579 6 2 5.66421 2 5.25C2 4.85058 2.31223 4.52408 2.70593 4.50127L2.75 4.5H9.01027C9.13731 2.96012 10.4273 1.75 12 1.75C13.5727 1.75 14.8627 2.96012 14.9897 4.5ZM5.28104 19.0681L4.09401 7H19.9045L18.7175 19.0681C18.5539 20.7318 17.1548 22 15.4831 22H8.51543C6.84372 22 5.44468 20.7318 5.28104 19.0681ZM10 11.75C9.58579 11.75 9.25 12.0858 9.25 12.5V18.5C9.25 18.9142 9.58579 19.25 10 19.25C10.4142 19.25 10.75 18.9142 10.75 18.5V12.5C10.75 12.0858 10.4142 11.75 10 11.75ZM13.25 12.5C13.25 12.0858 13.5858 11.75 14 11.75C14.4142 11.75 14.75 12.0858 14.75 12.5V18.5C14.75 18.9142 14.4142 19.25 14 19.25C13.5858 19.25 13.25 18.9142 13.25 18.5V12.5Z"
                fill="white"/>
        </g>
    </g>
</svg>
