<?xml version="1.0" standalone="no"?><!DOCTYPE svg PUBLIC "-//W3C//DTD SVG 1.1//EN" "http://www.w3.org/Graphics/SVG/1.1/DTD/svg11.dtd"><svg t="1687248649208" class="icon" viewBox="0 0 1024 1024" version="1.1" xmlns="http://www.w3.org/2000/svg" p-id="25104" xmlns:xlink="http://www.w3.org/1999/xlink" width="200" height="200"><path d="M842.666667 411.733333c0 68.266667 2.133333 128 8.533333 174.933334l38.4-40.533334c72.533333-76.8 117.333333-174.933333 125.866667-281.6 2.133333-14.933333-6.4-32-21.333334-38.4-10.666667-6.4-25.6-6.4-36.266666 0-12.8 6.4-19.2 17.066667-21.333334 29.866667-8.533333 57.6-42.666667 106.666667-93.866666 132.266667v23.466666zM177.066667 588.8c4.266667-49.066667 8.533333-106.666667 8.533333-174.933333 0-6.4 0-14.933333 2.133333-21.333334-51.2-27.733333-85.333333-76.8-93.866666-132.266666-2.133333-12.8-10.666667-23.466667-21.333334-29.866667-12.8-6.4-25.6-6.4-36.266666 0-14.933333 8.533333-21.333333 23.466667-21.333334 38.4 8.533333 104.533333 53.333333 204.8 125.866667 281.6l36.266667 38.4z" fill="#F0F0F0" p-id="25105"></path><path d="M842.666667 411.733333c0-181.333333-147.2-328.533333-328.533334-328.533333S183.466667 230.4 183.466667 411.733333C183.466667 800 91.733333 832 125.866667 832c81.066667 0 98.133333-40.533333 147.2-40.533333s66.133333 40.533333 123.733333 40.533333c57.6 0 66.133333-40.533333 115.2-40.533333s57.6 40.533333 115.2 40.533333 74.666667-40.533333 123.733333-40.533333 68.266667 40.533333 147.2 40.533333c36.266667 0-55.466667-32-55.466666-420.266667z" fill="#F0F0F0" p-id="25106"></path><path d="M768 744.533333c-53.333333 0-70.4 40.533333-132.266667 40.533334-61.866667 0-70.4-40.533333-123.733333-40.533334s-61.866667 40.533333-123.733333 40.533334-78.933333-40.533333-132.266667-40.533334c-44.8 0-66.133333 27.733333-121.6 38.4-12.8 42.666667-23.466667 49.066667-8.533333 49.066667 81.066667 0 98.133333-40.533333 147.2-40.533333s66.133333 40.533333 123.733333 40.533333c57.6 0 66.133333-40.533333 115.2-40.533333s57.6 40.533333 115.2 40.533333 74.666667-40.533333 123.733333-40.533333 68.266667 40.533333 147.2 40.533333c14.933333 0 4.266667-6.4-10.666666-51.2-55.466667-8.533333-76.8-36.266667-119.466667-36.266667z" fill="#E0E0E0" p-id="25107"></path><path d="M413.866667 149.333333a98.133333 25.6 0 1 0 196.266666 0 98.133333 25.6 0 1 0-196.266666 0Z" fill="#FFFFFF" p-id="25108"></path><path d="M138.666667 908.8a373.333333 32 0 1 0 746.666666 0 373.333333 32 0 1 0-746.666666 0Z" fill="#45413C" opacity=".15" p-id="25109"></path><path d="M275.2 494.933333a40.533333 25.6 0 1 0 81.066667 0 40.533333 25.6 0 1 0-81.066667 0Z" fill="#FFAA54" p-id="25110"></path><path d="M275.2 494.933333a40.533333 25.6 0 1 0 81.066667 0 40.533333 25.6 0 1 0-81.066667 0Z" fill="#E0E0E0" p-id="25111"></path><path d="M669.866667 494.933333a40.533333 25.6 0 1 0 81.066666 0 40.533333 25.6 0 1 0-81.066666 0Z" fill="#E0E0E0" p-id="25112"></path><path d="M652.8 379.733333m-57.6 0a57.6 57.6 0 1 0 115.2 0 57.6 57.6 0 1 0-115.2 0Z" fill="#656769" p-id="25113"></path><path d="M652.8 354.133333c25.6 0 46.933333 17.066667 55.466667 40.533334 2.133333-4.266667 2.133333-10.666667 2.133333-17.066667 0-32-25.6-57.6-57.6-57.6s-57.6 25.6-57.6 57.6c0 6.4 2.133333 10.666667 2.133333 17.066667 8.533333-23.466667 29.866667-40.533333 55.466667-40.533334z" fill="#525252" p-id="25114"></path><path d="M373.333333 354.133333m-83.2 0a83.2 83.2 0 1 0 166.4 0 83.2 83.2 0 1 0-166.4 0Z" fill="#656769" p-id="25115"></path><path d="M373.333333 313.6c38.4 0 70.4 25.6 78.933334 61.866667 2.133333-6.4 2.133333-12.8 2.133333-21.333334 0-44.8-36.266667-83.2-83.2-83.2s-83.2 36.266667-83.2 83.2c0 6.4 2.133333 14.933333 2.133333 21.333334 12.8-36.266667 44.8-61.866667 83.2-61.866667z" fill="#525252" p-id="25116"></path><path d="M390.4 535.466667c8.533333 132.266667 83.2 181.333333 113.066667 196.266666 6.4 4.266667 14.933333 4.266667 23.466666 0 29.866667-17.066667 104.533333-64 113.066667-196.266666 0-12.8-8.533333-23.466667-23.466667-23.466667h-202.666666c-14.933333-2.133333-25.6 10.666667-23.466667 23.466667z" fill="#FFB0CA" p-id="25117"></path><path d="M514.133333 618.666667c0-25.6 74.666667-17.066667 74.666667 8.533333v106.666667c0 40.533333-34.133333 74.666667-74.666667 74.666666s-74.666667-34.133333-74.666666-74.666666v-106.666667c0-25.6 74.666667-34.133333 74.666666-8.533333z" fill="#FF6242" p-id="25118"></path><path d="M514.133333 618.666667c0-25.6-74.666667-17.066667-74.666666 8.533333v32c0-25.6 147.2-25.6 147.2 0v-32c2.133333-25.6-72.533333-34.133333-72.533334-8.533333z" fill="#FF866E" p-id="25119"></path></svg>