<?xml version="1.0" standalone="no"?><!DOCTYPE svg PUBLIC "-//W3C//DTD SVG 1.1//EN" "http://www.w3.org/Graphics/SVG/1.1/DTD/svg11.dtd"><svg t="1687248475239" class="icon" viewBox="0 0 1024 1024" version="1.1" xmlns="http://www.w3.org/2000/svg" p-id="16730" xmlns:xlink="http://www.w3.org/1999/xlink" width="200" height="200"><path d="M246.6 745l-40.5-40.5c-13.6-13.6-13.6-35.7 0-49.3 13.6-13.6 35.7-13.6 49.3 0l40.5 40.5c13.6 13.6 13.6 35.7 0 49.3-13.5 13.5-35.7 13.5-49.3 0zM777.4 745l40.5-40.5c13.6-13.6 13.6-35.7 0-49.3-13.6-13.6-35.7-13.6-49.3 0l-40.5 40.5c-13.6 13.6-13.6 35.7 0 49.3 13.5 13.5 35.7 13.5 49.3 0z" fill="#47515E" p-id="16731"></path><path d="M252.4 698.7c-15.3-15.3-15.3-40.3 0-55.6l99.6-99.6c15.3-15.3 40.3-15.3 55.6 0 15.3 15.3 15.3 40.3 0 55.6L308 698.7c-15.3 15.3-40.3 15.3-55.6 0zM771.6 698.7c15.3-15.3 15.3-40.3 0-55.6L672 543.5c-15.3-15.3-40.3-15.3-55.6 0-15.3 15.3-15.3 40.3 0 55.6l99.6 99.6c15.3 15.3 40.3 15.3 55.6 0z" fill="#5C6A7C" p-id="16732"></path><path d="M716.5 906.1h-409c0-27.6 3.5-57.2 9.3-79h1.4c24.3-85.8 82-125.1 82-125.1h223.7s57.7 39.3 82 125.1h1.3c5.7 21.8 9.3 51.4 9.3 79z" fill="#64C4F6" p-id="16733"></path><path d="M507.3 720l-0.3 0.5-0.3-0.5h0.3z" fill="#EFEAEB" p-id="16734"></path><path d="M507.3 720l-0.3 0.5-0.3-0.5h0.3z" fill="#EFEAEB" p-id="16735"></path><path d="M507.3 720l-0.3 0.5-0.3-0.5h0.3z" fill="#EFEAEB" p-id="16736"></path><path d="M507.3 720l-0.3 0.5-0.3-0.5h0.3z" fill="#EFEAEB" p-id="16737"></path><path d="M521.4 702c-1.2 13.7-4.4 28.2-9.4 42.9-12.8 38-37.8 78-73.2 113.4-19 19-39.4 35-60 47.8h-71.2c0-27.6 3.5-57.2 9.3-79h1.4c24.3-85.8 82-125.1 82-125.1h121.1z" fill="#E96E67" p-id="16738"></path><path d="M716.5 906.1h-71.2c-20.7-12.7-41-28.8-60-47.8-35.4-35.4-60.4-75.5-73.2-113.4-5-14.8-8.2-29.2-9.4-42.9H624s57.7 39.3 82 125.1h1.3c5.6 21.8 9.2 51.4 9.2 79z" fill="#E96E67" p-id="16739"></path><path d="M532 805.4c0 41.5-20.9 75.1-20.9 75.1s-20.9-33.6-20.9-75.1 20.9-75.1 20.9-75.1 20.9 33.6 20.9 75.1z" fill="#F7867F" p-id="16740"></path><path d="M249.7 470.5m-76.8 0a76.8 76.8 0 1 0 153.6 0 76.8 76.8 0 1 0-153.6 0Z" fill="#F7DBD0" p-id="16741"></path><path d="M774.3 470.5m-76.8 0a76.8 76.8 0 1 0 153.6 0 76.8 76.8 0 1 0-153.6 0Z" fill="#F7DBD0" p-id="16742"></path><path d="M512 459.5m-269.3 0a269.3 269.3 0 1 0 538.6 0 269.3 269.3 0 1 0-538.6 0Z" fill="#FFECE3" p-id="16743"></path><path d="M326.5 558.2a49.8 39.5 0 1 0 99.6 0 49.8 39.5 0 1 0-99.6 0Z" fill="#FFD7DF" p-id="16744"></path><path d="M597.9 558.2a49.8 39.5 0 1 0 99.6 0 49.8 39.5 0 1 0-99.6 0Z" fill="#FFD7DF" p-id="16745"></path><path d="M436.3 526.3c-7 0-12.7-5.7-12.7-12.7v-10.2c0-7 5.7-12.7 12.7-12.7s12.7 5.7 12.7 12.7v10.2c0 7.1-5.7 12.7-12.7 12.7zM587.7 526.3c-7 0-12.7-5.7-12.7-12.7v-10.2c0-7 5.7-12.7 12.7-12.7s12.7 5.7 12.7 12.7v10.2c0 7.1-5.7 12.7-12.7 12.7zM512 597.7c-16.4 0-31.9-7.1-42.7-19.4-4.6-5.3-4-13.3 1.2-17.9 5.3-4.6 13.3-4 17.9 1.2 6 6.8 14.6 10.8 23.6 10.8s17.6-3.9 23.6-10.7c4.6-5.3 12.6-5.8 17.9-1.2 5.3 4.6 5.8 12.6 1.2 17.9-10.8 12.2-26.3 19.3-42.7 19.3z" fill="#450064" p-id="16746"></path><path d="M812.6 394c-4.1 0.1-8.3 0.2-12.4 0.2-83.8 0-162.2-23.1-229.1-63.4-69.3 44.5-151.8 70.4-240.4 70.4-40.9 0-80.6-5.5-118.3-15.9 11-87.8 60.1-164.1 130.1-211.9C390.9 140.3 449.3 121 512 121s121 19.4 169.4 52.4c15.7 10.7 30.4 22.9 43.8 36.3 48.4 48.3 80.5 112.7 87.4 184.3z" fill="#5C6A7C" p-id="16747"></path><path d="M800.4 340.1c0 6.4-0.2 12.7-0.6 18.9H224.2c-0.4-6.2-0.6-12.5-0.6-18.9 0-19.1 1.8-37.7 5.4-55.8C255 151.7 371.8 51.6 512 51.6s257.1 100.1 283 232.7c3.6 18.1 5.4 36.7 5.4 55.8z" fill="#FCE170" p-id="16748"></path><path d="M851 321.7c0 10.3-4.2 19.6-11 26.4s-16.1 11-26.4 11H210.3c-20.5 0-37.3-16.8-37.3-37.3 0-10.3 4.2-19.6 11-26.4s16.1-11 26.4-11h603.4c20.4-0.1 37.2 16.7 37.2 37.3z" fill="#F5C73E" p-id="16749"></path><path d="M793.2 635c-4.6 0-9.1 0.7-13.5 2.1-0.3-0.4-0.7-0.7-1-1.1l-29.3-29.3c9.7-15.7 17.9-32.2 24.3-49.4h0.6c47.9 0 86.8-38.9 86.8-86.8 0-30.3-15.6-57.1-39.3-72.6 0.6-1.5 0.9-3.2 0.8-4.8-0.7-8-1.8-16-3.3-24.3 10.5-1.2 20.2-6 27.8-13.6 9-9 13.9-20.9 13.9-33.5 0-12.7-5-24.6-14-33.6-8.9-8.9-20.8-13.8-33.2-13.7H803c-14.3-63.8-49.7-121.7-100.4-163.9C649.2 66 581.4 41.6 511.8 41.6c-69.6 0-137.3 24.5-190.7 68.9-50.6 42.1-86 100.1-100.4 163.9h-10.4c-12.6 0-24.5 4.9-33.5 13.9s-13.9 20.9-13.9 33.5c0 24.2 18.3 44.2 41.8 47-0.9 5-1.7 10.2-2.3 15.3-0.5 4.3 1.8 8.4 5.6 10.2-7.3 4-14 9-20 15.1-16.2 16.4-25.1 38.1-25.1 61.1 0 47.9 38.9 86.8 86.8 86.8h0.7c6.4 17.1 14.5 33.6 24.3 49.4L245.3 636c-0.4 0.4-0.7 0.7-1 1.1-4.4-1.4-8.9-2.1-13.5-2.1-12 0-23.2 4.7-31.7 13.1-8.5 8.5-13.1 19.7-13.1 31.7s4.7 23.3 13.1 31.7l40.4 40.4c8.3 8.4 19.8 13.2 31.7 13.2 12 0 23.2-4.7 31.7-13.2 11.8-11.9 15.8-29.6 11-45.2 0.4-0.3 0.7-0.7 1.1-1l25.7-25.7c12.3 9.6 25.4 18.1 39.1 25.5-0.8 0.7-1.7 1.5-2.5 2.3l-0.1 0.1c-0.4 0.3-0.7 0.6-1.1 1l-0.7 0.7c-0.1 0.1-0.3 0.2-0.4 0.3-0.3 0.3-0.6 0.5-0.9 0.8l-3.5 3.5c-0.4 0.4-1 1-1.6 1.8l-0.5 0.5-0.1 0.1-0.1 0.1-0.2 0.2c-2.4 2.6-4.9 5.4-7.5 8.4-1.1 1.3-2.3 2.7-3.5 4.3-1.1 1.3-2.1 2.6-3.1 3.8-0.7 0.8-1.3 1.6-1.8 2.3l-0.3 0.4c-0.2 0.2-0.3 0.5-0.5 0.7-0.2 0.2-0.3 0.4-0.4 0.6-0.1 0.2-0.2 0.3-0.4 0.5-0.1 0.2-0.3 0.3-0.4 0.5l-0.9 1.2c-0.3 0.3-0.5 0.7-0.8 1.1-0.4 0.5-0.7 1-1.1 1.5l-0.6 0.9c-0.6 0.8-1.1 1.6-1.6 2.3l-0.4 0.6-0.1 0.1c-0.5 0.8-1 1.6-1.6 2.4l-1.8 2.7c-0.4 0.5-0.7 1.1-1 1.6-0.2 0.3-0.4 0.7-0.6 1-0.4 0.6-0.7 1.1-1.1 1.7-0.2 0.3-0.4 0.7-0.6 1-0.6 1-1.2 1.9-1.6 2.7-0.3 0.5-0.6 1-0.8 1.5-0.1 0.1-0.1 0.2-0.2 0.4l-0.9 1.5c-0.3 0.5-0.5 0.9-0.8 1.4-0.1 0.3-0.3 0.5-0.5 0.8-0.1 0.2-0.2 0.4-0.3 0.5-1.6 2.9-3.3 5.9-4.9 9.1 0 0 0 0.1-0.1 0.1-0.2 0.3-0.3 0.6-0.5 0.9-0.2 0.5-0.5 0.9-0.7 1.4l-0.9 1.8c-0.1 0.1-0.1 0.3-0.2 0.4-0.1 0.3-0.3 0.6-0.5 0.9-0.2 0.4-0.4 0.8-0.6 1.3-0.2 0.3-0.3 0.6-0.4 0.9 0 0.1-0.1 0.1-0.1 0.2-0.3 0.6-0.5 1.1-0.8 1.7-0.1 0.2-0.2 0.5-0.3 0.7l-0.3 0.6c-0.1 0.1-0.1 0.2-0.2 0.3l-0.3 0.7c-0.4 0.8-0.8 1.7-1.2 2.8-0.3 0.6-0.5 1.3-0.8 1.9-0.2 0.6-0.5 1.1-0.7 1.7 0 0 0 0.1-0.1 0.1-0.4 0.9-0.8 1.9-1.2 3 0 0.1-0.1 0.2-0.1 0.3l-1.2 3c-0.1 0.2-0.1 0.3-0.2 0.5l-0.1 0.3c-0.1 0.4-0.4 0.9-0.6 1.5-0.1 0.4-0.3 0.7-0.4 1.1 0 0.1-0.1 0.3-0.1 0.4-0.3 0.6-0.5 1.2-0.6 1.5v0.1c-0.1 0.2-0.1 0.4-0.2 0.6l-0.6 1.8c-0.1 0.2-0.1 0.4-0.2 0.6 0 0.1-0.1 0.3-0.1 0.4-0.1 0.2-0.1 0.3-0.2 0.5 0 0.1-0.1 0.1-0.1 0.2-0.2 0.5-0.4 1-0.5 1.5-0.1 0.2-0.1 0.3-0.1 0.4-0.1 0.3-0.2 0.5-0.3 0.8v0.1c-0.2 0.4-0.3 0.8-0.4 1.2-0.1 0.2-0.1 0.5-0.2 0.7-0.2 0.5-0.3 1-0.5 1.5-0.1 0.3-0.2 0.5-0.2 0.8-0.1 0.2-0.1 0.4-0.2 0.6-0.2 0.5-0.4 1.1-0.5 1.8-0.1 0.5-0.3 1-0.4 1.4-1.3 1.2-2.3 2.8-2.8 4.7-6 22.7-9.6 53.2-9.6 81.6v0.6c0 5.5 4.5 10 10 10h71.2c1.1 0 2.3-0.2 3.3-0.6h260.2c1 0.3 2 0.5 3.1 0.5h71.2c5.5 0 10-4.5 10-10v-0.4-0.1c0-28-3.6-58.5-9.6-81.5-0.5-1.8-1.4-3.3-2.6-4.6-17.8-59-51-96.4-69.9-113.9 13.6-7.3 26.6-15.8 38.9-25.4l25.7 25.7c0.4 0.4 0.8 0.7 1.2 1.1-4.9 15.7-0.8 33.3 11 45.1 8.3 8.4 19.8 13.2 31.7 13.2 12 0 23.2-4.7 31.7-13.1l40.5-40.5c17.3-17.5 17.3-45.9 0-63.4-8.8-8.7-20.1-13.4-32.1-13.4zM276.1 387.8c-7.7-2.4-15.6-3.8-23.5-4-1-0.2-1.9-0.2-2.9-0.1-8.8-1.7-17.6-3.6-26.2-5.8 0.5-3 1-5.9 1.5-8.8h243c-44.1 14.7-90 22.1-137.3 22.1-18.4 0-36.8-1.2-54.6-3.4z m522.8-18.7c1 5.1 1.8 10.2 2.5 15.1h-1.2c-8.4 0-17-0.3-26.5-0.8-29.7-1.8-59-6.6-87.5-14.3h112.7z m42.2 101.4c0 34.8-26.7 63.4-60.7 66.5 7.2-25.1 10.9-51.1 10.9-77.5 0-18.5-1.8-36.9-5.4-54.8 31.3 5.6 55.2 32.9 55.2 65.8zM334 125.9c49.8-41.5 113-64.3 177.9-64.3s128.1 22.8 178 64.3c46.1 38.4 78.7 90.7 92.6 148.5H241.3c14-57.8 46.6-110.1 92.7-148.5zM183 321.8c0-7.3 2.9-14.1 8.1-19.3 5.2-5.2 12.1-8.1 19.3-8.1h603.5c7.1 0 13.8 2.8 18.9 7.9 5.2 5.2 8.1 12.1 8.1 19.4 0 7.3-2.9 14.1-8.1 19.3-5.2 5.2-12.1 8.1-19.3 8.1h-5.2c-0.9-0.1-1.8-0.1-2.7 0H801c-0.4-0.1-0.9-0.1-1.3-0.1H626.5 224.2c-0.5 0-0.9 0-1.3 0.1h-4.6c-0.9-0.1-1.8-0.1-2.7 0h-5.3c-15.1 0-27.3-12.2-27.3-27.3z m-0.1 148.7c0-32.8 24-60.3 55.3-65.8-3.6 18-5.4 36.4-5.4 54.7 0 26.5 3.7 52.5 10.9 77.6-34-3-60.8-31.7-60.8-66.5z m69.9-11.1c0-18.1 1.9-36.2 5.6-53.9 4.7 0.8 9.5 1.5 14.3 2.1h0.2c18.9 2.4 38.3 3.7 57.8 3.7 66.8 0 131.2-14.2 191.4-42.1h102.6c44.8 18.7 92 30.1 140.4 33.8 4.1 18.4 6.2 37.4 6.2 56.6 0 28.8-4.7 57.2-14 84.1v0.1c-7.1 20.6-16.9 40.4-29 58.8v0.1c-14.1 21.2-31.1 40.1-50.6 56.4-16.3 13.5-34.2 25-53 34.1-1.9 0.3-3.7 1.1-5.2 2.4-32.2 14.7-66.7 22.5-102.6 23.2h-9.4c-36.8-0.7-72.1-8.8-105.1-24.3-20-9.3-38.8-21.3-55.9-35.5-19.4-16.1-36.5-35.1-50.6-56.4-12.2-18.5-22-38.3-29-58.9-9.4-27.1-14.1-55.5-14.1-84.3z m394.6 436.1c-19.2-12.1-37.6-27-55-44.4-21.2-21.1-38.7-44.1-52.2-68.1-2.9-18.6-8.9-34.2-13.6-44.6 34.1-1.7 67-9.5 98-23.2 14.9 12.5 53.3 49.6 71.7 114.6 0.4 1.6 1.3 3 2.3 4.1 4.3 18 7 40.1 7.7 61.7h-58.9z m-329.7 0c0.7-21.7 3.4-43.7 7.7-61.4 1.2-1.2 2.1-2.8 2.6-4.6 0.1-0.6 0.3-1.1 0.5-1.7 0.2-0.5 0.3-1 0.4-1.5 0.2-0.8 0.5-1.5 0.7-2.3 0.2-0.5 0.3-0.9 0.4-1.3v-0.1c0.2-0.6 0.3-1.1 0.5-1.6 0.1-0.2 0.1-0.5 0.2-0.7 0-0.2 0.1-0.3 0.2-0.5 0.1-0.4 0.3-0.7 0.4-1.1 0.2-0.5 0.4-1 0.5-1.5 0 0 0.1-0.3 0.3-0.8 0-0.1 0.1-0.2 0.1-0.2 0.1-0.3 0.3-0.7 0.4-1.1 0.1-0.2 0.1-0.3 0.2-0.5 0.2-0.4 0.3-0.8 0.4-1.2v-0.2l0.5-1.4v-0.1c0.1-0.2 0.1-0.3 0.2-0.5l0.6-1.5c0.1-0.2 0.1-0.3 0.2-0.5 0.1-0.3 0.2-0.4 0.3-0.7l0.1-0.3c0.2-0.4 0.4-0.9 0.6-1.5l0.9-2.3c0-0.1 0.1-0.1 0.1-0.2 0.3-0.6 0.5-1.2 0.7-1.8 0.1-0.3 0.2-0.6 0.4-0.9 0.1-0.2 0.1-0.3 0.2-0.5 0.4-1 0.9-2.1 1.5-3.4 0.5-1 1-2.1 1.4-3.2l0.1-0.2c0.3-0.6 0.5-1.1 0.8-1.7 0.1-0.2 0.1-0.3 0.2-0.5 0.2-0.4 0.4-0.7 0.5-1l0.3-0.6c0.3-0.7 0.6-1.4 0.9-1.9 0.1-0.1 0.1-0.3 0.2-0.4l0.9-1.8c0.2-0.3 0.3-0.6 0.5-0.9 0.2-0.4 0.5-0.9 0.7-1.3 1.5-2.9 3-5.7 4.5-8.4 0.3-0.4 0.5-0.9 0.8-1.3 0.2-0.3 0.3-0.5 0.5-0.8 0.1-0.1 0.2-0.3 0.3-0.4 0.4-0.8 0.8-1.4 1.2-2 0.2-0.3 0.4-0.6 0.6-1 0.2-0.3 0.4-0.6 0.5-0.9 0.3-0.5 0.5-0.9 0.8-1.3 0.3-0.4 0.6-0.9 0.8-1.3 0.2-0.3 0.4-0.7 0.6-1 0.4-0.6 0.7-1.1 1.1-1.7 0.2-0.3 0.4-0.7 0.6-1 0.1-0.1 0.1-0.2 0.2-0.3 0.8-1.3 1.7-2.6 2.6-3.9l0.4-0.6c0.7-1 1.4-1.9 1.8-2.7 0.3-0.4 0.6-0.8 0.8-1.2l0.6-0.9c0.3-0.4 0.6-0.8 0.8-1.1 0.2-0.2 0.3-0.5 0.5-0.7 0.1-0.2 0.3-0.3 0.4-0.5l0.4-0.5c0.4-0.5 0.7-0.9 0.9-1.2 0.3-0.4 0.6-0.7 0.8-1.2 0.2-0.2 0.3-0.4 0.5-0.6 0.1-0.2 0.2-0.3 0.4-0.5s0.3-0.4 0.5-0.6c1-1.4 1.9-2.5 2.7-3.3 0.2-0.2 0.4-0.4 0.5-0.6 1-1.3 2-2.5 3.1-3.8 2.3-2.8 4.6-5.4 6.9-7.7 0.3-0.3 0.6-0.6 0.9-1l0.1-0.1c0.4-0.4 1-1 1.5-1.7l0.1-0.1c0.2-0.2 0.5-0.4 0.7-0.7l1.6-1.6c0.1-0.1 0.3-0.2 0.4-0.3 0.3-0.3 0.7-0.5 1-0.9l1.2-1.2 0.1-0.1c0.4-0.3 0.7-0.7 1.1-1l1.5-1.5c0.1 0 0.1-0.1 0.2-0.1l0.1-0.1c0.5-0.3 0.9-0.7 1.3-1.1 0.4-0.4 0.7-0.6 0.8-0.7 0.1 0 0.1-0.1 0.2-0.1 0.4-0.3 0.7-0.6 1.1-0.9l0.1-0.1c0.7-0.6 1.3-1.1 1.7-1.5 0.2-0.1 0.3-0.2 0.5-0.4 0.3-0.3 0.7-0.6 1.1-0.9 30.3 13.3 62.4 21 95.7 22.9-5.2 11.2-11.7 28.7-14.3 49.3-13.2 22.5-29.9 43.9-49.6 63.7-17 17-35.5 31.9-55 44.3h-59.5z m193.4-142.4c5.2 12.9 10.9 31.6 10.9 52.3s-5.7 39.4-10.9 52.3c-5.2-12.9-10.9-31.6-10.9-52.3s5.7-39.4 10.9-52.3z m-65.2 112.3c13.2-13.2 25.1-27 35.6-41.5 4.6 34.9 20.4 60.7 21.2 61.9 1.8 2.9 5 4.7 8.5 4.7s6.7-1.8 8.5-4.7c0.8-1.3 17.3-28.2 21.5-64.2 10.9 15.2 23.3 29.8 37.2 43.7 11 11 22.5 21.1 34.3 30.2h-201c11.8-9.2 23.3-19.2 34.2-30.1zM288.8 737.9c-4.7 4.7-10.9 7.3-17.5 7.3s-13-2.6-17.5-7.3l-40.5-40.5c-4.7-4.7-7.3-10.9-7.3-17.6 0-6.6 2.6-12.9 7.3-17.6 4.7-4.7 10.9-7.3 17.5-7.3 0.9 0 1.8 0.1 2.7 0.2-5.8 17.4-1.6 37.2 11.9 50.6 9.5 9.5 22.2 14.4 35 14.4 5.3 0 10.5-0.8 15.6-2.5 0.6 7.4-1.8 14.9-7.2 20.3z m12.1-46.3c-1.5 1.5-3 2.7-4.4 3.6-0.1 0-0.1 0.1-0.2 0.1-11.5 7.7-27.1 6.1-36.9-3.7-9.8-9.8-11.4-25.4-3.7-36.9 0-0.1 0.1-0.1 0.1-0.2 0.9-1.4 2.1-2.9 3.6-4.4l26.6-26.6c11.6 16 24.8 30.6 39.3 43.6l-24.4 24.5z m397.8-24.4c14.6-13.1 27.8-27.7 39.3-43.6l26.6 26.6c1.5 1.5 2.7 3 3.6 4.4 0 0.1 0.1 0.1 0.1 0.2 7.7 11.5 6.1 27.1-3.7 36.9-9.7 9.7-24.9 11.3-36.3 4.1-0.4-0.3-0.8-0.6-1.2-0.8-1.2-0.8-2.5-1.9-3.8-3.3l-24.6-24.5z m112.1 30.2l-40.5 40.5c-4.7 4.7-10.9 7.3-17.5 7.3s-13-2.6-17.5-7.3c-5.4-5.4-7.8-12.9-7.1-20.2 5 1.7 10.3 2.5 15.5 2.5 12.8 0 25.4-4.9 35-14.4 13.5-13.5 17.7-33.2 11.9-50.6 0.9-0.1 1.8-0.2 2.7-0.2 6.7 0 12.9 2.6 17.6 7.2 9.5 9.8 9.5 25.5-0.1 35.2z" fill="#450064" p-id="16750"></path></svg>