<svg width="760" height="1462" viewBox="0 0 760 1462" fill="none" xmlns="http://www.w3.org/2000/svg">
<rect width="2" height="2" rx="2" fill="white"/>
<rect x="400" width="2" height="2" rx="3" fill="white"/>
<rect x="200" width="2" height="2" rx="3" fill="white"/>
<rect x="600" width="2" height="2" rx="3" fill="white"/>
<rect x="50" width="2" height="2" rx="3" fill="white"/>
<rect x="450" width="2" height="2" rx="3" fill="white"/>
<rect x="250" width="2" height="2" rx="3" fill="white"/>
<rect x="650" width="2" height="2" rx="3" fill="white"/>
<rect x="100" width="2" height="2" rx="3" fill="white"/>
<rect x="500" width="2" height="2" rx="3" fill="white"/>
<rect x="300" width="2" height="2" rx="3" fill="white"/>
<rect x="700" width="2" height="2" rx="3" fill="white"/>
<rect x="150" width="2" height="2" rx="3" fill="white"/>
<rect x="550" width="2" height="2" rx="3" fill="white"/>
<rect x="350" width="2" height="2" rx="3" fill="white"/>
<rect x="750" width="2" height="2" rx="3" fill="white"/>
<rect y="748" width="2" height="2" rx="3" fill="white"/>
<rect x="400" y="748" width="2" height="2" rx="3" fill="white"/>
<rect x="200" y="748" width="2" height="2" rx="3" fill="white"/>
<rect x="600" y="748" width="2" height="2" rx="3" fill="white"/>
<rect x="50" y="748" width="2" height="2" rx="3" fill="white"/>
<rect x="450" y="748" width="2" height="2" rx="3" fill="white"/>
<rect x="250" y="748" width="2" height="2" rx="3" fill="white"/>
<rect x="650" y="748" width="2" height="2" rx="3" fill="white"/>
<rect x="100" y="748" width="2" height="2" rx="3" fill="white"/>
<rect x="500" y="748" width="2" height="2" rx="3" fill="white"/>
<rect x="300" y="748" width="2" height="2" rx="3" fill="white"/>
<rect x="700" y="748" width="2" height="2" rx="3" fill="white"/>
<rect x="150" y="748" width="2" height="2" rx="3" fill="white"/>
<rect x="550" y="748" width="2" height="2" rx="3" fill="white"/>
<rect x="350" y="748" width="2" height="2" rx="3" fill="white"/>
<rect x="750" y="748" width="2" height="2" rx="3" fill="white"/>
<rect y="352" width="2" height="2" rx="3" fill="white"/>
<rect x="400" y="352" width="2" height="2" rx="3" fill="white"/>
<rect x="200" y="352" width="2" height="2" rx="3" fill="white"/>
<rect x="600" y="352" width="2" height="2" rx="3" fill="white"/>
<rect x="50" y="352" width="2" height="2" rx="3" fill="white"/>
<rect x="450" y="352" width="2" height="2" rx="3" fill="white"/>
<rect x="250" y="352" width="2" height="2" rx="3" fill="white"/>
<rect x="650" y="352" width="2" height="2" rx="3" fill="white"/>
<rect x="100" y="352" width="2" height="2" rx="3" fill="white"/>
<rect x="500" y="352" width="2" height="2" rx="3" fill="white"/>
<rect x="300" y="352" width="2" height="2" rx="3" fill="white"/>
<rect x="700" y="352" width="2" height="2" rx="3" fill="white"/>
<rect x="150" y="352" width="2" height="2" rx="3" fill="white"/>
<rect x="550" y="352" width="2" height="2" rx="3" fill="white"/>
<rect x="350" y="352" width="2" height="2" rx="3" fill="white"/>
<rect x="750" y="352" width="2" height="2" rx="3" fill="white"/>
<rect y="1100" width="2" height="2" rx="3" fill="white"/>
<rect x="400" y="1100" width="2" height="2" rx="3" fill="white"/>
<rect x="200" y="1100" width="2" height="2" rx="3" fill="white"/>
<rect x="600" y="1100" width="2" height="2" rx="3" fill="white"/>
<rect x="50" y="1100" width="2" height="2" rx="3" fill="white"/>
<rect x="450" y="1100" width="2" height="2" rx="3" fill="white"/>
<rect x="250" y="1100" width="2" height="2" rx="3" fill="white"/>
<rect x="650" y="1100" width="2" height="2" rx="3" fill="white"/>
<rect x="100" y="1100" width="2" height="2" rx="3" fill="white"/>
<rect x="500" y="1100" width="2" height="2" rx="3" fill="white"/>
<rect x="300" y="1100" width="2" height="2" rx="3" fill="white"/>
<rect x="700" y="1100" width="2" height="2" rx="3" fill="white"/>
<rect x="150" y="1100" width="2" height="2" rx="3" fill="white"/>
<rect x="550" y="1100" width="2" height="2" rx="3" fill="white"/>
<rect x="350" y="1100" width="2" height="2" rx="3" fill="white"/>
<rect x="750" y="1100" width="2" height="2" rx="3" fill="white"/>
<rect y="176" width="2" height="2" rx="3" fill="white"/>
<rect x="400" y="176" width="2" height="2" rx="3" fill="white"/>
<rect x="200" y="176" width="2" height="2" rx="3" fill="white"/>
<rect x="600" y="176" width="2" height="2" rx="3" fill="white"/>
<rect x="50" y="176" width="2" height="2" rx="3" fill="white"/>
<rect x="450" y="176" width="2" height="2" rx="3" fill="white"/>
<rect x="250" y="176" width="2" height="2" rx="3" fill="white"/>
<rect x="650" y="176" width="2" height="2" rx="3" fill="white"/>
<rect x="100" y="176" width="2" height="2" rx="3" fill="white"/>
<rect x="500" y="176" width="2" height="2" rx="3" fill="white"/>
<rect x="300" y="176" width="2" height="2" rx="3" fill="white"/>
<rect x="700" y="176" width="2" height="2" rx="3" fill="white"/>
<rect x="150" y="176" width="2" height="2" rx="3" fill="white"/>
<rect x="550" y="176" width="2" height="2" rx="3" fill="white"/>
<rect x="350" y="176" width="2" height="2" rx="3" fill="white"/>
<rect x="750" y="176" width="2" height="2" rx="3" fill="white"/>
<rect y="924" width="2" height="2" rx="3" fill="white"/>
<rect x="400" y="924" width="2" height="2" rx="3" fill="white"/>
<rect x="200" y="924" width="2" height="2" rx="3" fill="white"/>
<rect x="600" y="924" width="2" height="2" rx="3" fill="white"/>
<rect x="50" y="924" width="2" height="2" rx="3" fill="white"/>
<rect x="450" y="924" width="2" height="2" rx="3" fill="white"/>
<rect x="250" y="924" width="2" height="2" rx="3" fill="white"/>
<rect x="650" y="924" width="2" height="2" rx="3" fill="white"/>
<rect x="100" y="924" width="2" height="2" rx="3" fill="white"/>
<rect x="500" y="924" width="2" height="2" rx="3" fill="white"/>
<rect x="300" y="924" width="2" height="2" rx="3" fill="white"/>
<rect x="700" y="924" width="2" height="2" rx="3" fill="white"/>
<rect x="150" y="924" width="2" height="2" rx="3" fill="white"/>
<rect x="550" y="924" width="2" height="2" rx="3" fill="white"/>
<rect x="350" y="924" width="2" height="2" rx="3" fill="white"/>
<rect x="750" y="924" width="2" height="2" rx="3" fill="white"/>
<rect y="528" width="2" height="2" rx="3" fill="white"/>
<rect x="400" y="528" width="2" height="2" rx="3" fill="white"/>
<rect x="200" y="528" width="2" height="2" rx="3" fill="white"/>
<rect x="600" y="528" width="2" height="2" rx="3" fill="white"/>
<rect x="50" y="528" width="2" height="2" rx="3" fill="white"/>
<rect x="450" y="528" width="2" height="2" rx="3" fill="white"/>
<rect x="250" y="528" width="2" height="2" rx="3" fill="white"/>
<rect x="650" y="528" width="2" height="2" rx="3" fill="white"/>
<rect x="100" y="528" width="2" height="2" rx="3" fill="white"/>
<rect x="500" y="528" width="2" height="2" rx="3" fill="white"/>
<rect x="300" y="528" width="2" height="2" rx="3" fill="white"/>
<rect x="700" y="528" width="2" height="2" rx="3" fill="white"/>
<rect x="150" y="528" width="2" height="2" rx="3" fill="white"/>
<rect x="550" y="528" width="2" height="2" rx="3" fill="white"/>
<rect x="350" y="528" width="2" height="2" rx="3" fill="white"/>
<rect x="750" y="528" width="2" height="2" rx="3" fill="white"/>
<rect y="1276" width="2" height="2" rx="3" fill="white"/>
<rect x="400" y="1276" width="2" height="2" rx="3" fill="white"/>
<rect x="200" y="1276" width="2" height="2" rx="3" fill="white"/>
<rect x="600" y="1276" width="2" height="2" rx="3" fill="white"/>
<rect x="50" y="1276" width="2" height="2" rx="3" fill="white"/>
<rect x="450" y="1276" width="2" height="2" rx="3" fill="white"/>
<rect x="250" y="1276" width="2" height="2" rx="3" fill="white"/>
<rect x="650" y="1276" width="2" height="2" rx="3" fill="white"/>
<rect x="100" y="1276" width="2" height="2" rx="3" fill="white"/>
<rect x="500" y="1276" width="2" height="2" rx="3" fill="white"/>
<rect x="300" y="1276" width="2" height="2" rx="3" fill="white"/>
<rect x="700" y="1276" width="2" height="2" rx="3" fill="white"/>
<rect x="150" y="1276" width="2" height="2" rx="3" fill="white"/>
<rect x="550" y="1276" width="2" height="2" rx="3" fill="white"/>
<rect x="350" y="1276" width="2" height="2" rx="3" fill="white"/>
<rect x="750" y="1276" width="2" height="2" rx="3" fill="white"/>
<rect y="88" width="2" height="2" rx="3" fill="white"/>
<rect x="400" y="88" width="2" height="2" rx="3" fill="white"/>
<rect x="200" y="88" width="2" height="2" rx="3" fill="white"/>
<rect x="600" y="88" width="2" height="2" rx="3" fill="white"/>
<rect x="50" y="88" width="2" height="2" rx="3" fill="white"/>
<rect x="450" y="88" width="2" height="2" rx="3" fill="white"/>
<rect x="250" y="88" width="2" height="2" rx="3" fill="white"/>
<rect x="650" y="88" width="2" height="2" rx="3" fill="white"/>
<rect x="100" y="88" width="2" height="2" rx="3" fill="white"/>
<rect x="500" y="88" width="2" height="2" rx="3" fill="white"/>
<rect x="300" y="88" width="2" height="2" rx="3" fill="white"/>
<rect x="700" y="88" width="2" height="2" rx="3" fill="white"/>
<rect x="150" y="88" width="2" height="2" rx="3" fill="white"/>
<rect x="550" y="88" width="2" height="2" rx="3" fill="white"/>
<rect x="350" y="88" width="2" height="2" rx="3" fill="white"/>
<rect x="750" y="88" width="2" height="2" rx="3" fill="white"/>
<rect y="836" width="2" height="2" rx="3" fill="white"/>
<rect x="400" y="836" width="2" height="2" rx="3" fill="white"/>
<rect x="200" y="836" width="2" height="2" rx="3" fill="white"/>
<rect x="600" y="836" width="2" height="2" rx="3" fill="white"/>
<rect x="50" y="836" width="2" height="2" rx="3" fill="white"/>
<rect x="450" y="836" width="2" height="2" rx="3" fill="white"/>
<rect x="250" y="836" width="2" height="2" rx="3" fill="white"/>
<rect x="650" y="836" width="2" height="2" rx="3" fill="white"/>
<rect x="100" y="836" width="2" height="2" rx="3" fill="white"/>
<rect x="500" y="836" width="2" height="2" rx="3" fill="white"/>
<rect x="300" y="836" width="2" height="2" rx="3" fill="white"/>
<rect x="700" y="836" width="2" height="2" rx="3" fill="white"/>
<rect x="150" y="836" width="2" height="2" rx="3" fill="white"/>
<rect x="550" y="836" width="2" height="2" rx="3" fill="white"/>
<rect x="350" y="836" width="2" height="2" rx="3" fill="white"/>
<rect x="750" y="836" width="2" height="2" rx="3" fill="white"/>
<rect y="440" width="2" height="2" rx="3" fill="white"/>
<rect x="400" y="440" width="2" height="2" rx="3" fill="white"/>
<rect x="200" y="440" width="2" height="2" rx="3" fill="white"/>
<rect x="600" y="440" width="2" height="2" rx="3" fill="white"/>
<rect x="50" y="440" width="2" height="2" rx="3" fill="white"/>
<rect x="450" y="440" width="2" height="2" rx="3" fill="white"/>
<rect x="250" y="440" width="2" height="2" rx="3" fill="white"/>
<rect x="650" y="440" width="2" height="2" rx="3" fill="white"/>
<rect x="100" y="440" width="2" height="2" rx="3" fill="white"/>
<rect x="500" y="440" width="2" height="2" rx="3" fill="white"/>
<rect x="300" y="440" width="2" height="2" rx="3" fill="white"/>
<rect x="700" y="440" width="2" height="2" rx="3" fill="white"/>
<rect x="150" y="440" width="2" height="2" rx="3" fill="white"/>
<rect x="550" y="440" width="2" height="2" rx="3" fill="white"/>
<rect x="350" y="440" width="2" height="2" rx="3" fill="white"/>
<rect x="750" y="440" width="2" height="2" rx="3" fill="white"/>
<rect y="1188" width="2" height="2" rx="3" fill="white"/>
<rect x="400" y="1188" width="2" height="2" rx="3" fill="white"/>
<rect x="200" y="1188" width="2" height="2" rx="3" fill="white"/>
<rect x="600" y="1188" width="2" height="2" rx="3" fill="white"/>
<rect x="50" y="1188" width="2" height="2" rx="3" fill="white"/>
<rect x="450" y="1188" width="2" height="2" rx="3" fill="white"/>
<rect x="250" y="1188" width="2" height="2" rx="3" fill="white"/>
<rect x="650" y="1188" width="2" height="2" rx="3" fill="white"/>
<rect x="100" y="1188" width="2" height="2" rx="3" fill="white"/>
<rect x="500" y="1188" width="2" height="2" rx="3" fill="white"/>
<rect x="300" y="1188" width="2" height="2" rx="3" fill="white"/>
<rect x="700" y="1188" width="2" height="2" rx="3" fill="white"/>
<rect x="150" y="1188" width="2" height="2" rx="3" fill="white"/>
<rect x="550" y="1188" width="2" height="2" rx="3" fill="white"/>
<rect x="350" y="1188" width="2" height="2" rx="3" fill="white"/>
<rect x="750" y="1188" width="2" height="2" rx="3" fill="white"/>
<rect y="264" width="2" height="2" rx="3" fill="white"/>
<rect x="400" y="264" width="2" height="2" rx="3" fill="white"/>
<rect x="200" y="264" width="2" height="2" rx="3" fill="white"/>
<rect x="600" y="264" width="2" height="2" rx="3" fill="white"/>
<rect x="50" y="264" width="2" height="2" rx="3" fill="white"/>
<rect x="450" y="264" width="2" height="2" rx="3" fill="white"/>
<rect x="250" y="264" width="2" height="2" rx="3" fill="white"/>
<rect x="650" y="264" width="2" height="2" rx="3" fill="white"/>
<rect x="100" y="264" width="2" height="2" rx="3" fill="white"/>
<rect x="500" y="264" width="2" height="2" rx="3" fill="white"/>
<rect x="300" y="264" width="2" height="2" rx="3" fill="white"/>
<rect x="700" y="264" width="2" height="2" rx="3" fill="white"/>
<rect x="150" y="264" width="2" height="2" rx="3" fill="white"/>
<rect x="550" y="264" width="2" height="2" rx="3" fill="white"/>
<rect x="350" y="264" width="2" height="2" rx="3" fill="white"/>
<rect x="750" y="264" width="2" height="2" rx="3" fill="white"/>
<rect y="1012" width="2" height="2" rx="3" fill="white"/>
<rect x="400" y="1012" width="2" height="2" rx="3" fill="white"/>
<rect x="200" y="1012" width="2" height="2" rx="3" fill="white"/>
<rect x="600" y="1012" width="2" height="2" rx="3" fill="white"/>
<rect x="50" y="1012" width="2" height="2" rx="3" fill="white"/>
<rect x="450" y="1012" width="2" height="2" rx="3" fill="white"/>
<rect x="250" y="1012" width="2" height="2" rx="3" fill="white"/>
<rect x="650" y="1012" width="2" height="2" rx="3" fill="white"/>
<rect x="100" y="1012" width="2" height="2" rx="3" fill="white"/>
<rect x="500" y="1012" width="2" height="2" rx="3" fill="white"/>
<rect x="300" y="1012" width="2" height="2" rx="3" fill="white"/>
<rect x="700" y="1012" width="2" height="2" rx="3" fill="white"/>
<rect x="150" y="1012" width="2" height="2" rx="3" fill="white"/>
<rect x="550" y="1012" width="2" height="2" rx="3" fill="white"/>
<rect x="350" y="1012" width="2" height="2" rx="3" fill="white"/>
<rect x="750" y="1012" width="2" height="2" rx="3" fill="white"/>
<rect y="616" width="2" height="2" rx="3" fill="white"/>
<rect x="400" y="616" width="2" height="2" rx="3" fill="white"/>
<rect x="200" y="616" width="2" height="2" rx="3" fill="white"/>
<rect x="600" y="616" width="2" height="2" rx="3" fill="white"/>
<rect x="50" y="616" width="2" height="2" rx="3" fill="white"/>
<rect x="450" y="616" width="2" height="2" rx="3" fill="white"/>
<rect x="250" y="616" width="2" height="2" rx="3" fill="white"/>
<rect x="650" y="616" width="2" height="2" rx="3" fill="white"/>
<rect x="100" y="616" width="2" height="2" rx="3" fill="white"/>
<rect x="500" y="616" width="2" height="2" rx="3" fill="white"/>
<rect x="300" y="616" width="2" height="2" rx="3" fill="white"/>
<rect x="700" y="616" width="2" height="2" rx="3" fill="white"/>
<rect x="150" y="616" width="2" height="2" rx="3" fill="white"/>
<rect x="550" y="616" width="2" height="2" rx="3" fill="white"/>
<rect x="350" y="616" width="2" height="2" rx="3" fill="white"/>
<rect x="750" y="616" width="2" height="2" rx="3" fill="white"/>
<rect y="1364" width="2" height="2" rx="3" fill="white"/>
<rect x="400" y="1364" width="2" height="2" rx="3" fill="white"/>
<rect x="200" y="1364" width="2" height="2" rx="3" fill="white"/>
<rect x="600" y="1364" width="2" height="2" rx="3" fill="white"/>
<rect x="50" y="1364" width="2" height="2" rx="3" fill="white"/>
<rect x="450" y="1364" width="2" height="2" rx="3" fill="white"/>
<rect x="250" y="1364" width="2" height="2" rx="3" fill="white"/>
<rect x="650" y="1364" width="2" height="2" rx="3" fill="white"/>
<rect x="100" y="1364" width="2" height="2" rx="3" fill="white"/>
<rect x="500" y="1364" width="2" height="2" rx="3" fill="white"/>
<rect x="300" y="1364" width="2" height="2" rx="3" fill="white"/>
<rect x="700" y="1364" width="2" height="2" rx="3" fill="white"/>
<rect x="150" y="1364" width="2" height="2" rx="3" fill="white"/>
<rect x="550" y="1364" width="2" height="2" rx="3" fill="white"/>
<rect x="350" y="1364" width="2" height="2" rx="3" fill="white"/>
<rect x="750" y="1364" width="2" height="2" rx="3" fill="white"/>
<rect y="44" width="2" height="2" rx="3" fill="white"/>
<rect x="400" y="44" width="2" height="2" rx="3" fill="white"/>
<rect x="200" y="44" width="2" height="2" rx="3" fill="white"/>
<rect x="600" y="44" width="2" height="2" rx="3" fill="white"/>
<rect x="50" y="44" width="2" height="2" rx="3" fill="white"/>
<rect x="450" y="44" width="2" height="2" rx="3" fill="white"/>
<rect x="250" y="44" width="2" height="2" rx="3" fill="white"/>
<rect x="650" y="44" width="2" height="2" rx="3" fill="white"/>
<rect x="100" y="44" width="2" height="2" rx="3" fill="white"/>
<rect x="500" y="44" width="2" height="2" rx="3" fill="white"/>
<rect x="300" y="44" width="2" height="2" rx="3" fill="white"/>
<rect x="700" y="44" width="2" height="2" rx="3" fill="white"/>
<rect x="150" y="44" width="2" height="2" rx="3" fill="white"/>
<rect x="550" y="44" width="2" height="2" rx="3" fill="white"/>
<rect x="350" y="44" width="2" height="2" rx="3" fill="white"/>
<rect x="750" y="44" width="2" height="2" rx="3" fill="white"/>
<rect y="792" width="2" height="2" rx="3" fill="white"/>
<rect x="400" y="792" width="2" height="2" rx="3" fill="white"/>
<rect x="200" y="792" width="2" height="2" rx="3" fill="white"/>
<rect x="600" y="792" width="2" height="2" rx="3" fill="white"/>
<rect x="50" y="792" width="2" height="2" rx="3" fill="white"/>
<rect x="450" y="792" width="2" height="2" rx="3" fill="white"/>
<rect x="250" y="792" width="2" height="2" rx="3" fill="white"/>
<rect x="650" y="792" width="2" height="2" rx="3" fill="white"/>
<rect x="100" y="792" width="2" height="2" rx="3" fill="white"/>
<rect x="500" y="792" width="2" height="2" rx="3" fill="white"/>
<rect x="300" y="792" width="2" height="2" rx="3" fill="white"/>
<rect x="700" y="792" width="2" height="2" rx="3" fill="white"/>
<rect x="150" y="792" width="2" height="2" rx="3" fill="white"/>
<rect x="550" y="792" width="2" height="2" rx="3" fill="white"/>
<rect x="350" y="792" width="2" height="2" rx="3" fill="white"/>
<rect x="750" y="792" width="2" height="2" rx="3" fill="white"/>
<rect y="396" width="2" height="2" rx="3" fill="white"/>
<rect x="400" y="396" width="2" height="2" rx="3" fill="white"/>
<rect x="200" y="396" width="2" height="2" rx="3" fill="white"/>
<rect x="600" y="396" width="2" height="2" rx="3" fill="white"/>
<rect x="50" y="396" width="2" height="2" rx="3" fill="white"/>
<rect x="450" y="396" width="2" height="2" rx="3" fill="white"/>
<rect x="250" y="396" width="2" height="2" rx="3" fill="white"/>
<rect x="650" y="396" width="2" height="2" rx="3" fill="white"/>
<rect x="100" y="396" width="2" height="2" rx="3" fill="white"/>
<rect x="500" y="396" width="2" height="2" rx="3" fill="white"/>
<rect x="300" y="396" width="2" height="2" rx="3" fill="white"/>
<rect x="700" y="396" width="2" height="2" rx="3" fill="white"/>
<rect x="150" y="396" width="2" height="2" rx="3" fill="white"/>
<rect x="550" y="396" width="2" height="2" rx="3" fill="white"/>
<rect x="350" y="396" width="2" height="2" rx="3" fill="white"/>
<rect x="750" y="396" width="2" height="2" rx="3" fill="white"/>
<rect y="1144" width="2" height="2" rx="3" fill="white"/>
<rect x="400" y="1144" width="2" height="2" rx="3" fill="white"/>
<rect x="200" y="1144" width="2" height="2" rx="3" fill="white"/>
<rect x="600" y="1144" width="2" height="2" rx="3" fill="white"/>
<rect x="50" y="1144" width="2" height="2" rx="3" fill="white"/>
<rect x="450" y="1144" width="2" height="2" rx="3" fill="white"/>
<rect x="250" y="1144" width="2" height="2" rx="3" fill="white"/>
<rect x="650" y="1144" width="2" height="2" rx="3" fill="white"/>
<rect x="100" y="1144" width="2" height="2" rx="3" fill="white"/>
<rect x="500" y="1144" width="2" height="2" rx="3" fill="white"/>
<rect x="300" y="1144" width="2" height="2" rx="3" fill="white"/>
<rect x="700" y="1144" width="2" height="2" rx="3" fill="white"/>
<rect x="150" y="1144" width="2" height="2" rx="3" fill="white"/>
<rect x="550" y="1144" width="2" height="2" rx="3" fill="white"/>
<rect x="350" y="1144" width="2" height="2" rx="3" fill="white"/>
<rect x="750" y="1144" width="2" height="2" rx="3" fill="white"/>
<rect y="220" width="2" height="2" rx="3" fill="white"/>
<rect x="400" y="220" width="2" height="2" rx="3" fill="white"/>
<rect x="200" y="220" width="2" height="2" rx="3" fill="white"/>
<rect x="600" y="220" width="2" height="2" rx="3" fill="white"/>
<rect x="50" y="220" width="2" height="2" rx="3" fill="white"/>
<rect x="450" y="220" width="2" height="2" rx="3" fill="white"/>
<rect x="250" y="220" width="2" height="2" rx="3" fill="white"/>
<rect x="650" y="220" width="2" height="2" rx="3" fill="white"/>
<rect x="100" y="220" width="2" height="2" rx="3" fill="white"/>
<rect x="500" y="220" width="2" height="2" rx="3" fill="white"/>
<rect x="300" y="220" width="2" height="2" rx="3" fill="white"/>
<rect x="700" y="220" width="2" height="2" rx="3" fill="white"/>
<rect x="150" y="220" width="2" height="2" rx="3" fill="white"/>
<rect x="550" y="220" width="2" height="2" rx="3" fill="white"/>
<rect x="350" y="220" width="2" height="2" rx="3" fill="white"/>
<rect x="750" y="220" width="2" height="2" rx="3" fill="white"/>
<rect y="968" width="2" height="2" rx="3" fill="white"/>
<rect x="400" y="968" width="2" height="2" rx="3" fill="white"/>
<rect x="200" y="968" width="2" height="2" rx="3" fill="white"/>
<rect x="600" y="968" width="2" height="2" rx="3" fill="white"/>
<rect x="50" y="968" width="2" height="2" rx="3" fill="white"/>
<rect x="450" y="968" width="2" height="2" rx="3" fill="white"/>
<rect x="250" y="968" width="2" height="2" rx="3" fill="white"/>
<rect x="650" y="968" width="2" height="2" rx="3" fill="white"/>
<rect x="100" y="968" width="2" height="2" rx="3" fill="white"/>
<rect x="500" y="968" width="2" height="2" rx="3" fill="white"/>
<rect x="300" y="968" width="2" height="2" rx="3" fill="white"/>
<rect x="700" y="968" width="2" height="2" rx="3" fill="white"/>
<rect x="150" y="968" width="2" height="2" rx="3" fill="white"/>
<rect x="550" y="968" width="2" height="2" rx="3" fill="white"/>
<rect x="350" y="968" width="2" height="2" rx="3" fill="white"/>
<rect x="750" y="968" width="2" height="2" rx="3" fill="white"/>
<rect y="572" width="2" height="2" rx="3" fill="white"/>
<rect x="400" y="572" width="2" height="2" rx="3" fill="white"/>
<rect x="200" y="572" width="2" height="2" rx="3" fill="white"/>
<rect x="600" y="572" width="2" height="2" rx="3" fill="white"/>
<rect x="50" y="572" width="2" height="2" rx="3" fill="white"/>
<rect x="450" y="572" width="2" height="2" rx="3" fill="white"/>
<rect x="250" y="572" width="2" height="2" rx="3" fill="white"/>
<rect x="650" y="572" width="2" height="2" rx="3" fill="white"/>
<rect x="100" y="572" width="2" height="2" rx="3" fill="white"/>
<rect x="500" y="572" width="2" height="2" rx="3" fill="white"/>
<rect x="300" y="572" width="2" height="2" rx="3" fill="white"/>
<rect x="700" y="572" width="2" height="2" rx="3" fill="white"/>
<rect x="150" y="572" width="2" height="2" rx="3" fill="white"/>
<rect x="550" y="572" width="2" height="2" rx="3" fill="white"/>
<rect x="350" y="572" width="2" height="2" rx="3" fill="white"/>
<rect x="750" y="572" width="2" height="2" rx="3" fill="white"/>
<rect y="1320" width="2" height="2" rx="3" fill="white"/>
<rect x="400" y="1320" width="2" height="2" rx="3" fill="white"/>
<rect x="200" y="1320" width="2" height="2" rx="3" fill="white"/>
<rect x="600" y="1320" width="2" height="2" rx="3" fill="white"/>
<rect x="50" y="1320" width="2" height="2" rx="3" fill="white"/>
<rect x="450" y="1320" width="2" height="2" rx="3" fill="white"/>
<rect x="250" y="1320" width="2" height="2" rx="3" fill="white"/>
<rect x="650" y="1320" width="2" height="2" rx="3" fill="white"/>
<rect x="100" y="1320" width="2" height="2" rx="3" fill="white"/>
<rect x="500" y="1320" width="2" height="2" rx="3" fill="white"/>
<rect x="300" y="1320" width="2" height="2" rx="3" fill="white"/>
<rect x="700" y="1320" width="2" height="2" rx="3" fill="white"/>
<rect x="150" y="1320" width="2" height="2" rx="3" fill="white"/>
<rect x="550" y="1320" width="2" height="2" rx="3" fill="white"/>
<rect x="350" y="1320" width="2" height="2" rx="3" fill="white"/>
<rect x="750" y="1320" width="2" height="2" rx="3" fill="white"/>
<rect y="132" width="2" height="2" rx="3" fill="white"/>
<rect x="400" y="132" width="2" height="2" rx="3" fill="white"/>
<rect x="200" y="132" width="2" height="2" rx="3" fill="white"/>
<rect x="600" y="132" width="2" height="2" rx="3" fill="white"/>
<rect x="50" y="132" width="2" height="2" rx="3" fill="white"/>
<rect x="450" y="132" width="2" height="2" rx="3" fill="white"/>
<rect x="250" y="132" width="2" height="2" rx="3" fill="white"/>
<rect x="650" y="132" width="2" height="2" rx="3" fill="white"/>
<rect x="100" y="132" width="2" height="2" rx="3" fill="white"/>
<rect x="500" y="132" width="2" height="2" rx="3" fill="white"/>
<rect x="300" y="132" width="2" height="2" rx="3" fill="white"/>
<rect x="700" y="132" width="2" height="2" rx="3" fill="white"/>
<rect x="150" y="132" width="2" height="2" rx="3" fill="white"/>
<rect x="550" y="132" width="2" height="2" rx="3" fill="white"/>
<rect x="350" y="132" width="2" height="2" rx="3" fill="white"/>
<rect x="750" y="132" width="2" height="2" rx="3" fill="white"/>
<rect y="880" width="2" height="2" rx="3" fill="white"/>
<rect x="400" y="880" width="2" height="2" rx="3" fill="white"/>
<rect x="200" y="880" width="2" height="2" rx="3" fill="white"/>
<rect x="600" y="880" width="2" height="2" rx="3" fill="white"/>
<rect x="50" y="880" width="2" height="2" rx="3" fill="white"/>
<rect x="450" y="880" width="2" height="2" rx="3" fill="white"/>
<rect x="250" y="880" width="2" height="2" rx="3" fill="white"/>
<rect x="650" y="880" width="2" height="2" rx="3" fill="white"/>
<rect x="100" y="880" width="2" height="2" rx="3" fill="white"/>
<rect x="500" y="880" width="2" height="2" rx="3" fill="white"/>
<rect x="300" y="880" width="2" height="2" rx="3" fill="white"/>
<rect x="700" y="880" width="2" height="2" rx="3" fill="white"/>
<rect x="150" y="880" width="2" height="2" rx="3" fill="white"/>
<rect x="550" y="880" width="2" height="2" rx="3" fill="white"/>
<rect x="350" y="880" width="2" height="2" rx="3" fill="white"/>
<rect x="750" y="880" width="2" height="2" rx="3" fill="white"/>
<rect y="484" width="2" height="2" rx="3" fill="white"/>
<rect x="400" y="484" width="2" height="2" rx="3" fill="white"/>
<rect x="200" y="484" width="2" height="2" rx="3" fill="white"/>
<rect x="600" y="484" width="2" height="2" rx="3" fill="white"/>
<rect x="50" y="484" width="2" height="2" rx="3" fill="white"/>
<rect x="450" y="484" width="2" height="2" rx="3" fill="white"/>
<rect x="250" y="484" width="2" height="2" rx="3" fill="white"/>
<rect x="650" y="484" width="2" height="2" rx="3" fill="white"/>
<rect x="100" y="484" width="2" height="2" rx="3" fill="white"/>
<rect x="500" y="484" width="2" height="2" rx="3" fill="white"/>
<rect x="300" y="484" width="2" height="2" rx="3" fill="white"/>
<rect x="700" y="484" width="2" height="2" rx="3" fill="white"/>
<rect x="150" y="484" width="2" height="2" rx="3" fill="white"/>
<rect x="550" y="484" width="2" height="2" rx="3" fill="white"/>
<rect x="350" y="484" width="2" height="2" rx="3" fill="white"/>
<rect x="750" y="484" width="2" height="2" rx="3" fill="white"/>
<rect y="1232" width="2" height="2" rx="3" fill="white"/>
<rect x="400" y="1232" width="2" height="2" rx="3" fill="white"/>
<rect x="200" y="1232" width="2" height="2" rx="3" fill="white"/>
<rect x="600" y="1232" width="2" height="2" rx="3" fill="white"/>
<rect x="50" y="1232" width="2" height="2" rx="3" fill="white"/>
<rect x="450" y="1232" width="2" height="2" rx="3" fill="white"/>
<rect x="250" y="1232" width="2" height="2" rx="3" fill="white"/>
<rect x="650" y="1232" width="2" height="2" rx="3" fill="white"/>
<rect x="100" y="1232" width="2" height="2" rx="3" fill="white"/>
<rect x="500" y="1232" width="2" height="2" rx="3" fill="white"/>
<rect x="300" y="1232" width="2" height="2" rx="3" fill="white"/>
<rect x="700" y="1232" width="2" height="2" rx="3" fill="white"/>
<rect x="150" y="1232" width="2" height="2" rx="3" fill="white"/>
<rect x="550" y="1232" width="2" height="2" rx="3" fill="white"/>
<rect x="350" y="1232" width="2" height="2" rx="3" fill="white"/>
<rect x="750" y="1232" width="2" height="2" rx="3" fill="white"/>
<rect y="308" width="2" height="2" rx="3" fill="white"/>
<rect x="400" y="308" width="2" height="2" rx="3" fill="white"/>
<rect x="200" y="308" width="2" height="2" rx="3" fill="white"/>
<rect x="600" y="308" width="2" height="2" rx="3" fill="white"/>
<rect x="50" y="308" width="2" height="2" rx="3" fill="white"/>
<rect x="450" y="308" width="2" height="2" rx="3" fill="white"/>
<rect x="250" y="308" width="2" height="2" rx="3" fill="white"/>
<rect x="650" y="308" width="2" height="2" rx="3" fill="white"/>
<rect x="100" y="308" width="2" height="2" rx="3" fill="white"/>
<rect x="500" y="308" width="2" height="2" rx="3" fill="white"/>
<rect x="300" y="308" width="2" height="2" rx="3" fill="white"/>
<rect x="700" y="308" width="2" height="2" rx="3" fill="white"/>
<rect x="150" y="308" width="2" height="2" rx="3" fill="white"/>
<rect x="550" y="308" width="2" height="2" rx="3" fill="white"/>
<rect x="350" y="308" width="2" height="2" rx="3" fill="white"/>
<rect x="750" y="308" width="2" height="2" rx="3" fill="white"/>
<rect y="1056" width="2" height="2" rx="3" fill="white"/>
<rect x="400" y="1056" width="2" height="2" rx="3" fill="white"/>
<rect x="200" y="1056" width="2" height="2" rx="3" fill="white"/>
<rect x="600" y="1056" width="2" height="2" rx="3" fill="white"/>
<rect x="50" y="1056" width="2" height="2" rx="3" fill="white"/>
<rect x="450" y="1056" width="2" height="2" rx="3" fill="white"/>
<rect x="250" y="1056" width="2" height="2" rx="3" fill="white"/>
<rect x="650" y="1056" width="2" height="2" rx="3" fill="white"/>
<rect x="100" y="1056" width="2" height="2" rx="3" fill="white"/>
<rect x="500" y="1056" width="2" height="2" rx="3" fill="white"/>
<rect x="300" y="1056" width="2" height="2" rx="3" fill="white"/>
<rect x="700" y="1056" width="2" height="2" rx="3" fill="white"/>
<rect x="150" y="1056" width="2" height="2" rx="3" fill="white"/>
<rect x="550" y="1056" width="2" height="2" rx="3" fill="white"/>
<rect x="350" y="1056" width="2" height="2" rx="3" fill="white"/>
<rect x="750" y="1056" width="2" height="2" rx="3" fill="white"/>
<rect y="660" width="2" height="2" rx="3" fill="white"/>
<rect x="400" y="660" width="2" height="2" rx="3" fill="white"/>
<rect x="200" y="660" width="2" height="2" rx="3" fill="white"/>
<rect x="600" y="660" width="2" height="2" rx="3" fill="white"/>
<rect x="50" y="660" width="2" height="2" rx="3" fill="white"/>
<rect x="450" y="660" width="2" height="2" rx="3" fill="white"/>
<rect x="250" y="660" width="2" height="2" rx="3" fill="white"/>
<rect x="650" y="660" width="2" height="2" rx="3" fill="white"/>
<rect x="100" y="660" width="2" height="2" rx="3" fill="white"/>
<rect x="500" y="660" width="2" height="2" rx="3" fill="white"/>
<rect x="300" y="660" width="2" height="2" rx="3" fill="white"/>
<rect x="700" y="660" width="2" height="2" rx="3" fill="white"/>
<rect x="150" y="660" width="2" height="2" rx="3" fill="white"/>
<rect x="550" y="660" width="2" height="2" rx="3" fill="white"/>
<rect x="350" y="660" width="2" height="2" rx="3" fill="white"/>
<rect x="750" y="660" width="2" height="2" rx="3" fill="white"/>
<rect y="1408" width="2" height="2" rx="3" fill="white"/>
<rect x="400" y="1408" width="2" height="2" rx="3" fill="white"/>
<rect x="200" y="1408" width="2" height="2" rx="3" fill="white"/>
<rect x="600" y="1408" width="2" height="2" rx="3" fill="white"/>
<rect x="50" y="1408" width="2" height="2" rx="3" fill="white"/>
<rect x="450" y="1408" width="2" height="2" rx="3" fill="white"/>
<rect x="250" y="1408" width="2" height="2" rx="3" fill="white"/>
<rect x="650" y="1408" width="2" height="2" rx="3" fill="white"/>
<rect x="100" y="1408" width="2" height="2" rx="3" fill="white"/>
<rect x="500" y="1408" width="2" height="2" rx="3" fill="white"/>
<rect x="300" y="1408" width="2" height="2" rx="3" fill="white"/>
<rect x="700" y="1408" width="2" height="2" rx="3" fill="white"/>
<rect x="150" y="1408" width="2" height="2" rx="3" fill="white"/>
<rect x="550" y="1408" width="2" height="2" rx="3" fill="white"/>
<rect x="350" y="1408" width="2" height="2" rx="3" fill="white"/>
<rect x="750" y="1408" width="2" height="2" rx="3" fill="white"/>
<rect y="704" width="2" height="2" rx="3" fill="white"/>
<rect x="400" y="704" width="2" height="2" rx="3" fill="white"/>
<rect x="200" y="704" width="2" height="2" rx="3" fill="white"/>
<rect x="600" y="704" width="2" height="2" rx="3" fill="white"/>
<rect x="50" y="704" width="2" height="2" rx="3" fill="white"/>
<rect x="450" y="704" width="2" height="2" rx="3" fill="white"/>
<rect x="250" y="704" width="2" height="2" rx="3" fill="white"/>
<rect x="650" y="704" width="2" height="2" rx="3" fill="white"/>
<rect x="100" y="704" width="2" height="2" rx="3" fill="white"/>
<rect x="500" y="704" width="2" height="2" rx="3" fill="white"/>
<rect x="300" y="704" width="2" height="2" rx="3" fill="white"/>
<rect x="700" y="704" width="2" height="2" rx="3" fill="white"/>
<rect x="150" y="704" width="2" height="2" rx="3" fill="white"/>
<rect x="550" y="704" width="2" height="2" rx="3" fill="white"/>
<rect x="350" y="704" width="2" height="2" rx="3" fill="white"/>
<rect x="750" y="704" width="2" height="2" rx="3" fill="white"/>
<rect y="1452" width="2" height="2" rx="3" fill="white"/>
<rect x="400" y="1452" width="2" height="2" rx="3" fill="white"/>
<rect x="200" y="1452" width="2" height="2" rx="3" fill="white"/>
<rect x="600" y="1452" width="2" height="2" rx="3" fill="white"/>
<rect x="50" y="1452" width="2" height="2" rx="3" fill="white"/>
<rect x="450" y="1452" width="2" height="2" rx="3" fill="white"/>
<rect x="250" y="1452" width="2" height="2" rx="3" fill="white"/>
<rect x="650" y="1452" width="2" height="2" rx="3" fill="white"/>
<rect x="100" y="1452" width="2" height="2" rx="3" fill="white"/>
<rect x="500" y="1452" width="2" height="2" rx="3" fill="white"/>
<rect x="300" y="1452" width="2" height="2" rx="3" fill="white"/>
<rect x="700" y="1452" width="2" height="2" rx="3" fill="white"/>
<rect x="150" y="1452" width="2" height="2" rx="3" fill="white"/>
<rect x="550" y="1452" width="2" height="2" rx="3" fill="white"/>
<rect x="350" y="1452" width="2" height="2" rx="3" fill="white"/>
<rect x="750" y="1452" width="2" height="2" rx="3" fill="white"/>
</svg>
