<svg width="24"
     height="24"
     viewBox="0 0 24 24"
     fill="none"
     xmlns="http://www.w3.org/2000/svg">
    <g id="Public/ic_public_add">
        <path
            id="&#229;&#189;&#162;&#231;&#138;&#182;&#231;&#187;&#147;&#229;&#144;&#136;"
            fill-rule="evenodd"
            clip-rule="evenodd"
            d="M12 2C11.5858 2 11.25 2.33579 11.25 2.75V11.25H2.75C2.33579 11.25 2 11.5858 2 12C2 12.4142 2.33579 12.75 2.75 12.75H11.25V21.25C11.25 21.6642 11.5858 22 12 22C12.4142 22 12.75 21.6642 12.75 21.25V12.75V11.25V2.75C12.75 2.33579 12.4142 2 12 2ZM21.25 12.75H13.75V11.25H21.25C21.6642 11.25 22 11.5858 22 12C22 12.4142 21.6642 12.75 21.25 12.75Z"
            fill="black"
            fill-opacity="0.9"/>
    </g>
</svg>
