<?xml version="1.0" encoding="UTF-8"?>
<svg width="24px" height="24px" viewBox="0 0 24 24" version="1.1" xmlns="http://www.w3.org/2000/svg" xmlns:xlink="http://www.w3.org/1999/xlink">
    <title>c_Checkbox_Selected</title>
    <g id="c_Checkbox_Selected" stroke="none" stroke-width="1" fill="none" fill-rule="evenodd" fill-opacity="0.4">
        <path d="M2,5.99922997 C2,3.79051625 3.79246765,2 5.99922997,2 L18.00077,2 C20.2094838,2 22,3.79246765 22,5.99922997 L22,18.00077 C22,20.2094838 20.2075324,22 18.00077,22 L5.99922997,22 C3.79051625,22 2,20.2075324 2,18.00077 L2,5.99922997 Z" id="Rectangle-2375-Copy" fill="#FFFFFF"></path>
        <path d="M18.00077,2 C20.2094838,2 22,3.79246765 22,5.99922997 L22,18.00077 C22,20.2094838 20.2075324,22 18.00077,22 L5.99922997,22 C3.79051625,22 2,20.2075324 2,18.00077 L2,5.99922997 C2,3.79051625 3.79246765,2 5.99922997,2 L18.00077,2 Z M17.7403358,3 L6.25966421,3 C4.45776843,3 3,4.45940138 3,6.25966421 L3,17.7403358 C3,19.5422316 4.45940138,21 6.25966421,21 L17.7403358,21 C19.5422316,21 21,19.5405986 21,17.7403358 L21,6.25966421 C21,4.45776843 19.5405986,3 17.7403358,3 Z" id="Rectangle-2375-Copy-2" fill="#182431"></path>
    </g>
</svg>