<?xml version="1.0" encoding="UTF-8"?>
<svg width="24px" height="24px" viewBox="0 0 24 24" version="1.1" xmlns="http://www.w3.org/2000/svg" xmlns:xlink="http://www.w3.org/1999/xlink">
    <title>ic_backward</title>
    <g id="ic_backward" stroke="none" stroke-width="1" fill="none" fill-rule="evenodd">
        <path d="M3.0381542,9.47155665 C2.96134864,9.28635176 3.00260464,9.07317712 3.14296242,8.93000016 L5.92796242,6.14500016 C6.02170815,6.05201993 6.14842616,6 6.28046242,6 C6.55660479,6 6.78046242,6.22385778 6.78046242,6.5 L6.78046242,8.28750016 L15.8475083,8.28750016 C18.5992671,8.2633377 20.8495958,10.4744914 20.8737583,13.2262502 C20.8979208,15.9780089 18.6867671,18.2283377 15.9350083,18.2525002 L5.53296242,18.2525002 C5.11874887,18.2649265 4.77288886,17.9392137 4.76046245,17.5250002 C4.74803605,17.1107866 5.07374887,16.7649266 5.48796242,16.7525002 L15.8475083,16.7525002 C17.6621152,16.6203483 19.0728575,15.1199318 19.093072,13.3006314 C19.1132864,11.4813311 17.7362309,9.94993904 15.9250083,9.77750016 L3.49546242,9.77750016 C3.29497148,9.77817517 3.11495976,9.65676155 3.0381542,9.47155665 Z" id="路径" fill="#182431" fill-rule="nonzero"></path>
    </g>
</svg>