<?xml version="1.0" encoding="UTF-8"?>
<svg width="24px" height="24px" viewBox="0 0 24 24" version="1.1" xmlns="http://www.w3.org/2000/svg" xmlns:xlink="http://www.w3.org/1999/xlink">
    <title>ic_backward_right</title>
    <g id="ic_backward_right" stroke="none" stroke-width="1" fill="none" fill-rule="evenodd" fill-opacity="0.4">
        <path d="M20.6144377,9.62500016 C20.8066485,9.43027656 20.8066485,9.11722376 20.6144377,8.92250016 L17.8269377,6.14500016 C17.733192,6.05201993 17.606474,6 17.4744377,6 C17.1982953,6 16.9744377,6.22385778 16.9744377,6.5 L16.9744377,8.28750016 L8.02518504,8.28750016 C5.2734263,8.2640281 3.02365721,10.4757414 3.00018511,13.2275002 C2.97671301,15.9792589 5.1884263,18.229028 7.94018504,18.2525002 L18.2219377,18.2525002 C18.6361512,18.2649265 18.9820113,17.9392137 18.9944377,17.5250002 C19.0068641,17.1107866 18.6811512,16.7649266 18.2669377,16.7525002 L8.02518504,16.7525002 C6.21057813,16.6203483 4.7998358,15.1199318 4.77962136,13.3006314 C4.75940691,11.4813311 6.13646248,9.94993904 7.94768504,9.77750016 L20.2594377,9.77750016 C20.3937908,9.77813227 20.5217381,9.72226799 20.6144377,9.62500016 Z" id="路径" fill="#182431" fill-rule="nonzero"></path>
    </g>
</svg>