<?xml version="1.0" encoding="UTF-8"?>
<svg width="24px" height="24px" viewBox="0 0 24 24" version="1.1" xmlns="http://www.w3.org/2000/svg" xmlns:xlink="http://www.w3.org/1999/xlink">
    <title>ic_Checkbox_Selected_Enabled</title>
    <defs>
        <path d="M9.39890806,16.1258588 C8.84500549,16.1258588 8.39597873,15.681994 8.39597873,15.1258588 C8.39597873,14.5735741 8.83386008,14.1258588 9.39890806,14.1258588 L13.3949787,14.1248588 L13.3959787,5.87422128 C13.3959787,5.36222524 13.7786989,4.94024606 14.2786462,4.88257555 L14.3959787,4.87585883 C14.9482635,4.87585883 15.3959787,5.33080574 15.3959787,5.87422128 L15.3949787,15.1078588 L15.3959787,15.1258588 C15.3959787,15.5597968 15.125654,15.9291792 14.7357194,16.0675602 L14.6264819,16.0994914 C14.5895326,16.1081141 14.5517688,16.1147059 14.5133113,16.1191421 L14.3959787,16.1258588 L9.39890806,16.1258588 Z" id="path-1"></path>
        <filter x="-28.6%" y="-17.8%" width="185.7%" height="153.3%" filterUnits="objectBoundingBox" id="filter-2">
            <feMorphology radius="1" operator="dilate" in="SourceAlpha" result="shadowSpreadOuter1"></feMorphology>
            <feOffset dx="1" dy="1" in="shadowSpreadOuter1" result="shadowOffsetOuter1"></feOffset>
            <feMorphology radius="1" operator="erode" in="SourceAlpha" result="shadowInner"></feMorphology>
            <feOffset dx="1" dy="1" in="shadowInner" result="shadowInner"></feOffset>
            <feComposite in="shadowOffsetOuter1" in2="shadowInner" operator="out" result="shadowOffsetOuter1"></feComposite>
            <feGaussianBlur stdDeviation="0.5" in="shadowOffsetOuter1" result="shadowBlurOuter1"></feGaussianBlur>
            <feColorMatrix values="0 0 0 0 0   0 0 0 0 0   0 0 0 0 0  0 0 0 0.1 0" type="matrix" in="shadowBlurOuter1"></feColorMatrix>
        </filter>
    </defs>
    <g id="ic_Checkbox_Selected_Enabled" stroke="none" stroke-width="1" fill="none" fill-rule="evenodd">
        <path d="M2,5.99922997 C2,3.79051625 3.79246765,2 5.99922997,2 L18.00077,2 C20.2094838,2 22,3.79246765 22,5.99922997 L22,18.00077 C22,20.2094838 20.2075324,22 18.00077,22 L5.99922997,22 C3.79051625,22 2,20.2075324 2,18.00077 L2,5.99922997 Z" id="Rectangle-2375-Copy" fill="#007DFF"></path>
        <g id="Rectangle-62" transform="translate(11.895979, 10.500859) rotate(43.000000) translate(-11.895979, -10.500859) ">
            <use fill="black" fill-opacity="1" filter="url(#filter-2)" xlink:href="#path-1"></use>
            <path stroke-opacity="0.05" stroke="#000000" stroke-width="1" d="M14.2213495,4.3858693 C14.7408886,4.37791379 15.1280723,4.5385 15.4054151,4.78464501 C15.7172926,5.06143997 15.8959787,5.45025349 15.8959787,5.87427543 L15.8949741,15.1057121 C15.8964634,15.4525707 15.7946224,15.7476578 15.6247709,15.9899101 C15.4325308,16.2640945 15.150092,16.470541 14.8158673,16.5667149 L9.39890806,16.6258588 C8.9833939,16.6258588 8.60758401,16.4585797 8.33574892,16.1875386 C8.06427252,15.9168551 7.89597873,15.5424653 7.89597873,15.1258588 C7.89597873,14.7095825 8.06286716,14.3335313 8.33521039,14.0619835 C8.60448462,13.7934958 8.97764429,13.6258588 9.39878294,13.6258588 L12.8950393,13.6249839 L12.8959787,5.87422128 C12.8959787,5.49149085 13.0388074,5.14245917 13.2744893,4.87767894 C13.5121551,4.61066974 13.8445605,4.42933312 14.2213495,4.3858693 Z"></path>
        </g>
        <path d="M9.39890806,16.1258588 C8.84500549,16.1258588 8.39597873,15.681994 8.39597873,15.1258588 C8.39597873,14.5735741 8.83386008,14.1258588 9.39890806,14.1258588 L13.3949787,14.1248588 L13.3959787,5.87422128 C13.3959787,5.36222524 13.7786989,4.94024606 14.2786462,4.88257555 L14.3959787,4.87585883 C14.9482635,4.87585883 15.3959787,5.33080574 15.3959787,5.87422128 L15.3949787,15.1078588 L15.3959787,15.1258588 C15.3959787,15.5597968 15.125654,15.9291792 14.7357194,16.0675602 L14.6264819,16.0994914 C14.5895326,16.1081141 14.5517688,16.1147059 14.5133113,16.1191421 L14.3959787,16.1258588 L9.39890806,16.1258588 Z" id="Rectangle-62" fill="#FFFFFF" transform="translate(11.895979, 10.500859) rotate(43.000000) translate(-11.895979, -10.500859) "></path>
    </g>
</svg>