<?xml version="1.0" encoding="UTF-8"?>
<svg width="40px" height="40px" viewBox="0 0 40 40" version="1.1" xmlns="http://www.w3.org/2000/svg" xmlns:xlink="http://www.w3.org/1999/xlink">
    <title>ic_delete</title>
    <defs>
        <path d="M27.905,15 L26.7182288,27.0681369 C26.5545878,28.7318206 25.1555495,30 23.4838372,30 L16.5161628,30 C14.8444505,30 13.4454122,28.7318206 13.2817712,27.0681369 L12.094,15 L27.905,15 Z M18,19.75 C17.5857864,19.75 17.25,20.0857864 17.25,20.5 L17.25,26.5 C17.25,26.9142136 17.5857864,27.25 18,27.25 C18.4142136,27.25 18.75,26.9142136 18.75,26.5 L18.75,20.5 C18.75,20.0857864 18.4142136,19.75 18,19.75 Z M22,19.75 C21.5857864,19.75 21.25,20.0857864 21.25,20.5 L21.25,26.5 C21.25,26.9142136 21.5857864,27.25 22,27.25 C22.4142136,27.25 22.75,26.9142136 22.75,26.5 L22.75,20.5 C22.75,20.0857864 22.4142136,19.75 22,19.75 Z M20,9.75 C21.5727118,9.75 22.862769,10.9601879 22.9897427,12.5001346 L29.25,12.5 C29.6642136,12.5 30,12.8357864 30,13.25 C30,13.6494202 29.68777,13.9759152 29.2940682,13.9987268 L29.25,14 L10.75,14 C10.3357864,14 10,13.6642136 10,13.25 C10,12.8505798 10.31223,12.5240848 10.7059318,12.5012732 L10.75,12.5 L17.0102573,12.5001346 C17.137231,10.9601879 18.4272882,9.75 20,9.75 Z" id="path-1"></path>
    </defs>
    <g id="ic_delete" stroke="none" stroke-width="1" fill="none" fill-rule="evenodd">
        <circle id="椭圆形" fill="#E84026" cx="20" cy="20" r="20"></circle>
        <mask id="mask-2" fill="white">
            <use xlink:href="#path-1"></use>
        </mask>
        <use id="形状结合" fill="#FFFFFF" fill-rule="nonzero" xlink:href="#path-1"></use>
    </g>
</svg>