<?xml version="1.0" encoding="UTF-8"?>
<svg width="40px" height="40px" viewBox="0 0 40 40" version="1.1" xmlns="http://www.w3.org/2000/svg" xmlns:xlink="http://www.w3.org/1999/xlink">
    <title>ic_edit</title>
    <defs>
        <path d="M24.8722296,10 C25.8725531,10 26.5151789,10.0584329 27.0017157,10.1712926 L18.5628157,18.6087572 C17.7817671,19.3898058 17.7817671,20.6561358 18.5628157,21.4371843 C19.3438642,22.2182329 20.6101942,22.2182329 21.3912428,21.4371843 L29.8289375,12.9992768 C29.9416465,13.485695 30,14.128127 30,15.1277704 L30,24.8722296 C30,26.6552671 29.8143488,27.3018396 29.4657346,27.9536914 C29.1171204,28.6055433 28.6055433,29.1171204 27.9536914,29.4657346 C27.3018396,29.8143488 26.6552671,30 24.8722296,30 L15.1277704,30 C13.3447329,30 12.6981604,29.8143488 12.0463086,29.4657346 C11.3944567,29.1171204 10.8828796,28.6055433 10.5342654,27.9536914 C10.1856512,27.3018396 10,26.6552671 10,24.8722296 L10,15.1277704 C10,13.3447329 10.1856512,12.6981604 10.5342654,12.0463086 C10.8828796,11.3944567 11.3944567,10.8828796 12.0463086,10.5342654 C12.6981604,10.1856512 13.3447329,10 15.1277704,10 L24.8722296,10 Z M30.2300776,9.76992245 C30.6206018,10.1604467 30.6206018,10.7936117 30.2300776,11.184136 L20.684136,20.7300776 C20.2936117,21.1206018 19.6604467,21.1206018 19.2699224,20.7300776 C18.8793982,20.3395533 18.8793982,19.7063883 19.2699224,19.315864 L28.815864,9.76992245 C29.2063883,9.37939815 29.8395533,9.37939815 30.2300776,9.76992245 Z" id="path-1"></path>
    </defs>
    <g id="ic_edit" stroke="none" stroke-width="1" fill="none" fill-rule="evenodd">
        <circle id="椭圆形" fill="#5291FF" cx="20" cy="20" r="20"></circle>
        <mask id="mask-2" fill="white">
            <use xlink:href="#path-1"></use>
        </mask>
        <use id="形状结合" fill="#FFFFFF" fill-rule="nonzero" xlink:href="#path-1"></use>
    </g>
</svg>