<?xml version="1.0" standalone="no"?><!DOCTYPE svg PUBLIC "-//W3C//DTD SVG 1.1//EN" "http://www.w3.org/Graphics/SVG/1.1/DTD/svg11.dtd"><svg t="1687256639632" class="icon" viewBox="0 0 1024 1024" version="1.1" xmlns="http://www.w3.org/2000/svg" p-id="1093" xmlns:xlink="http://www.w3.org/1999/xlink" width="200" height="200"><path d="M790.5 609v180c0 22-18 40-40 40h-520c-22 0-40-18-40-40V514l62 214 35 14 503-133z" fill="#FFA6B5" p-id="1094"></path><path d="M750.5 848h-520c-32.53 0-59-26.47-59-59V514h38v275c0 11.58 9.42 21 21 21h520c11.58 0 21-9.42 21-21V609h38v180c0 32.53-26.47 59-59 59z" fill="#3A2929" p-id="1095"></path><path d="M282.21 757.86c-25.97 0-49.82-17.3-56.95-43.53l-85.51-314.59c-4.12-15.16-2.07-31.06 5.77-44.77 7.85-13.7 20.52-23.52 35.68-27.64l501.79-136.39c15.16-4.12 31.06-2.07 44.77 5.78 13.7 7.85 23.52 20.52 27.64 35.68l85.51 314.59c4.12 15.17 2.07 31.06-5.78 44.77-7.85 13.7-20.52 23.52-35.68 27.64L297.67 755.79a58.977 58.977 0 0 1-15.46 2.07z m416.22-530.98c-1.83 0-3.66 0.24-5.46 0.73l-501.79 136.4c-5.37 1.46-9.87 4.96-12.67 9.85-2.8 4.89-3.54 10.55-2.08 15.92l85.51 314.59c1.46 5.37 4.96 9.87 9.85 12.67 4.9 2.8 10.55 3.54 15.92 2.08L789.5 582.73c5.37-1.46 9.87-4.96 12.67-9.85 2.8-4.89 3.54-10.55 2.08-15.92l-85.51-314.59c-1.46-5.37-4.96-9.87-9.85-12.67-3.25-1.87-6.84-2.82-10.46-2.82z" fill="#3A2929" p-id="1096"></path><path d="M256.46 461.64c-8.36 0-16.02-5.56-18.32-14.02-2.75-10.13 3.23-20.57 13.35-23.32l180.45-49.05c10.13-2.75 20.57 3.23 23.32 13.35 2.75 10.13-3.23 20.57-13.35 23.32l-180.45 49.05c-1.68 0.45-3.35 0.67-5 0.67zM279.01 544.63c-8.36 0-16.02-5.56-18.32-14.02-2.75-10.13 3.23-20.57 13.35-23.32l139.92-38.03c10.13-2.75 20.57 3.23 23.32 13.35 2.75 10.13-3.23 20.57-13.35 23.32l-139.92 38.03c-1.67 0.45-3.35 0.67-5 0.67zM301.57 627.62c-8.36 0-16.02-5.56-18.32-14.02-2.75-10.13 3.23-20.57 13.35-23.32l139.92-38.03c10.13-2.75 20.57 3.23 23.32 13.35 2.75 10.13-3.23 20.57-13.35 23.32l-139.92 38.03c-1.67 0.45-3.35 0.67-5 0.67zM597.23 466.74c-36.09 0-69.24-24.04-79.15-60.5-11.86-43.63 13.99-88.78 57.62-100.64 43.63-11.86 88.78 13.99 100.64 57.62 11.86 43.63-13.99 88.78-57.62 100.64a81.822 81.822 0 0 1-21.49 2.88z m-0.03-126.01c-3.81 0-7.68 0.5-11.53 1.55-23.41 6.36-37.28 30.59-30.92 54 6.36 23.41 30.59 37.28 54 30.92 23.41-6.36 37.28-30.59 30.92-54-5.32-19.57-23.11-32.47-42.47-32.47z" fill="#3A2929" p-id="1097"></path><path d="M555.84 599.43c-8.36 0-16.02-5.56-18.32-14.02l-6.23-22.93c-15.94-58.66 18.81-119.35 77.46-135.29 58.66-15.95 119.35 18.81 135.3 77.46l6.23 22.93c2.75 10.13-3.23 20.57-13.35 23.32s-20.57-3.23-23.32-13.35l-6.23-22.93c-5.03-18.52-17.06-34.02-33.87-43.65-16.81-9.62-36.27-12.15-54.79-7.12-38.44 10.45-61.21 50.22-50.76 88.66l6.23 22.93c2.75 10.13-3.23 20.57-13.35 23.32-1.67 0.46-3.35 0.67-5 0.67z" fill="#3A2929" p-id="1098"></path></svg>