<?xml version="1.0" standalone="no"?><!DOCTYPE svg PUBLIC "-//W3C//DTD SVG 1.1//EN" "http://www.w3.org/Graphics/SVG/1.1/DTD/svg11.dtd"><svg t="1687247165898" class="icon" viewBox="0 0 1024 1024" version="1.1" xmlns="http://www.w3.org/2000/svg" p-id="15360" xmlns:xlink="http://www.w3.org/1999/xlink" width="200" height="200"><path d="M450.92 776.9c-8.49 0-15.37 6.88-15.37 15.37 0 8.49 6.88 15.37 15.37 15.37 8.49 0 15.37-6.88 15.37-15.37-0.01-8.49-6.89-15.37-15.37-15.37z" p-id="15361"></path><path d="M960.19 553.09l-0.06-0.35-60.8-279.32c-3.5-23.11-13.85-42.63-31-58.32-37.48-34.29-107.39-48.2-207.79-41.34-78.34 5.36-158.35 21.93-211.67 34.89-31.12 7.57-59.31 23.81-81.51 46.97L75.2 560.44c-10.92 11.39-15.82 27.46-13.11 43l0.15 0.84 14.69 52.47 10.33 1.98c4.46 0.86 21.94 6.24 26.01 16.96 3.13 8.24-1.72 21.31-13.64 36.81l-5.2 6.75 17.89 63.89c4.03 21.77 16.19 40.73 34.32 53.49 14.33 10.08 31.05 15.34 48.22 15.34 4.85 0 9.74-0.42 14.61-1.27l162.97-28.39c9.25-1.61 15.45-10.42 13.84-19.67-1.61-9.25-10.42-15.45-19.67-13.84l-162.98 28.4c-27.23 4.74-53.22-13.55-57.96-40.77l-0.15-0.84-13.82-49.36c15.86-23.14 20.36-44.17 13.37-62.59-7.95-20.96-28.11-30.99-40.8-35.38L95.8 598l292.01-50.86c1.27-0.22 2.47-0.59 3.62-1.06 6.81 13.15 18.5 24.25 33.75 31.67 13.96 6.79 30.11 10.28 46.94 10.28 7.29 0 14.7-0.65 22.11-1.98 24.53-4.38 46.51-15.63 61.91-31.69 11.47-11.96 18.53-26.04 20.57-40.38 0.93-0.01 1.87-0.07 2.82-0.24l140.35-24.45c21.13-3.68 41.22-10.8 59.73-21.16 24.43-13.68 58.97-36.96 84.78-70.22 8.09-10.43 14.84-21.15 20.23-32.15l42.12 193.49c12.13 70.7-35.42 138.16-106.13 150.47L531.2 760.15c-9.25 1.61-15.45 10.42-13.84 19.67 1.44 8.27 8.62 14.09 16.74 14.09 0.97 0 1.95-0.08 2.94-0.25l289.41-50.41c89.29-15.55 149.29-100.86 133.74-190.16z m-428.6-22.27c-10.3 10.74-26.1 18.67-43.34 21.75-33.56 6-65.23-7.52-69.16-29.51-3.93-21.99 21.11-45.63 54.67-51.62 5.4-0.97 10.75-1.42 15.95-1.42 27.09 0 49.92 12.48 53.21 30.93 2.37 13.24-6.08 24.4-11.33 29.87z m305.92-153.75c-22.3 28.75-52.83 49.25-74.51 61.39-15.15 8.48-31.62 14.31-48.95 17.33L573.7 480.24c-0.61 0.11-1.2 0.25-1.78 0.41-6.56-14.34-18.79-26.47-35.08-34.4-20-9.73-44.52-12.68-69.05-8.3-24.53 4.38-46.51 15.63-61.91 31.69-12.37 12.9-19.62 28.26-20.96 43.76-0.97 0-1.95 0.06-2.94 0.24l-257.84 44.91 267.78-279.4c17.7-18.47 40.17-31.42 64.99-37.45 52.03-12.65 130-28.81 205.95-34.01 89.48-6.12 152.58 5.12 182.5 32.5 9.34 8.55 15.58 18.81 18.77 30.96l-0.11 0.02c1.62 8.2 2.47 16.29 2.56 24.26-0.16 4.56-0.6 9.32-1.35 14.28-0.27 1.76-0.25 3.5 0.01 5.17-3.27 21.78-12.52 42.59-27.73 62.19z" p-id="15362"></path><path d="M787.03 337.43c-8.34-37.91-55.6-58.65-107.57-47.22-23.58 5.19-44.59 16.42-59.14 31.62-16.06 16.77-22.87 37.33-18.68 56.38 4.19 19.06 19 34.85 40.62 43.34 11.79 4.63 25.1 6.97 38.97 6.97 9.17 0 18.6-1.02 27.98-3.09 51.98-11.42 86.16-50.08 77.82-88z m-85.13 54.79c-16.82 3.7-34.03 2.85-47.22-2.32-6.4-2.51-17.47-8.31-19.82-18.98-2.35-10.67 5.27-20.59 10.02-25.55 9.8-10.23 25.07-18.23 41.88-21.93 6.51-1.43 13.36-2.15 20.09-2.15 22.37 0 43.52 7.88 46.95 23.45 4.47 20.27-23.77 41.29-51.9 47.48zM473.03 302.06c-13.15-5.16-29.01-6.11-44.66-2.67-15.64 3.44-29.64 10.96-39.41 21.16-11.35 11.85-16.11 26.57-13.07 40.38 3.04 13.81 13.54 25.17 28.81 31.17 7.96 3.12 16.9 4.7 26.19 4.7 6.07 0 12.29-0.67 18.47-2.03 15.64-3.44 29.64-10.96 39.41-21.16 11.35-11.85 16.11-26.57 13.07-40.38-3.03-13.81-13.53-25.17-28.81-31.17z m-8.82 48.03c-5.08 5.31-13.16 9.49-22.15 11.47-9 1.98-18.08 1.57-24.92-1.11-4.47-1.75-7.47-4.3-8.02-6.81-0.55-2.51 1.1-6.08 4.42-9.55 5.08-5.31 13.16-9.49 22.15-11.47 3.77-0.83 7.55-1.24 11.18-1.24 5.03 0 9.77 0.79 13.74 2.35 4.47 1.75 7.47 4.3 8.02 6.81 0.55 2.51-1.1 6.08-4.42 9.55zM609.88 706.87c11.58 4.54 24.63 6.84 38.24 6.84 9 0 18.24-1 27.44-3.03 51.03-11.23 84.58-49.22 76.38-86.5-8.21-37.27-54.6-57.68-105.63-46.46-51.03 11.23-84.58 49.22-76.37 86.5 4.13 18.76 18.69 34.31 39.94 42.65z m43.74-95.92a93.085 93.085 0 0 1 19.89-2.18c22.94 0 42.17 8.89 45.21 22.72 3.9 17.72-19.68 39.2-50.46 45.97-16.38 3.6-33.12 2.78-45.95-2.25-6.18-2.43-16.89-8.03-19.15-18.29-3.9-17.72 19.68-39.2 50.46-45.97z" p-id="15363"></path></svg>