<?xml version="1.0" standalone="no"?><!DOCTYPE svg PUBLIC "-//W3C//DTD SVG 1.1//EN" "http://www.w3.org/Graphics/SVG/1.1/DTD/svg11.dtd"><svg t="1687246349948" class="icon" viewBox="0 0 1024 1024" version="1.1" xmlns="http://www.w3.org/2000/svg" p-id="11397" xmlns:xlink="http://www.w3.org/1999/xlink" width="200" height="200"><path d="M920 542c0-20.3 15.9-36.9 36-37.9V424L96 496v92.5c2-0.3 4-0.5 6-0.5 21 0 38 17 38 38s-17 38-38 38c-2 0-4-0.2-6-0.5V844l88-6.5c0.3-31.8 26.1-57.5 58-57.5 28.9 0 52.9 21.2 57.3 48.9l427.2-31.8c7.2-23.8 29.3-41.1 55.5-41.1 23.1 0 43 13.5 52.4 33.1L956 780V579.9c-20.1-1-36-17.6-36-37.9z" fill="#FFBC36" p-id="11398"></path><path d="M746 756c-26.1 0-48.2 17.3-55.5 41.1l-391.7 29.2c0.2 0.9 0.3 1.8 0.5 2.6l427.2-31.8c5.5-18.1 19.6-32.4 37.5-38.2-5.7-1.9-11.7-2.9-18-2.9zM206 780c-31.8 0-57.7 25.7-58 57.5l-52 3.9v2.7l88-6.5c0.2-25.5 16.9-47.1 40-54.6-5.7-2-11.7-3-18-3zM956 504.1V424l-36 3v77c-20.1 1-36 17.6-36 37.9s15.9 36.9 36 37.9V780l-87 6.5c0.5 0.8 0.9 1.7 1.3 2.6L956 780V579.9c-20.1-1-36-17.6-36-37.9s15.9-36.9 36-37.9z" fill="#F2A216" p-id="11399"></path><path d="M818 756c-6.3 0-12.3 1-18 2.9 15.2 4.9 27.6 16 34.4 30.2l34.7-2.6c-9.9-18.2-29-30.5-51.1-30.5zM132 663.5c2 0.3 4 0.5 6 0.5 21 0 38-17 38-38s-17-38-38-38c-2 0-4 0.2-6 0.5V496l824-69v-3L96 496v92.5c2-0.3 4-0.5 6-0.5 21 0 38 17 38 38s-17 38-38 38c-2 0-4-0.2-6-0.5V844l36-2.7V663.5zM278 780c-6.3 0-12.3 1-18 2.9 20.4 6.7 35.8 24.3 39.3 46l35.5-2.6C329.4 799.8 306 780 278 780z" fill="#FFD58A" p-id="11400"></path><path d="M96 854c-2.5 0-4.9-0.9-6.8-2.7-2-1.9-3.2-4.5-3.2-7.3V663.5c0-2.9 1.3-5.7 3.5-7.6 2.2-1.9 5.2-2.7 8.1-2.3 1.5 0.2 3 0.4 4.4 0.4 15.4 0 28-12.6 28-28s-12.6-28-28-28c-1.5 0-3 0.1-4.4 0.4-2.9 0.5-5.8-0.4-8.1-2.3-2.2-1.9-3.5-4.7-3.5-7.6V496c0-5.2 4-9.5 9.2-10l860-72c2.8-0.2 5.5 0.7 7.6 2.6 2.1 1.9 3.2 4.6 3.2 7.4v80.1c0 5.3-4.2 9.7-9.5 10-14.9 0.8-26.5 13.1-26.5 28s11.6 27.2 26.5 28c5.3 0.3 9.5 4.7 9.5 10V780c0 5.2-4 9.6-9.3 10l-121.6 9c-4.1 0.3-8-1.9-9.8-5.7-7.9-16.6-24.9-27.4-43.3-27.4-21.3 0-39.7 13.7-45.9 34-1.2 3.9-4.7 6.8-8.8 7.1l-330.5 24.6c-5.5 0.4-10.3-3.7-10.7-9.2-0.4-5.5 3.7-10.3 9.2-10.7l324.1-24.1c10.5-25.1 34.9-41.6 62.7-41.6 23.7 0 45.8 12.6 58.1 32.6l105.9-7.9V588.5c-20.8-5.3-36-24.2-36-46.5s15.2-41.2 36-46.5v-60.6l-840 70.3v73c24.6 2 44 22.7 44 47.8s-19.4 45.8-44 47.8v159.4l68.7-5.1C179.6 795.3 208 770 242 770c16.3 0 32 5.9 44.4 16.5 9.8 8.5 17 19.5 20.7 31.8l40.2-3c5.5-0.4 10.3 3.7 10.7 9.2 0.4 5.5-3.7 10.3-9.2 10.7l-48.7 3.6c-5.2 0.4-9.8-3.3-10.6-8.4C285.7 807 265.8 790 242 790c-26.2 0-47.7 21.3-48 47.5 0 5.2-4.1 9.5-9.3 9.9l-88 6.5c-0.2 0.1-0.5 0.1-0.7 0.1z" fill="#9F6847" p-id="11401"></path><path d="M859.5 354.7c-8 8.2-19.1 13.3-31.5 13.3-24.3 0-44-19.7-44-44 0-7.2 1.8-14 4.8-20L600.1 168.4 320.3 350.3c2.4 5.4 3.7 11.4 3.7 17.7 0 24.3-19.7 44-44 44-12.9 0-24.5-5.6-32.6-14.4L96 496l860-72-96.5-69.3z" fill="#FFD869" p-id="11402"></path><path d="M859.5 354.7c-8 8.2-19.1 13.3-31.5 13.3-24.3 0-44-19.7-44-44 0-7.2 1.8-14 4.8-20L600.1 168.4l-48.3 31.4 145 104.1c-3.1 6-4.8 12.8-4.8 20 0 24.3 19.7 44 44 44 12.4 0 23.5-5.1 31.5-13.3L864 424l-754.4 63.2L96 496l860-72-96.5-69.3z" fill="#F4C247" p-id="11403"></path><path d="M331.4 397.6c8 8.8 19.7 14.4 32.6 14.4 24.3 0 44-19.7 44-44 0-6.3-1.3-12.3-3.7-17.7L640 197.1l-39.9-28.7-279.8 181.9c2.4 5.4 3.7 11.4 3.7 17.7 0 24.3-19.7 44-44 44-12.9 0-24.5-5.6-32.6-14.4L96 496l96.4-8.1 139-90.3z" fill="#FFF1CF" p-id="11404"></path><path d="M96 506c-4.2 0-8.1-2.7-9.5-6.8-1.5-4.3 0.2-9.1 4-11.6L242 389.2c4.1-2.7 9.5-2 12.8 1.7 6.4 7.1 15.6 11.1 25.2 11.1 18.7 0 34-15.3 34-34 0-4.8-1-9.4-2.9-13.7-2-4.5-0.4-9.7 3.7-12.4l212.8-138.3c4.6-3 10.8-1.7 13.8 2.9s1.7 10.8-2.9 13.8l-206.3 134c1.1 4.4 1.7 9 1.7 13.6 0 29.8-24.2 54-54 54-12.3 0-24.1-4.2-33.6-11.8l-111.6 72.5L928 416.2l-68-48.9c-9.2 6.9-20.4 10.6-32.1 10.6-29.8 0-54-24.2-54-54 0-5.6 0.9-11.2 2.6-16.5L599.9 180.6l-18.4 12c-4.6 3-10.8 1.7-13.8-2.9s-1.7-10.8 2.9-13.8l24.1-15.7c3.5-2.2 7.9-2.1 11.3 0.3L794.7 296c4 2.9 5.3 8.3 3.1 12.7-2.5 4.8-3.7 10-3.7 15.5 0 18.7 15.3 34 34 34 9.2 0 17.9-3.6 24.3-10.3 3.5-3.5 9-4 13-1.1l96.5 69.3c3.4 2.4 4.9 6.7 3.8 10.8s-4.6 7-8.8 7.3l-860 72c-0.3-0.2-0.6-0.2-0.9-0.2z" fill="#9F6847" p-id="11405"></path><path d="M592 284m-40 0a40 40 0 1 0 80 0 40 40 0 1 0-80 0Z" fill="#CC9E5A" p-id="11406"></path><path d="M592 334c-27.6 0-50-22.4-50-50s22.4-50 50-50 50 22.4 50 50-22.4 50-50 50z m0-80c-16.5 0-30 13.5-30 30s13.5 30 30 30 30-13.5 30-30-13.5-30-30-30z" fill="#9F6847" p-id="11407"></path><path d="M690 374m-22 0a22 22 0 1 0 44 0 22 22 0 1 0-44 0Z" fill="#CC9E5A" p-id="11408"></path><path d="M690 406c-17.6 0-32-14.4-32-32s14.4-32 32-32 32 14.4 32 32-14.4 32-32 32z m0-44c-6.6 0-12 5.4-12 12s5.4 12 12 12 12-5.4 12-12-5.4-12-12-12z" fill="#9F6847" p-id="11409"></path><path d="M430 394m-22 0a22 22 0 1 0 44 0 22 22 0 1 0-44 0Z" fill="#CC9E5A" p-id="11410"></path><path d="M430 426c-17.6 0-32-14.4-32-32s14.4-32 32-32 32 14.4 32 32-14.4 32-32 32z m0-44c-6.6 0-12 5.4-12 12s5.4 12 12 12 12-5.4 12-12-5.4-12-12-12z" fill="#9F6847" p-id="11411"></path><path d="M606 538m-30 0a30 30 0 1 0 60 0 30 30 0 1 0-60 0Z" fill="#AD7823" p-id="11412"></path><path d="M606 578c-22.1 0-40-17.9-40-40s17.9-40 40-40 40 17.9 40 40-17.9 40-40 40z m0-60c-11 0-20 9-20 20s9 20 20 20 20-9 20-20-9-20-20-20z" fill="#9F6847" p-id="11413"></path><path d="M314 602m-50 0a50 50 0 1 0 100 0 50 50 0 1 0-100 0Z" fill="#AD7823" p-id="11414"></path><path d="M314 662c-33.1 0-60-26.9-60-60s26.9-60 60-60 60 26.9 60 60-26.9 60-60 60z m0-100c-22.1 0-40 17.9-40 40s17.9 40 40 40 40-17.9 40-40-17.9-40-40-40z" fill="#9F6847" p-id="11415"></path><path d="M790 646m-50 0a50 50 0 1 0 100 0 50 50 0 1 0-100 0Z" fill="#AD7823" p-id="11416"></path><path d="M790 706c-33.1 0-60-26.9-60-60s26.9-60 60-60 60 26.9 60 60-26.9 60-60 60z m0-100c-22.1 0-40 17.9-40 40s17.9 40 40 40 40-17.9 40-40-17.9-40-40-40z" fill="#9F6847" p-id="11417"></path><path d="M606 538m-30 0a30 30 0 1 0 60 0 30 30 0 1 0-60 0Z" fill="#AD7823" p-id="11418"></path><path d="M606 578c-22.1 0-40-17.9-40-40s17.9-40 40-40 40 17.9 40 40-17.9 40-40 40z m0-60c-11 0-20 9-20 20s9 20 20 20 20-9 20-20-9-20-20-20z" fill="#9F6847" p-id="11419"></path><path d="M494 722m-30 0a30 30 0 1 0 60 0 30 30 0 1 0-60 0Z" fill="#AD7823" p-id="11420"></path><path d="M494 762c-22.1 0-40-17.9-40-40s17.9-40 40-40 40 17.9 40 40-17.9 40-40 40z m0-60c-11 0-20 9-20 20s9 20 20 20 20-9 20-20-9-20-20-20z" fill="#9F6847" p-id="11421"></path></svg>