<?xml version="1.0" standalone="no"?><!DOCTYPE svg PUBLIC "-//W3C//DTD SVG 1.1//EN" "http://www.w3.org/Graphics/SVG/1.1/DTD/svg11.dtd"><svg t="1687241648364" class="icon" viewBox="0 0 1024 1024" version="1.1" xmlns="http://www.w3.org/2000/svg" p-id="4423" xmlns:xlink="http://www.w3.org/1999/xlink" width="200" height="200"><path d="M1019.184009 381.667255c-13.243974-51.771899-93.309818-77.657848-234.177543-64.413874-60.199882-84.279835-160.131687-136.051734-273.909465-136.051734-178.793651 0-325.079365 133.643739-340.129336 299.795414 0 1.203998-0.601999 3.009994-0.601999 4.213992-127.021752 64.413874-180.599647 122.80776-167.355673 174.579659 13.243974 45.149912 73.443857 71.035861 173.97766 71.035861l19.865961 0 40.333921 0c66.821869 77.657848 160.131687 129.429747 273.909465 129.429747 180.599647 0 320.865373-129.429747 340.731335-297.387419C958.984127 504.475015 1039.651969 446.683128 1019.184009 381.667255zM70.433862 640.526749c0-6.621987 19.865961-38.527925 100.533804-84.279835 0 0.601999 0.601999 1.805996 0.601999 3.009994 6.621987 31.905938 13.243974 69.229865 26.487948 100.533804C116.787772 666.412698 77.05585 653.168724 70.433862 640.526749zM323.875367 641.128748l-13.243974 0c-13.243974 0-26.487948-12.641975-33.711934-25.885949-6.621987-19.263962-6.621987-45.149912-6.621987-64.413874 0-19.263962 13.243974-32.507937 33.711934-32.507937 19.865961 0 33.711934 12.641975 33.711934 32.507937 0 12.641975 0 32.507937 6.621987 51.771899C350.363316 615.242798 343.741329 635.10876 323.875367 641.128748zM483.405056 361.199295c-2.407995 15.651969-9.631981 29.497942-25.885949 34.313933-46.955908 12.641975-86.687831 38.527925-100.533804 77.657848-6.621987 12.641975-19.865961 19.263962-33.711934 19.263962l-13.243974 0c-19.865961-6.621987-26.487948-25.885949-19.865961-38.527925C317.25338 388.89124 377.453263 350.363316 437.653145 331.099353c14.447972-4.815991 28.895944 0.601999 37.925926 9.029982C481.599059 344.945326 484.609053 353.37331 483.405056 361.199295zM852.430335 485.211052c-6.621987-32.507937-13.243974-71.035861-26.487948-96.921811 86.687831 0 120.399765 12.641975 127.021752 19.263962C952.36214 414.175191 925.874192 446.683128 852.430335 485.211052z" p-id="4424"></path></svg>