<?xml version="1.0" standalone="no"?><!DOCTYPE svg PUBLIC "-//W3C//DTD SVG 1.1//EN" "http://www.w3.org/Graphics/SVG/1.1/DTD/svg11.dtd"><svg t="1687257019804" class="icon" viewBox="0 0 1024 1024" version="1.1" xmlns="http://www.w3.org/2000/svg" p-id="19672" xmlns:xlink="http://www.w3.org/1999/xlink" width="200" height="200"><path d="M227.4 754.7m-81 0a81 81 0 1 0 162 0 81 81 0 1 0-162 0Z" fill="#FFAFAF" p-id="19673"></path><path d="M884.4 475.7m-81 0a81 81 0 1 0 162 0 81 81 0 1 0-162 0Z" fill="#FFAFAF" p-id="19674"></path><path d="M721.05 738.05m-196.65 0a196.65 196.65 0 1 0 393.3 0 196.65 196.65 0 1 0-393.3 0Z" fill="#FFAFAF" p-id="19675"></path><path d="M379.5 375.8m-269.1 0a269.1 269.1 0 1 0 538.2 0 269.1 269.1 0 1 0-538.2 0Z" fill="#FFAFAF" p-id="19676"></path><path d="M219.2 780.33s2.07 43.48 83.07 25.48 108 27 108 27l243-18s63-18 99-9 93.29 16.55 99.21 3.77-9.21-75.77-9.21-75.77l-576 9" fill="#A2521C" p-id="19677"></path><path d="M222.87 777.31h631.19C832.61 640 868.46 498.05 819 363.4c-31.85-86.62-99-159-181.91-196.1-31-13.85-65.69-22.93-98.57-16.22-32.89-6.71-67.61 2.37-98.58 16.22C357 204.38 289.83 276.78 258 363.4c-49.53 134.65-13.68 276.6-35.13 413.91z" fill="#A2521C" p-id="19678"></path><path d="M383.13 477.18a2.87 2.87 0 0 0-1.34 4.53c12.65-14.83 29.54-26.68 48.68-30.38S471 453 484 467.57M414.6 439.45c0 0.63-1.2 0.32-1.18-0.32s0.67-1 1.23-1.32a72 72 0 0 1 59.9-2.16M445 395.07a35.55 35.55 0 0 1 37.91 2.2c-0.38-4.86-4.48-8.79-9.06-10.46s-9.59-1.56-14.47-1.42c-8.07 0.24-17.13 0.91-22.46 7M428.94 482.8c-7.39 0.47-12.58 7.33-16.19 13.8-4.36 7.79-8.07 16.27-8.27 25.2-0.33 15.32 10.84 30 25.52 34.33s31.65-1.37 41.21-13.34 11.54-29.3 5.62-43.43c-2.2-5.23-5.48-10.15-10.16-13.37-6.47-4.47-14.79-5.2-22.65-5.06-8.46 0.15-17.94 1.7-22.87 8.57" fill="#FFEFE5" p-id="19679"></path><path d="M441.45 524.74c-2.91 2-0.89 7.37 2.62 7.79s6.64-2.89 7.13-6.4a6.26 6.26 0 0 0-0.31-3.27c-1.28-3.16-6-3.9-8.59-1.67s-2.82 6.43-1.05 9.33a11.39 11.39 0 0 0 8.53 5 5.81 5.81 0 0 0 3-0.28 6.16 6.16 0 0 0 2.84-3.57 14.78 14.78 0 0 0 0.66-10 9.07 9.07 0 0 0-7.32-6.31 8.36 8.36 0 0 0-5.6 1.62c-4.7 3.39-4.87 11.41-0.33 15s12.31 1.57 14.52-3.79a15.82 15.82 0 0 0 0.69-7.65 13.9 13.9 0 0 0-2.32-7.16c-3.52-4.59-11.64-3.66-14.81 1.19s-1.55 11.87 2.81 15.69c2.54 2.23 6.19 3.54 9.36 2.37a9.79 9.79 0 0 0 5.15-5.24 13.72 13.72 0 0 0-1-13.66c-2.84-3.85-8.41-5.65-12.76-3.65s-6.67 7.92-4.23 12.03M538.78 543.36l-5.41 15.13c-1.77 5-3.46 10.77-0.63 15.21 3.84 6 12.74 5.1 19.68 3.46M516 606.74c-2.16 4.23 1 9.31 4.75 12.24a28.66 28.66 0 0 0 43.39-10M427.29 582.06a111.57 111.57 0 0 0-6.92 19.41M453.6 586.49a19.3 19.3 0 0 1 0.77 9.65M693.8 477.18a2.87 2.87 0 0 1 1.34 4.53c-12.65-14.83-29.54-26.68-48.68-30.38S606 453 593 467.57M662.33 439.45c0 0.63 1.2 0.32 1.18-0.32s-0.67-1-1.23-1.32a72 72 0 0 0-59.9-2.16M632 395.07a35.55 35.55 0 0 0-37.91 2.2c0.38-4.86 4.48-8.79 9.06-10.46s9.59-1.56 14.47-1.42c8.07 0.24 17.13 0.91 22.46 7M648 482.8c7.39 0.47 12.58 7.33 16.19 13.8 4.36 7.79 8.07 16.27 8.27 25.2 0.34 15.32-10.84 30-25.52 34.33s-31.65-1.37-41.21-13.34-11.54-29.3-5.62-43.43c2.2-5.23 5.49-10.15 10.16-13.37 6.47-4.47 14.79-5.2 22.65-5.06 8.46 0.15 18 1.7 22.87 8.57" fill="#FFEFE5" p-id="19680"></path><path d="M635.48 524.74c2.91 2 0.89 7.37-2.62 7.79s-6.64-2.89-7.13-6.4a6.26 6.26 0 0 1 0.31-3.27c1.28-3.16 6-3.9 8.59-1.67s2.82 6.43 1 9.33a11.39 11.39 0 0 1-8.53 5 5.83 5.83 0 0 1-3-0.28 6.16 6.16 0 0 1-2.84-3.57 14.78 14.78 0 0 1-0.66-10 9.07 9.07 0 0 1 7.32-6.31 8.4 8.4 0 0 1 5.61 1.62c4.69 3.39 4.87 11.41 0.32 15s-12.31 1.57-14.52-3.79a15.82 15.82 0 0 1-0.69-7.65 13.9 13.9 0 0 1 2.32-7.16c3.52-4.59 11.64-3.66 14.81 1.19s1.55 11.87-2.81 15.69c-2.54 2.23-6.19 3.54-9.36 2.37a9.79 9.79 0 0 1-5.15-5.24 13.75 13.75 0 0 1 1-13.66c2.84-3.85 8.41-5.65 12.76-3.65s6.58 7.92 4.18 12.06M649.64 582.06a111.57 111.57 0 0 1 6.92 19.41M623.33 586.49a19.3 19.3 0 0 0-0.77 9.65" fill="#FFEFE5" p-id="19681"></path><path d="M557.21 246.73c-31.13 70.29-94 120.53-154.54 167.9a23.41 23.41 0 0 1-0.45-17.17c-29.13 16.37-50.61 47.78-59 80.13-11.54 44.8-13.24 68-10.23 100.11l2.5-6.79c-0.92 25.12 11 49.57 28.59 67.55s40.32 39.69 63.81 48.63c13.1 5 12.83-0.3 23.38 8.93s16.18 25.17 9.65 37.57H601.2c-6.53-12.4-0.23-28.34 10.32-37.57s24.37-13.54 37.47-18.53c23.49-8.94 46.25-21 63.81-39s29.51-42.43 28.59-67.55l2.5 6.79c3-32.12 1.31-55.31-10.23-100.11-8.34-32.35-29.82-63.76-58.95-80.13a23.41 23.41 0 0 1-0.45 17.17C613.7 367.26 569 353.49 537.89 283.19" fill="#FFEFE5" p-id="19682"></path><path d="M555.09 245.52c-28.34 53.17-71 95.3-117 133.29-13 10.75-26.33 21.2-39.64 31.61l10 2.63a19.68 19.68 0 0 1-0.45-14c1.66-5.06-4.41-9.2-8.75-6.72-30 17.17-51.57 47.75-60.88 80.75-8.86 31.4-14.2 63.89-11.91 96.54 0.84 12 2.9 23.32 7.31 34.6 4.83 12.36 11.08 24.1 17.75 35.55 13.88 23.85 29.79 46.55 42.43 71.12 10.29 20 21.68 46.59 7.89 67.66-4.2 6.43 6.1 12.4 10.28 6 12.25-18.72 8.41-41.69 0.54-61.32-10-24.93-25.1-47.47-39.2-70.2-13.12-21.14-27.78-43.44-33.22-68.07-2.78-12.56-2.81-26.21-2.41-39 0.48-15.64 3-31.05 6.31-46.31 4.37-19.94 9.59-39.1 20.36-56.64 10.15-16.53 23.88-30.74 40.76-40.4l-8.74-6.72a29.9 29.9 0 0 0 0.45 20.33c1.73 4.46 6.25 5.52 9.95 2.63 47.49-37.16 96.29-75.46 129.84-126.38a217.29 217.29 0 0 0 22.8-45.1c0.93-2.55-3.11-4.21-4.37-1.84z" fill="#141E3D" p-id="19683"></path><path d="M394.94 459.53a5.89 5.89 0 0 0-4.93 4.08c-1 2.83 2.35 4.64 4.63 3.56 8.2-3.88 15.41-9.31 24-12.48a68.27 68.27 0 0 1 25.84-4.63 51.17 51.17 0 0 1 22.74 6.08 43.51 43.51 0 0 1 9.48 6.9c2.82 2.74 4.83 6.09 8.06 8.35 4.07 2.86 8.66-1.84 7.78-6-1.77-8.38-12.28-15.65-19.34-19.49a62.38 62.38 0 0 0-28-7.53 69.35 69.35 0 0 0-29.92 6.24c-9.12 4-19.07 10-25 18.23l4.31-1.13a5 5 0 0 1-1-0.66l0.76 1.86 1.08-1.48c0.83-0.47 0.53-2-0.52-1.92zM582.23 459.53a5.89 5.89 0 0 0-4.93 4.08c-1 2.83 2.35 4.64 4.63 3.56 8.2-3.88 15.41-9.31 24-12.48a68.27 68.27 0 0 1 25.84-4.63 51.17 51.17 0 0 1 22.74 6.08A43.51 43.51 0 0 1 664 463c2.82 2.74 4.83 6.09 8.06 8.35 4.07 2.86 8.66-1.84 7.78-6-1.77-8.38-12.29-15.65-19.34-19.49a62.38 62.38 0 0 0-28-7.53 69.42 69.42 0 0 0-29.93 6.24c-9.12 4-19.06 10-25 18.23l4.31-1.13a5 5 0 0 1-1-0.66l0.76 1.86 1.08-1.48c0.83-0.47 0.53-2-0.52-1.92zM432.45 398.54c12.21-4.2 23.52-3.13 34.19 4.45 4.68 3.32 9.22-2.16 8.58-6.6-1.82-12.68-15.51-16.43-26.4-16.34-9.3 0.07-25.21 0.3-29.95 10.23-2.35 4.9 2.44 10.16 7.5 7.5 2.91-1.53 5-3.61 8.32-4.5a46 46 0 0 1 10.66-1.28c6.49-0.23 17.3-1.11 18.6 7.46l8.59-6.6c-12.39-8.66-30.92-8.59-42.92 0.78-2.3 1.8 0.2 5.77 2.83 4.86z" fill="#141E3D" p-id="19684"></path><path d="M432.45 482.8c-7.39 0.47-12.57 7.33-16.19 13.8-4.35 7.79-8.07 16.27-8.26 25.2-0.34 15.32 10.84 30 25.52 34.33s31.64-1.37 41.2-13.34 11.55-29.3 5.62-43.43c-2.19-5.23-5.48-10.15-10.15-13.37-6.48-4.47-14.79-5.2-22.66-5.06-8.45 0.15-17.94 1.7-22.87 8.57" fill="#B2C8DD" p-id="19685"></path><path d="M428.88 480.59c-8.57 0.54-14.21 6.06-18.89 12.81-6.09 8.79-11.28 19.6-11.05 30.6 0.39 18.4 14.84 35.27 32.91 38.73 18.64 3.57 38.44-5.39 47.86-21.94s8.62-40.15-4.32-54.84c-7.58-8.59-18.86-10.94-29.85-10.94-10.28 0-21.91 1.74-28.66 10.33-4.68 6 3.69 14.45 8.42 8.42 4.22-5.37 10.72-6.54 17.24-6.79 7-0.26 15.19-0.13 21.07 4.21 11.36 8.36 12.68 26.58 8.09 38.81a34 34 0 0 1-31.18 21.71c-13.64 0.17-25.52-9.25-29.43-22.2-2.63-8.72-0.49-17.67 2.91-25.86 2.95-7.08 6.94-17.17 15.47-18.67 2.43-0.43 1.88-4.48-0.59-4.33z" fill="#141E3D" p-id="19686"></path><path d="M440.38 522.61c-10.61-1-15 12-10.86 19.94 4.74 9.23 16.35 11.69 25.05 6.4 9.48-5.76 13.39-19.14 7.53-28.77-6.42-10.55-21.2-12.84-30.78-5.44-9.16 7.08-11.11 20.61-5.34 30.48 5.64 9.64 19.16 15.81 30.09 12.34 23.89-7.6 20.25-47.15-3.79-51.9a25.13 25.13 0 0 0-28.18 15.09c-4 9.52-2.16 21.75 5.58 29a26.24 26.24 0 0 0 28.43 4.75c10-4.22 15.63-13.72 15.84-24.45 0.21-10.26-3.75-21.73-13.32-26.77-8.54-4.51-19.63-4.18-27.54 1.57-18.73 13.61-12.51 44.16 9.73 50.31 28.85 8 43.32-33.38 21.79-50-8.89-6.87-21.95-8.59-31.46-1.76-11.16 8-13.94 21.35-8.18 33.56 3.74 7.91 15.7 10.56 22.81 6 8.13-5.24 10-14.35 6-22.8 1.39 2.94 1 5.14 0.47 8-0.55 1-0.6 1.16-0.14 0.35q1.74-2.84-3.17 2.95a7.92 7.92 0 0 1-3.62 0.87c-0.75 0-4-1.51-2.83-0.78 1.61 1-1.46-1.25-1.78-1.8-0.43-0.71-0.6-4.1-0.72-2.25-0.09 1.52 1.57-2.28-0.19 0.53 0.93-1.48 1.61-3.06 3.31-4 4.67-2.71 5.19 0.17 9 0.42 0.8 0.79 0.64 0.64-0.47-0.46l1 1.22c1.12 3.15-0.11-1 0.27 1.17q0.13 1.68 0.12 0.24c0-1.28 0-0.88-0.09 1.21-0.81 2.19-2.35 3.58-4.11 5.16 1.73-1.56-0.65 0.22-1.91 0.4s-4.44-1.14-2.16 0c-2-1-4.86-2.19-5.86-4.42-0.25-0.55-0.42-3-0.38-1.19a20.35 20.35 0 0 1 0.1 2.34l0.23-1.36c1-1.19 1.28-2.67 2.66-3.71 0.68-0.51 4.19-1.71 1.55-1.09 4-0.94 7 0.54 9 4q1.85 3.82 0.89 0.94l0.36 2a6.6 6.6 0 0 1-1.61 4.43c-3.52 4.11-11.44 4.2-14-1.06-0.3-0.6-0.53-3.88-0.58-1.93s0.24-0.78 0.61-1.48l12-5c-1.63-0.47-1.88-0.52-0.77-0.17 1 1.67 3.59 2.26 4.19 4.65v4.93l-4.69 5.95c-2.1 1.37-9.53 0.86-11.21-1.19l-3.86-6.63a14.29 14.29 0 0 0 1.31-4q2-3.12 6.6-0.07 9.39 3.17 4.24-1.74a4.82 4.82 0 0 1 1.42 3.72c-0.28-4.94-3.7-8.08-8.53-8.53zM536.37 542c-3.9 5.23-6.61 12.14-8.92 18.22-2.12 5.56-2.7 11.65 0.66 16.88 5 7.85 20.83 10.5 27.23 3.06 1.58-1.84 1.82-5.45-0.85-6.63-3.55-1.56-6.14-1.19-9.9-1-2.9 0.14-6.51 0.09-7.68-3.1-1.41-3.85 0.93-9.38 1.91-13.09 1.12-4.25 2.42-8.53 2.62-12.95 0.13-3-3.6-3.34-5.07-1.37zM505.68 612.41c-10.23 18.22 18.49 29.59 32.06 30.79 18.08 1.6 37.74-7.24 46.28-23.64 3.28-6.3-5.64-11.51-9.51-5.56a39.59 39.59 0 0 1-31 17.84 45.28 45.28 0 0 1-19.3-3.15c-4.77-2-15.76-7.27-13.21-14.06 1.16-3.09-3.7-5-5.27-2.22zM424.34 580.37a47.19 47.19 0 0 0-6.58 11.13c-1.62 3.84-4 8.41-1.39 12.28a4.69 4.69 0 0 0 6.25 1.64c3.89-2 4.19-6.61 5.18-10.44 1.05-4 1.84-8 2.66-12s-3.85-5.54-6.12-2.58zM535.59 283.83c8.71 24.09 21.94 45.95 40.27 64 16.81 16.56 36.42 29.82 55.75 43.2 13 9 25.92 18.1 38.38 27.82 3.71 2.89 8.22 1.84 10-2.63a30 30 0 0 0 0.46-20.33l-8.75 6.72c30.66 17.54 49.29 48.66 57.64 82.22 7.66 30.77 11.82 61.19 8.59 92.88-2.43 23.82-16.66 46.21-28.81 66.19-14.12 23.1-29.67 45.61-40.98 70.28-10 21.88-17.64 48.53-3.35 70.37 4.18 6.39 14.49 0.43 10.28-6-11.9-18.2-4.78-40.72 3.59-58.86 11.56-25 27.44-47.85 41.67-71.38 12.71-21 26.32-43.92 29.26-68.77 3.66-30.91-0.12-61.45-7.29-91.58-4.7-19.78-11.15-38.56-22.56-55.57-10.91-16.26-25-30.31-42.08-40.06-4.32-2.47-10.41 1.66-8.75 6.72a19.62 19.62 0 0 1-0.45 14l9.95-2.63c-20.46-16-42.16-30.08-63.34-45-18.52-13.11-36.07-27.42-50.35-45.14-9.48-11.79-17.6-25-24.76-38.3-1.26-2.34-5.3-0.74-4.37 1.85z" fill="#141E3D" p-id="19687"></path><path d="M642.58 393c-12-9.37-30.52-9.44-42.91-0.79l8.58 6.6c1.3-8.57 12.09-7.69 18.61-7.46a48.19 48.19 0 0 1 9.95 1.07c3.63 0.89 5.84 3 9 4.67 5 2.66 9.85-2.59 7.51-7.5-4.74-9.93-20.65-10.16-30-10.23-10.9-0.09-24.59 3.66-26.41 16.34-0.63 4.42 3.92 9.91 8.58 6.6 10.66-7.58 22-8.65 34.19-4.45 2.63 0.91 5.14-3.05 2.83-4.85z" fill="#141E3D" p-id="19688"></path><path d="M648.87 482.8c7.4 0.47 12.58 7.33 16.19 13.8 4.36 7.79 8.07 16.27 8.27 25.2 0.34 15.32-10.84 30-25.52 34.33s-31.64-1.37-41.21-13.34-11.54-29.3-5.62-43.43c2.2-5.23 5.49-10.15 10.16-13.37 6.48-4.47 14.79-5.2 22.65-5.06 8.46 0.15 18 1.7 22.87 8.57" fill="#B2C8DD" p-id="19689"></path><path d="M647.35 484.92c7.38 1.3 11.26 9.12 14 15.35 3.4 7.61 6.4 15.91 5.39 24.39-1.54 13-12.1 24.38-25 26.6-13.18 2.27-27.26-4.45-34.05-15.87-7.12-12-7.18-29.22 1.59-40.46 5.34-6.82 13.75-8.07 21.92-8.06 7.38 0 15.36 0.64 20.23 6.84 4.73 6 13.1-2.45 8.42-8.42-5.8-7.38-15.27-9.66-24.23-10.21-9.86-0.59-20.86 0.3-29.13 6.23-16 11.47-19.31 35.82-12.39 53.21 7.06 17.72 25 29.94 44.25 29 18.4-0.92 35.36-14.71 38.75-33.1 2.14-11.59-1.68-22.92-7.65-32.8-5-8.27-11.25-16.35-21.6-17-2.44-0.15-3 3.9-0.58 4.33z" fill="#141E3D" p-id="19690"></path><path d="M638 531.14a4.82 4.82 0 0 1 1.42-3.72q-5.16 4.92 4.24 1.74 4.6-3.06 6.6 0.07a14.64 14.64 0 0 0 1.32 4l-3.87 6.63c-6.26 7.64-18.64-2.16-15.86-9.69a10.9 10.9 0 0 1 3.53-4.44c1.54-0.48 1.73-0.55 0.59-0.23q-4.18 0.9 5.27 2.71c7.51 3.15 5.19 0.86 6.6 4.83-0.69-1.95 0.59-1.72-0.31 0.26-2.42 5.32-9.37 6.46-13.71 2.61a6.74 6.74 0 0 1-2.06-4.15c-0.19-1.46 1.05-4.06-0.1-1.81 2.25-4.4 5-7.33 10.19-6.1-2.11-0.5-0.08 0 0.77 0.46a7.9 7.9 0 0 1 3.1 3.59c1.09 2.56-0.36 1.78 0.61 0.55l0.12-1.55a2.3 2.3 0 0 1-0.44 2c-0.72 1.61-2.13 2.27-3.61 3.12q-4 1.92-1.16 1l-2.17 0.42-2.16-0.26c-2-1-2.41-1.18-1.32-0.56s0.76 0.26-1.29-1.48a4.68 4.68 0 0 1-2.33-3.39c-0.4-1-0.07-2.8-0.08-0.55 0.35-2 0.36-2.39 0-1.16-0.28 0.9-0.25 0.85 0.08-0.14 0.87-1 2.21-2.38 0.32-1 2.39-1.68 4.44-2.3 7.36-1.49s3.95 2.21 5.45 4.64c-0.94-1.52 0-1.48-0.2 0.19 0.49-3.4-0.15 0.27-0.4 0.86-0.59 1.37-1.58 1.91-2.66 2.79 1.92-1.56 0.11 0-1.32 0.31a6.88 6.88 0 0 1-4.56-0.72c-0.42-0.26-4.59-5.49-2.87-2.43-1.7-3-1.6-5.43 0-8.89-3.71 7.87-2.45 18.35 6 22.8 7.41 3.91 18.83 2.44 22.81-6 4.87-10.31 3.88-21.51-4-30.11s-20.58-9.65-30.6-4.92c-20 9.42-21 40.29-1.72 51.16 10.26 5.78 23.23 2.62 31.19-5.58a30.19 30.19 0 0 0 7.27-28.59c-5.83-21.53-38.28-25.77-47.82-4.88-4.21 9.21-5 21.62 0.61 30.46a26.71 26.71 0 0 0 26.14 12c23.64-3.18 29.07-34.64 10-47.49-9.63-6.51-23.47-4.49-31.23 4-8.39 9.14-9.23 22.61-3.78 33.48 12.11 24.14 49.19 8.11 45.87-16.58-1.77-13.22-14.49-22.91-27.77-18.45-13.67 4.6-18.26 20.86-9.59 32.2 7.23 9.44 22.68 11.75 29.8 0.76 2.92-4.52 3.92-10.46 1.14-15.33-2.2-3.86-6.38-6.83-11-6.39-4.8 0.45-8.24 3.55-8.53 8.53zM646.35 583c0.83 4.06 1.62 8 2.66 12 1 3.83 1.3 8.47 5.19 10.44a4.69 4.69 0 0 0 6.25-1.64c2.6-3.89 0.23-8.42-1.39-12.28a47.73 47.73 0 0 0-6.58-11.13c-2.26-2.94-6.92-1.35-6.13 2.58z" fill="#141E3D" p-id="19691"></path><path d="M428.72 584a9.75 9.75 0 0 0-14.4 5.21c-2.12 7 4.67 14 11.64 13.15 3.43-0.42 7-3.42 5.6-7.36-5-14.13-28.29-13.32-27.6 3.44 0.28 6.68 5.27 13.1 12.15 13.72 7.17 0.64 13.18-5.14 14.23-12 2.74-18-26.6-21-34.6-8.24-9.72 15.45 12.47 29 26.11 25.1a15.18 15.18 0 0 0 10.82-17.19c-1.24-7.95-7.51-13.8-15.16-15.73-7.38-1.87-18.22-1.21-24.06 4.23-5.41 5-6 13.07-3 19.54 3.49 7.55 11.2 11.27 19.12 12.34 8.08 1.1 17.82 0.88 25-3.41S446 604.09 443 596c-2.79-7.61-10.4-12.41-17.54-15.4-14.66-6.14-35.25-2.24-38.07 16.06-2.78 18.08 17.84 24.41 32.07 24 8.44-0.26 17.13-2.93 22.43-9.86 4.23-5.55 6-13.18 3.28-19.78-3.23-7.87-11.87-11.19-19.47-13.45s-16.27-3.34-23.95-0.82A25.51 25.51 0 0 0 386.92 612c6.87 14.39 27.39 17.52 41.69 16 7.26-0.77 14.35-3.39 18.78-9.48 4.78-6.57 4.95-15.36 1.75-22.65-6.63-15.08-26.73-24.17-42.51-20.62-14.86 3.34-25.61 21.32-16.4 35.05 8.2 12.22 27.34 16.22 41 13.56 14.73-2.86 24.4-16.82 19.94-31.55-4.77-15.74-20.41-23.53-36.12-20.72-8.28 1.47-15.66 5.64-22 11.06-5.83 5 2.63 13.38 8.42 8.42 6.9-5.91 16.55-9.89 25.69-7.61a17.86 17.86 0 0 1 13.16 14.73c2.34 18.23-24.12 15.75-34.11 10.44-7.73-4.11-10.18-12.26-3.14-18.59 6.86-6.18 17.61-3.74 24.86 0.39 6.62 3.77 15.63 12.83 9.94 21-4.13 6-14 5.2-20.25 4.56-7.88-0.82-18.45-2.6-20.86-11.5-1.85-6.81 1.38-14 8.15-16.34 7.91-2.78 18.62 0 25.71 4 8.64 4.82 1.43 14-5.49 15.79s-18.85 1.49-24.18-4c-6.46-6.64 3.41-14.38 9.87-14.59 5.65-0.18 22.53 4.68 21.17 12.82-1.42 8.53-18.75 7.3-24.51 5.4-3.4-1.12-7.81-4.22-7-8.48 0.87-4.46 8.82-4.39 12.31-3.91 3.67 0.5 9.25 3.27 8.12 7.93-0.87 3.6-5.74 2.7-8.34 1.85-2.94-1-10.47-4.46-5.67-7.92 2-1.45 11.11-2.1 11.78 0.93 0.63 2.77-3.41 2.86-3-0.17 0.33-2.34 3.92-1.75 4.63 0.2l4.06-7.15c-2.11 0.83-0.53-1.45 1.63-0.6 3.79 1.49 5.85-4.32 2.68-6.34zM666.43 584a9.75 9.75 0 0 0-14.4 5.21c-2.12 7 4.67 14 11.64 13.15 3.43-0.42 7-3.42 5.6-7.36-5-14.13-28.29-13.32-27.6 3.44 0.28 6.68 5.27 13.1 12.15 13.72 7.17 0.64 13.18-5.14 14.23-12 2.74-18-26.6-21-34.6-8.24-9.72 15.45 12.47 29 26.11 25.1a15.18 15.18 0 0 0 10.82-17.19c-1.24-7.95-7.51-13.8-15.15-15.73-7.39-1.87-18.23-1.21-24.07 4.23-5.41 5-6 13.07-3 19.54 3.49 7.55 11.2 11.27 19.12 12.34 8.08 1.1 17.82 0.88 25-3.41s11.35-12.65 8.39-20.75c-2.79-7.61-10.4-12.41-17.53-15.4-14.66-6.14-35.26-2.24-38.08 16.06-2.78 18.08 17.84 24.41 32.07 24 8.45-0.26 17.13-2.93 22.43-9.86 4.24-5.55 6-13.18 3.28-19.78-3.23-7.87-11.87-11.19-19.47-13.45s-16.27-3.34-23.95-0.82a25.51 25.51 0 0 0-14.79 35.2c6.87 14.39 27.39 17.52 41.69 16 7.26-0.77 14.35-3.39 18.78-9.48 4.78-6.57 4.95-15.36 1.75-22.65-6.63-15.08-26.73-24.17-42.51-20.62-14.86 3.34-25.6 21.32-16.4 35.05 8.2 12.22 27.34 16.22 41 13.56 14.73-2.86 24.41-16.82 19.94-31.55-4.77-15.74-20.41-23.53-36.12-20.72-8.28 1.47-15.66 5.64-22 11.06-5.83 5 2.63 13.38 8.42 8.42 6.91-5.91 16.56-9.89 25.69-7.61A17.89 17.89 0 0 1 678 598.22c2.33 18.23-24.13 15.75-34.12 10.44-7.73-4.11-10.18-12.26-3.14-18.59 6.86-6.18 17.62-3.74 24.87 0.39 6.62 3.77 15.62 12.83 9.94 21-4.14 6-14 5.2-20.26 4.56-7.88-0.82-18.45-2.6-20.86-11.5-1.84-6.81 1.38-14 8.15-16.34 7.92-2.78 18.62 0 25.71 4 8.64 4.82 1.43 14-5.49 15.79s-18.85 1.49-24.17-4c-6.47-6.64 3.4-14.38 9.86-14.59 5.66-0.18 22.53 4.68 21.18 12.82-1.43 8.53-18.76 7.3-24.52 5.4-3.4-1.12-7.81-4.22-7-8.48 0.87-4.46 8.82-4.39 12.31-3.91 3.67 0.5 9.25 3.27 8.12 7.93-0.86 3.6-5.74 2.7-8.34 1.85-2.94-1-10.47-4.46-5.67-7.92 2-1.45 11.11-2.1 11.79 0.93 0.62 2.77-3.42 2.86-3-0.17 0.34-2.34 3.93-1.75 4.63 0.2l4.06-7.15c-2.11 0.83-0.52-1.45 1.63-0.6 3.79 1.49 5.85-4.32 2.68-6.34z" fill="#EE8179" p-id="19692"></path><path d="M628.91 510.85c-4.59-3.54-10.53 2.52-9 7.35 1.59 5.13 8.1 6.95 12.3 3.82a9.3 9.3 0 0 0 3.57-6 7.31 7.31 0 0 0-0.45-4.83 7.14 7.14 0 0 0-2.88-2.7c-5.71-3.12-13.41 2-11.79 8.59a5.38 5.38 0 0 0 4.48 3.86c1.91 0.25 4.54-0.63 5.37-2.58 0.08-0.17 0.15-0.35 0.23-0.52l0.56-1.33-0.33 0.77c0.33-0.64-0.2 0.24-0.33 0.39 0.61-0.7-0.75 0.62-0.25 0.21 0.14-0.11 0.88-0.39 0.06-0.07s0.39 0.14-0.46 0.1c-1.07 0 0.53 0.3-0.47 0-0.19-0.06-1.37-0.56-0.74-0.15l-2.2-2.86c0.32 0.93 0.11 0.72 0.24-0.11-0.16 0.49-0.13 0.51 0.07 0a5.17 5.17 0 0 1-0.39 0.68 0.89 0.89 0 0 1 0.49-0.5c-0.47 0.26-0.45 0.26 0 0q0.88-0.06 0.12 0h0.1c-0.46-0.15-0.45-0.14 0 0 0.36 0.34 0.38 0.35 0 0a1.22 1.22 0 0 1 0.37 0.64c0.05 0.48 0.06 0.49 0 0a0.92 0.92 0 0 1-0.13 0.59c0.22-0.37 0.23-0.43 0-0.17-0.48 0.1 0.53 0-0.12 0 3-0.14 3.57-3.59 1.42-5.24zM645 526.76a3.59 3.59 0 0 0-5.18 0l1.41-0.83a3.76 3.76 0 0 0-2.83 3.93 3.91 3.91 0 0 0 1.52 3 3.83 3.83 0 0 0 3.38 0.7 5.25 5.25 0 0 0 3.8-5.09 5.43 5.43 0 0 0-1.48-3.68 6 6 0 0 0-4-1.45l1.17 0.16a9.51 9.51 0 0 0-2.31-0.3 4.89 4.89 0 0 0-2.87 1 4.41 4.41 0 0 0-1.7 2.46 5.8 5.8 0 0 0 0.53 4.09 5.29 5.29 0 0 0 2.62 2.32 5.64 5.64 0 0 0 6.29-1.17 5.18 5.18 0 0 0 1.44-3.5 4.93 4.93 0 0 0-4.94-4.94 4.87 4.87 0 0 0-3.5 1.45 0.54 0.54 0 0 1-0.15 0.15l1-0.77h-0.1l1.18-0.5a0.65 0.65 0 0 1-0.2 0.05l1.31-0.17h-0.22l1.31 0.18a3.38 3.38 0 0 1-0.42-0.13l1.17 0.49a0.52 0.52 0 0 1-0.18-0.1l1 0.75-0.07-0.07 0.75 1a0.78 0.78 0 0 1-0.11-0.18l0.48 1.14v-0.1l-2.17 5.34c0.26-0.14 0.54-0.26 0.81-0.39l-1.07 0.45h0.18l-1.17 0.15a6.49 6.49 0 0 1 0.76 0l-1.16-0.15h0.19l-2.61-2a2.26 2.26 0 0 1 0.22 0.37l-0.44-1a5.29 5.29 0 0 1 0.13 0.54l-0.15-1.13a3 3 0 0 1 0 0.42l0.15-1.1a3.33 3.33 0 0 1-0.16 0.64l3.74-2.84h-0.09l1 0.13h-0.08l0.89 0.38-0.08-0.06 0.75 0.58a5.71 5.71 0 0 0-1-0.74l1.47 3.61c0.09-0.42-0.1-0.21-0.56 0.63a1.89 1.89 0 0 1-2.39 1 2.93 2.93 0 0 0 3.23-1.32 3 3 0 0 0-0.45-3.46zM435.74 514.29a13.26 13.26 0 0 0-0.79 3.58 3.19 3.19 0 0 0 2.35 3.13c1.18 0.21 2.35 0.43 3.53 0.61 2.63 0.41 4.7-1 4.92-3.74 0.15-1.86 0.6-4-0.41-5.65a6.56 6.56 0 0 0-5.23-3 7.18 7.18 0 0 0-7.6 6.75c-0.21 4.18 3.44 7.08 7.29 7.41a7.3 7.3 0 0 0 7.73-7c0.18-4.79-4.5-9.25-9.31-7.83a5.15 5.15 0 0 0-3.72 4.88c0.09 2.11 1.49 4.45 3.72 4.88a2.92 2.92 0 0 1 0.4 0.1q-1.94-0.81 0.38 0.17c-0.91-0.43-1.14-0.52-0.68-0.28s0.24 0.15-0.18-0.16-0.48-0.37-0.22-0.12c-0.57-0.79-0.72-1-0.43-0.53 0.4 0.7-0.41-1.42-0.16-0.25l-0.19-1.38a3.22 3.22 0 0 1 0 0.62l0.19-1.37c-0.08 0.55-0.34 0.72 0.28-0.44l-0.11 0.18a2.67 2.67 0 0 1 1-1q0.61-0.44 0.3-0.24c-0.35 0.22-0.08 0.11 0.82-0.31-0.17 0-0.34 0.1-0.53 0.13l1.36-0.19a3.65 3.65 0 0 1-0.74 0l1.36 0.18c-0.18 0-0.37-0.1-0.55-0.12 0.92 0.42 1.16 0.52 0.71 0.3-0.29-0.18-0.22-0.12 0.21 0.19a3 3 0 0 1 0.75 0.85c-0.17-0.3 0.42 1.45 0.23 0.44l0.18 1.34a2.61 2.61 0 0 1 0-0.56l-0.18 1.33c0.18-0.74-0.5 1-0.28 0.6 0.38-0.7-0.32 0.47-0.42 0.47s0.86-0.73-0.08 0c-0.74 0.57-0.18 0.17 0 0.06 0.47-0.34-0.58 0.24-0.63 0.26 0.69-0.24-1 0.06-0.61 0s-1.23-0.34-0.6-0.09c-0.28-0.11-1-0.58-0.43-0.11l-2-2.64c0.26 1.06 0.53 2.13 0.8 3.19l2.71-4.78c-1.18 0.21-2.35 0.45-3.53 0.69l3.95 2.24a10.57 10.57 0 0 0-0.94-2.72c-0.89-1.56-3.77-1.88-4.57 0zM446.07 529.41a3.88 3.88 0 0 0 0.62 2c0.16 0.23 0.4 0.44 0.54 0.67l-0.36-0.47 0.49 0.63a4.15 4.15 0 0 0 1.68 1l-2-1.5 0.07 0.11a3.79 3.79 0 0 0 4.16 1.69 5 5 0 0 0 3.58-4.89 5.13 5.13 0 0 0-0.83-2.75 4.66 4.66 0 0 0-2.66-2.07 5.54 5.54 0 0 0-2.56 0l1.13-0.15h-0.09l2.18 0.59a4.42 4.42 0 0 0-4.46 0 5.63 5.63 0 0 0-2.26 2.63 5.34 5.34 0 0 0-0.47 2 5 5 0 0 0 3.56 5 4.73 4.73 0 0 0 4.17-0.86 4.68 4.68 0 0 0 1.88-3.75 4.74 4.74 0 0 0-2.37-4.13l-0.08-0.06 1 0.74-0.07-0.07 0.73 1a1 1 0 0 1-0.11-0.17l0.47 1.11a0.83 0.83 0 0 1-0.06-0.21l0.16 1.22a0.74 0.74 0 0 1 0-0.21l-0.17 1.2a1.58 1.58 0 0 1 0.09-0.31l-0.44 1.06a4.69 4.69 0 0 0 0.57-1.74 4.06 4.06 0 0 0-0.09-1.8l-0.44 3.32 0.05-0.08-1.53 1.52 0.18-0.11-1 0.43h0.1-2.22 0.1l-1-0.42a1.28 1.28 0 0 1 0.28 0.16l-0.82-0.64a1.14 1.14 0 0 1 0.15 0.16l-0.63-0.82a1.79 1.79 0 0 1 0.22 0.38l-0.4-1a1.77 1.77 0 0 1 0.08 0.33l-0.14-1a1.2 1.2 0 0 1 0 0.33l0.14-1a0.83 0.83 0 0 1-0.06 0.21l0.38-0.9a1.14 1.14 0 0 1-0.1 0.19l0.58-0.75a4.23 4.23 0 0 0-1.21 2.07L449 527a7.32 7.32 0 0 0-1.12 0.46l1.53-0.42h-0.31l0.77 0.11-0.2-0.05a1.83 1.83 0 0 1 0.84 0.49 2.67 2.67 0 0 0-2.86-0.54 2.62 2.62 0 0 0-1.62 2.4z" fill="#FFFFFF" p-id="19693"></path><path d="M625 793.22s-163.81 14.19-173.66-19.29 94.57-86.84 94.57-86.84L606.06 738" fill="#FFEFE5" p-id="19694"></path><path d="M424 753.42c22.17 37.88 72.06 56.94 113.84 43.5-9.55 12.53-11.39 29.13-17.26 43.76-10.32 25.68-34.86 45.5-62.35 48.61s-56.62-11.51-69.23-36.16a65.69 65.69 0 0 1-3.83-49.7c5.53-16.81 17.65-30.62 30.59-42.69M653.1 753.42c-22.18 37.88-72.06 56.94-113.85 43.5 9.56 12.53 11.4 29.13 17.27 43.76 10.31 25.68 34.85 45.5 62.35 48.61s56.57-11.51 69.13-36.16a65.69 65.69 0 0 0 3.83-49.7c-5.52-16.81-17.64-30.62-30.58-42.69" fill="#FFCD2C" p-id="19695"></path><path d="M421.12 754.16c8.2 21.83 28.43 36.86 49.44 45.34a103.11 103.11 0 0 0 68.69 3.11l-6.67-8.67c-12.12 16.5-12.55 38.16-23.21 55.42-9.35 15.15-24.35 27-41.52 31.92-37 10.62-78.4-15.6-79.93-55.18-1-25.8 15-43.93 31.82-61.3 5.22-5.38-2.55-12.87-8.12-8.12-17.9 15.29-32.87 36.12-35.3 60.06a70.27 70.27 0 0 0 23.79 60c15.42 13.22 36.17 20.51 56.53 18.69 20.89-1.87 40.6-12.46 54.31-28.27a90 90 0 0 0 17.41-31c4.12-12.43 6.52-25.45 14.41-36.21 3.09-4.21-2-10.13-6.66-8.67-20.16 6.32-41.46 4.93-61.16-2.42-19.95-7.44-35.4-21.6-49.13-37.38-1.79-2.07-5.68 0.12-4.7 2.73z" fill="#141E3D" p-id="19696"></path><path d="M651 751.43c-13.74 15.79-29.18 29.92-49.12 37.38-19.69 7.37-41 8.74-61.17 2.42-4.61-1.45-9.75 4.45-6.66 8.67 7.23 9.86 9.85 21.6 13.42 33.08 3.16 10.18 7.43 19.82 13.82 28.4 12.28 16.51 30.47 29 50.86 32.89 43.47 8.21 87.59-23.82 88.69-69 0.66-27.29-15.56-51.42-35.64-68.57-5.56-4.75-13.33 2.74-8.12 8.12 14.8 15.27 29.89 31.28 31.68 53.63a59 59 0 0 1-22.1 51.21c-14 11.06-33 16.39-50.63 13.28-17.85-3.15-34.1-13.63-44.91-28.13-6.52-8.76-10.32-18.51-13.41-28.9-3.31-11.13-6.5-22.47-13.47-31.95l-6.66 8.67a103 103 0 0 0 68.69-3.11c21-8.51 41.22-23.49 49.43-45.34 1-2.61-2.9-4.8-4.7-2.73zM334 570.49c-3.83 18.13 3.87 39 13.42 54.2 10.6 16.82 26.17 31.37 41.2 44.21a156.44 156.44 0 0 0 24.71 17.77c8.11 4.56 17 7.36 25 12.14 7.54 4.5 15.2 10.12 20.24 17.44 2.55 3.71 3.51 6.31 3.58 10.63 0.24 16.67-13.77 31.88-24.62 42.85-5.38 5.43 3 13.82 8.38 8.39 11.73-11.86 24.1-26.36 27.31-43.28 2.2-11.84-1.22-21.77-9.22-30.68-6.43-7.1-14.6-12.89-23-17.47-8.53-4.66-17.78-7.57-26.16-12.56-18.24-10.86-34.41-25.58-49.12-40.79a108.72 108.72 0 0 1-19.88-28.67c-5.29-11.07-6.93-22.22-8.81-34.18-0.24-1.56-2.76-1.48-3.07 0z" fill="#141E3D" p-id="19697"></path><path d="M739.79 570.49c-1.6 11.12-3.11 21.63-7.7 32a106.28 106.28 0 0 1-18.09 27.9c-15.1 16.8-35 28.59-55.65 37.2-10.07 4.19-20.5 7.46-30.52 11.78-7.94 3.44-16.65 7.78-22.44 14.42-8.14 9.35-11.39 22.87-11.49 35-0.18 22.73 11.35 43.14 26.93 59 5.36 5.45 13.74-2.94 8.38-8.39-13.41-13.64-23.6-31-23.45-50.59 0.08-9.69 2.84-21.83 9.56-28.23 7.62-7.26 18.45-11.06 28.09-14.75a293 293 0 0 0 29.92-12.92c18.56-9.54 36.21-22.09 49.22-38.59 13.4-17 24.75-41.64 20.36-63.81-0.3-1.48-2.85-1.56-3.08 0z" fill="#141E3D" p-id="19698"></path><path d="M703.27 811.66c14-10 31.21-4.21 45.68 1.4 16 6.22 32 11.19 49.25 12.41 16.17 1.15 32.87-0.87 47.95-7 6.48-2.62 14.91-5.63 16.43-13.34a33.55 33.55 0 0 0 0-12.75c-13.48-72-10-145.45-9.71-218.25 0.3-71.91-3.31-145-28.53-213.06a357.18 357.18 0 0 0-100.44-145 344.11 344.11 0 0 0-73-48.77c-29.9-14.74-63.27-26.3-97.08-24.21a121.74 121.74 0 0 0-24.82 4.16c-7.37 2-4.24 13.53 3.16 11.48 32.43-9 66.42-1.26 96.75 11.49a321.78 321.78 0 0 1 73.74 43.63 348 348 0 0 1 104 134.72c27.36 63.1 33.64 132.53 34.33 200.57 0.71 70-3.72 140.29 4.66 210 1 8.71 2.26 17.4 3.7 26.05 0.89 5.35 3.17 11.64 1.69 17.12-0.42 1.55-2.46 2.12-4.79 3.24a79.6 79.6 0 0 1-12 4.49 95.32 95.32 0 0 1-23.31 3.73 126.21 126.21 0 0 1-46.93-7.63c-15.08-5.38-30-13-46.53-11.72a39.88 39.88 0 0 0-20.22 7c-6.18 4.42-0.24 14.75 6 10.28z" fill="#141E3D" p-id="19699"></path><path d="M379.26 802.86c-12.55-8.53-25.94-14.62-41.43-13.7-13.36 0.8-26 5.34-38.7 9.23-12.24 3.76-25.44 7.47-38.22 4.2-14.43-3.69-28.37-15-37.5-26.47l0.93 7.22 3.51-7.8c1.89-4.19 2.42-8.31 3-12.9 1.77-13.76 3-27.59 3.86-41.45 1.75-28.48 1.88-57 1.66-85.57-0.44-56.65-2.3-113.53 4.15-169.94 6.13-53.68 20.72-106.46 48-153.36a345.15 345.15 0 0 1 94.15-104.88C404.32 191.63 428 178 452.9 168.2c29.06-11.44 61.07-18 91.79-9.47 7.4 2.05 10.55-9.43 3.17-11.48-52.48-14.54-108.46 9.34-152.37 37.1a357.61 357.61 0 0 0-103.32 100c-29.93 43.65-48.79 93.45-58.28 145.39-10.54 57.63-10.38 116.4-9.74 174.77 0.35 32.24 0.84 64.51-0.36 96.74-0.61 16.3-1.65 32.59-3.36 48.82-0.6 5.64-0.49 12.93-2.23 18.06-1.06 3.14-2.78 6.17-4.14 9.2a6.33 6.33 0 0 0 0.93 7.21 93.16 93.16 0 0 0 36.17 27.28c13.14 5.4 27.22 4.39 40.74 1s26.37-8.91 40.1-11.12c15.73-2.53 28.4 2.69 41.25 11.44 6.36 4.32 12.32-6 6-10.29z" fill="#141E3D" p-id="19700"></path><path d="M852.34 188.46h-0.05c-24.72-5.83-35.2-28.89-38.1-36.74a1 1 0 0 0-1.8 0c-3 7.82-13.68 30.78-38.46 36.36h-0.08a1 1 0 0 0-0.24 1.81c10.46 5 36.82 20.13 39.09 47.37h0.3c2.51-27.39 29-42.16 39.51-47a1 1 0 0 0-0.17-1.8z" fill="#FFCD2C" p-id="19701"></path><path d="M853.84 183c-13.27-3.06-23.5-12.5-30.09-24.11-2-3.52-3.13-9.1-6.11-11.74a6.51 6.51 0 0 0-9.22 0.54c-1.62 1.87-2 3.89-2.87 5.81-5.29 11.2-13.55 21.27-25 26.48-4.81 2.18-17.79 4.23-11.84 12.69 2.52 3.57 8.85 5.5 12.5 7.85 12.94 8.34 24.31 20.79 25.89 36.71 0.3 3 2.34 5.61 5.63 5.63h0.35c3.28 0 5.3-2.61 5.62-5.62 1.44-13.42 10-24.6 20.47-32.53a86.31 86.31 0 0 1 12.86-8c2-1 4.11-1.76 5.49-3.7 2.48-3.46 0.78-7.21-2.31-9.48-5.85-4.29-11.47 5.47-5.68 9.72l0.65 0.47-2.79-4.86 0.09 0.74 1.65-4c-0.73 0.83-3.37 1.65-4.55 2.29q-3.25 1.74-6.36 3.75a86.31 86.31 0 0 0-13.22 10.5c-9.83 9.53-16.07 21.47-17.54 35.13l5.63-5.63h-0.35l5.62 5.62c-1.35-13.66-7.54-25.56-17.26-35.18a87.52 87.52 0 0 0-13.35-10.69q-3-1.94-6-3.65c-1.21-0.68-3.84-1.53-4.61-2.43l1.65 4 0.1-0.74-2.89 4.84q-1.63 0.26 0.84-0.27 1.41-0.36 2.79-0.81c1.34-0.44 2.64-0.94 3.94-1.48a52.6 52.6 0 0 0 8.41-4.33A58.82 58.82 0 0 0 805 175.13a73.89 73.89 0 0 0 8.41-12.2c0.9-1.65 1.74-3.34 2.51-5.05 0.38-0.85 0.75-1.71 1.1-2.58 0.59-1.46 1.62-1.89-0.06-0.17l-4 1.65h0.73l-4-1.65c-1.69-1.76-0.66-1.25-0.09 0.19 0.34 0.87 0.72 1.72 1.09 2.58 0.76 1.72 1.57 3.42 2.46 5.08a73.24 73.24 0 0 0 8.3 12.27 54.85 54.85 0 0 0 29.4 18.63c7.05 1.63 10.06-9.22 2.99-10.88z" fill="#141E3D" p-id="19702"></path><path d="M178.92 506.88c-24.72-5.83-35.2-28.89-38.1-36.74a1 1 0 0 0-1.8 0c-3 7.82-13.68 30.78-38.46 36.37h-0.08a1 1 0 0 0-0.24 1.81c10.46 5 36.82 20.13 39.09 47.37h0.34c2.51-27.4 29-42.17 39.51-47a1 1 0 0 0-0.26-1.81z" fill="#FFCD2C" p-id="19703"></path><path d="M180.42 501.45c-13.27-3.06-23.5-12.5-30.09-24.11-2-3.52-3.13-9.1-6.11-11.74a6.5 6.5 0 0 0-9.21 0.54c-1.63 1.87-2 3.89-2.88 5.81-5.29 11.2-13.55 21.27-25 26.48-4.81 2.18-17.79 4.23-11.84 12.69 2.52 3.57 8.85 5.5 12.5 7.85 12.94 8.34 24.31 20.79 25.89 36.71 0.3 3 2.34 5.61 5.63 5.63h0.35c3.28 0 5.3-2.61 5.62-5.62 1.44-13.42 10-24.6 20.47-32.53a86.31 86.31 0 0 1 12.86-8c2-1 4.11-1.76 5.49-3.7 2.48-3.46 0.78-7.21-2.31-9.48-5.85-4.29-11.46 5.47-5.68 9.72l0.65 0.47-2.76-4.82 0.09 0.75 1.65-4c-0.73 0.83-3.37 1.65-4.55 2.29q-3.25 1.74-6.35 3.75a86.39 86.39 0 0 0-13.24 10.4c-9.83 9.53-16.07 21.47-17.54 35.13l5.63-5.63h-0.35l5.62 5.62c-1.35-13.66-7.54-25.56-17.26-35.18a87.52 87.52 0 0 0-13.35-10.69q-2.94-1.94-6-3.65c-1.21-0.68-3.84-1.53-4.61-2.43l1.65 4 0.1-0.74-2.79 4.86q-1.64 0.26 0.84-0.27 1.41-0.36 2.79-0.81c1.34-0.44 2.64-0.94 3.94-1.48a51.8 51.8 0 0 0 8.41-4.33 58.82 58.82 0 0 0 12.94-11.39 73.89 73.89 0 0 0 8.41-12.2c0.9-1.65 1.74-3.34 2.51-5.05 0.38-0.85 0.75-1.71 1.1-2.58 0.59-1.46 1.62-1.89-0.06-0.17l-4 1.65h0.73l-4-1.65c-1.69-1.76-0.66-1.25-0.09 0.19 0.34 0.87 0.72 1.72 1.09 2.58 0.76 1.72 1.57 3.42 2.46 5.08a73.24 73.24 0 0 0 8.3 12.27 54.85 54.85 0 0 0 29.4 18.63c7.01 1.63 10.02-9.22 2.95-10.85z" fill="#141E3D" p-id="19704"></path></svg>