<?xml version="1.0" standalone="no"?><!DOCTYPE svg PUBLIC "-//W3C//DTD SVG 1.1//EN" "http://www.w3.org/Graphics/SVG/1.1/DTD/svg11.dtd"><svg t="1687241723108" class="icon" viewBox="0 0 1024 1024" version="1.1" xmlns="http://www.w3.org/2000/svg" p-id="5580" xmlns:xlink="http://www.w3.org/1999/xlink" width="200" height="200"><path d="M960.167183 449.688839c0-17.253966-13.980409-31.233352-31.234375-31.233352S897.699456 432.434873 897.699456 449.688839c0 177.968297-172.802648 322.749752-385.217479 322.749752-0.548492 0-1.059122 0.13303-1.600451 0.161682-6.865361-0.231267-13.842263 1.647523-19.761066 6.081509L374.512672 866.139669l0-83.289961c0-1.542122-0.237407-3.018753-0.453325-4.499477 2.406816-14.398942-5.573949-28.961612-19.739577-34.328853-137.929396-52.209082-227.055273-167.739329-227.055273-294.332539 0-17.253966-13.980409-31.233352-31.233352-31.233352s-31.233352 13.980409-31.233352 31.233352c0 146.375765 96.360651 279.546787 247.248174 344.541057l0 134.378523c0 11.834536 6.680143 22.642696 17.264199 27.939329 4.422729 2.206248 9.201569 3.294023 13.970176 3.294023 6.628978 0 13.227256-2.115174 18.738783-6.243191l158.490687-118.868271C763.656577 831.018777 960.167183 659.787928 960.167183 449.688839z" fill="#999999" p-id="5581"></path><path d="M103.473653 374.938368c16.186657 5.876847 34.121122-2.53166 39.987736-18.758226 48.802496-134.971018 200.438055-229.241055 368.766808-229.241055 169.051207 0 320.879148 94.789876 369.224226 230.501768 4.554736 12.780071 16.582677 20.761859 29.424146 20.761859 3.477194 0 7.015787-0.589424 10.482749-1.819438 16.247033-5.78475 24.727171-23.658839 18.941398-39.906895C882.347816 173.778882 710.317765 64.47136 512.228197 64.47136c-197.224874 0-369.021611 108.698654-427.513794 270.480294C78.848813 351.167988 87.246063 369.071753 103.473653 374.938368z" fill="#999999" p-id="5582"></path><path d="M390.596999 300.54503c-17.253966 0-31.233352 13.980409-31.233352 31.233352l0 30.470989c0 17.253966 13.980409 31.233352 31.233352 31.233352s31.234375-13.980409 31.234375-31.233352l0-30.470989C421.830351 314.524416 407.850965 300.54503 390.596999 300.54503z" fill="#999999" p-id="5583"></path><path d="M634.366955 300.54503c-17.253966 0-31.234375 13.980409-31.234375 31.233352l0 30.470989c0 17.253966 13.980409 31.233352 31.234375 31.233352s31.233352-13.980409 31.233352-31.233352l0-30.470989C665.60133 314.524416 651.620921 300.54503 634.366955 300.54503z" fill="#999999" p-id="5584"></path><path d="M589.507258 441.99153c-14.305821-9.405207-33.593096-5.38873-43.159986 8.764618-0.132006 0.193405-13.614066 19.754926-34.172287 19.754926-19.989263 0-32.423457-18.098193-33.267685-19.36914-9.160637-14.417361-28.254507-18.809391-42.834574-9.770528-14.650675 9.109472-19.155269 28.367071-10.055007 43.017746 11.214413 18.047028 41.970904 48.589648 86.157265 48.589648 43.963281 0 75.105558-30.318516 86.574774-48.223305C607.970772 470.358601 603.78238 451.396737 589.507258 441.99153z" fill="#999999" p-id="5585"></path></svg>