<?xml version="1.0" standalone="no"?><!DOCTYPE svg PUBLIC "-//W3C//DTD SVG 1.1//EN" "http://www.w3.org/Graphics/SVG/1.1/DTD/svg11.dtd"><svg t="1687243227957" class="icon" viewBox="0 0 1024 1024" version="1.1" xmlns="http://www.w3.org/2000/svg" p-id="10226" xmlns:xlink="http://www.w3.org/1999/xlink" width="200" height="200"><path d="M2.1 873.8v81.6c0 11.5 9.3 20.8 20.8 20.8h980.2c11.5 0 20.8-9.3 20.8-20.8v-81.6c0-11.5-9.3-20.8-20.8-20.8H23c-11.5 0-20.9 9.3-20.9 20.8zM509.3 322.8h399.3c4.1 0 8.2-1.2 11.6-3.6l77.3-52.1c12.2-8.2 12.3-26.1 0.2-34.4l-26.1-18.1c-1.5-1-3-1.8-4.7-2.4L519.3 47.3c-4.7-1.7-9.8-1.7-14.5 0L55.8 214c-1.5 0.6-3 1.3-4.4 2.3l-24.6 16.6c-12.3 8.3-12.3 26.3 0 34.6l77 51.8c3.4 2.3 7.5 3.6 11.6 3.6h393.9zM141.3 378.9v346h-23c-6.2 0-12.1 2.8-16.1 7.6l-27.3 50.3c-11.2 13.6-1.5 34.1 16.1 34.1h844.3c17.5 0 27.2-20.2 16.3-33.8l-26.4-50.3c-4-5-10-7.9-16.3-7.9H888v-346c0-11.5-9.3-20.8-20.8-20.8h-99.3c-11.5 0-20.8 9.3-20.8 20.8v346h-61v-346c0-11.5-9.3-20.8-20.8-20.8H566c-11.5 0-20.8 9.3-20.8 20.8v346h-61v-346c0-11.5-9.3-20.8-20.8-20.8h-99.3c-11.5 0-20.8 9.3-20.8 20.8v346h-61v-346c0-11.5-9.3-20.8-20.8-20.8h-99.3c-11.5-0.1-20.9 9.2-20.9 20.8z" fill="#4D4D4D" p-id="10227"></path></svg>