<?xml version="1.0" standalone="no"?><!DOCTYPE svg PUBLIC "-//W3C//DTD SVG 1.1//EN" "http://www.w3.org/Graphics/SVG/1.1/DTD/svg11.dtd"><svg t="1687257191536" class="icon" viewBox="0 0 1024 1024" version="1.1" xmlns="http://www.w3.org/2000/svg" p-id="23463" xmlns:xlink="http://www.w3.org/1999/xlink" width="200" height="200"><path d="M597.333333 947.2h-153.6c-29.866667 0-59.733333-25.6-59.733333-59.733333v-29.866667c-34.133333-12.8-68.266667-29.866667-98.133333-55.466667l-29.866667 21.333334c-25.6 17.066667-64 8.533333-81.066667-21.333334l-76.8-132.266666c-17.066667-25.6-8.533333-64 21.333334-81.066667l34.133333-17.066667c-4.266667-17.066667-4.266667-34.133333-4.266667-51.2 0-17.066667 0-34.133333 4.266667-46.933333l-42.666667-21.333333c-8.533333-12.8-21.333333-25.6-25.6-38.4 0-17.066667 0-34.133333 8.533334-46.933334L170.666667 234.666667c8.533333-12.8 17.066667-21.333333 34.133333-25.6 17.066667-4.266667 29.866667 0 42.666667 4.266666l38.4 21.333334c25.6-17.066667 55.466667-34.133333 85.333333-46.933334V136.533333c0-29.866667 25.6-59.733333 59.733333-59.733333h153.6c29.866667 0 59.733333 25.6 59.733334 59.733333v42.666667c29.866667 12.8 59.733333 25.6 89.6 46.933333l42.666666-25.6c25.6-17.066667 64-8.533333 81.066667 21.333334l76.8 132.266666c8.533333 12.8 8.533333 29.866667 4.266667 42.666667-4.266667 17.066667-12.8 25.6-25.6 34.133333l-29.866667 17.066667c4.266667 25.6 8.533333 46.933333 8.533333 68.266667 0 12.8 0 25.6-4.266666 38.4l34.133333 21.333333c25.6 17.066667 38.4 51.2 21.333333 81.066667L853.333333 789.333333c-8.533333 12.8-21.333333 21.333333-34.133333 25.6-17.066667 4.266667-29.866667 0-42.666667-4.266666l-25.6-12.8c-29.866667 25.6-59.733333 42.666667-98.133333 59.733333v34.133333c0 29.866667-25.6 55.466667-55.466667 55.466667z m-302.933333-209.066667l12.8 12.8c34.133333 29.866667 68.266667 51.2 110.933333 64l17.066667 4.266667v68.266667l157.866667 4.266666 4.266666-76.8 17.066667-8.533333c42.666667-12.8 76.8-38.4 110.933333-68.266667l12.8-12.8 59.733334 34.133334 81.066666-132.266667 12.8-29.866667-12.8 25.6-64-38.4 4.266667-17.066666c4.266667-17.066667 4.266667-34.133333 4.266667-46.933334 0-25.6-4.266667-51.2-8.533334-76.8l-4.266666-21.333333 64-38.4-76.8-136.533333-76.8 42.666666-12.8-12.8c-29.866667-25.6-64-42.666667-102.4-55.466666l-21.333334-4.266667V136.533333L426.666667 132.266667l-4.266667 93.866666-17.066667 4.266667c-34.133333 12.8-68.266667 34.133333-98.133333 59.733333l-12.8 12.8-72.533333-42.666666-81.066667 136.533333 76.8 46.933333-4.266667 17.066667c-4.266667 21.333333-4.266667 38.4-4.266666 59.733333 0 21.333333 0 42.666667 4.266666 59.733334l4.266667 21.333333-68.266667 38.4 76.8 136.533333 68.266667-38.4z" fill="#6A3906" p-id="23464"></path><path d="M512 512m-256 0a256 256 0 1 0 512 0 256 256 0 1 0-512 0Z" fill="#F5CB2B" p-id="23465"></path><path d="M512 640c-68.266667 0-128-55.466667-128-128 0-68.266667 55.466667-128 128-128 68.266667 0 128 55.466667 128 128 0 68.266667-59.733333 128-128 128z m0-200.533333c-38.4 0-72.533333 34.133333-72.533333 72.533333s34.133333 72.533333 72.533333 72.533333 72.533333-34.133333 72.533333-72.533333-34.133333-72.533333-72.533333-72.533333z" fill="#6A3906" p-id="23466"></path></svg>