<?xml version="1.0" standalone="no"?><!DOCTYPE svg PUBLIC "-//W3C//DTD SVG 1.1//EN" "http://www.w3.org/Graphics/SVG/1.1/DTD/svg11.dtd"><svg t="1687256917083" class="icon" viewBox="0 0 1024 1024" version="1.1" xmlns="http://www.w3.org/2000/svg" p-id="15187" xmlns:xlink="http://www.w3.org/1999/xlink" width="200" height="200"><path d="M484.608 176.1792v133.4784c0 27.1872-22.016 49.2032-49.2032 49.2032H325.632c-27.1872 0-49.2032-22.016-49.2032-49.2032V212.4288s-102.6048 91.4944-7.8336 197.376c22.2208 22.8864 50.3296 36.864 50.3296 103.7312v303.6672c0 44.5952 47.6672 74.752 86.8352 53.4528 25.7024-13.9776 47.1552-42.3424 47.1552-98.048V475.5968s160.512-131.1232 31.6928-299.4176zM767.232 889.1392h-3.328c-44.3392 0-80.2816-35.9424-80.2816-80.2816v-221.9008h163.8912v221.9008c0 44.3392-35.9424 80.2816-80.2816 80.2816z" fill="#FFB966" p-id="15188"></path><path d="M847.5136 491.8784h-81.6128V129.6384c0-16.9472-13.7728-30.72-30.72-30.72s-30.72 13.7728-30.72 30.72v362.24h-83.8656c-16.9472 0-30.72 13.7728-30.72 30.72v286.2592c0 61.2352 49.8176 111.0016 111.0016 111.0016h66.3552c61.2352 0 111.0016-49.8176 111.0016-111.0016v-286.2592c0-16.9984-13.7216-30.72-30.72-30.72z m-30.72 316.9792c0 27.3408-22.2208 49.5616-49.5616 49.5616h-66.3552c-27.3408 0-49.5616-22.2208-49.5616-49.5616v-255.5392h165.4784v255.5392zM433.664 104.448a30.7712 30.7712 0 0 0-42.8544 28.2624v131.8912H299.6224V132.6592c0-10.3424-5.1712-19.968-13.824-25.6512s-19.5072-6.656-29.0304-2.6112a224.62976 224.62976 0 0 0-136.192 206.592c0 76.032 37.5808 145.664 100.8128 187.4432v300.6464c0 67.1232 53.5552 123.648 119.3472 125.952 1.536 0.0512 3.0208 0.1024 4.5568 0.1024 32.256 0 62.6176-12.2368 85.9136-34.7136 24.4224-23.552 37.8368-55.1936 37.8368-89.088V498.432c63.232-41.7792 100.8128-111.4112 100.8128-187.4432A224.256 224.256 0 0 0 433.664 104.448z m-2.0992 345.088c-14.9504 9.3696-23.9104 25.4464-23.9104 43.0592v308.736c0 17.1008-6.7584 33.024-19.0464 44.9024-12.288 11.8784-28.4672 17.92-45.6192 17.4592-33.1264-1.1776-60.0576-30.1568-60.0576-64.5632V492.5952c0-17.6128-8.96-33.7408-23.9104-43.0592-48.1792-30.0544-76.9024-81.8688-76.9024-138.5472 0-48.128 21.0432-92.7744 56.1664-123.2384v107.5712c0 16.9472 13.7728 30.72 30.72 30.72h152.6784c16.9472 0 30.72-13.7728 30.72-30.72V187.6992a162.99008 162.99008 0 0 1 56.1664 123.2384c-0.1024 56.7296-28.8768 108.4928-77.0048 138.5984z" fill="#5D5D66" p-id="15189"></path></svg>