<?xml version="1.0" standalone="no"?><!DOCTYPE svg PUBLIC "-//W3C//DTD SVG 1.1//EN" "http://www.w3.org/Graphics/SVG/1.1/DTD/svg11.dtd"><svg t="1687257967386" class="icon" viewBox="0 0 1024 1024" version="1.1" xmlns="http://www.w3.org/2000/svg" p-id="7613" xmlns:xlink="http://www.w3.org/1999/xlink" width="200" height="200"><path d="M615.970133 168.721067l67.7888 7.9872-3.9936 33.911466c-10.308267 87.3472-75.554133 153.6512-165.410133 156.023467l-5.0176 0.068267h-34.133333v-68.266667h34.133333c54.6816 0 94.0032-37.751467 102.058667-91.648l0.580266-4.181333 3.9936-33.8944z" fill="#00B386" p-id="7614"></path><path d="M399.172267 426.410667a34.133333 34.133333 0 0 1 34.030933 31.573333l0.1024 2.56v45.2608a34.133333 34.133333 0 0 1-68.181333 2.56l-0.085334-2.56v-45.2608a34.133333 34.133333 0 0 1 34.133334-34.133333zM624.827733 426.410667a34.133333 34.133333 0 0 1 34.048 31.573333l0.085334 2.56v45.2608a34.133333 34.133333 0 0 1-68.164267 2.56l-0.1024-2.56v-45.2608a34.133333 34.133333 0 0 1 34.133333-34.133333z" fill="#444444" p-id="7615"></path><path d="M503.893333 119.517867c-171.8784 2.730667-321.0752 114.944-375.842133 275.677866l-2.525867 7.6288-3.908266 0.802134C61.678933 416.989867 17.066667 471.8592 17.066667 537.088l0.068266 4.232533c1.962667 66.133333 49.834667 120.797867 112.384 130.696534l1.877334 0.238933 0.597333 1.655467C190.6176 831.146667 340.104533 938.666667 510.3616 938.666667l6.621867-0.068267c165.205333-2.696533 309.8624-106.5472 369.322666-258.321067l2.850134-7.5776 1.314133-0.136533c65.8432-8.311467 116.462933-66.048 116.462933-135.509333l-0.068266-4.232534c-1.928533-64.750933-47.8208-118.459733-108.424534-129.9968l-3.464533-0.631466-0.1024-0.3584C841.335467 235.52 687.342933 119.4496 510.3616 119.4496l-6.468267 0.068267z m6.468267 68.1984c154.0608 0 287.402667 106.1888 325.461333 255.6416a34.133333 34.133333 0 0 0 35.106134 25.6512l3.1232-0.221867c35.396267 0 64.6144 30.293333 64.6144 68.266667s-29.218133 68.266667-64.6144 68.266666c-1.774933 0-3.84-0.1024-6.434134-0.341333a34.133333 34.133333 0 0 0-35.805866 24.132267C788.923733 771.413333 659.063467 870.4 510.3616 870.4c-148.650667 0-278.4768-98.901333-321.399467-241.134933a34.133333 34.133333 0 0 0-34.884266-24.183467l-4.130134 0.256c-35.396267 0-64.6144-30.293333-64.6144-68.266667l0.085334-3.5328c1.6896-35.1232 28.416-62.890667 61.2352-64.631466l3.720533-0.034134 0.631467 0.034134a34.133333 34.133333 0 0 0 33.9456-25.685334c38.0928-149.367467 171.4176-255.488 325.410133-255.488z" fill="#444444" p-id="7616"></path><path d="M587.758933 602.248533a34.133333 34.133333 0 0 1 48.759467 47.7696c-34.304 35.0208-79.9744 55.04-128.631467 55.04-46.523733 0-90.333867-18.295467-124.142933-50.602666a34.133333 34.133333 0 1 1 47.172267-49.339734c21.333333 20.394667 48.384 31.675733 76.970666 31.675734 29.917867 0 58.146133-12.373333 79.872-34.542934z" fill="#444444" p-id="7617"></path></svg>