<?xml version="1.0" standalone="no"?><!DOCTYPE svg PUBLIC "-//W3C//DTD SVG 1.1//EN" "http://www.w3.org/Graphics/SVG/1.1/DTD/svg11.dtd"><svg t="1687257809837" class="icon" viewBox="0 0 1024 1024" version="1.1" xmlns="http://www.w3.org/2000/svg" p-id="4795" xmlns:xlink="http://www.w3.org/1999/xlink" width="200" height="200"><path d="M696.814933 119.466667H326.741333a68.266667 68.266667 0 0 0-59.306666 34.440533l-185.019734 324.266667a68.266667 68.266667 0 0 0 0 67.652266l185.019734 324.266667A68.266667 68.266667 0 0 0 326.741333 904.533333h370.0736a68.266667 68.266667 0 0 0 59.255467-34.372266l185.463467-324.266667a68.266667 68.266667 0 0 0 0-67.7888l-185.463467-324.266667A68.266667 68.266667 0 0 0 696.832 119.466667z m-370.0736 68.266666h370.0736l185.463467 324.266667-185.463467 324.266667H326.741333L141.704533 512l185.0368-324.266667z" fill="#444444" p-id="4796"></path><path d="M512 358.4a153.6 153.6 0 1 0 0 307.2 153.6 153.6 0 0 0 0-307.2z m0 68.266667a85.333333 85.333333 0 1 1 0 170.666666 85.333333 85.333333 0 0 1 0-170.666666z" fill="#00B386" p-id="4797"></path></svg>