<?xml version="1.0" standalone="no"?><!DOCTYPE svg PUBLIC "-//W3C//DTD SVG 1.1//EN" "http://www.w3.org/Graphics/SVG/1.1/DTD/svg11.dtd"><svg t="1687257733829" class="icon" viewBox="0 0 1024 1024" version="1.1" xmlns="http://www.w3.org/2000/svg" p-id="4647" xmlns:xlink="http://www.w3.org/1999/xlink" width="200" height="200"><path d="M513.604267 200.362667l-1.604267 1.621333-1.604267-1.621333C426.717867 115.729067 297.642667 93.969067 198.144 152.029867c-148.855467 86.869333-173.329067 288.597333-55.3472 407.944533l320.6656 324.317867a68.266667 68.266667 0 0 0 93.7984 3.1232l3.140267-2.986667 320.802133-324.4544c117.981867-119.3472 93.525333-321.0752-55.3472-407.944533-99.498667-58.0608-228.573867-36.3008-312.251733 48.3328z m282.436266 13.397333c105.9328 65.621333 122.282667 211.5584 36.625067 298.222933L512 836.266667 191.3344 511.965867c-86.869333-87.893333-68.8128-236.765867 41.216-300.970667 71.68-41.8304 166.8608-25.770667 229.307733 37.376l25.873067 26.1632a34.133333 34.133333 0 0 0 48.5376 0l25.873067-26.1632c62.446933-63.146667 157.627733-79.2064 229.307733-37.376l4.590933 2.7648z" fill="#444444" p-id="4648"></path><path d="M312.797867 401.066667l156.893866 156.8768-48.2816 48.2816-156.8768-156.893867a34.133333 34.133333 0 1 1 48.264534-48.264533z" fill="#00B386" p-id="4649"></path></svg>