<?xml version="1.0" standalone="no"?><!DOCTYPE svg PUBLIC "-//W3C//DTD SVG 1.1//EN" "http://www.w3.org/Graphics/SVG/1.1/DTD/svg11.dtd"><svg t="1687257944396" class="icon" viewBox="0 0 1024 1024" version="1.1" xmlns="http://www.w3.org/2000/svg" p-id="7464" xmlns:xlink="http://www.w3.org/1999/xlink" width="200" height="200"><path d="M613.717333 282.385067L380.586667 447.214933a34.133333 34.133333 0 0 0-14.421334 26.5728l-9.6768 255.726934c-1.024 27.426133 29.064533 44.8 52.292267 30.190933l216.610133-136.260267a34.133333 34.133333 0 0 0 15.803734-25.770666l26.197333-284.279467c2.679467-29.013333-29.9008-47.837867-53.691733-31.010133z m-21.0944 98.491733l-17.851733 193.723733-147.626667 92.859734 6.6048-174.250667 158.8736-112.3328z" fill="#444444" p-id="7465"></path><path d="M399.291733 91.2384a34.133333 34.133333 0 0 1 17.288534 66.048C252.8256 200.174933 136.533333 348.791467 136.533333 520.533333c0 207.36 168.106667 375.466667 375.466667 375.466667 207.377067 0 375.466667-168.106667 375.466667-375.466667 0-28.910933-3.242667-57.361067-9.642667-84.974933a34.133333 34.133333 0 0 1 66.5088-15.394133c7.560533 32.648533 11.4176 66.269867 11.4176 100.369066 0 245.077333-198.656 443.733333-443.733333 443.733334S68.266667 765.610667 68.266667 520.533333C68.266667 317.559467 205.687467 141.943467 399.291733 91.2384z" fill="#444444" p-id="7466"></path><path d="M512 76.8A443.6992 443.6992 0 0 1 908.561067 321.194667l3.242666 6.587733-61.474133 29.696A375.466667 375.466667 0 0 0 519.031467 145.117867L512 145.066667v-68.266667z" fill="#00B386" p-id="7467"></path></svg>