<?xml version="1.0" standalone="no"?><!DOCTYPE svg PUBLIC "-//W3C//DTD SVG 1.1//EN" "http://www.w3.org/Graphics/SVG/1.1/DTD/svg11.dtd"><svg t="1687257329820" class="icon" viewBox="0 0 1024 1024" version="1.1" xmlns="http://www.w3.org/2000/svg" p-id="28741" xmlns:xlink="http://www.w3.org/1999/xlink" width="200" height="200"><path d="M512 896c-211.776 0-384-172.224-384-384s172.224-384 384-384 384 172.224 384 384-172.224 384-384 384zM512 192C335.552 192 192 335.552 192 512s143.552 320 320 320 320-143.552 320-320-143.552-320-320-320z" fill="#979797" p-id="28742"></path><path d="M448 672a32 32 0 0 1-32-32V384a32 32 0 1 1 49.984-26.496l192 129.792a31.872 31.872 0 0 1-0.448 53.248l-192 126.208A31.616 31.616 0 0 1 448 672z m32-227.776v136.448l102.336-67.264L480 444.224z" fill="#F5A623" p-id="28743"></path></svg>