<?xml version="1.0" standalone="no"?><!DOCTYPE svg PUBLIC "-//W3C//DTD SVG 1.1//EN" "http://www.w3.org/Graphics/SVG/1.1/DTD/svg11.dtd"><svg t="1687249037553" class="icon" viewBox="0 0 1024 1024" version="1.1" xmlns="http://www.w3.org/2000/svg" p-id="34911" xmlns:xlink="http://www.w3.org/1999/xlink" width="200" height="200"><path d="M513 511.8m-446.2 0a446.2 446.2 0 1 0 892.4 0 446.2 446.2 0 1 0-892.4 0Z" fill="#75EAE4" p-id="34912"></path><path d="M513 978c-62.9 0-124-12.3-181.5-36.6-55.5-23.5-105.4-57.1-148.2-99.9-42.8-42.8-76.4-92.7-99.9-148.2-24.3-57.5-36.6-118.5-36.6-181.5 0-62.9 12.3-124 36.6-181.5 23.5-55.5 57.1-105.4 99.9-148.2s92.7-76.4 148.2-99.9C389 57.9 450.1 45.6 513 45.6c62.9 0 124 12.3 181.5 36.6 55.5 23.5 105.4 57.1 148.2 99.9 42.8 42.8 76.4 92.7 99.9 148.2 24.3 57.5 36.6 118.5 36.6 181.5 0 62.9-12.3 124-36.6 181.5-23.5 55.5-57.1 105.4-99.9 148.2-42.8 42.8-92.7 76.4-148.2 99.9C637 965.7 575.9 978 513 978z m0-892.4c-57.5 0-113.4 11.3-165.9 33.5-50.8 21.5-96.3 52.2-135.5 91.3-39.1 39.1-69.9 84.7-91.3 135.5-22.2 52.5-33.5 108.3-33.5 165.9s11.3 113.4 33.5 165.9c21.5 50.8 52.2 96.3 91.3 135.5 39.1 39.1 84.7 69.9 135.5 91.3C399.6 926.7 455.5 938 513 938s113.4-11.3 165.9-33.5c50.8-21.5 96.3-52.2 135.5-91.3 39.1-39.1 69.9-84.7 91.3-135.5 22.2-52.5 33.5-108.3 33.5-165.9s-11.3-113.4-33.5-165.9c-21.5-50.8-52.2-96.3-91.3-135.5-39.1-39.1-84.7-69.9-135.5-91.3C626.4 96.9 570.5 85.6 513 85.6z" fill="#05C4CE" p-id="34913"></path><path d="M85.9 486a427.1 420.4 0 1 0 854.2 0 427.1 420.4 0 1 0-854.2 0Z" fill="#FFFFFF" p-id="34914"></path><path d="M230.444592 274.830402a28.1 53.1 87.699 1 0 106.11437-4.263848 28.1 53.1 87.699 1 0-106.11437 4.263848Z" fill="#75EAE4" p-id="34915"></path><path d="M687.2428 256.431161a28.1 53.1 87.699 1 0 106.11437-4.263848 28.1 53.1 87.699 1 0-106.11437 4.263848Z" fill="#75EAE4" p-id="34916"></path><path d="M513 978c-62.9 0-124-12.3-181.5-36.6-55.5-23.5-105.4-57.1-148.2-99.9-42.8-42.8-76.4-92.7-99.9-148.2-24.3-57.5-36.6-118.5-36.6-181.5 0-62.9 12.3-124 36.6-181.5 23.5-55.5 57.1-105.4 99.9-148.2s92.7-76.4 148.2-99.9C389 57.9 450.1 45.6 513 45.6c62.9 0 124 12.3 181.5 36.6 55.5 23.5 105.4 57.1 148.2 99.9 42.8 42.8 76.4 92.7 99.9 148.2 24.3 57.5 36.6 118.5 36.6 181.5 0 62.9-12.3 124-36.6 181.5-23.5 55.5-57.1 105.4-99.9 148.2-42.8 42.8-92.7 76.4-148.2 99.9C637 965.7 575.9 978 513 978z m0-892.4c-57.5 0-113.4 11.3-165.9 33.5-50.8 21.5-96.3 52.2-135.5 91.3-39.1 39.1-69.9 84.7-91.3 135.5-22.2 52.5-33.5 108.3-33.5 165.9s11.3 113.4 33.5 165.9c21.5 50.8 52.2 96.3 91.3 135.5 39.1 39.1 84.7 69.9 135.5 91.3C399.6 926.7 455.5 938 513 938s113.4-11.3 165.9-33.5c50.8-21.5 96.3-52.2 135.5-91.3 39.1-39.1 69.9-84.7 91.3-135.5 22.2-52.5 33.5-108.3 33.5-165.9s-11.3-113.4-33.5-165.9c-21.5-50.8-52.2-96.3-91.3-135.5-39.1-39.1-84.7-69.9-135.5-91.3C626.4 96.9 570.5 85.6 513 85.6z" fill="#05C4CE" p-id="34917"></path><path d="M603.8 200.7a36.2 39.6 0 1 0 72.4 0 36.2 39.6 0 1 0-72.4 0Z" fill="#05C4CE" p-id="34918"></path><path d="M396 200.7l25.1-16.5 25.2 16.5" fill="#FFFFFF" p-id="34919"></path><path d="M446.3 220.7c-3.8 0-7.6-1.1-11-3.3l-14.2-9.3-14.2 9.3c-9.2 6.1-21.6 3.5-27.7-5.7-6.1-9.2-3.5-21.6 5.7-27.7l25.1-16.5c6.7-4.4 15.3-4.4 22 0l25.1 16.5c9.2 6.1 11.8 18.5 5.7 27.7-3.6 5.8-10 9-16.5 9z" fill="#05C4CE" p-id="34920"></path><path d="M525.2 369.1c-42 0-76.2-34.2-76.2-76.2 0-11 9-20 20-20s20 9 20 20c0 20 16.2 36.2 36.2 36.2 20 0 36.2-16.2 36.2-36.2 0-11 9-20 20-20s20 9 20 20c0 42-34.2 76.2-76.2 76.2z" fill="#05C4CE" p-id="34921"></path></svg>