<svg width="12" height="24" viewBox="0 0 12 24" fill="none" xmlns="http://www.w3.org/2000/svg">
<g id="public/ic_public_small_putaway">
<path id="&#232;&#183;&#175;&#229;&#190;&#132;" d="M4.24827 5.78386L4.28033 5.81412L9.23008 10.7639C9.89926 11.433 9.9132 12.5093 9.2719 13.1955L9.23008 13.2387L4.28033 18.1885C4.15146 18.3174 3.98735 18.3895 3.81902 18.405L3.77303 18.4078L3.72697 18.4078C3.54278 18.4022 3.36026 18.3291 3.21967 18.1885C2.93724 17.9061 2.92715 17.4544 3.18941 17.1599L3.21967 17.1278L7.81586 12.5316C8.0983 12.2492 8.10838 11.7976 7.84612 11.503L7.81586 11.471L3.21967 6.87478C2.92678 6.58188 2.92678 6.10701 3.21967 5.81412C3.36089 5.6729 3.54441 5.59977 3.72944 5.59473L3.7757 5.59488C3.94529 5.60066 4.11328 5.66365 4.24827 5.78386Z" fill="black" fill-opacity="0.4"/>
</g>
</svg>
