<svg width="12" height="24" viewBox="0 0 12 24" fill="none" xmlns="http://www.w3.org/2000/svg">
<g id="public/ic_public_small_putaway">
<path id="&#232;&#183;&#175;&#229;&#190;&#132;" d="M7.75173 5.78386L7.71967 5.81412L2.76992 10.7639C2.10074 11.433 2.0868 12.5093 2.7281 13.1955L2.76992 13.2387L7.71967 18.1885C7.84854 18.3174 8.01265 18.3895 8.18098 18.405L8.22697 18.4078L8.27303 18.4078C8.45722 18.4022 8.63974 18.3291 8.78033 18.1885C9.06276 17.9061 9.07285 17.4544 8.81059 17.1599L8.78033 17.1278L4.18414 12.5316C3.9017 12.2492 3.89162 11.7976 4.15388 11.503L4.18414 11.471L8.78033 6.87478C9.07322 6.58188 9.07322 6.10701 8.78033 5.81412C8.63911 5.6729 8.45559 5.59977 8.27056 5.59473L8.2243 5.59488C8.05471 5.60066 7.88672 5.66365 7.75173 5.78386Z" fill="black" fill-opacity="0.4"/>
</g>
</svg>
