<?xml version="1.0" encoding="UTF-8"?>
<svg width="24px" height="24px" viewBox="0 0 24 24" version="1.1" xmlns="http://www.w3.org/2000/svg" xmlns:xlink="http://www.w3.org/1999/xlink">
    <title>ic_docs</title>
    <defs>
        <path d="M14.75,1 L14.75,1.001 L21,7.25 L21,20 C21,21.6568542 19.6568542,23 18,23 L6,23 C4.34314575,23 3,21.6568542 3,20 L3,4 C3,2.34314575 4.34314575,1 6,1 L14.75,1 Z M13.25,2.499 L6,2.5 C5.17157288,2.5 4.5,3.17157288 4.5,4 L4.5,20 C4.5,20.8284271 5.17157288,21.5 6,21.5 L18,21.5 C18.8284271,21.5 19.5,20.8284271 19.5,20 L19.5,8.75 L15.5,8.75 C14.2573593,8.75 13.25,7.74264069 13.25,6.5 L13.25,2.499 Z M16.5,14.75 C16.9142136,14.75 17.25,15.0857864 17.25,15.5 C17.25,15.9142136 16.9142136,16.25 16.5,16.25 L7.5,16.25 C7.08578644,16.25 6.75,15.9142136 6.75,15.5 C6.75,15.0857864 7.08578644,14.75 7.5,14.75 L16.5,14.75 Z M11.5,10.5 C11.9142136,10.5 12.25,10.8357864 12.25,11.25 C12.25,11.6642136 11.9142136,12 11.5,12 L7.5,12 C7.08578644,12 6.75,11.6642136 6.75,11.25 C6.75,10.8357864 7.08578644,10.5 7.5,10.5 L11.5,10.5 Z M14.75,3.121 L14.75,6.5 C14.75,6.91421356 15.0857864,7.25 15.5,7.25 L18.879,7.25 L14.75,3.121 Z" id="path-1"></path>
    </defs>
    <g id="ic_docs" stroke="none" stroke-width="1" fill="none" fill-rule="evenodd">
        <mask id="mask-2" fill="white">
            <use xlink:href="#path-1"></use>
        </mask>
        <use id="合并形状" fill-opacity="0.6" fill="#182431" fill-rule="nonzero" xlink:href="#path-1"></use>
    </g>
</svg>