<?xml version="1.0" encoding="UTF-8"?>
<svg width="24px" height="24px" viewBox="0 0 24 24" version="1.1" xmlns="http://www.w3.org/2000/svg" xmlns:xlink="http://www.w3.org/1999/xlink">
    <title>ic_picture</title>
    <defs>
        <path d="M18.9585062,2.01869159 C20.6153605,2.01869159 21.9585062,3.36183734 21.9585062,5.01869159 L21.9584938,17.0416916 L21.9652216,18.9654155 L21.9534135,19.1326591 C21.8621671,20.7074663 20.5561871,21.9563863 18.9585062,21.9563863 L5.04149378,21.9563863 C3.38463953,21.9563863 2.04149378,20.6132405 2.04149378,18.9563863 L2.04149378,5.01869159 C2.04149378,3.36183734 3.38463953,2.01869159 5.04149378,2.01869159 L18.9585062,2.01869159 Z M14.1128103,12.0182811 L5.68349378,20.4556916 L18.9585062,20.4563863 C19.7869333,20.4563863 20.4585062,19.7848134 20.4585062,18.9563863 L20.4584938,17.6626916 L14.8202839,12.0182811 C14.6245535,11.8227533 14.3079711,11.8229176 14.1128103,12.0182811 Z M18.9585062,3.51869159 L5.04149378,3.51869159 C4.21306665,3.51869159 3.54149378,4.19026446 3.54149378,5.01869159 L3.54149378,18.9563863 C3.54149378,19.3761836 3.71394404,19.755703 3.99186752,20.0279675 L13.0515998,10.9581715 C13.832243,10.1767177 15.0985728,10.1760605 15.8800266,10.9567037 L20.4584938,15.5396916 L20.4585062,5.01869159 C20.4585062,4.19026446 19.7869333,3.51869159 18.9585062,3.51869159 Z M7.5186722,6.00623053 C8.34348548,6.00623053 9.01244813,6.67563863 9.01244813,7.50155763 C9.01244813,8.32722741 8.34348548,8.99688474 7.5186722,8.99688474 C6.69385892,8.99688474 6.02489627,8.32722741 6.02489627,7.50155763 C6.02489627,6.67563863 6.69385892,6.00623053 7.5186722,6.00623053 Z" id="path-1"></path>
    </defs>
    <g id="ic_picture" stroke="none" stroke-width="1" fill="none" fill-rule="evenodd">
        <g id="symbol/frame/symbol_grid24"></g>
        <mask id="mask-2" fill="white">
            <use xlink:href="#path-1"></use>
        </mask>
        <use id="Combined-Shape" fill="#182431" xlink:href="#path-1"></use>
    </g>
</svg>