<?xml version="1.0" encoding="UTF-8"?>
<svg width="24px" height="24px" viewBox="0 0 24 24" version="1.1" xmlns="http://www.w3.org/2000/svg" xmlns:xlink="http://www.w3.org/1999/xlink">
    <title>ic_saveas</title>
    <defs>
        <path d="M19,2 C20.6568542,2 22,3.34314575 22,5 L22,16 C22,17.486255 20.9192103,18.7200781 19.5006962,18.9584039 L19.5,19 C19.5,20.6568542 18.1568542,22 16.5,22 L5,22 C3.34314575,22 2,20.6568542 2,19 L2,7.5 C2,5.84314575 3.34314575,4.5 5,4.5 L5.0414298,4.50029469 C5.27934741,3.08129303 6.51339894,2 8,2 L19,2 Z M16.5,6 L5,6 C4.17157288,6 3.5,6.67157288 3.5,7.5 L3.5,19 C3.5,19.8284271 4.17157288,20.5 5,20.5 L16.5,20.5 C17.3284271,20.5 18,19.8284271 18,19 L18,7.5 C18,6.67157288 17.3284271,6 16.5,6 Z M10.75,8.5 C11.1642136,8.5 11.5,8.83578644 11.5,9.25 L11.5,12.5 L14.75,12.5 C15.1642136,12.5 15.5,12.8357864 15.5,13.25 C15.5,13.6642136 15.1642136,14 14.75,14 L11.5,14 L11.5,17.25 C11.5,17.6642136 11.1642136,18 10.75,18 C10.3357864,18 10,17.6642136 10,17.25 L10,14 L6.75,14 C6.33578644,14 6,13.6642136 6,13.25 C6,12.8357864 6.33578644,12.5 6.75,12.5 L10,12.5 L10,9.25 C10,8.83578644 10.3357864,8.5 10.75,8.5 Z M19,3.5 L8,3.5 C7.37858219,3.5 6.84542259,3.87787826 6.6177703,4.41638567 L6.446,4.5 L16.5,4.5 C18.1568542,4.5 19.5,5.84314575 19.5,7.5 L19.5018115,17.5524263 C19.5298841,17.4954305 19.5574163,17.4381207 19.5844015,17.3805035 C20.1225957,17.1539084 20.5,16.621028 20.5,16 L20.5,5 C20.5,4.17157288 19.8284271,3.5 19,3.5 Z" id="path-1"></path>
    </defs>
    <g id="ic_saveas" stroke="none" stroke-width="1" fill="none" fill-rule="evenodd">
        <mask id="mask-2" fill="white">
            <use xlink:href="#path-1"></use>
        </mask>
        <use id="合并形状" fill="#182431" fill-rule="nonzero" xlink:href="#path-1"></use>
    </g>
</svg>