<?xml version="1.0" encoding="UTF-8"?>
<svg width="24px" height="24px" viewBox="0 0 24 24" version="1.1" xmlns="http://www.w3.org/2000/svg" xmlns:xlink="http://www.w3.org/1999/xlink">
    <title>ic_save</title>
    <defs>
        <path d="M19,2 C20.65675,2 22,3.34325 22,5 L22,19 C22,20.65675 20.65675,22 19,22 L5,22 C3.34325,22 2,20.65675 2,19 L2,5 C2,3.34325 3.34325,2 5,2 Z M6.5,3.5 L5,3.5 C4.17275,3.5 3.5,4.17275 3.5,5 L3.5,19 C3.5,19.82725 4.17275,20.5 5,20.5 L19,20.5 C19.82725,20.5 20.5,19.82725 20.5,19 L20.5,5 C20.5,4.17275 19.82725,3.5 19,3.5 L17.5,3.5 L17.5,7.75 C17.5,8.85275 16.57175,9.75 15.43075,9.75 L8.56925,9.75 C7.42825,9.75 6.5,8.85275 6.5,7.75 L6.5,3.5 Z M16.75,15.75 C17.16425,15.75 17.5,16.08575 17.5,16.5 C17.5,16.91425 17.16425,17.25 16.75,17.25 L7.25,17.25 C6.83575,17.25 6.5,16.91425 6.5,16.5 C6.5,16.08575 6.83575,15.75 7.25,15.75 Z M16,3.5 L8,3.5 L8,7.75 C8,8.02575 8.25525,8.25 8.56925,8.25 L15.43075,8.25 C15.74475,8.25 16,8.02575 16,7.75 L16,3.5 Z" id="path-1"></path>
    </defs>
    <g id="ic_save" stroke="none" stroke-width="1" fill="none" fill-rule="evenodd">
        <mask id="mask-2" fill="white">
            <use xlink:href="#path-1"></use>
        </mask>
        <use id="形状结合" fill="#182431" xlink:href="#path-1"></use>
    </g>
</svg>