<?xml version="1.0" encoding="UTF-8"?>
<svg width="24px" height="24px" viewBox="0 0 24 24" version="1.1" xmlns="http://www.w3.org/2000/svg" xmlns:xlink="http://www.w3.org/1999/xlink">
    <title>ic_service</title>
    <defs>
        <path d="M11.7813297,16.4440304 C12.3182639,16.7954082 12.961606,17 13.6534091,17 L14.9090909,17 L14.9607367,17.0017785 C15.1491966,17.0147776 15.3265691,17.0985564 15.4565541,17.2373754 L17.7974632,19.7373754 L17.8288053,19.7730063 C18.078954,20.0759567 18.0533512,20.5252375 17.7626246,20.7974632 L17.7269937,20.8288053 C17.4240433,21.078954 16.9747625,21.0533512 16.7025368,20.7626246 L14.58425,18.5 L13.567193,18.4992614 C12.4934607,18.4808506 11.5035477,18.1192079 10.7039791,17.5198057 L11.7813297,16.4440304 Z M20.0009632,9.1313553 C21.762715,9.87025897 23,11.6033984 23,13.625 C23,16.3185448 20.803521,18.5 18.0965909,18.5 L18,18.5 L17.9559318,18.4987268 C17.56223,18.4759152 17.25,18.1494202 17.25,17.75 C17.25,17.3357864 17.5857864,17 18,17 L18.1747471,16.999128 C20.0193908,16.9579269 21.5,15.4619321 21.5,13.625 C21.5,12.3860476 20.8264598,11.30219 19.8219676,10.7151816 C19.9211214,10.2796083 19.9805198,9.82893797 19.9959563,9.36723755 L20.0009632,9.1313553 Z M12.875,3 C16.2577441,3 19,5.74225591 19,9.125 C19,12.432572 16.3782679,15.1278057 13.0995443,15.2459605 L12.875,15.25 L11.56,15.25 L8.53033009,18.2803301 C8.26406352,18.5465966 7.84739984,18.5708027 7.55378835,18.3529482 L7.46966991,18.2803301 C7.20340335,18.0140635 7.1791973,17.5973998 7.39705176,17.3037883 L7.46966991,17.2196699 L10.7196699,13.9696699 C10.8321917,13.8571481 10.976786,13.7840724 11.1319659,13.7593431 L11.25,13.75 L12.875,13.75 C15.429317,13.75 17.5,11.679317 17.5,9.125 C17.5,6.64163628 15.5427572,4.61541112 13.0867062,4.50475923 L12.875,4.5 L7.125,4.5 C4.57068303,4.5 2.5,6.57068303 2.5,9.125 C2.5,11.6083637 4.45724284,13.6345889 6.91329379,13.7452408 L7.125,13.75 L7.25,13.75 C7.66421356,13.75 8,14.0857864 8,14.5 C8,14.8796958 7.71784612,15.193491 7.35177056,15.2431534 L7.25,15.25 L7.125,15.25 C3.74225591,15.25 1,12.5077441 1,9.125 C1,5.817428 3.62173207,3.12219433 6.90045566,3.00403954 L7.125,3 L12.875,3 Z" id="path-1"></path>
    </defs>
    <g id="ic_service" stroke="none" stroke-width="1" fill="none" fill-rule="evenodd">
        <mask id="mask-2" fill="white">
            <use xlink:href="#path-1"></use>
        </mask>
        <use id="形状结合" fill-opacity="0.6" fill="#182431" fill-rule="nonzero" xlink:href="#path-1"></use>
    </g>
</svg>