<?xml version="1.0" encoding="UTF-8"?>
<svg width="24px" height="24px" viewBox="0 0 24 24" version="1.1" xmlns="http://www.w3.org/2000/svg" xmlns:xlink="http://www.w3.org/1999/xlink">
    <title>ic_Shopping</title>
    <g id="ic_Shopping" stroke="none" stroke-width="1" fill="none" fill-rule="evenodd" opacity="0.6">
        <path d="M22.4371486,6.80918249 C22.9237948,7.44317333 23.1074298,8.26198086 22.9387181,9.04562441 L22.1918634,16.1622822 C21.9064308,17.4353337 20.8686438,18.2783003 19.6658668,18.2783003 L8.22271152,18.2783003 C7.01663474,18.2783003 5.957949,17.3970423 5.70716423,16.1866999 L4.31794857,4.42290454 C4.23545358,4.04220996 3.87797527,3.74919722 3.47209991,3.74919722 L1.84529867,3.74919722 C1.38167682,3.74919722 1,3.36073338 1,2.8823679 C1,2.40233755 1.38167682,2 1.84529867,2 L3.47209991,2 C4.67762673,2 5.73686243,2.88181296 5.9876472,4.09160037 L7.37686286,15.8553958 C7.45935785,16.2360903 7.81683616,16.5291031 8.22271152,16.5291031 L19.6686166,16.5291031 C20.0797612,16.530834 20.4343248,16.2380028 20.5139153,15.830978 L21.26077,8.71432024 C21.3328156,8.39688977 21.2739692,8.11497601 21.1062293,7.8957714 C20.9444644,7.68122046 20.6930826,7.55469861 20.4259207,7.55336825 L9.00421406,7.55336825 C8.54004224,7.55336825 8.1583654,7.16212965 8.15836542,6.68598396 C8.15836542,6.20928332 8.54004224,5.81804473 9.00421406,5.81804473 L20.4231708,5.81804473 C21.2096231,5.81804473 21.9487782,6.18431065 22.4371486,6.80918249 Z M18.5989316,21.548611 C18.5886538,21.0131094 18.8658948,20.513787 19.3238532,20.2429975 C19.7818117,19.9722081 20.3490234,19.9722081 20.8069819,20.2429975 C21.2649403,20.513787 21.5421813,21.0131094 21.5319035,21.548611 C21.5164324,22.3546973 20.8644174,23 20.0654175,23 C19.2664177,23 18.6144027,22.3546973 18.5989316,21.548611 L18.5989316,21.548611 Z M6.86649385,21.548611 C6.85621604,21.0131094 7.13345704,20.513787 7.59141549,20.2429975 C8.04937393,19.9722081 8.6165857,19.9722081 9.07454414,20.2429975 C9.53250259,20.513787 9.80974359,21.0131094 9.79946578,21.548611 C9.78399466,22.3546973 9.13197964,23 8.33297982,23 C7.53397999,23 6.88196497,22.3546973 6.86649385,21.548611 L6.86649385,21.548611 Z" id="形状" fill="#182431" fill-rule="nonzero"></path>
    </g>
</svg>