<?xml version="1.0" encoding="utf-8"?>
<!-- Generator: Adobe Illustrator 21.0.0, SVG Export Plug-In . SVG Version: 6.00 Build 0)  -->
<svg version="1.1"
     id="图层_1"
     xmlns="http://www.w3.org/2000/svg"
     xmlns:xlink="http://www.w3.org/1999/xlink"
     x="0px"
     y="0px"
     viewBox="0 0 48 48"
     style="enable-background:new 0 0 48 48;"
     xml:space="preserve">
<style type="text/css">
	.st0{fill:#007DFF;}
</style>
<g>
	<path
        class="st0"
        d="M32.8,10.6c-0.4-0.4-0.8-0.5-1.3-0.5s-1,0.2-1.3,0.5l-4.6,4.6c-0.7,0.7-0.7,1.9,0,2.6l4.6,4.6c0.4,0.4,0.8,0.5,1.3,0.5
		s1-0.2,1.3-0.5l4.6-4.6c0.7-0.7,0.7-1.9,0-2.6L32.8,10.6z M36.7,17.2l-4.6,4.6c-0.2,0.2-0.4,0.3-0.6,0.3S31,22,30.9,21.8l-4.6-4.6
		c-0.3-0.3-0.3-0.9,0-1.2l4.6-4.6c0.2-0.2,0.4-0.3,0.6-0.3s0.5,0.1,0.6,0.3l4.6,4.6C37.1,16.3,37.1,16.8,36.7,17.2z"/>
        <path
            class="st0"
            d="M19,10.1h-5c-2.2,0-4,1.8-4,4v5c0,2.2,1.8,4,4,4h9v-9C23,11.8,21.2,10.1,19,10.1z M22,22.1h-8c-1.7,0-3-1.3-3-3v-5
		c0-1.7,1.3-3,3-3h5c1.7,0,3,1.3,3,3V22.1z"/>
        <path
            class="st0"
            d="M10,29.1v5c0,2.2,1.8,4,4,4h5c2.2,0,4-1.8,4-4v-9h-9C11.8,25.1,10,26.8,10,29.1z M22,34.1c0,1.7-1.3,3-3,3h-5
		c-1.7,0-3-1.3-3-3v-5c0-1.7,1.3-3,3-3h8V34.1z"/>
        <path
            class="st0"
            d="M34,25.1h-9v9c0,2.2,1.8,4,4,4h5c2.2,0,4-1.8,4-4v-5C38,26.8,36.2,25.1,34,25.1z M37,34.1c0,1.7-1.3,3-3,3h-5
		c-1.7,0-3-1.3-3-3v-8h8c1.7,0,3,1.3,3,3V34.1z"/>
</g>
</svg>
