<?xml version="1.0" encoding="utf-8"?>
<!-- Generator: Adobe Illustrator 21.0.0, SVG Export Plug-In . SVG Version: 6.00 Build 0)  -->
<svg version="1.1"
     id="图层_1"
     xmlns="http://www.w3.org/2000/svg"
     xmlns:xlink="http://www.w3.org/1999/xlink"
     x="0px"
     y="0px"
     viewBox="0 0 48 48"
     style="enable-background:new 0 0 48 48;"
     xml:space="preserve">
<style type="text/css">
	.st0{fill:#007DFF;}
</style>
    <path
        class="st0"
        d="M27.7,16l0.1-0.1H13.9c-1.9,0-3.5,1.5-3.5,3.5v13.9c0,1.9,1.5,3.5,3.5,3.5
	h13.8c1.9,0,3.5-1.5,3.5-3.5V19.4C31.1,17.5,29.5,16,27.7,16z M30.2,33.3c0,1.4-1.1,2.5-2.5,2.5H13.9c-1.3-0.1-2.4-1.2-2.4-2.5V19.4
	c0-1.4,1.1-2.5,2.5-2.5c0,0,0,0,0,0h13.8l-0.1,0c1.4,0,2.5,1.1,2.5,2.5V33.3z M34.3,11.3h-12c-0.9,0-1.7,0.3-2.3,0.9
	c-0.1,0.2,0,0.4,0.3,0.5c0.1,0,0.3,0,0.4-0.1c0.4-0.4,1-0.6,1.6-0.5h12c1.8,0,2.5,0.9,2.5,2.7v10.8c0,1.8-0.7,2.5-2.5,2.5h-1.5
	c-0.2,0.1-0.4,0.3-0.3,0.5c0,0.2,0.2,0.3,0.3,0.3h1.5c2.5,0,3.3-0.9,3.3-3.2V15C37.6,12.6,36.5,11.3,34.3,11.3z"/>
</svg>
